<svg width="180" height="181" viewBox="0 0 180 181" fill="none" xmlns="http://www.w3.org/2000/svg">
<g clip-path="url(#clip0_10103_4339)">
<path d="M111.332 158.314C107.12 156.467 97.1248 121.249 97.1248 121.249L105.851 119.137C105.851 119.137 112.981 119.771 115.025 117.718C117.069 115.666 128.774 101.508 128.774 101.508L157.663 148.819C157.663 148.819 133.121 167.876 111.332 158.314Z" fill="#0FA6A6"/>
<path d="M32.6479 124.69L72.6095 43.2022L79.3377 35.4392L80.2777 38.5843C80.2777 38.5843 86.7349 31.0339 89.0414 30.953C91.348 30.8722 91.873 31.7938 91.6853 35.349C91.4958 38.9041 96.2548 36.3346 96.2548 36.3346C96.2548 36.3346 97.5398 33.0297 98.5898 35.981C99.6397 38.9323 96.776 43.8398 96.776 43.8398L106.44 38.9379L106.889 44.6129L95.6957 58.5776L65.362 146.285C65.362 146.285 39.7476 143.863 32.6479 124.69Z" fill="#6FCFA1" stroke="#6FCFA1" stroke-miterlimit="10"/>
<path d="M129.485 23.053L96.9391 56.7194L77.0464 92.0617C77.0464 92.0617 71.3701 99.0911 75.407 99.1663C79.4439 99.2435 89.142 93.5684 89.142 93.5684L79.0876 113.362L81.8149 115.198L90.319 105.797L85.6054 118.332L89.4869 119L94.6591 115.036L95.4949 120.2L99.4276 120.461L103.919 118.127L107.23 118.894L119.474 109.183L154.716 52.5586L160.536 30.9533C160.535 30.9571 139.62 16.5316 129.485 23.053Z" fill="#AFE8D9" stroke="#AFE8D9" stroke-miterlimit="10"/>
<path d="M18.6553 53.2845C18.6553 53.2845 53.7309 69.6399 57.7014 73.6314C61.6739 77.621 84.5686 93.1977 84.5686 93.1977C84.5686 93.1977 102.206 99.7003 103.707 99.9655C105.208 100.231 106.988 99.0269 106.988 99.0269L102.883 91.0985L108.784 93.7037C108.784 93.7037 108.993 91.437 111.303 89.7065C114.682 87.1709 112.895 82.173 112.895 82.173L100.284 68.357C100.284 68.357 107.136 73.0313 109.914 72.7492C112.692 72.467 111.121 68.989 109.535 66.9086C107.947 64.8263 48.7293 29.2451 48.7293 29.2451C48.7293 29.2451 20.3421 42.3859 18.6553 53.2845Z" fill="white"/>
<path d="M127.155 23.224C124.739 25.0147 122.385 26.8863 120.101 28.8388C117.838 30.7744 115.642 32.7889 113.519 34.875C111.387 36.9723 109.328 39.143 107.35 41.3814C105.371 43.6217 103.472 45.9297 101.653 48.2998C99.8426 50.6585 98.1141 53.0813 96.4747 55.5605C96.2663 55.8765 96.0597 56.1925 95.8531 56.5104C95.5214 57.0201 96.3421 57.4923 96.6718 56.9844C98.2828 54.5033 99.9791 52.0749 101.759 49.7105C103.531 47.3555 105.39 45.0663 107.323 42.8411C109.266 40.6064 111.288 38.4376 113.382 36.3403C115.477 34.2448 117.643 32.219 119.879 30.2721C122.104 28.3347 124.398 26.4706 126.755 24.6912C127.047 24.4711 127.341 24.2529 127.635 24.0347C127.839 23.8823 127.944 23.6284 127.805 23.3914C127.686 23.192 127.362 23.0697 127.155 23.224Z" fill="#222221"/>
<path d="M77.0804 89.9435C77.1657 89.7667 77.2586 89.5974 77.3628 89.43C77.685 88.9127 76.8738 88.4481 76.5441 88.956C75.5093 90.553 74.3873 92.0879 73.5117 93.7827C72.6777 95.3985 71.7358 97.5409 72.4749 99.3561C72.7858 100.118 73.4358 100.804 74.2337 101.066C74.9407 101.297 75.7348 101.181 76.4322 100.981C78.3749 100.43 80.1489 99.247 81.7826 98.1015C82.7359 97.4337 83.6627 96.7302 84.5781 96.0117C85.1751 95.5433 85.8896 94.9602 86.4203 94.5539C86.1834 94.4184 85.9446 94.283 85.7076 94.1476C85.5598 97.0462 83.5395 99.39 82.1294 101.792C80.5146 104.546 79.0003 107.399 77.8613 110.383C77.3969 111.602 76.8094 112.977 76.9099 114.308C77.0046 115.559 77.8309 116.503 79.1254 116.603C80.4673 116.708 81.6916 115.984 82.6373 115.108C83.7574 114.068 84.6596 112.785 85.6129 111.6C88.071 108.541 90.5311 105.483 92.9892 102.424C92.741 102.234 92.4927 102.044 92.2444 101.854C91.0333 103.748 90.3037 105.885 89.2082 107.841C88.0654 109.88 86.4658 111.673 85.0254 113.507C84.2957 114.436 83.5433 115.362 82.8894 116.345C82.3322 117.186 81.9171 118.221 82.2185 119.233C82.5445 120.326 83.7726 121.123 84.8491 121.373C87.059 121.889 89.2177 120.519 90.8533 119.201C93.0139 117.457 94.8201 115.292 96.5087 113.108C98.0003 111.18 99.3403 109.149 100.786 107.189C101.103 106.76 100.394 106.216 100.042 106.619C98.2638 108.652 96.5504 110.755 95.11 113.04C94.4296 114.122 93.7853 115.247 93.2868 116.423C92.8661 117.419 92.5514 118.526 92.6614 119.616C92.9191 122.143 95.5043 123.128 97.7407 122.412C100.019 121.68 101.834 119.756 103.207 117.886C104.84 115.663 105.985 113.133 107.109 110.631C107.353 110.085 106.633 109.641 106.29 110.157C104.482 112.884 102.638 115.728 102.109 119.013C102.062 119.308 102.231 119.609 102.566 119.607C103.332 119.603 103.98 119.985 104.687 120.218C105.362 120.44 106.023 120.42 106.713 120.288C108.081 120.027 109.364 119.368 110.505 118.589C113.001 116.885 115.022 114.587 116.961 112.301C119.261 109.589 121.431 106.799 123.423 103.855C125.592 100.65 127.534 97.3039 129.683 94.0855C131.852 90.8389 134.056 87.6224 136.135 84.3174C138.212 81.0125 140.272 77.6981 142.272 74.3481C144.271 70.998 146.208 67.6103 148.033 64.1624C149.817 60.7954 151.53 57.387 153.266 53.9936C154.968 50.668 156.611 47.3029 157.942 43.8098C159.318 40.202 160.227 36.4381 161.408 32.7683C161.71 31.8296 162.022 30.8929 162.343 29.9599C162.032 29.9185 161.723 29.8772 161.412 29.8358C161.404 29.943 161.397 30.0502 161.389 30.1574C161.346 30.7612 162.293 30.7594 162.337 30.1574C162.344 30.0502 162.352 29.943 162.36 29.8358C162.401 29.2809 161.594 29.2339 161.429 29.7116C160.171 33.3646 159.185 37.0927 158.008 40.7701C156.871 44.3233 155.332 47.7336 153.677 51.078C152.04 54.3867 150.304 57.6484 148.636 60.9421C146.889 64.3918 145.016 67.7796 143.072 71.1221C139.211 77.7583 135.164 84.3174 130.849 90.6715C129.752 92.2873 128.652 93.8993 127.595 95.5395C126.569 97.129 125.603 98.7542 124.589 100.349C122.574 103.517 120.442 106.621 118.06 109.532C116.187 111.822 114.275 114.143 112.08 116.137C111.011 117.105 109.855 118.001 108.561 118.653C107.95 118.96 107.308 119.203 106.639 119.348C105.898 119.509 105.284 119.458 104.579 119.182C103.915 118.922 103.292 118.667 102.566 118.67C102.718 118.868 102.871 119.067 103.023 119.265C103.54 116.054 105.341 113.3 107.109 110.635C106.836 110.477 106.563 110.319 106.29 110.161C104.558 114.017 102.647 118.428 98.9271 120.805C97.9757 121.413 96.8309 121.872 95.6805 121.684C94.6514 121.516 93.8497 120.843 93.6431 119.814C93.4479 118.853 93.7398 117.822 94.0942 116.932C94.5282 115.841 95.1366 114.799 95.7525 113.8C97.1853 111.472 98.9119 109.342 100.712 107.286C100.464 107.096 100.216 106.906 99.9676 106.717C97.2498 110.4 94.7916 114.273 91.4351 117.44C90.0004 118.794 88.1146 120.423 86.0317 120.542C85.1561 120.591 84.3336 120.305 83.674 119.731C82.9349 119.086 82.9463 118.215 83.3746 117.376C83.8806 116.389 84.6577 115.505 85.3362 114.634C86.8675 112.664 88.6017 110.757 89.864 108.599C91.0504 106.572 91.7895 104.32 93.0575 102.338C93.3399 101.895 92.6538 101.344 92.3126 101.768C90.2771 104.301 88.2397 106.833 86.2042 109.367C85.194 110.623 84.1971 111.891 83.1718 113.136C82.4004 114.071 81.5078 115.106 80.3194 115.51C79.7092 115.719 78.9188 115.811 78.3711 115.396C77.9617 115.085 77.8442 114.562 77.8423 114.079C77.8385 112.802 78.4336 111.489 78.8923 110.322C80.0048 107.493 81.4604 104.764 83.0164 102.151C84.5174 99.627 86.4942 97.208 86.6496 94.157C86.6666 93.8297 86.2213 93.5325 85.937 93.7507C83.1737 95.8687 80.4976 98.2576 77.2756 99.6815C76.0721 100.214 74.5086 100.712 73.5931 99.4596C72.5735 98.0639 73.4927 95.9534 74.1523 94.6066C75.0487 92.7782 76.2522 91.1417 77.3571 89.4375C77.0842 89.2795 76.8113 89.1215 76.5384 88.9635C76.4341 89.1309 76.3413 89.3002 76.256 89.477C75.9982 90.0131 76.8151 90.4909 77.0804 89.9435Z" fill="#222221"/>
<path d="M48.4905 29.6518C49.8665 30.6036 51.2026 31.6118 52.6051 32.526C54.0474 33.4665 55.5883 34.2434 57.0969 35.071C60.2222 36.7827 63.338 38.5189 66.4045 40.3322C72.3405 43.8422 78.1229 47.5892 84.1157 51.007C89.7996 54.2461 95.5461 57.393 100.982 61.0384C103.739 62.8874 106.41 64.8644 108.936 67.0162C110.088 67.9981 111.064 69.2904 111.76 70.6259C112.016 71.1169 112.406 71.8862 112.192 72.4166C112.131 72.5652 111.936 72.6856 111.699 72.7402C111.061 72.8906 110.448 72.6969 109.874 72.4204C106.984 71.0285 104.228 69.3506 101.173 68.3179C100.419 68.0621 99.6493 67.8533 98.8684 67.6934C98.4022 67.5975 98.0838 68.1223 98.4079 68.4797C99.5128 69.6986 101.082 70.3005 102.32 71.3557C103.692 72.5276 105.056 73.7164 106.396 74.924C108.585 76.8991 110.594 79.0303 111.986 81.6411C112.573 82.7453 113.123 83.9755 113.227 85.2357C113.293 86.022 113.151 87.4403 112.177 87.6622C111.296 87.8635 110.263 87.0791 109.603 86.6051C108.72 85.9693 107.926 85.2244 107.096 84.5228C105.735 83.3735 104.162 82.4405 102.699 81.4248C100.796 80.1062 98.9007 78.7782 97.0073 77.4446C96.8481 77.7154 96.6889 77.9863 96.5297 78.2572C99.6834 79.7639 102.943 81.2818 105.631 83.5485C107.463 85.0947 109.196 86.9644 110.331 89.0824C110.824 90.0003 111.284 91.1252 111.078 92.1861C110.991 92.6338 110.788 93.1153 110.342 93.3128C109.895 93.5122 109.353 93.4144 108.9 93.2921C107.786 92.9911 106.775 92.3817 105.79 91.8042C104.224 90.8882 102.663 89.9665 101.12 89.0128C97.4489 86.7424 93.8668 84.3253 90.425 81.7239C90.2659 81.9947 90.1067 82.2656 89.9474 82.5365C93.3722 85.1116 97.3996 86.7575 100.527 89.7351C102.557 91.6669 104.876 93.5348 106.207 96.0459C106.681 96.9375 107.13 98.2674 106.349 99.1308C105.631 99.9264 104.223 99.8117 103.267 99.6913C100.707 99.3715 98.1539 98.3558 95.8531 97.2253C91.312 94.9925 86.8146 92.677 82.2622 90.4668C80.1679 89.4492 78.1305 88.4128 76.1992 87.1055C74.3419 85.8471 72.585 84.4551 70.8148 83.082C67.0375 80.1514 63.048 77.5725 59.0016 75.0256C54.923 72.458 50.9506 69.7268 46.8132 67.2551C42.6436 64.7628 38.2675 62.6316 34.1415 60.0621C32.1363 58.8132 30.0629 57.7654 27.9516 56.7064C26.0051 55.7302 24.1724 54.5997 22.0175 54.1219C21.0111 53.8981 19.9839 53.7984 18.9548 53.7777C18.3445 53.7645 18.3445 54.705 18.9548 54.7182C21.176 54.7633 23.2589 55.2957 25.2224 56.3283C27.3299 57.4381 29.5 58.4445 31.5791 59.6051C32.6556 60.207 33.6791 60.8936 34.7347 61.5293C35.8074 62.1745 36.8915 62.799 37.9851 63.4103C40.1457 64.6198 42.3461 65.7579 44.4934 66.988C48.7862 69.4465 52.8591 72.2417 57.0287 74.892C61.2039 77.5462 65.4247 80.1175 69.3498 83.1328C71.1521 84.5172 72.9223 85.9411 74.7759 87.2597C76.6825 88.6159 78.6744 89.7784 80.7839 90.7941C85.4538 93.0438 90.0687 95.4007 94.7102 97.7068C97.2063 98.9483 99.8616 100.083 102.631 100.54C103.83 100.737 105.201 100.861 106.326 100.301C107.431 99.7496 107.841 98.527 107.664 97.3664C107.446 95.9387 106.544 94.669 105.657 93.5686C104.677 92.3535 103.554 91.2587 102.411 90.196C101.194 89.0636 99.9999 87.9237 98.6429 86.9531C96.8784 85.6909 94.9623 84.6601 93.1125 83.5278C92.1914 82.9635 91.2874 82.3709 90.425 81.722C89.938 81.3552 89.4679 82.1716 89.9474 82.5346C93.2471 85.0307 96.6756 87.3538 100.189 89.5433C101.855 90.5816 103.542 91.5804 105.237 92.5717C106.304 93.1962 107.397 93.8489 108.597 94.1837C109.687 94.4884 110.922 94.4395 111.601 93.4125C112.255 92.425 112.135 91.1045 111.779 90.0361C110.939 87.5306 108.991 85.358 107.084 83.5786C104.188 80.8737 100.555 79.1394 97.0092 77.4427C96.4558 77.1775 96.0331 77.9035 96.5316 78.2553C98.298 79.5005 100.068 80.7382 101.842 81.9722C102.756 82.6061 103.669 83.2381 104.585 83.8682C105.174 84.2745 105.792 84.6526 106.341 85.1116C107.227 85.8508 108.068 86.6352 108.999 87.3199C109.838 87.9387 110.89 88.646 111.984 88.6216C113.106 88.5971 113.845 87.6227 114.085 86.6108C114.387 85.3411 114.036 83.983 113.566 82.7998C112.492 80.0949 110.691 77.7606 108.629 75.7216C107.105 74.2149 105.453 72.8474 103.84 71.4366C103.07 70.7632 102.314 70.1368 101.446 69.5895C100.606 69.059 99.7516 68.5512 99.0788 67.81C98.9253 68.0715 98.7718 68.3348 98.6183 68.5963C101.958 69.2772 104.939 70.9457 107.933 72.4881C109.156 73.1183 110.441 73.9572 111.878 73.6581C112.622 73.502 113.147 72.9715 113.189 72.206C113.233 71.4197 112.848 70.6221 112.476 69.9525C112.042 69.1681 111.508 68.4364 110.943 67.7404C110.437 67.1178 109.895 66.5874 109.281 66.0682C107.969 64.9641 106.622 63.9051 105.244 62.8837C99.8236 58.8639 93.9616 55.4969 88.0939 52.1713C85.1202 50.4859 82.1428 48.808 79.2108 47.0512C76.1026 45.1909 73.0512 43.2384 69.9562 41.3555C66.8025 39.4368 63.6033 37.5991 60.3776 35.799C58.7552 34.8942 57.1272 33.997 55.4897 33.1166C53.9451 32.2852 52.4933 31.3316 51.0662 30.3158C50.3687 29.8192 49.6751 29.3189 48.97 28.8317C48.4678 28.4931 47.994 29.3076 48.4905 29.6518Z" fill="#222221"/>
<path d="M30.9461 122.088C32.1003 118.481 33.4327 114.931 34.9129 111.442C36.3893 107.964 38.0135 104.546 39.742 101.185C41.516 97.7369 43.4055 94.3454 45.3728 91.0028C47.3856 87.5813 49.4799 84.2086 51.6196 80.8642C52.0593 80.1776 52.5331 79.5042 52.9406 78.7988C53.1908 78.3643 53.4182 77.9166 53.6532 77.4746C53.9508 76.9197 54.254 76.3686 54.5895 75.8362C54.8832 75.3716 55.1334 74.9823 55.5295 74.6211C55.5636 74.5891 55.5997 74.559 55.6357 74.5289C55.5542 74.5967 55.6698 74.5064 55.6887 74.4932C55.7266 74.4687 55.7664 74.4481 55.8062 74.4255C55.8726 74.3897 55.7134 74.4537 55.8366 74.4161C56.4165 74.2355 56.1682 73.327 55.5845 73.5094C55.1239 73.6524 54.7676 74.0117 54.472 74.3766C54.0797 74.86 53.748 75.3829 53.4353 75.919C52.8837 76.867 52.4251 77.8715 51.83 78.7932C49.6447 82.1734 47.5031 85.5818 45.4392 89.0372C43.415 92.4268 41.4667 95.8596 39.6302 99.3545C37.8467 102.752 36.1675 106.203 34.6343 109.717C33.0953 113.24 31.6947 116.824 30.4799 120.471C30.3282 120.926 30.1804 121.381 30.0345 121.838C29.8469 122.416 30.7623 122.664 30.9461 122.088Z" fill="#222221"/>
<path d="M70.7313 43.3382C70.7313 42.9846 71.0819 42.5633 71.3283 42.2529C71.569 41.9482 71.8116 41.6491 71.9992 41.3086C72.221 40.908 72.4541 40.5148 72.6929 40.1255C73.0359 39.5649 73.3903 39.0119 73.7599 38.4683C74.1655 37.8701 74.6374 37.2137 75.0468 36.6964C75.4903 36.1358 75.9565 35.5903 76.4663 35.0881C76.6938 34.8643 76.9326 34.6517 77.1809 34.4486C77.1903 34.4411 77.2984 34.3564 77.2131 34.4222C77.2453 34.3978 77.2775 34.3752 77.3097 34.3508C77.3628 34.3131 77.414 34.2755 77.4689 34.2398C77.5902 34.157 77.7153 34.0799 77.8442 34.0122C77.8954 33.9858 77.9465 33.9595 77.9977 33.9351C78.028 33.92 78.0584 33.9068 78.0887 33.8937C78.0773 33.8993 77.9882 33.9332 78.0659 33.9031C78.1816 33.8598 78.2991 33.8241 78.4185 33.7977C78.4469 33.7921 78.4753 33.7883 78.5038 33.7827C78.4924 33.7846 78.3862 33.7865 78.4621 33.7883C78.517 33.7902 78.5739 33.7808 78.6288 33.7808C78.6743 33.7808 78.8203 33.809 78.6649 33.7771C78.7179 33.7883 78.771 33.7959 78.8222 33.8109C78.9037 33.8335 78.9435 33.8598 78.8752 33.8241C78.9207 33.8467 78.9662 33.8692 79.0098 33.8956C79.0382 33.9144 79.1633 34.0141 79.0553 33.9219C79.1064 33.9652 79.1557 34.0084 79.2031 34.0573C79.2903 34.1495 79.368 34.2586 79.4476 34.4147C79.5101 34.537 79.5746 34.7326 79.6144 34.9264C79.6523 35.1107 79.6693 35.2875 79.6731 35.5095C79.6769 35.7653 79.6618 36.0211 79.6314 36.275C79.5727 36.7566 79.4476 37.2645 79.3054 37.7403C79.0439 38.6169 78.716 39.422 78.2858 40.2252C77.9996 40.7594 78.8165 41.2353 79.1045 40.6992C80.5942 37.919 81.8489 34.9019 84.1592 32.6654C84.8415 32.0051 85.5446 31.3656 86.2876 30.775C87.0969 30.1316 88.0767 29.4451 89.0395 29.1404C89.1513 29.1046 89.2669 29.0726 89.3825 29.0482C89.4337 29.0369 89.4868 29.0275 89.5399 29.0181C89.646 28.9993 89.5266 29.0124 89.6327 29.0068C89.7389 29.0012 89.845 28.9955 89.9511 29.0012C89.9777 29.003 90.1009 29.0162 90.0516 29.0087C90.0137 29.003 90.152 29.0294 90.1861 29.0388C90.2316 29.0501 90.2752 29.0651 90.3188 29.0802C90.4268 29.114 90.2999 29.0651 90.3719 29.1027C90.4193 29.1272 90.4666 29.1535 90.5121 29.1817C90.5481 29.2043 90.6562 29.2908 90.5728 29.2194C90.6391 29.2739 90.696 29.336 90.7566 29.3962C90.8381 29.4771 90.732 29.3529 90.7775 29.4206C90.8059 29.4639 90.8362 29.5053 90.8627 29.5504C90.8836 29.5862 90.9025 29.6219 90.9215 29.6576C90.9329 29.6802 90.9916 29.8194 90.9461 29.7065C90.9821 29.7987 91.0125 29.8909 91.039 29.9868C91.0617 30.0752 91.0807 30.1636 91.0959 30.252C91.0997 30.2784 91.1053 30.3047 91.1091 30.331C91.1072 30.3122 91.0978 30.2351 91.1072 30.3273C91.1129 30.3818 91.1186 30.4383 91.1224 30.4928C91.1376 30.7129 91.1357 30.9348 91.1243 31.1568C91.111 31.3995 91.0807 31.6572 91.0542 31.8246C90.8855 32.9043 90.5557 33.9595 90.1824 34.9847C89.8317 35.9496 89.4849 36.7622 89.0641 37.6764C88.5619 38.7655 88.0218 39.8358 87.4683 40.9004C87.0552 41.6942 86.5927 42.4767 86.2288 43.295C85.9332 43.9609 85.7721 44.6719 85.5124 45.3509C85.412 45.6124 85.2888 45.8889 85.1087 46.109C85.357 46.1409 85.6053 46.1729 85.8536 46.2049C85.8251 46.1673 85.8024 46.1297 85.7797 46.0883C85.8232 46.1635 85.7872 46.1108 85.7721 46.0563C85.7588 46.0112 85.7569 45.9303 85.7626 46.0262C85.7607 45.9773 85.7588 45.9284 85.7607 45.8776C85.7607 45.8513 85.7645 45.8268 85.7664 45.8005C85.7645 45.8193 85.7474 45.8964 85.7664 45.8061C85.7759 45.7572 85.7872 45.7102 85.7986 45.6632C85.8251 45.5635 85.8801 45.4092 85.9029 45.3547C86.081 44.9277 86.4089 44.4386 86.7045 44.0305C86.9964 43.626 87.239 43.3307 87.5498 42.9319C87.9099 42.4711 88.2151 41.9707 88.5411 41.4854C90.1558 39.0853 91.926 36.7923 94.1112 34.8737C94.6665 34.3865 95.2408 33.9238 95.8378 33.4874C96.4215 33.0604 97.0337 32.592 97.7027 32.3193C97.8278 32.2685 97.9586 32.2252 98.0913 32.1914C98.1462 32.1763 98.2031 32.165 98.2581 32.1537C98.3623 32.133 98.2543 32.1443 98.3566 32.1406C98.4059 32.1387 98.4552 32.1349 98.5044 32.1368C98.5386 32.1368 98.6845 32.1519 98.5746 32.1349C98.6182 32.1406 98.6599 32.15 98.7015 32.1613C98.73 32.1688 98.8854 32.2271 98.7736 32.1763C98.8475 32.2083 98.9157 32.2497 98.982 32.2948C98.9043 32.2403 98.9726 32.2873 99.0029 32.3193C99.0389 32.3569 99.0749 32.3926 99.109 32.4321C99.0484 32.3607 99.1071 32.4302 99.128 32.4641C99.1507 32.4998 99.1735 32.5356 99.1924 32.5732C99.2171 32.6165 99.2379 32.6616 99.2587 32.7068C99.219 32.6165 99.2701 32.7406 99.2815 32.7745C99.3118 32.8648 99.3365 32.9569 99.3573 33.0491C99.3687 33.1055 99.38 33.1601 99.3895 33.2165C99.3933 33.2334 99.4028 33.3087 99.3914 33.2222C99.3952 33.2523 99.399 33.2805 99.4009 33.3106C99.4217 33.5457 99.4274 33.7808 99.4161 34.0178C99.3914 34.5106 99.3061 34.9715 99.1526 35.4869C98.6959 37.0256 97.8316 38.4269 97.028 39.8057C96.1316 41.3462 95.3375 42.9395 94.46 44.4913C94.0259 45.2588 93.5616 46.0074 93.1181 46.7692C92.8281 47.2658 92.5799 47.8075 92.1932 48.2402C92.1288 48.3135 92.0037 48.4395 91.9563 48.4753C91.9013 48.5167 91.8388 48.5562 91.7782 48.5863C91.7213 48.6145 91.7497 48.6013 91.6569 48.6258C91.8559 48.7762 92.0568 48.9286 92.2558 49.0791C92.2633 48.6634 92.3752 48.2063 92.5571 47.7906C92.7618 47.3185 93.0726 46.8256 93.3929 46.393C94.1093 45.4224 94.9944 44.5722 95.8928 43.7709C96.7646 42.9921 97.6762 42.2642 98.5821 41.5268C99.5089 40.7725 100.4 39.975 101.378 39.2828C102.538 38.4627 103.819 37.7121 105.236 37.445C105.557 37.3848 105.881 37.3604 106.207 37.3679C106.277 37.3698 106.347 37.3717 106.417 37.3773C106.432 37.3792 106.565 37.3942 106.489 37.383C106.411 37.3717 106.535 37.3924 106.552 37.3961C106.592 37.4055 106.629 37.4168 106.669 37.4262C106.69 37.4319 106.794 37.4695 106.722 37.4413C106.65 37.413 106.747 37.4526 106.768 37.4638C106.794 37.4789 106.823 37.4958 106.849 37.5109C106.927 37.5522 106.881 37.5372 106.861 37.5146C106.899 37.5541 106.942 37.5917 106.982 37.6312C107.052 37.7008 106.976 37.62 106.98 37.6275C106.995 37.6576 107.02 37.6858 107.037 37.7159C107.052 37.7422 107.065 37.7704 107.08 37.7987C107.079 37.7911 107.128 37.8814 107.08 37.7987C107.101 37.8664 107.126 37.9322 107.143 38.0018C107.151 38.0357 107.158 38.0695 107.164 38.1034C107.175 38.1598 107.177 38.205 107.168 38.1147C107.175 38.1956 107.183 38.2746 107.185 38.3554C107.19 38.5191 107.181 38.6827 107.166 38.8464C107.162 38.8896 107.156 38.9329 107.151 38.9762C107.162 38.8784 107.149 38.9837 107.143 39.0232C107.128 39.121 107.109 39.2188 107.088 39.3166C107.003 39.7229 106.885 40.1217 106.747 40.513C106.673 40.7274 106.592 40.9399 106.506 41.1506C106.419 41.3651 106.375 41.4685 106.267 41.7018C105.894 42.5219 105.466 43.3194 104.984 44.0812C104.783 44.401 104.571 44.7151 104.346 45.018C104.321 45.05 104.296 45.0838 104.272 45.1158C104.239 45.1591 104.293 45.0895 104.293 45.0876C104.279 45.1045 104.266 45.1233 104.251 45.1402C104.202 45.2023 104.152 45.2625 104.099 45.3227C104.014 45.4224 103.925 45.5202 103.83 45.6124C103.794 45.6462 103.758 45.6801 103.722 45.714C103.705 45.729 103.684 45.7441 103.667 45.761C103.616 45.8137 103.771 45.6857 103.688 45.7441C103.479 45.8908 103.381 46.1541 103.517 46.3874C103.639 46.5924 103.955 46.7034 104.166 46.5567C104.7 46.1804 105.094 45.6105 105.458 45.0801C105.976 44.3258 106.43 43.5263 106.834 42.7062C107.259 41.8447 107.64 40.9475 107.89 40.0201C108.089 39.2828 108.248 38.4401 108.032 37.6877C107.818 36.9372 107.211 36.5139 106.446 36.4443C104.946 36.307 103.428 36.9296 102.159 37.6613C100.868 38.4025 99.7136 39.3467 98.584 40.306C97.7274 41.034 96.8366 41.7224 95.98 42.4504C94.9774 43.3025 93.9956 44.1941 93.1446 45.1986C92.3865 46.0939 91.6607 47.1191 91.401 48.2797C91.3422 48.5449 91.3081 48.8157 91.3025 49.0866C91.2968 49.397 91.6095 49.6152 91.9014 49.5399C92.5704 49.3688 93.0215 48.7706 93.3702 48.2176C93.7625 47.595 94.1188 46.946 94.496 46.3121C95.4777 44.6606 96.3363 42.9489 97.2725 41.2748C98.1633 39.6834 99.1583 38.1429 99.8198 36.4368C100.237 35.359 100.481 34.1721 100.303 33.0171C100.157 32.0635 99.5411 31.2151 98.4969 31.1982C97.8695 31.1888 97.2517 31.4559 96.7172 31.7568C95.9837 32.1725 95.3052 32.6974 94.64 33.2127C92.1591 35.1389 90.1388 37.5184 88.3515 40.0803C87.8948 40.7368 87.4627 41.4083 87.0135 42.0686C86.9737 42.1269 86.932 42.1833 86.8903 42.2397C86.8808 42.2529 86.7955 42.362 86.8315 42.3168C86.8619 42.2792 86.7671 42.3996 86.7481 42.4241C86.5776 42.6385 86.4089 42.8548 86.2402 43.0711C85.8896 43.5245 85.5503 43.9891 85.2717 44.4894C85.0234 44.9371 84.7752 45.4675 84.8017 45.9923C84.8131 46.235 84.8775 46.4833 85.0253 46.6808C85.1883 46.8971 85.5579 47.0344 85.7702 46.7767C86.2554 46.1823 86.4828 45.4506 86.7083 44.7302C86.8126 44.3991 86.9092 44.0605 87.0495 43.7427C87.2352 43.3232 87.4683 42.9207 87.6806 42.5162C88.3705 41.1995 89.0604 39.8809 89.6934 38.536C90.5974 36.6174 91.4579 34.6141 91.8748 32.5299C92.0643 31.5819 92.2122 30.5003 91.8862 29.5617C91.5621 28.6287 90.7396 28.0212 89.7294 28.0625C88.596 28.1096 87.5271 28.7322 86.6193 29.3586C85.6868 30 84.8244 30.7392 83.9981 31.5104C82.9557 32.4848 82.0422 33.5495 81.2652 34.7458C80.3573 36.1415 79.6201 37.635 78.8601 39.1135C78.6686 39.4859 78.4753 39.8584 78.2763 40.227C78.5492 40.385 78.8222 40.5431 79.0951 40.7011C79.5158 39.9129 79.8627 39.0796 80.1356 38.2313C80.4312 37.3096 80.6606 36.3127 80.6056 35.3402C80.5582 34.5088 80.2815 33.651 79.5727 33.1469C79.1159 32.8215 78.536 32.7745 78.0053 32.925C77.4026 33.0961 76.8738 33.4686 76.3981 33.8617C75.839 34.3244 75.3406 34.8568 74.8705 35.4079C73.8547 36.6005 72.9582 37.8946 72.1262 39.2188C71.8097 39.7248 71.5008 40.2346 71.2089 40.7556C71.0194 41.0942 70.7957 41.3914 70.5569 41.6961C70.1817 42.1739 69.7685 42.7043 69.7666 43.3401C69.7837 43.9439 70.7313 43.9439 70.7313 43.3382Z" fill="#222221"/>
<path d="M76.7717 113.417C73.9402 116.798 72.151 120.87 70.5476 124.929C69.7422 126.97 68.9822 129.03 68.1558 131.063C67.7635 132.026 67.356 132.984 66.9182 133.926C66.3762 135.09 65.9213 136.289 65.4683 137.491C65.2182 138.155 64.9661 138.819 64.6837 139.469C64.4013 140.118 64.0734 140.741 63.7588 141.373C63.4916 141.913 63.2736 142.447 63.1258 143.03C63.0121 143.48 62.9116 144.046 62.5951 144.381C62.1782 144.823 62.8472 145.489 63.266 145.047C63.9521 144.32 63.9294 143.273 64.3141 142.406C64.5643 141.841 64.8638 141.3 65.1348 140.745C65.4248 140.154 65.6787 139.546 65.9213 138.937C66.3913 137.76 66.8045 136.561 67.2935 135.391C67.7256 134.357 68.2203 133.347 68.6562 132.312C70.3543 128.283 71.7075 124.109 73.6274 120.172C74.6774 118.018 75.898 115.927 77.4426 114.083C77.6056 113.888 77.6359 113.609 77.4426 113.417C77.2739 113.25 76.9366 113.22 76.7717 113.417Z" fill="#222221"/>
<path d="M108 160.674C107.604 158.023 106.815 155.456 106.05 152.894C105.303 150.398 104.66 147.875 103.999 145.355C103.665 144.081 103.322 142.81 102.945 141.547C102.572 140.298 102.136 139.072 101.725 137.834C100.919 135.408 100.29 132.929 99.4843 130.502C98.5955 127.82 97.2707 125.294 96.6452 122.527C96.5126 121.936 95.5972 122.186 95.7317 122.777C96.0065 123.99 96.3989 125.169 96.8575 126.326C97.3275 127.513 97.8487 128.678 98.2733 129.883C99.1205 132.282 99.7516 134.746 100.515 137.17C100.904 138.406 101.355 139.619 101.743 140.855C102.138 142.11 102.492 143.378 102.831 144.649C103.506 147.175 104.122 149.719 104.861 152.228C105.706 155.098 106.641 157.957 107.084 160.924C107.122 161.176 107.443 161.313 107.668 161.253C107.939 161.178 108.038 160.926 108 160.674Z" fill="#222221"/>
<path d="M153.234 147.096C151.361 143.989 149.491 140.883 147.618 137.776C145.755 134.684 143.89 131.589 142.027 128.497C140.155 125.39 138.284 122.284 136.412 119.177C135.479 117.63 134.549 116.084 133.616 114.536C132.733 113.071 131.88 111.585 130.921 110.168C129.151 107.556 127.113 105.095 125.665 102.279C125.491 101.941 125.328 101.598 125.175 101.249C125.072 101.015 124.729 100.963 124.526 101.079C124.284 101.22 124.253 101.489 124.356 101.723C125.628 104.619 127.637 107.123 129.448 109.696C130.394 111.039 131.245 112.433 132.092 113.838C133.025 115.384 133.955 116.931 134.888 118.479C136.76 121.586 138.631 124.692 140.503 127.799C142.376 130.907 144.247 134.012 146.119 137.12C147.982 140.212 149.847 143.306 151.71 146.399C151.945 146.788 152.18 147.179 152.415 147.569C152.728 148.09 153.547 147.617 153.234 147.096Z" fill="#222221"/>
<path d="M53.8312 33.0898C54.5287 33.6711 55.2697 34.2015 56.0563 34.6586C56.422 34.8712 56.803 35.0404 57.1233 35.317C57.2939 35.4637 57.4682 35.6085 57.6672 35.7195C57.8511 35.8211 58.0501 35.8963 58.232 36.0016C58.5542 36.1879 58.8006 36.4869 59.0716 36.7334C59.3805 37.0136 59.7236 37.2676 60.1254 37.3992C60.3433 37.4707 60.5859 37.4726 60.7963 37.5648C60.9669 37.6381 61.1204 37.7585 61.2682 37.8657C61.6264 38.1234 62.0112 38.3078 62.4149 38.4883C62.7996 38.6614 63.1673 38.8533 63.4952 39.1185C63.8363 39.3969 64.1263 39.7317 64.4883 39.9856C64.6418 40.0928 64.8067 40.1812 64.9697 40.2753C65.055 40.3242 65.1402 40.3731 65.2236 40.4277C65.2521 40.4465 65.2786 40.469 65.3089 40.486C65.3279 40.5029 65.3468 40.518 65.3658 40.5349C65.3279 40.4672 65.3184 40.4578 65.3392 40.5048C65.3241 40.7023 65.6444 40.9243 65.7865 40.9976C66.0007 41.1067 66.2395 41.1594 66.4631 41.2403C67.3084 41.545 68.148 41.8403 68.9744 42.1939C69.3799 42.367 69.8159 42.4949 70.212 42.6886C70.5323 42.8466 70.809 43.0573 71.0724 43.2962C71.6543 43.8248 72.3043 44.6129 73.1382 44.6994C73.2899 44.7145 73.4339 44.69 73.5628 44.7766C73.703 44.8706 73.813 45.0286 73.9248 45.1546C74.1958 45.4575 74.5369 45.6983 74.8876 45.9033C75.6153 46.3265 76.3867 46.6425 77.0804 47.1259C77.8442 47.6583 78.5644 48.185 79.4362 48.5348C80.2834 48.8753 81.1704 49.0822 81.9815 49.5111C82.3757 49.7199 82.7586 49.9475 83.1547 50.1525C83.5584 50.3632 83.981 50.5362 84.3904 50.7394C85.1921 51.1381 86.0241 51.5802 86.7178 52.1483C87.3906 52.6975 87.9743 53.3577 88.7154 53.8242C89.0793 54.0537 89.5 54.176 89.862 54.4111C90.0383 54.524 90.1937 54.665 90.3737 54.7741C90.5671 54.8908 90.7736 54.9829 90.9783 55.0789C91.7194 55.4306 92.2936 55.9629 92.9437 56.4482C93.2716 56.6928 93.6146 56.8978 93.9956 57.0483C94.3955 57.2063 94.7613 57.4113 95.1479 57.5994C95.3393 57.6916 95.5345 57.7668 95.7127 57.8835C95.8662 57.985 96.0084 58.0998 96.1713 58.1844C96.4973 58.3556 96.8536 58.4459 97.2024 58.5569C97.5265 58.6603 97.7937 58.7976 98.0135 59.061C98.1765 59.2566 98.5139 59.2284 98.6845 59.061C98.8797 58.8672 98.8493 58.5926 98.6845 58.3951C98.4229 58.0828 98.0799 57.8797 97.7008 57.7349C97.3957 57.6164 97.0678 57.5562 96.7665 57.4283C96.4158 57.2778 96.1315 57.0126 95.779 56.8564C95.3602 56.6683 94.9735 56.4238 94.5471 56.2526C94.1832 56.1078 93.8572 55.9498 93.5369 55.7222C93.2337 55.504 92.9551 55.2557 92.6613 55.0262C92.3259 54.7647 91.9847 54.524 91.6019 54.3359C91.1906 54.1327 90.8172 53.9371 90.4439 53.67C90.0914 53.4179 89.6763 53.2919 89.3029 53.0775C88.9409 52.8687 88.6263 52.5941 88.3193 52.3157C87.6503 51.7081 86.9907 51.1457 86.2155 50.6735C85.4176 50.1864 84.5742 49.8196 83.7441 49.3982C82.9367 48.9881 82.1786 48.4934 81.3182 48.1925C80.4464 47.8878 79.5613 47.6489 78.7729 47.156C78.0356 46.6952 77.3741 46.1252 76.599 45.7227C75.9091 45.3634 75.1245 45.0794 74.5957 44.4888C74.3209 44.1822 74.0385 43.8662 73.6083 43.7966C73.4301 43.7665 73.2387 43.7984 73.0738 43.7213C72.8919 43.6367 72.727 43.5106 72.5735 43.3846C71.984 42.8937 71.4761 42.2955 70.7919 41.9287C70.4053 41.7218 69.9788 41.6014 69.5733 41.4321C69.143 41.2534 68.7204 41.0578 68.2845 40.8866C67.8599 40.7211 67.4221 40.5951 66.9957 40.4371C66.8005 40.3637 66.6072 40.2941 66.4082 40.232C66.3665 40.2189 66.3248 40.2019 66.2812 40.1925C66.2566 40.1869 66.1258 40.153 66.2205 40.1907C66.2584 40.2057 66.2471 40.249 66.2224 40.1775C66.1902 40.0778 66.1447 39.9969 66.0746 39.9198C65.8055 39.6151 65.398 39.4571 65.0606 39.2407C64.7176 39.0207 64.4504 38.6877 64.1339 38.4319C63.7813 38.1479 63.4118 37.9165 62.9986 37.7265C62.6139 37.5497 62.2196 37.3879 61.8709 37.1453C61.4976 36.8838 61.1621 36.6675 60.7072 36.5716C60.3168 36.4907 60.0344 36.3383 59.7425 36.0712C59.4469 35.8023 59.1778 35.5032 58.8461 35.2775C58.5049 35.0442 58.1126 34.9313 57.7961 34.6567C57.4512 34.3558 57.0797 34.1582 56.6817 33.9325C56.2932 33.7143 55.916 33.4773 55.5483 33.2253C55.1863 32.9751 54.8395 32.7099 54.5021 32.4277C54.3069 32.2641 54.0245 32.2377 53.8312 32.4277C53.6625 32.5932 53.6341 32.9262 53.8312 33.0898Z" fill="#222221"/>
<path d="M55.1503 73.8671C55.6241 73.773 55.77 73.3705 55.7113 72.9416C55.6582 72.5617 55.1541 72.5316 54.9191 72.7347C54.6348 72.9811 54.4888 73.3573 54.3846 73.7072C54.2728 74.0834 54.1856 74.4671 54.106 74.8509C54.0112 75.3079 53.9127 75.7594 53.7042 76.1807C53.4919 76.6077 53.2342 77.0103 52.9935 77.4203C52.5159 78.2367 52.2107 79.1396 51.7312 79.954C51.2991 80.6914 50.7192 81.3385 50.1601 81.9818C49.5934 82.6345 49.0191 83.2872 48.5339 84.0039C48.026 84.7525 47.7152 85.5783 47.3418 86.3946C46.9684 87.2129 46.4491 87.9446 45.981 88.712C45.7517 89.0901 45.5186 89.4663 45.257 89.8218C45.0012 90.1679 44.6903 90.4689 44.4326 90.8131C44.1862 91.1442 43.991 91.5016 43.7029 91.8007C43.3883 92.128 43.1267 92.4515 42.8898 92.839C42.3895 93.661 41.8854 94.4849 41.4779 95.3577C41.0458 96.2831 40.625 97.2123 40.2024 98.1397C39.7987 99.0256 39.4499 99.9661 38.925 100.79C38.6729 101.187 38.3924 101.563 38.1403 101.96C37.8958 102.347 37.6987 102.758 37.5092 103.173C37.1207 104.02 36.7492 104.866 36.247 105.656C35.7447 106.446 35.5192 107.37 35.1022 108.201C34.6511 109.1 34.1413 109.967 33.6315 110.835C33.1368 111.675 32.6479 112.524 32.2385 113.41C31.8405 114.271 31.3686 115.234 31.3667 116.201C31.3667 116.399 31.3894 116.604 31.3572 116.801C31.3174 117.046 31.2075 117.287 31.1316 117.522C30.9857 117.982 30.8549 118.449 30.7469 118.921C30.6408 119.378 30.5763 119.837 30.4095 120.275C30.2731 120.633 30.1423 120.964 30.1006 121.344C30.0836 121.5 30.0855 121.528 30.0494 121.667C30.0476 121.677 30.021 121.756 30.0476 121.688C30.0324 121.726 30.021 121.713 30.0381 121.716C30.0608 121.722 30.0134 121.713 30.0305 121.722C30.0078 121.709 30.1689 121.677 30.0172 121.699C29.7633 121.737 29.6249 122.053 29.6856 122.279C29.7595 122.548 30.0153 122.646 30.2693 122.608C30.6294 122.553 30.8701 122.252 30.963 121.919C31.0066 121.765 31.0198 121.603 31.0369 121.444C31.0388 121.423 31.0615 121.244 31.0464 121.334C31.0596 121.254 31.0824 121.176 31.107 121.097C31.2435 120.676 31.433 120.283 31.5183 119.845C31.613 119.352 31.7268 118.865 31.8613 118.381C31.9902 117.92 32.2006 117.46 32.2783 116.987C32.3541 116.532 32.2669 116.077 32.3825 115.626C32.6175 114.711 33.061 113.818 33.4988 112.985C34.4275 111.218 35.612 109.571 36.3474 107.708C36.5123 107.291 36.6582 106.864 36.8686 106.465C37.0828 106.057 37.3519 105.679 37.5661 105.269C37.9982 104.435 38.3147 103.54 38.7809 102.724C39.2453 101.911 39.8442 101.2 40.2327 100.344C40.6515 99.4206 41.0723 98.4952 41.493 97.5716C41.9138 96.6537 42.3118 95.7226 42.8027 94.8385C43.0396 94.4134 43.2897 93.9958 43.5418 93.5801C43.7692 93.2058 43.9796 92.8616 44.2866 92.5474C44.6107 92.2183 44.8495 91.8514 45.1111 91.4734C45.348 91.1329 45.6418 90.8432 45.8976 90.5178C46.4491 89.8124 46.8661 89.0224 47.357 88.2756C47.8763 87.4856 48.2458 86.6542 48.6192 85.7908C48.9566 85.0102 49.4266 84.3067 49.9648 83.6484C50.5069 82.9844 51.0906 82.358 51.6308 81.6902C51.9113 81.3441 52.188 80.9905 52.4268 80.6143C52.6902 80.2005 52.8968 79.7565 53.0996 79.3107C53.2948 78.88 53.4862 78.4492 53.7194 78.0373C53.9544 77.6235 54.214 77.2247 54.4358 76.8034C54.8679 75.9813 54.993 75.0935 55.2223 74.2038C55.2943 73.9235 55.3625 73.5812 55.5824 73.3912C55.319 73.3216 55.0536 73.252 54.7902 73.1843C54.7731 73.1128 54.7997 73.0583 54.8717 73.0225C54.9778 72.9454 54.9835 72.9209 54.8906 72.9529C54.6405 73.0037 54.4945 73.299 54.559 73.5323C54.6386 73.7975 54.8982 73.916 55.1503 73.8671Z" fill="#222221"/>
<path d="M77.8026 113.429C77.8026 113.167 77.8026 112.904 77.8026 112.642C77.4861 112.642 77.1715 112.642 76.855 112.642C76.9137 113.116 76.6598 113.57 76.4683 113.987C76.2163 114.537 75.9149 115.058 75.6496 115.599C75.1132 116.69 74.5162 117.764 73.8699 118.797C73.5459 119.314 73.1175 119.702 72.6797 120.121C72.2381 120.544 71.9235 120.998 71.643 121.54C71.3587 122.091 71.0517 122.623 70.7958 123.189C70.5438 123.744 70.3012 124.305 70.0529 124.861C69.7876 125.456 69.526 126.052 69.291 126.66C69.0655 127.243 68.8892 127.841 68.6845 128.432C68.4703 129.05 68.2088 129.654 68.0155 130.279C67.8373 130.856 67.7331 131.451 67.5834 132.036C67.5094 132.32 67.4355 132.613 67.3048 132.876C67.1721 133.149 67.0337 133.416 66.9541 133.712C66.8006 134.282 66.6983 134.872 66.5732 135.448C66.4424 136.061 66.3022 136.672 66.0425 137.248C65.8056 137.775 65.5213 138.279 65.237 138.783C64.6722 139.78 64.1605 140.769 63.8364 141.87C63.7132 142.289 63.5806 142.742 63.4024 143.115C63.3569 143.213 63.3058 143.308 63.2508 143.403C63.2091 143.472 63.1314 143.587 63.1257 143.596C63.1011 143.626 63.0745 143.656 63.048 143.685C63.0347 143.698 62.9324 143.792 62.9627 143.767C63.012 143.728 62.9002 143.807 62.9059 143.805C62.8812 143.82 62.8566 143.833 62.8319 143.845C62.8812 143.824 62.8812 143.824 62.83 143.841C62.252 144.027 62.5003 144.936 63.0821 144.747C63.9122 144.48 64.2761 143.562 64.5339 142.814C64.6609 142.447 64.7613 142.071 64.875 141.7C65.021 141.228 65.2276 140.782 65.455 140.344C66.0217 139.257 66.7172 138.228 67.1304 137.067C67.3483 136.456 67.4526 135.813 67.6004 135.183C67.7331 134.618 67.7899 134.018 68.0515 133.495C68.3377 132.923 68.4931 132.323 68.6333 131.703C68.7755 131.076 68.9366 130.471 69.1621 129.869C69.6208 128.646 69.9847 127.389 70.4964 126.188C70.9835 125.038 71.4668 123.863 72.0524 122.758C72.1964 122.486 72.3537 122.222 72.494 121.948C72.6229 121.699 72.7498 121.44 72.928 121.222C73.3222 120.738 73.8491 120.379 74.2414 119.896C74.6773 119.361 74.9787 118.748 75.3293 118.159C75.6913 117.556 76.0438 116.95 76.3489 116.316C76.6579 115.675 77.0104 115.056 77.3079 114.41C77.5562 113.869 77.8727 113.263 77.7969 112.648C77.7666 112.396 77.6017 112.178 77.3231 112.178C77.0672 112.178 76.8474 112.392 76.8493 112.648C76.8512 112.909 76.8493 113.173 76.8493 113.434C76.855 114.032 77.8026 114.034 77.8026 113.429Z" fill="#222221"/>
<path d="M72.7044 99.7114C73.0115 100.02 73.345 100.317 73.7487 100.49C74.177 100.675 74.6092 100.686 75.0697 100.703C75.5701 100.722 76.0685 100.791 76.567 100.727C77.0654 100.663 77.4445 100.426 77.8235 100.112C77.9638 99.9955 78.1002 99.8713 78.25 99.766C78.322 99.7152 78.4376 99.623 78.5248 99.6061C78.5816 99.5948 78.6764 99.6249 78.7446 99.6211C79.0289 99.6042 79.2488 99.4424 79.4629 99.275C79.6487 99.1302 79.8496 99.0343 80.0713 98.9553C80.5811 98.7747 81.1061 98.6505 81.5837 98.3853C81.7979 98.2649 82.0045 98.1295 82.2224 98.0166C82.4423 97.9019 82.6792 97.8323 82.9123 97.7477C83.3444 97.5897 83.7424 97.3658 84.04 97.0084C84.2712 96.73 84.455 96.4197 84.6446 96.1131C84.8189 95.8309 84.9857 95.56 85.2188 95.3795C85.3269 95.2948 85.4159 95.2534 85.5581 95.2215C85.613 95.2083 85.6491 95.2083 85.7381 95.2064C85.795 95.2045 85.9239 95.229 85.9769 95.2045C85.8291 95.2722 85.6889 95.0202 85.6263 94.9412C85.6358 94.9525 85.6472 95.0672 85.6301 94.9544C85.6415 95.0334 85.6528 95.1142 85.6604 95.1951C85.6851 95.4378 85.6756 95.6861 85.6225 95.925C85.5088 96.4441 85.2169 96.888 84.9535 97.3432C84.6995 97.7815 84.5195 98.2743 84.2049 98.6769C83.8732 99.102 83.5851 99.5252 83.333 100.003C83.0829 100.477 82.8213 100.938 82.5332 101.391C82.2622 101.822 82.0841 102.283 81.8547 102.732C81.6406 103.154 81.3487 103.517 81.0417 103.874C80.6873 104.286 80.3385 104.704 80.0163 105.142C79.6847 105.591 79.3814 106.062 79.1294 106.56C78.8716 107.07 78.5987 107.595 78.3921 108.129C78.2064 108.605 78.1324 109.113 77.9789 109.6C77.8292 110.078 77.6245 110.537 77.4331 111.001C77.0692 111.889 76.7375 112.854 76.9688 113.819C77.0901 114.325 77.3781 114.735 77.706 115.13C78.0036 115.487 78.3182 115.832 78.6859 116.12C79.0952 116.439 79.5596 116.688 80.094 116.695C80.6399 116.703 81.1023 116.434 81.3809 115.975C81.4738 115.822 81.5496 115.674 81.6671 115.538C81.8491 115.328 82.0519 115.138 82.2546 114.946C82.6451 114.573 82.9616 114.148 83.3274 113.755C83.659 113.4 84.0551 113.116 84.3792 112.751C84.6976 112.391 84.9762 111.998 85.2511 111.605C85.9106 110.663 86.5379 109.703 87.1747 108.746C87.3283 108.515 87.4742 108.272 87.6448 108.054C87.7983 107.858 87.9897 107.693 88.1754 107.527C88.5621 107.183 88.8862 106.81 89.2235 106.421C89.6083 105.981 90.0044 105.556 90.3588 105.089C90.6734 104.675 91.0013 104.295 91.3784 103.936C91.7347 103.596 92.0759 103.24 92.3166 102.808C92.6122 102.277 91.7935 101.803 91.4978 102.334C91.2704 102.744 90.9349 103.052 90.5995 103.376C90.2128 103.746 89.8888 104.156 89.5666 104.581C89.2273 105.029 88.8331 105.432 88.4654 105.857C88.1318 106.242 87.8002 106.594 87.4211 106.935C87.0212 107.294 86.7275 107.711 86.4318 108.157C86.1134 108.635 85.7988 109.115 85.4823 109.592C84.9251 110.433 84.3811 111.325 83.7083 112.083C83.3842 112.448 82.9881 112.732 82.6564 113.087C82.3096 113.46 82.0139 113.868 81.6444 114.22C81.2862 114.56 80.9052 114.902 80.655 115.335C80.5773 115.469 80.5262 115.612 80.3897 115.685C80.2078 115.787 79.986 115.76 79.7965 115.694C79.4042 115.559 79.082 115.237 78.8034 114.946C78.5039 114.632 78.176 114.289 77.9903 113.894C77.615 113.087 77.9789 112.154 78.286 111.389C78.4641 110.943 78.6612 110.507 78.8204 110.053C78.9853 109.579 79.0687 109.083 79.2203 108.605C79.3814 108.105 79.6543 107.621 79.8856 107.149C80.1244 106.66 80.4124 106.197 80.729 105.755C81.3051 104.948 82.0632 104.26 82.5617 103.402C82.8194 102.96 82.9767 102.473 83.2421 102.034C83.5131 101.589 83.7898 101.154 84.0324 100.691C84.2636 100.248 84.4948 99.798 84.8132 99.4067C85.1544 98.9891 85.3799 98.5377 85.6282 98.0655C85.8765 97.5934 86.1721 97.157 86.3749 96.6604C86.572 96.177 86.6554 95.6372 86.5929 95.118C86.5474 94.7418 86.4943 94.3092 85.9959 94.2659C85.6377 94.2358 85.2681 94.2885 84.944 94.4446C84.2807 94.7644 83.9395 95.4697 83.5643 96.0566C83.3804 96.3425 83.2212 96.5645 82.8914 96.7376C82.4764 96.9558 82.0102 97.0498 81.597 97.283C81.3828 97.4034 81.1762 97.5389 80.9564 97.6517C80.7214 97.7721 80.4636 97.8417 80.2115 97.9207C79.9595 97.9997 79.7112 98.0825 79.4705 98.1859C79.2222 98.2931 79.0327 98.4305 78.8185 98.5903C78.7787 98.6204 78.7162 98.6731 78.6783 98.6844C78.5797 98.7126 78.4433 98.6675 78.3352 98.69C78.1116 98.7352 77.8993 98.8612 77.7155 98.9948C77.3876 99.2318 77.0882 99.5929 76.7053 99.7434C76.3225 99.8939 75.8335 99.813 75.4355 99.7867C75.0318 99.7603 74.6054 99.8036 74.2168 99.6738C73.9041 99.5685 73.6141 99.2957 73.3678 99.0493C72.9451 98.6148 72.2761 99.2807 72.7044 99.7114Z" fill="#222221"/>
<path d="M82.7777 118.138C82.8364 118.149 82.8971 118.162 82.9558 118.174C82.8459 118.064 82.736 117.955 82.6242 117.844C82.6886 118.04 82.6905 118.241 82.7227 118.443C82.7512 118.627 82.808 118.802 82.8762 118.975C83.0298 119.364 83.2325 119.697 83.5661 119.96C84.1669 120.436 85.0728 120.762 85.848 120.698C86.2138 120.668 86.5947 120.515 86.9321 120.47C87.2865 120.421 87.6049 120.38 87.9025 120.164C88.2341 119.925 88.545 119.729 88.9411 119.611C89.3069 119.502 89.6821 119.432 90.0479 119.327C90.4687 119.206 90.8629 119.046 91.1983 118.762C91.4788 118.525 91.6816 118.215 91.9147 117.935C92.1877 117.609 92.5004 117.318 92.7771 116.994C93.0576 116.663 93.3021 116.306 93.5845 115.976C94.1227 115.35 94.7728 114.835 95.3812 114.28C95.6882 114 95.9914 113.708 96.2492 113.381C96.5013 113.063 96.6965 112.709 96.9277 112.378C97.0433 112.214 97.1779 112.053 97.3371 111.93C97.5001 111.806 97.6858 111.72 97.8412 111.582C98.0156 111.426 98.1445 111.223 98.1918 110.994C98.2335 110.792 98.2032 110.582 98.2449 110.384C98.3226 110.008 98.6486 109.619 98.8931 109.331C99.2058 108.962 99.5564 108.627 99.8995 108.287C99.6758 108.065 99.4522 107.843 99.2285 107.621C99.1073 107.741 98.986 107.862 98.8647 107.982C98.4325 108.411 99.1035 109.075 99.5356 108.648C99.6569 108.528 99.7782 108.407 99.8995 108.287C100.332 107.858 99.6626 107.194 99.2285 107.621C98.6562 108.187 98.063 108.752 97.6479 109.446C97.4337 109.803 97.3011 110.145 97.284 110.563C97.2783 110.683 97.2935 110.783 97.2196 110.871C97.1229 110.988 96.9429 111.052 96.8216 111.142C96.1961 111.601 95.9346 112.316 95.438 112.884C94.9093 113.488 94.2724 113.986 93.6811 114.528C93.3911 114.793 93.1125 115.07 92.8605 115.371C92.5989 115.683 92.3677 116.018 92.1043 116.328C91.837 116.644 91.5319 116.926 91.2647 117.241C91.0429 117.502 90.8534 117.794 90.6013 118.029C90.0953 118.501 89.2519 118.522 88.617 118.723C88.2152 118.851 87.8361 119.031 87.5007 119.287C87.3889 119.372 87.2619 119.46 87.1633 119.486C87.1273 119.496 87.025 119.517 87.025 119.515C87.006 119.518 86.8639 119.533 86.8051 119.541C86.4223 119.592 86.047 119.769 85.6604 119.759C85.3022 119.752 84.908 119.643 84.5858 119.49C84.2484 119.33 83.9641 119.12 83.8087 118.775C83.7367 118.616 83.6704 118.437 83.6419 118.264C83.6059 118.038 83.6059 117.81 83.5339 117.59C83.4846 117.44 83.3671 117.295 83.2022 117.261C83.1435 117.25 83.0828 117.237 83.0241 117.225C82.7739 117.175 82.5124 117.297 82.4403 117.555C82.3835 117.792 82.5275 118.087 82.7777 118.138Z" fill="#222221"/>
<path d="M36.5561 62.7499C37.1019 63.064 37.5094 63.5587 38.0572 63.8729C38.5746 64.1682 38.9479 64.6272 39.435 64.962C39.6776 65.1294 39.9486 65.2441 40.2178 65.3626C40.5324 65.5037 40.828 65.6749 41.1313 65.8366C41.6904 66.1357 42.2684 66.4047 42.8844 66.5646C43.5401 66.7358 44.1997 66.8919 44.846 67.0969C45.1587 67.1966 45.479 67.2963 45.7803 67.4261C46.0514 67.5427 46.2504 67.7515 46.5081 67.8888C46.7754 68.0299 47.0691 68.0939 47.3534 68.1917C47.6737 68.3008 47.9751 68.4719 48.2669 68.6394C48.8184 68.9591 49.351 69.2996 49.8362 69.7153C50.3043 70.1159 50.7478 70.5467 51.233 70.9285C51.7826 71.3612 52.3872 71.711 52.971 72.0948C54.1688 72.8829 55.3571 73.6767 56.5682 74.4442C57.1633 74.8204 57.7375 75.2304 58.3099 75.6405C58.8766 76.0468 59.4679 76.4249 60.0232 76.8481C60.5615 77.2582 61.0448 77.734 61.583 78.1422C62.127 78.5542 62.7164 78.8965 63.2774 79.284C63.8194 79.6583 64.2535 80.1568 64.7898 80.5386C65.0059 80.6929 65.2485 80.7568 65.4797 80.8735C65.7867 81.0277 66.0786 81.2083 66.3894 81.3588C66.9637 81.6334 67.5531 81.9024 68.0857 82.2541C68.5481 82.5607 68.804 83.0178 69.1925 83.3959C69.6265 83.821 70.2065 83.9696 70.6935 84.3138C71.1749 84.6524 71.4914 85.1829 71.9084 85.5892C72.115 85.7904 72.3443 85.9804 72.6172 86.082C72.8977 86.1873 73.1157 86.2701 73.345 86.4732C73.8075 86.8814 74.213 87.2313 74.7911 87.4758C75.3635 87.7185 75.9624 87.8859 76.548 88.0909C77.1886 88.3147 77.6965 88.6684 78.2746 89.0051C78.8394 89.3324 79.4478 89.6014 80.0353 89.8873C80.6759 90.1995 81.3942 90.3086 82.0329 90.6227C82.6147 90.9068 83.1075 91.3319 83.6931 91.6159C84.2939 91.9075 84.8474 92.2799 85.4178 92.6241C85.9978 92.974 86.6118 93.2355 87.2126 93.544C87.8134 93.8524 88.3991 94.191 89.0093 94.4807C90.2602 95.0713 91.6021 95.4494 92.8472 96.057C94.0299 96.6345 95.0704 97.5373 96.3345 97.9455C96.8993 98.128 97.4982 98.1129 98.0573 98.3217C98.6771 98.5531 99.2494 98.807 99.8957 98.9669C100.504 99.1155 100.866 99.5576 101.387 99.8642C101.986 100.218 102.625 100.21 103.284 100.342C103.599 100.404 103.899 100.523 104.213 100.588C104.541 100.656 104.875 100.69 105.21 100.699C105.82 100.716 105.82 99.7758 105.21 99.7588C104.541 99.74 103.952 99.4898 103.298 99.3958C102.644 99.3017 102.087 99.2491 101.55 98.8334C101.323 98.6565 101.103 98.4553 100.847 98.3161C100.561 98.1581 100.243 98.081 99.926 98.0095C99.2798 97.8609 98.7112 97.5317 98.082 97.3361C97.5285 97.163 96.941 97.1894 96.3971 96.9712C95.7925 96.7285 95.2353 96.358 94.6838 96.0175C93.5144 95.2933 92.2844 94.7666 90.9994 94.2776C90.3569 94.033 89.7163 93.7904 89.1022 93.4781C88.4995 93.1715 87.9139 92.8311 87.3036 92.5395C86.7123 92.2555 86.1437 91.9677 85.5865 91.6234C84.999 91.2604 84.3963 90.9482 83.7898 90.6171C83.2307 90.3124 82.7626 89.8986 82.1656 89.6578C81.5193 89.3963 80.8521 89.2477 80.2305 88.928C79.6297 88.6195 78.9967 88.3712 78.4338 87.995C77.9031 87.6395 77.3535 87.3761 76.7489 87.1673C76.169 86.9661 75.5644 86.8118 75.0072 86.5485C74.4708 86.2964 74.1202 85.845 73.6407 85.5102C73.4019 85.3427 73.129 85.3032 72.8788 85.1716C72.6324 85.0399 72.4315 84.7784 72.2514 84.5715C71.8515 84.1126 71.4763 83.6574 70.9342 83.3545C70.4244 83.0705 69.9752 82.8937 69.6 82.4328C69.2266 81.972 68.8495 81.6014 68.3339 81.2948C67.7938 80.9732 67.2176 80.7173 66.6528 80.4389C66.3724 80.2997 66.1089 80.1211 65.8246 79.995C65.5536 79.8746 65.33 79.7806 65.0987 79.5868C64.5851 79.1523 64.1132 78.7065 63.5484 78.3303C62.9988 77.9635 62.4245 77.6287 61.9128 77.2074C61.3764 76.7653 60.8704 76.2894 60.2999 75.8888C59.7427 75.4975 59.1855 75.1119 58.6321 74.715C57.4741 73.8874 56.2536 73.1632 55.0728 72.3713C54.4777 71.9725 53.8864 71.5662 53.2856 71.175C52.7265 70.81 52.1522 70.479 51.6405 70.0482C51.1686 69.6513 50.7289 69.2206 50.2494 68.8331C49.749 68.4287 49.2032 68.0807 48.6422 67.7647C48.3579 67.6048 48.066 67.4581 47.7628 67.3377C47.4747 67.2248 47.1563 67.1816 46.8929 67.016C46.6768 66.8825 46.4986 66.7151 46.2655 66.6079C45.9282 66.4555 45.57 66.337 45.2175 66.2223C44.5939 66.0191 43.9571 65.8555 43.3184 65.6975C42.674 65.5376 42.0922 65.2799 41.5103 64.9639C40.9967 64.6855 40.3883 64.4861 39.9164 64.1437C39.6814 63.9726 39.4805 63.7581 39.2625 63.5681C39.0048 63.3443 38.7338 63.1712 38.4419 62.9982C37.934 62.6972 37.5549 62.2251 37.0394 61.9298C36.5068 61.6345 36.0292 62.4471 36.5561 62.7499Z" fill="#222221"/>
<path d="M100.68 69.9878C101.065 70.1816 101.446 70.3716 101.797 70.6236C102.163 70.887 102.507 71.1766 102.862 71.4531C103.235 71.7447 103.616 72.0212 104.008 72.2883C104.365 72.5291 104.734 72.7548 105.04 73.0595C105.328 73.3473 105.593 73.6464 105.909 73.9041C106.245 74.1768 106.596 74.4327 106.922 74.7167C107.225 74.9782 107.5 75.2547 107.712 75.5951C107.947 75.9732 108.165 76.3475 108.44 76.6993C108.938 77.3351 109.501 77.9219 109.965 78.5822C110.204 78.9226 110.414 79.28 110.581 79.6619C110.748 80.0418 110.888 80.4369 111.12 80.7848C111.62 81.5448 112.219 82.2313 112.818 82.9123C113.293 83.454 113.614 84.182 113.718 84.8911C113.777 85.2899 113.765 85.7187 113.748 86.1213C113.731 86.5144 113.663 86.9038 113.453 87.2424C113.092 87.8274 112.293 88.0587 111.641 88.0531C111.03 88.0493 111.03 88.9898 111.641 88.9936C112.387 88.9992 113.189 88.7603 113.775 88.2938C114.463 87.7465 114.679 86.8436 114.7 86.0084C114.72 85.1544 114.641 84.3437 114.302 83.5518C114.129 83.1512 113.915 82.7806 113.644 82.4364C113.36 82.0752 113.028 81.7573 112.744 81.3943C112.467 81.0407 112.183 80.6814 111.936 80.3071C111.684 79.9233 111.54 79.4851 111.349 79.0694C110.974 78.2586 110.392 77.5646 109.817 76.8855C109.546 76.5639 109.264 76.2478 109.02 75.9055C108.76 75.5443 108.572 75.138 108.301 74.7825C107.744 74.0508 106.939 73.5956 106.275 72.9749C105.9 72.6231 105.583 72.2375 105.159 71.9347C104.704 71.6111 104.232 71.3139 103.785 70.981C103.345 70.6537 102.926 70.2982 102.487 69.9671C102.068 69.6511 101.624 69.4085 101.156 69.1734C100.616 68.9006 100.136 69.7132 100.68 69.9878Z" fill="#222221"/>
<path d="M95.2162 57.4774C95.8359 57.6411 96.2699 57.1483 96.5561 56.6743C96.6812 56.4655 96.7873 56.2454 96.9162 56.0385C96.9409 55.999 96.9674 55.9595 96.9939 55.92C97.0261 55.8748 96.9769 55.9444 96.975 55.9463C97.0015 55.9181 97.028 55.8918 97.0565 55.8635C97.2024 55.7187 97.3559 55.5795 97.5075 55.4422C98.1443 54.8666 98.6523 54.2252 99.1545 53.533C99.3952 53.2019 99.5847 52.8765 99.7648 52.5097C99.9335 52.1617 100.163 51.889 100.419 51.603C100.693 51.2964 100.97 50.988 101.203 50.6475C101.421 50.3296 101.613 50.0042 101.863 49.7089C102.373 49.1069 102.945 48.5633 103.43 47.9407C103.923 47.3087 104.351 46.6315 104.846 45.9995C105.333 45.3769 105.915 44.8389 106.4 44.2144C106.885 43.588 107.228 42.8977 107.632 42.2224C108.041 41.5377 108.549 40.9847 109.101 40.4129C109.385 40.1195 109.645 39.8053 109.891 39.4818C110.011 39.3257 110.124 39.1658 110.238 39.004C110.329 38.8742 110.414 38.6899 110.532 38.5827C110.655 38.4717 110.833 38.515 110.973 38.4378C111.142 38.3457 111.303 38.1895 111.426 38.0428C111.656 37.772 111.824 37.4315 112.109 37.2077C112.414 36.9669 112.753 36.7731 113.054 36.5267C113.367 36.2709 113.663 35.9982 113.958 35.7235C114.578 35.1461 115.211 34.5987 115.867 34.0626C117.165 33.0036 118.475 31.9634 119.568 30.6881C119.834 30.3777 120.084 30.0579 120.368 29.7664C120.643 29.4861 120.939 29.2228 121.227 28.9538C121.526 28.6735 121.807 28.3763 122.125 28.1167C122.43 27.8684 122.764 27.654 123.094 27.4377C123.8 26.9731 124.471 26.4633 125.161 25.9742C125.891 25.457 126.628 24.951 127.36 24.4337C127.714 24.1816 128.069 23.9277 128.417 23.6681C128.186 23.4913 127.953 23.3145 127.722 23.1377C127.714 23.1809 127.709 23.2242 127.701 23.2656C127.659 23.5158 127.767 23.7716 128.033 23.8449C128.258 23.907 128.575 23.7678 128.616 23.5158C128.624 23.4725 128.63 23.4292 128.637 23.3879C128.668 23.1979 128.632 23.0154 128.467 22.8932C128.328 22.7897 128.091 22.7446 127.94 22.8555C126.653 23.8111 125.313 24.6952 124.02 25.6394C123.416 26.0815 122.796 26.4953 122.178 26.9166C121.56 27.338 121.043 27.8365 120.499 28.3424C119.957 28.8466 119.46 29.3601 118.981 29.9263C118.518 30.4736 118.022 30.9928 117.491 31.4781C116.339 32.5296 115.054 33.4306 113.903 34.4858C113.312 35.0276 112.747 35.6201 112.092 36.0903C111.771 36.3198 111.436 36.5004 111.182 36.8089C110.96 37.0779 110.791 37.4202 110.498 37.6234C110.577 37.6027 110.657 37.5801 110.736 37.5594C110.247 37.5989 109.908 37.8133 109.637 38.214C109.395 38.5733 109.144 38.9288 108.868 39.2617C108.311 39.9295 107.66 40.4919 107.16 41.2104C106.679 41.9008 106.345 42.6776 105.86 43.3661C105.375 44.0527 104.753 44.6151 104.228 45.2678C103.684 45.9468 103.222 46.6842 102.687 47.3689C102.17 48.0329 101.539 48.5991 101.016 49.2593C100.735 49.6148 100.521 50.0136 100.244 50.3691C99.9903 50.6926 99.6985 50.9842 99.4331 51.2983C99.1394 51.6482 98.965 52.0263 98.7565 52.4269C98.5556 52.8125 98.2675 53.1586 98.0079 53.5085C97.7198 53.8979 97.4052 54.2534 97.0489 54.5826C96.7381 54.8704 96.3836 55.1375 96.143 55.4911C95.9762 55.7375 95.8549 56.0121 95.6976 56.2642C95.6104 56.4034 95.5933 56.426 95.4891 56.5351C95.4796 56.5445 95.4076 56.599 95.455 56.567C95.5024 56.5351 95.4114 56.5896 95.4019 56.5934C95.4967 56.5539 95.4284 56.5802 95.4076 56.5802C95.4379 56.5783 95.563 56.5915 95.4701 56.567C94.8788 56.4128 94.6267 57.3213 95.2162 57.4774Z" fill="#222221"/>
<path d="M78.4452 42.3376C78.4452 41.811 78.7352 41.3388 78.8811 40.8422C79.0441 40.2873 79.1654 39.7155 79.3909 39.1813C79.806 38.19 80.5451 37.3812 81.2597 36.5949C81.6179 36.2018 81.9761 35.8293 82.3665 35.4682C82.8024 35.0675 83.0829 34.5973 83.3634 34.0838C83.4923 33.8486 83.6287 33.6192 83.7481 33.3784C83.877 33.1169 83.9926 32.8329 84.1708 32.5996C84.3072 32.4228 84.4911 32.2836 84.6484 32.1256C84.8341 31.9375 84.9781 31.7137 85.1468 31.5105C85.7533 30.7769 86.4754 30.1807 87.3112 29.7179C87.7282 29.4866 88.1679 29.2571 88.6208 29.101C89.0075 28.9674 89.2671 29.0201 89.6955 29.1649C90.1029 29.3022 90.5578 29.4471 90.8876 29.7349C91.2401 30.0415 91.3671 30.5249 91.4107 30.9726C91.4372 31.2284 91.4391 31.4861 91.4391 31.7419C91.4391 32.0222 91.4618 32.3137 91.422 32.5902C91.3519 33.0718 91.1586 33.5345 90.9293 33.9596C90.7758 34.2436 90.609 34.522 90.4744 34.8155C90.3436 35.0976 90.2602 35.3892 90.1693 35.6845C89.9911 36.2639 89.5628 36.6833 89.288 37.2138C88.9885 37.7931 88.7421 38.4044 88.4863 39.0045C88.3764 39.2603 88.3138 39.5312 88.2115 39.7889C88.0788 40.1275 87.9727 40.387 88.0238 40.7595C88.0579 41.0115 88.3839 41.1488 88.6076 41.0887C88.8824 41.0134 88.9734 40.7632 88.9392 40.5093C88.9317 40.4585 89.0094 40.3174 89.0302 40.2629C89.0814 40.1387 89.1364 40.0165 89.1799 39.8886C89.2671 39.629 89.3505 39.3751 89.4623 39.1249C89.7068 38.5737 89.9153 38 90.2204 37.4771C90.3531 37.2495 90.5199 37.0482 90.6677 36.8319C90.8421 36.578 90.9653 36.3034 91.06 36.0118C91.1453 35.7447 91.206 35.4682 91.3292 35.2161C91.458 34.9509 91.6078 34.6951 91.748 34.4355C92.0153 33.9389 92.2389 33.4066 92.3337 32.8479C92.4322 32.2799 92.4133 31.6573 92.3678 31.0835C92.3242 30.5343 92.218 29.9549 91.9091 29.4847C91.5869 28.9975 91.0979 28.7078 90.5673 28.4896C90.1029 28.2978 89.6064 28.1021 89.0965 28.0796C88.6133 28.0589 88.1698 28.2639 87.7414 28.4577C86.7768 28.8959 85.8708 29.4358 85.1032 30.1713C84.7318 30.5268 84.4247 30.9255 84.1044 31.3243C83.9301 31.5406 83.7007 31.7043 83.5207 31.9131C83.3179 32.1463 83.172 32.4134 83.0355 32.6881C82.7759 33.2129 82.5048 33.7471 82.1902 34.2418C81.8965 34.7026 81.4264 35.0073 81.0625 35.4061C80.1964 36.3541 79.2564 37.3078 78.6821 38.4684C78.3732 39.0948 78.2007 39.7607 78.0131 40.4284C77.833 41.0698 77.4976 41.6567 77.4976 42.3376C77.4976 42.9414 78.4452 42.9433 78.4452 42.3376Z" fill="#222221"/>
<path d="M103.447 115.983C103.442 116.995 103.307 118.031 103.464 119.038C103.58 119.769 104.024 120.228 104.776 120.288C105.532 120.349 106.391 120.448 107.128 120.226C107.554 120.097 107.945 119.846 108.333 119.634C108.784 119.389 109.251 119.222 109.717 119.013C110.572 118.629 111.406 118.011 112.003 117.29C112.266 116.972 112.501 116.632 112.746 116.299C113.047 115.891 113.398 115.537 113.741 115.163C114.4 114.442 115.022 113.682 115.727 113.003C116.4 112.354 117.205 111.888 117.91 111.275C118.204 111.019 118.564 110.836 118.843 110.564C119.171 110.24 119.39 109.794 119.614 109.397C120.048 108.624 120.437 107.821 120.952 107.097C121.202 106.745 121.521 106.446 121.761 106.087C122.025 105.694 122.218 105.31 122.554 104.968C122.851 104.665 123.103 104.334 123.346 103.986C123.647 103.555 123.979 103.171 124.316 102.769C124.892 102.078 125.088 101.189 125.745 100.542C126.054 100.239 126.285 99.9396 126.433 99.5315C126.581 99.1195 126.717 98.7979 126.964 98.4329C127.187 98.1 127.284 97.7558 127.402 97.3758C127.542 96.9187 127.743 96.488 127.972 96.0685C128.419 95.2484 128.961 94.4847 129.467 93.7003C129.699 93.3429 129.936 92.9837 130.093 92.5886C130.252 92.1899 130.275 91.7685 130.396 91.3622C130.675 90.4274 131.321 89.5 131.88 88.71C132.432 87.9313 133.146 87.2785 133.665 86.4772C133.906 86.1067 134.101 85.7041 134.382 85.3618C134.687 84.9893 135.015 84.6545 135.288 84.2539C135.824 83.4638 136.288 82.6381 136.853 81.8669C137.45 81.0505 138.076 80.2548 138.671 79.4366C139.239 78.6522 139.711 77.8152 140.257 77.0176C140.776 76.2596 141.425 75.5881 141.978 74.8526C142.624 73.9948 143.265 73.1333 143.862 72.2398C144.345 71.5157 145.012 70.91 145.397 70.1218C145.579 69.7475 145.666 69.3431 145.827 68.9612C146.017 68.5154 146.212 68.0715 146.404 67.6257C146.587 67.1912 146.898 66.8771 147.201 66.5253C147.524 66.1548 147.802 65.7447 148.068 65.3328C148.314 64.949 148.521 64.5428 148.78 64.1665C149.074 63.7414 149.402 63.3427 149.692 62.9138C149.94 62.547 150.139 62.167 150.308 61.7589C150.512 61.266 150.783 60.8409 151.051 60.3819C151.274 59.9982 151.422 59.6013 151.551 59.18C151.68 58.7568 151.873 58.4313 152.106 58.057C152.622 57.2313 152.965 56.3171 153.477 55.4894C154.485 53.8586 155.315 52.0679 155.999 50.2771C156.361 49.331 156.685 48.3566 156.962 47.3823C157.243 46.3985 157.394 45.3903 157.65 44.4027C157.906 43.4152 157.944 42.375 158.145 41.3743C158.346 40.3755 158.52 39.371 158.804 38.391C159.1 37.3696 159.496 36.3783 159.818 35.3664C159.957 34.93 160.154 34.5331 160.326 34.1098C160.502 33.6753 160.546 33.207 160.711 32.7706C161.048 31.8771 161.736 31.0325 162.369 30.329C162.775 29.8776 162.106 29.2117 161.698 29.6631C161.06 30.376 160.478 31.1567 160.03 32.0031C159.835 32.3737 159.722 32.7555 159.625 33.1618C159.509 33.6434 159.299 34.0534 159.111 34.5086C158.736 35.4209 158.467 36.4009 158.148 37.3358C157.828 38.2763 157.604 39.2356 157.411 40.21C157.214 41.205 157.034 42.1888 156.909 43.1951C156.848 43.688 156.731 44.1545 156.6 44.6322C156.467 45.1138 156.412 45.6085 156.31 46.0957C155.899 48.0237 155.18 49.9235 154.348 51.7067C153.943 52.5739 153.598 53.473 153.103 54.295C152.614 55.1076 152.156 55.9051 151.737 56.7554C151.36 57.519 150.865 58.1736 150.617 58.9956C150.488 59.4264 150.306 59.7913 150.069 60.175C149.796 60.6171 149.589 61.0572 149.383 61.5331C149.011 62.3796 148.382 63.0605 147.872 63.8223C147.33 64.633 146.885 65.4513 146.237 66.1905C145.634 66.8771 145.342 67.7217 144.98 68.5455C144.813 68.9274 144.732 69.3412 144.544 69.7136C144.34 70.1199 144.05 70.4698 143.762 70.8178C143.157 71.5514 142.655 72.3565 142.096 73.1239C141.519 73.9121 140.936 74.6946 140.306 75.4413C139.706 76.1542 139.236 76.9066 138.733 77.6873C138.216 78.4905 137.644 79.256 137.069 80.0178C136.482 80.7947 135.873 81.564 135.343 82.3823C134.835 83.1629 134.391 83.9247 133.773 84.6282C133.165 85.3204 132.786 86.1687 132.172 86.8628C131.543 87.5757 130.97 88.3206 130.478 89.1332C129.998 89.9232 129.543 90.7283 129.376 91.6425C129.217 92.504 128.671 93.2037 128.196 93.9204C127.709 94.6559 127.218 95.3951 126.852 96.2002C126.672 96.5952 126.534 96.9958 126.41 97.4116C126.295 97.8028 126.033 98.0586 125.844 98.4104C125.65 98.7659 125.62 99.2042 125.396 99.5409C125.154 99.9077 124.771 100.173 124.517 100.54C124.276 100.888 124.094 101.266 123.916 101.648C123.708 102.092 123.363 102.4 123.061 102.78C122.787 103.126 122.557 103.502 122.288 103.852C122.012 104.211 121.651 104.497 121.392 104.87C121.162 105.199 121.003 105.562 120.744 105.872C120.454 106.215 120.175 106.553 119.931 106.931C119.447 107.678 119.064 108.481 118.613 109.247C118.397 109.616 118.2 109.907 117.844 110.154C117.484 110.402 117.175 110.697 116.836 110.97C116.481 111.254 116.079 111.476 115.723 111.76C115.372 112.038 115.048 112.347 114.737 112.668C114.046 113.383 113.415 114.154 112.729 114.875C112.109 115.528 111.667 116.325 111.038 116.965C110.329 117.685 109.493 118.069 108.587 118.466C107.767 118.823 107.092 119.401 106.165 119.418C105.78 119.425 105.398 119.393 105.015 119.37C104.636 119.35 104.471 119.322 104.399 118.921C104.226 117.975 104.391 116.95 104.397 115.994C104.399 115.377 103.451 115.375 103.447 115.983Z" fill="#222221"/>
<path d="M162.04 30.462C162.65 30.462 162.65 29.5215 162.04 29.5215C161.431 29.5215 161.429 30.462 162.04 30.462Z" fill="#222221"/>
<path d="M96.2643 122.482C96.2454 122.326 96.2245 122.173 96.1866 122.023C95.8986 122.143 95.6086 122.264 95.3205 122.386C95.4702 122.623 95.4418 122.928 95.5214 123.191C95.6219 123.518 95.8152 123.806 95.9744 124.105C96.2776 124.675 96.4671 125.294 96.6946 125.896C96.8121 126.206 96.9258 126.505 97.0016 126.829C97.0736 127.134 97.1873 127.444 97.2063 127.756C97.2252 128.087 97.2442 128.396 97.3939 128.7C97.5171 128.951 97.6782 129.133 97.6991 129.417C97.7237 129.743 97.7919 130.025 97.972 130.299C98.0573 130.429 98.1577 130.549 98.2354 130.683C98.3359 130.856 98.406 131.05 98.4875 131.232C98.7642 131.857 99.0087 132.487 99.257 133.123C99.4996 133.745 99.8236 134.332 100.064 134.955C100.311 135.589 100.313 136.241 100.453 136.898C100.589 137.534 100.76 138.16 100.968 138.777C101.186 139.424 101.463 140.043 101.723 140.675C101.967 141.273 102.13 141.901 102.325 142.516C102.547 143.207 102.805 143.886 103.015 144.58C103.104 144.875 103.178 145.171 103.218 145.475C103.264 145.823 103.265 146.179 103.332 146.525C103.453 147.161 103.783 147.742 103.952 148.366C104.027 148.65 104.137 148.931 104.179 149.222C104.221 149.521 104.238 149.815 104.342 150.101C104.45 150.396 104.611 150.667 104.74 150.953C104.884 151.273 105 151.604 105.119 151.931C105.254 152.296 105.42 152.655 105.536 153.028C105.642 153.374 105.712 153.729 105.852 154.066C105.968 154.344 106.158 154.602 106.211 154.901C106.279 155.281 106.271 155.678 106.311 156.06C106.389 156.78 106.516 157.514 106.667 158.221C106.821 158.936 107.117 159.605 107.227 160.332C107.299 160.804 108.034 160.755 108.14 160.332C108.15 160.294 108.159 160.258 108.168 160.221C108.316 159.634 107.403 159.384 107.255 159.97C107.245 160.008 107.236 160.044 107.227 160.081C107.532 160.081 107.835 160.081 108.14 160.081C108.041 159.432 107.791 158.838 107.636 158.206C107.484 157.591 107.407 156.959 107.299 156.334C107.185 155.684 107.28 154.956 107.026 154.337C106.921 154.081 106.768 153.848 106.679 153.586C106.561 153.24 106.501 152.877 106.368 152.535C106.123 151.903 105.898 151.261 105.631 150.639C105.517 150.373 105.36 150.121 105.257 149.852C105.144 149.553 105.146 149.243 105.089 148.933C104.977 148.314 104.753 147.702 104.52 147.121C104.406 146.835 104.287 146.542 104.24 146.237C104.185 145.887 104.179 145.53 104.128 145.18C104.027 144.505 103.783 143.858 103.561 143.214C103.332 142.554 103.131 141.886 102.919 141.22C102.72 140.598 102.447 140.009 102.204 139.403C101.956 138.775 101.742 138.134 101.567 137.481C101.486 137.178 101.414 136.873 101.351 136.567C101.283 136.234 101.264 135.897 101.215 135.56C101.116 134.876 100.792 134.242 100.502 133.621C100.216 133.008 99.9999 132.372 99.7384 131.75C99.4711 131.116 99.2285 130.457 98.8362 129.891C98.749 129.763 98.6751 129.652 98.6543 129.496C98.6334 129.325 98.6353 129.152 98.5917 128.984C98.5102 128.678 98.2657 128.441 98.188 128.14C98.1426 127.961 98.1634 127.769 98.1444 127.587C98.1236 127.374 98.0648 127.181 98.0118 126.976C97.9246 126.635 97.8639 126.293 97.737 125.964C97.4659 125.262 97.2385 124.542 96.9125 123.862C96.7647 123.556 96.5411 123.268 96.4387 122.941C96.3269 122.589 96.3477 122.237 96.1412 121.912C95.855 121.46 95.1461 121.75 95.275 122.275C95.2921 122.344 95.3091 122.414 95.3186 122.484C95.3489 122.736 95.5157 122.954 95.7924 122.954C96.0237 122.952 96.2928 122.736 96.2643 122.482Z" fill="#222221"/>
<path d="M124.818 101.414C125.228 101.854 125.508 102.418 125.764 102.956C126.046 103.553 126.202 104.215 126.564 104.77C126.949 105.36 127.445 105.87 127.819 106.47C128.203 107.087 128.474 107.77 128.779 108.426C129.382 109.728 130.292 110.872 130.851 112.192C131.113 112.811 131.512 113.336 131.81 113.932C131.956 114.222 132.022 114.536 132.104 114.846C132.198 115.204 132.299 115.561 132.411 115.913C132.64 116.626 132.928 117.325 133.302 117.976C133.648 118.582 134.062 119.146 134.482 119.703C134.909 120.269 135.348 120.83 135.739 121.422C136.152 122.047 136.512 122.705 136.91 123.341C137.115 123.666 137.342 123.98 137.534 124.313C137.704 124.61 137.826 124.926 137.934 125.25C138.157 125.914 138.343 126.601 138.737 127.189C138.921 127.462 139.129 127.718 139.317 127.989C139.52 128.282 139.681 128.6 139.876 128.897C140.272 129.509 140.729 130.077 141.18 130.649C142.137 131.858 143.083 133.081 143.962 134.348C144.362 134.926 144.76 135.498 145.291 135.966C145.539 136.184 145.805 136.397 145.994 136.67C146.182 136.942 146.309 137.251 146.508 137.516C146.601 137.642 146.705 137.74 146.826 137.842C146.906 137.909 146.978 137.951 146.999 138.028C147.162 138.609 148.077 138.363 147.912 137.778C147.823 137.462 147.613 137.29 147.38 137.08C147.148 136.871 147.038 136.553 146.875 136.293C146.496 135.684 145.886 135.302 145.427 134.764C144.967 134.222 144.595 133.602 144.178 133.026C143.714 132.387 143.236 131.756 142.751 131.132C142.287 130.534 141.809 129.947 141.351 129.345C141.129 129.055 140.915 128.762 140.716 128.457C140.528 128.169 140.369 127.863 140.178 127.577C139.804 127.02 139.378 126.535 139.145 125.897C138.898 125.218 138.726 124.509 138.369 123.873C138.182 123.54 137.953 123.228 137.748 122.903C137.539 122.57 137.337 122.235 137.136 121.898C136.762 121.274 136.376 120.666 135.94 120.081C135.091 118.939 134.168 117.831 133.624 116.503C133.343 115.817 133.144 115.102 132.958 114.385C132.782 113.71 132.456 113.159 132.094 112.568C131.728 111.974 131.499 111.31 131.152 110.704C130.8 110.087 130.402 109.495 130.055 108.872C129.691 108.221 129.411 107.529 129.09 106.857C128.768 106.186 128.372 105.599 127.91 105.014C127.699 104.749 127.487 104.48 127.311 104.19C127.129 103.891 127.034 103.558 126.907 103.235C126.674 102.636 126.388 102.044 126.046 101.498C125.882 101.233 125.696 100.977 125.482 100.748C125.074 100.304 124.405 100.97 124.818 101.414Z" fill="#222221"/>
<path d="M101.963 90.779C102.066 91.1457 102.337 91.2643 102.61 91.4843C102.89 91.7119 103.11 92.0167 103.339 92.2913C103.796 92.8405 104.315 93.3334 104.757 93.8977C105.182 94.4394 105.583 95.0376 105.83 95.6809C105.951 95.9969 106.029 96.3148 106.065 96.6496C106.108 97.0653 106.216 97.402 106.396 97.7763C106.427 97.8403 106.451 97.9005 106.468 97.9682C106.474 97.9889 106.478 98.0114 106.484 98.0321C106.508 98.1337 106.476 97.9569 106.484 98.0303C106.495 98.1469 106.503 98.2654 106.504 98.382C106.504 98.4516 106.503 98.5212 106.499 98.5889C106.497 98.6153 106.495 98.6397 106.493 98.666C106.484 98.7526 106.518 98.5701 106.485 98.7093C106.476 98.745 106.465 98.8485 106.459 98.8165C106.453 98.7808 106.429 98.8391 106.467 98.8052C106.489 98.7845 106.66 98.6999 106.588 98.7149C106.338 98.7676 106.192 99.0592 106.256 99.2943C106.328 99.552 106.588 99.6743 106.84 99.6235C107.45 99.4974 107.479 98.6679 107.448 98.1845C107.427 97.8666 107.359 97.592 107.219 97.3042C107.052 96.9637 107.024 96.644 106.973 96.2734C106.753 94.714 105.6 93.3484 104.56 92.2311C104.255 91.9038 103.97 91.5652 103.677 91.2266C103.536 91.0649 103.389 90.9069 103.222 90.7714C103.133 90.6981 103.04 90.636 102.943 90.5739C102.909 90.5514 102.877 90.5156 102.883 90.5325C102.714 89.9457 101.798 90.194 101.963 90.779Z" fill="#222221"/>
<path d="M72.4846 97.9178C73.2067 98.0175 73.6578 98.7285 74.3553 98.9279C75.0034 99.1122 75.7805 98.815 76.3491 98.5159C76.6353 98.3654 76.9139 98.1736 77.1053 97.9102C77.3365 97.5905 77.437 97.1973 77.4749 96.8117C77.5526 96.0236 77.3138 95.2147 76.9972 94.5C76.8399 94.1444 76.6807 93.7551 76.4552 93.4353C76.1368 92.9857 75.6971 92.6208 75.3067 92.2333C74.8746 91.8064 74.2036 92.4704 74.6358 92.8992C74.9409 93.2021 75.265 93.4917 75.5531 93.8096C75.7691 94.0485 75.879 94.3589 76.0193 94.6429C76.2865 95.1847 76.5026 95.7715 76.5348 96.3791C76.55 96.6612 76.5348 96.9547 76.4173 97.2161C76.3169 97.44 76.2221 97.5039 75.9738 97.6469C75.735 97.7842 75.4791 97.8877 75.2119 97.961C75.1361 97.9817 75.0603 98.0005 74.9845 98.0156C74.9219 98.0269 74.8821 98.0325 74.8708 98.0344C74.8139 98.0381 74.7589 98.0381 74.704 98.04C74.6831 98.04 74.6092 98.0287 74.704 98.0438C74.6718 98.0381 74.6377 98.0287 74.6073 98.0193C74.2889 97.9291 74.016 97.6732 73.7526 97.4795C73.4493 97.2575 73.1158 97.06 72.7367 97.0092C72.4827 96.9735 72.2288 97.0694 72.153 97.3384C72.0923 97.5585 72.2288 97.882 72.4846 97.9178Z" fill="#222221"/>
<path d="M78.1666 112.6C78.5172 111.976 79.0289 111.457 79.7321 111.246C80.3632 111.056 81.1725 111.066 81.7429 111.306C82.0462 111.434 82.2717 111.617 82.4916 111.859C82.6148 111.995 82.7171 112.141 82.8213 112.292C82.8744 112.369 82.9313 112.442 82.9824 112.52C83.0355 112.597 83.0488 112.587 83.0393 112.662C83.0336 112.711 82.9616 112.841 82.9066 112.943C82.8232 113.097 82.7304 113.247 82.6527 113.404C82.52 113.667 82.4252 113.949 82.3248 114.226C82.2092 114.545 82.1258 114.79 81.9211 115.08C81.9154 115.089 81.8661 115.149 81.9097 115.097C81.8813 115.132 81.8491 115.164 81.8169 115.196C81.796 115.217 81.7733 115.238 81.7505 115.255C81.8036 115.215 81.7486 115.253 81.7202 115.268C81.6994 115.279 81.6141 115.311 81.6956 115.283C81.6614 115.294 81.6254 115.305 81.5894 115.311C81.5136 115.326 81.6937 115.317 81.5534 115.311C81.5022 115.309 81.453 115.305 81.4018 115.3C81.1478 115.268 80.928 115.539 80.928 115.77C80.928 116.05 81.1459 116.208 81.4018 116.24C82.2926 116.349 82.7967 115.576 83.0886 114.865C83.1549 114.705 83.2137 114.544 83.2705 114.382C83.299 114.305 83.3255 114.227 83.3539 114.15C83.3653 114.12 83.3767 114.092 83.388 114.062C83.3994 114.034 83.4108 114.006 83.4221 113.977C83.4051 114.015 83.4032 114.021 83.4165 113.99C83.5738 113.635 83.822 113.319 83.9377 112.945C84.1025 112.414 83.7766 111.995 83.4771 111.59C83.2023 111.218 82.8858 110.883 82.4878 110.639C81.7145 110.163 80.7043 110.102 79.8268 110.259C78.739 110.452 77.8728 111.19 77.3459 112.13C77.0522 112.655 77.869 113.131 78.1666 112.6Z" fill="#222221"/>
<path d="M83.3785 118.11C83.3709 118.202 83.3785 118.117 83.3974 118.078C83.3709 118.132 83.4297 118.021 83.4391 118.006C83.5074 117.886 83.587 117.769 83.6722 117.662C83.7897 117.513 83.93 117.322 84.0949 117.222C84.3166 117.086 84.6407 117.132 84.889 117.096C85.2074 117.051 85.4671 116.889 85.7457 116.742C86.1986 116.503 86.771 116.851 87.1576 117.102C87.6447 117.416 88.0029 117.852 88.0067 118.441C88.0086 118.58 88.0257 118.74 87.984 118.862C87.9498 118.962 87.8835 119.05 87.8248 119.139C87.7641 119.231 87.694 119.332 87.6314 119.413C87.586 119.47 87.5272 119.519 87.4836 119.575C87.4286 119.648 87.5367 119.568 87.4969 119.575C86.8999 119.701 87.1538 120.608 87.7489 120.482C88.0806 120.412 88.3156 120.072 88.4995 119.818C88.6966 119.547 88.8823 119.267 88.9316 118.93C89.0548 118.082 88.7989 117.288 88.164 116.699C87.8683 116.424 87.5234 116.199 87.1576 116.026C86.7937 115.854 86.3863 115.693 85.9769 115.711C85.5561 115.73 85.2737 115.977 84.9023 116.127C84.5725 116.261 84.1896 116.172 83.8504 116.3C83.4732 116.441 83.2079 116.738 82.9653 117.045C82.7132 117.363 82.4669 117.698 82.4308 118.112C82.4081 118.366 82.6659 118.582 82.9047 118.582C83.1795 118.58 83.3557 118.364 83.3785 118.11Z" fill="#222221"/>
<path d="M94.3159 119.6C94.3102 119.664 94.3349 119.523 94.3424 119.502C94.3462 119.491 94.3595 119.462 94.3917 119.408C94.4353 119.338 94.5433 119.224 94.6419 119.143C94.8371 118.983 95.1043 118.844 95.3488 118.731C95.8435 118.501 96.503 118.234 97.0944 118.195C97.4431 118.17 97.7672 118.23 98.0951 118.345C98.2505 118.4 98.4021 118.465 98.5499 118.537C98.6144 118.567 98.6769 118.599 98.7375 118.635C98.7584 118.646 98.7773 118.659 98.7982 118.672C98.8418 118.701 98.766 118.639 98.8266 118.693C98.8475 118.712 98.8683 118.733 98.8854 118.755C98.8797 118.748 98.8475 118.703 98.874 118.748C98.9195 118.825 98.8911 118.763 98.9138 118.832C98.9612 118.981 98.9745 119.137 98.9801 119.293C98.9896 119.605 98.9498 119.895 98.7717 120.158C98.8361 120.064 98.7603 120.172 98.7319 120.205C98.6864 120.26 98.639 120.313 98.5916 120.365C98.4874 120.48 98.3812 120.591 98.2694 120.698C98.1671 120.796 98.0647 120.896 97.951 120.982C98.0003 120.945 97.8695 121.033 97.8525 121.046C97.8392 121.056 97.8164 121.061 97.8051 121.073C97.8373 121.037 97.8562 121.05 97.915 121.046C97.3085 121.082 97.3047 122.022 97.915 121.987C98.2599 121.966 98.5329 121.735 98.7773 121.515C99.0105 121.308 99.2284 121.08 99.4255 120.839C99.9638 120.188 100.106 119.152 99.742 118.377C99.5866 118.048 99.2929 117.85 98.9726 117.7C98.5215 117.487 98.0666 117.32 97.5682 117.265C96.7096 117.171 95.8511 117.499 95.074 117.828C94.2951 118.159 93.4422 118.676 93.3645 119.6C93.3436 119.854 93.5976 120.07 93.8383 120.07C94.115 120.07 94.2951 119.854 94.3159 119.6Z" fill="#222221"/>
<path d="M104.52 118.962C104.516 119.009 104.512 119.056 104.509 119.101C104.473 119.554 105.197 119.758 105.392 119.338C105.542 119.018 105.672 118.691 105.797 118.36C105.873 118.159 105.947 117.922 106.084 117.828C106.258 117.709 106.459 117.677 106.681 117.613C106.952 117.536 107.211 117.434 107.465 117.312C107.641 117.226 107.848 117.105 108.011 117.092C108.235 117.075 108.464 117.192 108.642 117.316C108.981 117.555 109.059 117.899 109.023 118.322C109 118.576 109.256 118.793 109.497 118.793C109.772 118.793 109.948 118.576 109.971 118.322C110.028 117.69 109.817 117.055 109.311 116.646C109.046 116.432 108.727 116.257 108.388 116.187C108.013 116.108 107.67 116.182 107.327 116.336C107.046 116.462 106.785 116.605 106.487 116.691C106.212 116.77 105.928 116.836 105.674 116.976C104.992 117.346 104.873 118.217 104.571 118.864C104.865 118.943 105.161 119.022 105.454 119.101C105.458 119.054 105.462 119.007 105.466 118.962C105.487 118.708 105.235 118.492 104.992 118.492C104.721 118.492 104.541 118.708 104.52 118.962Z" fill="#222221"/>
<path d="M106.37 97.0111C106.027 97.0657 105.712 97.2199 105.407 97.3817C105.172 97.5058 104.93 97.6488 104.661 97.6657C104.426 97.6808 104.175 97.6074 103.948 97.5585C103.83 97.5322 103.713 97.5021 103.597 97.4701C103.472 97.4381 103.565 97.4701 103.63 97.5077C103.607 97.4945 103.59 97.4456 103.626 97.5152C103.612 97.4889 103.592 97.4663 103.578 97.44C103.33 96.9885 103.275 96.3471 102.966 95.8656C102.779 95.5759 102.473 95.2166 102.449 94.8592C102.432 94.6166 102.707 94.4548 102.864 94.2893C103.093 94.0485 103.271 93.6855 103.569 93.52C103.904 93.3356 104.412 93.4579 104.782 93.4635C105.392 93.471 105.392 92.5305 104.782 92.523C104.31 92.5174 103.802 92.429 103.347 92.5926C102.932 92.7412 102.667 93.0478 102.401 93.3808C102.161 93.6817 101.82 93.9206 101.638 94.263C101.387 94.7313 101.53 95.2467 101.755 95.6944C101.857 95.8975 101.983 96.0857 102.106 96.2756C102.153 96.349 102.202 96.4224 102.246 96.4976C102.244 96.4938 102.299 96.6123 102.276 96.5578C102.257 96.5126 102.301 96.6274 102.305 96.6387C102.418 96.9641 102.494 97.3027 102.625 97.6224C102.763 97.9629 102.942 98.2394 103.305 98.3636C103.578 98.4576 103.872 98.5028 104.156 98.5535C104.638 98.6401 105.057 98.5855 105.502 98.3861C105.879 98.2187 106.207 97.9817 106.624 97.9159C106.876 97.8764 107.018 97.5622 106.956 97.3365C106.878 97.0713 106.622 96.9716 106.37 97.0111Z" fill="#222221"/>
<path d="M110.998 91.0342C110.712 91.0361 110.481 91.1283 110.215 91.2129C109.937 91.3032 109.641 91.2468 109.353 91.2449C109.232 91.2449 109.11 91.2487 108.989 91.2487C108.966 91.2487 108.946 91.2468 108.923 91.2449C108.929 91.2449 109.001 91.2618 108.947 91.2487C108.908 91.2393 108.817 91.2035 108.9 91.243C108.874 91.2298 108.807 91.1753 108.862 91.2223C108.817 91.1828 108.777 91.1377 108.739 91.0925C108.656 90.9891 108.587 90.8706 108.529 90.7521C108.405 90.5019 108.345 90.2235 108.271 89.9564C108.201 89.7006 108.112 89.4561 108.017 89.2078C107.928 88.9802 107.82 88.7074 107.791 88.4873C107.784 88.4365 107.788 88.2861 107.789 88.2729C107.805 88.1864 107.829 88.1281 107.909 88.0566C108.078 87.9061 108.326 87.8929 108.557 87.8911C108.87 87.8892 109.183 87.9249 109.495 87.9287C110.106 87.9343 110.106 86.9938 109.495 86.9882C108.834 86.9825 108.102 86.832 107.5 87.1913C106.849 87.5788 106.741 88.3086 106.937 88.982C107.02 89.2698 107.145 89.5426 107.244 89.8266C107.357 90.1577 107.424 90.5019 107.543 90.8311C107.765 91.4462 108.167 92.1139 108.881 92.1816C109.027 92.1948 109.171 92.1854 109.317 92.1854C109.526 92.1835 109.734 92.208 109.944 92.2004C110.159 92.1929 110.369 92.1572 110.57 92.0819C110.725 92.0236 110.845 91.9747 110.998 91.9728C111.608 91.9691 111.61 91.0286 110.998 91.0342Z" fill="#222221"/>
<path d="M113.572 84.6482C113.138 84.6463 112.719 84.6181 112.298 84.7498C112.018 84.8382 111.77 84.8627 111.474 84.8683C111.207 84.8739 111.102 84.7949 110.993 84.5241C110.877 84.24 110.818 83.924 110.737 83.6287C110.642 83.2845 110.649 82.944 110.617 82.5942C110.583 82.2255 110.378 81.8662 110.39 81.4956C110.394 81.3602 110.377 81.5107 110.399 81.3941C110.418 81.3376 110.418 81.3301 110.397 81.3696C110.426 81.3226 110.428 81.3169 110.401 81.3527C110.445 81.3263 110.509 81.2944 110.612 81.2624C110.873 81.1796 111.154 81.0856 111.427 81.1194C111.68 81.1514 111.9 80.8805 111.9 80.6492C111.9 80.3689 111.682 80.2109 111.427 80.1789C111.142 80.1432 110.835 80.2203 110.562 80.2956C110.276 80.3746 109.965 80.4611 109.749 80.6718C109.217 81.189 109.526 81.9245 109.654 82.5321C109.726 82.8688 109.696 83.2318 109.753 83.5742C109.806 83.892 109.907 84.2099 109.996 84.5203C110.187 85.1918 110.581 85.7862 111.347 85.8107C111.69 85.822 112.058 85.8107 112.387 85.7091C112.552 85.6602 112.71 85.5981 112.882 85.585C113.111 85.568 113.343 85.5887 113.572 85.5906C114.182 85.5906 114.182 84.6501 113.572 84.6482Z" fill="#222221"/>
<path d="M110.356 68.0466C110.073 68.041 109.772 68.041 109.522 68.1933C109.26 68.3513 109.109 68.6222 108.999 68.8949C108.754 69.4912 108.711 70.1214 108.997 70.7063C109.27 71.2612 109.73 71.7296 110.138 72.1867C110.579 72.6852 111.148 73.1197 111.857 73.0313C112.111 72.9993 112.331 72.8375 112.331 72.561C112.331 72.3315 112.113 72.0588 111.857 72.0908C111.406 72.1472 111.138 71.8914 110.828 71.5453C110.513 71.1935 110.179 70.8437 109.931 70.4411C109.886 70.3659 109.814 70.238 109.793 70.1872C109.774 70.1364 109.757 70.0837 109.743 70.0311C109.709 69.8938 109.738 70.0931 109.732 69.9558C109.725 69.7433 109.768 69.5533 109.836 69.3407C109.853 69.2899 109.869 69.2373 109.889 69.1884C109.859 69.258 109.918 69.1338 109.925 69.1225C109.948 69.0793 109.973 69.0341 110.003 68.9965C109.946 69.0699 110.016 68.9796 110.035 68.9721C109.986 69.0078 109.984 69.0134 110.028 68.9871C109.973 69.0078 109.963 69.0134 109.996 69.0022C110.013 68.9965 110.032 68.9927 110.049 68.989C109.994 68.9946 109.984 68.9946 110.022 68.9927C110.132 68.9815 110.242 68.9852 110.352 68.989C110.966 68.9984 110.966 68.0579 110.356 68.0466Z" fill="#222221"/>
<path d="M75.915 34.6458C75.5701 34.7286 75.3047 34.958 75.1929 35.2966C75.1114 35.5411 75.1323 35.8045 75.138 36.0584C75.1474 36.5287 75.1285 37.1005 75.6212 37.3488C75.8582 37.4692 76.1311 37.4842 76.3926 37.4842C76.7432 37.4861 77.0825 37.5557 77.4255 37.4372C77.7553 37.3244 77.9998 37.1231 78.2064 36.8485C78.3694 36.634 78.502 36.4158 78.6593 36.2258C79.1578 35.6239 79.5634 34.9844 79.8818 34.2715C79.986 34.0401 79.95 33.7655 79.7112 33.6282C79.5103 33.5115 79.1673 33.5642 79.063 33.7975C78.8451 34.2865 78.593 34.7549 78.2784 35.1894C78.1135 35.417 77.9278 35.6239 77.7572 35.8478C77.689 35.938 77.6245 36.0302 77.562 36.1243C77.5355 36.1638 77.5089 36.2051 77.4805 36.2446C77.4672 36.2635 77.454 36.2823 77.4407 36.303C77.3573 36.4215 77.471 36.2729 77.4179 36.3349C77.3895 36.3688 77.3592 36.4008 77.327 36.4327C77.3118 36.4478 77.2948 36.4647 77.2777 36.4779C77.2967 36.4628 77.3402 36.4403 77.2625 36.4854C77.1829 36.5324 77.1469 36.555 77.0408 36.5719C76.929 36.5908 76.7811 36.5663 76.6561 36.555C76.5272 36.5437 76.4002 36.5475 76.2732 36.5437C76.2315 36.5418 76.1879 36.5381 76.1462 36.5362C76.0553 36.5324 76.2164 36.5569 76.1121 36.5306C76.0932 36.5268 75.9927 36.4986 76.0685 36.5249C76.1311 36.5475 76.0913 36.5362 76.0761 36.5268C76.0079 36.4835 76.1424 36.587 76.1007 36.5494C76.0344 36.4892 76.1292 36.5926 76.1121 36.5682C76.0647 36.5023 76.1159 36.6002 76.1159 36.5814C76.1178 36.5513 76.097 36.5042 76.0913 36.4741C76.114 36.5738 76.0932 36.4741 76.0913 36.429C76.078 36.207 76.0761 35.9775 76.0799 35.7537C76.0799 35.7311 76.0799 35.7104 76.0818 35.6879C76.0818 35.6747 76.097 35.5618 76.0856 35.6239C76.078 35.6691 76.1064 35.5524 76.1159 35.5299C76.1102 35.543 76.0799 35.5901 76.1102 35.5562C76.15 35.5129 76.059 35.5995 76.0609 35.5976C76.0666 35.5919 76.1235 35.5694 76.0818 35.5788C76.0363 35.5901 76.1728 35.5543 76.1671 35.5562C76.7603 35.4095 76.5101 34.5028 75.915 34.6458Z" fill="#222221"/>
<path d="M88.0067 28.9279C88.001 29.2157 87.893 29.4282 87.747 29.6709C87.5575 29.9888 87.4021 30.3161 87.2903 30.6697C87.1709 31.044 87.0932 31.4315 86.9434 31.7927C86.7975 32.1425 86.6705 32.468 86.7255 32.8536C86.8771 33.954 88.0806 34.4449 89.0661 34.5333C89.5987 34.5822 90.19 34.5107 90.6525 34.2286C91.1718 33.9126 90.696 33.0981 90.1749 33.416C90.1407 33.4367 90.1047 33.4555 90.0706 33.4743C89.9948 33.5157 90.1142 33.463 90.0308 33.4931C89.9398 33.5251 89.847 33.5514 89.7522 33.5721C89.7295 33.5759 89.6233 33.5947 89.6518 33.5909C89.6802 33.5872 89.5703 33.5985 89.5456 33.6003C89.4376 33.6079 89.3277 33.6079 89.2196 33.6041C88.8614 33.589 88.4577 33.4912 88.145 33.3125C87.982 33.2185 87.8778 33.1395 87.7887 33.021C87.7053 32.9119 87.6561 32.7783 87.6579 32.6768C87.6617 32.3739 87.857 32.0861 87.9498 31.8021C88.0597 31.471 88.1337 31.1287 88.2474 30.7995C88.3516 30.4948 88.5241 30.2371 88.6795 29.9587C88.8595 29.6333 88.9524 29.2985 88.96 28.9279C88.9657 28.3222 88.018 28.3222 88.0067 28.9279Z" fill="#222221"/>
<path d="M98.6864 32.0913C97.4052 31.8506 96.7153 33.282 96.2662 34.2263C96.0046 34.7755 95.7525 35.2984 95.671 35.9079C95.582 36.5926 95.7374 37.3299 96.4746 37.5613C96.7684 37.6535 97.0868 37.6516 97.3919 37.6572C97.4621 37.6591 97.5322 37.6591 97.6023 37.6629C97.6251 37.6648 97.6459 37.6648 97.6687 37.6666C97.8013 37.6742 97.5834 37.6422 97.7047 37.6704C97.7217 37.6742 97.7407 37.6817 97.7577 37.6817C97.8392 37.6892 97.7805 37.7118 97.7539 37.6742C97.7956 37.7325 97.7369 37.6591 97.7293 37.6497C97.7122 37.6271 97.6535 37.4861 97.6743 37.5651C97.8241 38.1519 98.7376 37.9036 98.5879 37.3149C98.4495 36.775 97.8582 36.7261 97.3938 36.7167C97.2782 36.7148 97.1626 36.713 97.047 36.7073C96.8973 36.6979 96.9352 36.7054 96.793 36.6735C96.7646 36.6678 96.7343 36.6584 96.7078 36.649C96.7153 36.6509 96.7703 36.6791 96.721 36.6547C96.6926 36.6415 96.5997 36.5662 96.6642 36.6227C96.613 36.5775 96.6623 36.6528 96.6376 36.5851C96.6357 36.5794 96.6035 36.4722 96.5978 36.4271C96.5296 35.9436 96.7362 35.417 96.9447 34.9956C97.1531 34.5705 97.3446 34.1379 97.5947 33.7334C97.7445 33.4927 97.8639 33.3234 98.0799 33.1353C98.1292 33.0939 98.0818 33.124 98.1728 33.0713C98.1974 33.0563 98.3036 33.0074 98.2751 33.0168C98.2259 33.0356 98.4211 32.9886 98.3623 32.9961C98.3074 33.0017 98.5386 33.0187 98.4362 32.9999C98.6883 33.0469 98.948 32.9303 99.02 32.6707C99.0806 32.4412 98.9385 32.1402 98.6864 32.0913Z" fill="#222221"/>
<path d="M105.297 37.2006C104.774 37.4 104.333 37.9379 104.105 38.4364C103.834 39.0308 103.595 39.6666 103.406 40.2911C103.26 40.7726 103.165 41.2861 103.142 41.7884C103.116 42.3282 103.222 43.0054 103.825 43.1935C104.115 43.2838 104.399 43.1634 104.674 43.2161C104.827 43.2462 104.969 43.3327 105.115 43.3853C105.333 43.4625 105.54 43.4606 105.763 43.4267C106.017 43.3891 106.156 43.0731 106.095 42.8474C106.021 42.5784 105.765 42.4806 105.511 42.5182C105.43 42.5295 105.309 42.4542 105.231 42.4223C105.047 42.347 104.875 42.2831 104.674 42.2699C104.533 42.2605 104.395 42.2868 104.257 42.2962C104.234 42.2981 104.135 42.315 104.154 42.3075C104.096 42.2962 104.082 42.2925 104.113 42.2944C104.154 42.3395 104.16 42.3395 104.13 42.2981C104.124 42.2868 104.118 42.2755 104.113 42.2643C104.135 42.3169 104.137 42.3169 104.118 42.2643C104.115 42.2436 104.088 42.1175 104.092 42.1476C104.086 42.1044 104.082 41.9332 104.086 41.841C104.094 41.5739 104.13 41.3444 104.183 41.0849C104.297 40.5281 104.505 40.0014 104.702 39.471C104.814 39.17 104.918 38.854 105.1 38.5869C105.165 38.4928 105.248 38.3969 105.333 38.3066C105.379 38.2577 105.426 38.2088 105.477 38.1655C105.481 38.1637 105.621 38.0752 105.549 38.1016C105.788 38.0113 105.953 37.7856 105.881 37.5222C105.817 37.3022 105.538 37.1103 105.297 37.2006Z" fill="#222221"/>
<path d="M99.4635 108.532C99.4237 108.21 99.7155 108.06 99.9221 107.846C100.22 107.537 100.394 107.123 100.705 106.834C100.853 106.696 101.033 106.595 101.19 106.469C101.334 106.354 101.457 106.218 101.575 106.077C101.865 105.735 102.16 105.413 102.477 105.095C102.799 104.772 103.114 104.443 103.413 104.099C103.658 103.816 103.87 103.5 104.132 103.233C104.607 102.748 105.272 102.328 105.451 101.633C105.6 101.046 104.687 100.795 104.537 101.382C104.476 101.621 104.236 101.849 104.029 102.043C103.788 102.268 103.525 102.477 103.315 102.731C102.735 103.429 102.145 104.095 101.501 104.736C101.194 105.041 100.957 105.413 100.637 105.705C100.487 105.84 100.309 105.944 100.151 106.07C99.9733 106.213 99.8368 106.386 99.7042 106.57C99.5886 106.73 99.4881 106.903 99.363 107.057C99.2398 107.21 99.0863 107.332 98.9499 107.471C98.6637 107.759 98.4647 108.116 98.5158 108.534C98.5462 108.786 98.7111 109.004 98.9897 109.004C99.2209 109.002 99.4938 108.786 99.4635 108.532Z" fill="#222221"/>
<path d="M92.1536 103.086C92.1612 103.122 92.1593 103.075 92.1801 103.05C92.2218 103 92.3166 102.921 92.3829 102.864C92.5573 102.714 92.7032 102.552 92.8359 102.362C93.1562 101.905 93.3457 101.374 93.7001 100.938C94.0564 100.498 94.4639 100.101 94.7766 99.627C95.0514 99.2094 95.2808 98.7561 95.6769 98.4382C95.8759 98.2783 95.8437 97.9397 95.6769 97.7723C95.4798 97.5767 95.2069 97.6124 95.006 97.7723C94.5587 98.1316 94.2839 98.6508 93.9768 99.1229C93.6376 99.642 93.1732 100.067 92.8037 100.564C92.4644 101.019 92.2976 101.628 91.8977 102.033C91.7309 102.202 91.5395 102.336 91.3974 102.529C91.2192 102.772 91.1756 103.047 91.2401 103.338C91.369 103.927 92.2844 103.677 92.1536 103.086Z" fill="#222221"/>
<path d="M106.904 110.898C107.319 110.353 107.583 109.713 108 109.174C108.193 108.923 108.405 108.688 108.593 108.434C108.796 108.162 108.938 107.863 109.101 107.567C109.444 106.946 109.829 106.331 109.918 105.617C109.933 105.489 109.95 105.325 110.001 105.24C110.016 105.216 110.111 105.118 110.164 105.052C110.39 104.781 110.445 104.494 110.38 104.149C110.333 103.899 110.03 103.758 109.797 103.82C109.533 103.892 109.418 104.148 109.465 104.4C109.467 104.409 109.446 104.441 109.463 104.424C109.376 104.507 109.296 104.607 109.226 104.702C109.035 104.966 109.021 105.265 108.974 105.575C108.879 106.198 108.453 106.757 108.165 107.304C107.88 107.847 107.484 108.274 107.124 108.767C106.738 109.294 106.48 109.9 106.082 110.423C105.926 110.626 106.05 110.949 106.252 111.066C106.499 111.209 106.749 111.102 106.904 110.898Z" fill="#222221"/>
<path d="M96.8442 77.2003C96.8935 77.2003 96.8556 77.2116 96.8234 77.1815C96.7949 77.1533 96.7627 77.1232 96.7343 77.0968C96.6395 77.0047 96.5504 76.9125 96.4405 76.8335C96.3401 76.762 96.2283 76.7131 96.1392 76.6285C96.0444 76.5382 95.9686 76.4291 95.8871 76.3275C95.4986 75.8441 94.9224 75.6466 94.4353 75.2854C93.9691 74.9412 93.4119 74.7399 92.9608 74.375C92.4832 73.9894 92.0416 73.5794 91.456 73.3612C90.9575 73.1749 90.6012 73.9988 91.0902 74.2208C92.0435 74.6515 92.7467 75.4434 93.6185 75.9965C94.5358 76.5777 95.5232 77.0028 96.2946 77.7891C96.721 78.2236 97.3901 77.5577 96.9655 77.1232C96.1543 76.2974 95.1347 75.8196 94.1605 75.2234C93.2565 74.6703 92.5458 73.8483 91.5678 73.4082C91.4465 73.6941 91.3252 73.9819 91.202 74.2678C91.7327 74.4653 92.1345 74.9412 92.5818 75.2666C92.8244 75.4434 93.0916 75.5789 93.355 75.7218C93.6374 75.8742 93.8857 76.0623 94.1529 76.2353C94.3974 76.3952 94.6741 76.5081 94.9111 76.6755C95.1271 76.8297 95.2617 77.0705 95.4398 77.2624C95.6256 77.4599 95.8701 77.5709 96.0634 77.759C96.2813 77.9715 96.5258 78.1389 96.8442 78.1389C97.4545 78.1408 97.4545 77.2003 96.8442 77.2003Z" fill="#222221"/>
<path d="M90.1957 81.6696C90.0839 81.6658 90.1976 81.6715 90.1957 81.6734C90.1938 81.6771 90.1218 81.6545 90.1161 81.6527C90.0592 81.6376 90.0649 81.6357 90.118 81.6583C90.0858 81.6433 90.0535 81.6282 90.0213 81.6113C89.9664 81.5812 89.9114 81.5473 89.8602 81.5116C89.8507 81.5059 89.7617 81.442 89.8128 81.4777C89.8621 81.5135 89.7749 81.4476 89.7655 81.4401C89.5418 81.2576 89.3428 81.0489 89.1419 80.8438C88.6662 80.3604 88.1071 79.9993 87.5063 79.6889C87.2959 79.5798 87.0439 79.6193 86.8941 79.8093C86.7558 79.988 86.7558 80.2664 86.932 80.4262C86.9794 80.4695 87.0268 80.5128 87.0723 80.556C87.2542 80.7234 87.5651 80.7479 87.7432 80.556C87.9119 80.3755 87.9384 80.0689 87.7432 79.8902C87.6958 79.8469 87.6484 79.8036 87.603 79.7604C87.4115 80.0068 87.2201 80.2532 87.0287 80.4996C87.349 80.6651 87.6674 80.8419 87.9593 81.0526C87.9574 81.0507 88.073 81.1391 88.0199 81.0978C88.0597 81.1279 88.0976 81.1598 88.1355 81.1918C88.1886 81.237 88.2417 81.284 88.2928 81.331C88.3895 81.4232 88.4824 81.5191 88.5752 81.615C89.0111 82.0571 89.5304 82.5913 90.1957 82.6082C90.444 82.6157 90.6809 82.3863 90.6695 82.138C90.6581 81.8784 90.461 81.6771 90.1957 81.6696Z" fill="#222221"/>
<path d="M85.4499 45.1909C85.3949 45.4919 85.1712 45.7534 85.0575 46.0713C84.9969 46.2387 84.9628 46.4155 84.9249 46.5885C84.9059 46.6788 84.8851 46.7691 84.8604 46.8594C84.8377 46.944 84.8187 46.9836 84.7979 47.0268C84.7903 47.0419 84.7562 47.0908 84.7865 47.0513C84.7676 47.0776 84.7448 47.1002 84.7221 47.1227C84.6728 47.1754 84.6197 47.2243 84.5686 47.2751C84.4548 47.388 84.343 47.5102 84.2615 47.6494C84.1668 47.8131 84.1213 47.9861 84.1175 48.1742C84.1175 48.225 84.1175 48.2758 84.1213 48.3266C84.127 48.4037 84.1421 48.2758 84.163 48.2419C84.1781 48.1949 84.2066 48.1648 84.2539 48.1498C84.3241 48.1159 84.326 48.1103 84.2577 48.1329C84.4567 48.2833 84.6576 48.4357 84.8566 48.5862C84.8604 48.4865 84.8604 48.5674 84.8434 48.5975C84.8737 48.5429 84.8661 48.5711 84.8282 48.5993C84.597 48.5053 84.3639 48.4112 84.1326 48.3191C84.1213 48.272 84.1118 48.3811 84.1289 48.3285C84.144 48.2796 84.1061 48.3699 84.0966 48.383C84.0701 48.4206 84.017 48.462 83.9829 48.4827C84.199 48.5391 84.415 48.5956 84.6311 48.652C84.6861 48.7705 84.6425 48.684 84.6387 48.652C84.6254 48.5674 84.6273 48.7235 84.6387 48.6652C84.6501 48.605 84.6387 48.5297 84.6444 48.4677C84.6387 48.5354 84.6387 48.5053 84.6482 48.4564C84.6557 48.4225 84.6614 48.3887 84.6709 48.3548C84.6899 48.2777 84.7126 48.2006 84.7372 48.1253C84.7638 48.0463 84.7941 47.9673 84.8244 47.8902C84.8547 47.815 84.8206 47.8977 84.8396 47.8526C84.8547 47.8168 84.8699 47.783 84.887 47.7472C84.9552 47.6005 85.0272 47.4576 85.1049 47.3165C85.4612 46.6638 85.9559 46.1032 85.9521 45.3189C85.9502 44.7132 85.0026 44.7132 85.0045 45.3189C85.0045 45.475 84.9685 45.6725 84.9173 45.7797C84.8358 45.9565 84.7259 46.1202 84.6197 46.2838C84.4567 46.5378 84.3032 46.7992 84.1668 47.0682C83.8597 47.6776 83.4996 48.4564 83.8123 49.1279C83.9185 49.3555 84.2596 49.4195 84.4605 49.2972C84.8908 49.0357 85.158 48.5749 85.0462 48.0708C84.9855 47.7961 84.5913 47.6118 84.3506 47.7905C84.072 47.9955 83.9242 48.2419 83.909 48.5899C83.8957 48.8984 84.2217 49.1223 84.5079 49.0433C84.7467 48.9774 84.9495 48.8269 85.0291 48.5881C85.0746 48.4489 85.0689 48.304 85.067 48.1592C85.0689 48.131 85.067 48.1329 85.0632 48.1629C85.0556 48.1987 85.0575 48.193 85.0689 48.1479C85.0367 48.1818 85.0651 48.1629 85.0803 48.131C85.1333 48.0275 85.0481 48.1554 85.122 48.0689C85.1428 48.0444 85.1656 48.0219 85.1883 47.9993C85.3191 47.8657 85.4517 47.7416 85.5617 47.5911C85.7967 47.2657 85.8213 46.8519 85.9275 46.4776C86.0222 46.1409 86.2951 45.8305 86.3653 45.4486C86.4107 45.1985 86.297 44.9408 86.0336 44.8693C85.8024 44.7997 85.4953 44.9408 85.4499 45.1909Z" fill="#222221"/>
<path d="M92.2957 48.0835C92.3014 48.0082 92.2711 48.1399 92.2919 48.0985C92.2654 48.1493 92.237 48.2001 92.2028 48.2471C92.1479 48.3261 92.0796 48.3957 92.0133 48.4672C91.8427 48.6515 91.6627 48.8265 91.5186 49.0334C91.2192 49.4641 90.9804 49.987 90.7871 50.4742C90.6487 50.8222 90.5426 51.1834 90.4023 51.5295C90.3606 51.6348 90.2735 51.821 90.1863 51.9583C90.1635 51.9941 90.1389 52.0317 90.1124 52.0656C90.1749 51.9866 90.0934 52.0806 90.0839 52.0881C90.0119 52.1464 90.1597 52.0656 90.0707 52.0994C89.9816 52.1333 90.1654 52.0731 90.0688 52.0975C89.4775 52.2424 89.7276 53.1509 90.3208 53.0042C90.7397 52.9007 90.9956 52.4963 91.1642 52.1314C91.3594 51.7119 91.4959 51.2699 91.6551 50.8373C91.6703 50.7978 91.6854 50.7601 91.6987 50.7206C91.712 50.6868 91.7082 50.6962 91.6873 50.747C91.6968 50.7263 91.7063 50.7056 91.7158 50.6868C91.7821 50.5532 91.8484 50.4197 91.9148 50.2842C92.0417 50.0265 92.1972 49.688 92.345 49.4942C92.7013 49.0296 93.1884 48.7117 93.2414 48.0816C93.2623 47.8276 93.0083 47.6113 92.7676 47.6113C92.4966 47.6132 92.3166 47.8295 92.2957 48.0835Z" fill="#222221"/>
</g>
<defs>
<clipPath id="clip0_10103_4339">
<rect width="144" height="140" fill="white" transform="translate(18.5 21.2656)"/>
</clipPath>
</defs>
</svg>
