<svg width="160" height="105" viewBox="0 0 160 105" fill="none" xmlns="http://www.w3.org/2000/svg">
<g clip-path="url(#clip0_10103_4211)">
<path d="M32.9461 34.228C27.1305 51.1861 21.3148 68.1811 17.3821 85.9788C20.378 87.0307 23.5038 87.658 26.6574 87.8426C27.854 83.4785 29.0505 79.1144 30.2377 74.7503C30.2377 74.7503 30.0615 74.6119 29.8389 74.5658C32.2227 75.0456 34.3838 76.4018 36.2018 78.081C38.0198 79.7602 39.5316 81.7716 41.2105 84.0874C41.0343 86.5601 42.7687 88.9221 44.9948 89.7617C47.2209 90.6105 49.7902 90.0938 51.8586 88.636C51.6545 89.7155 51.6545 90.8412 51.8586 91.9299C51.9514 92.4004 52.0719 92.871 52.2853 93.2954C52.7305 94.1903 53.5189 94.8639 54.3722 95.3252C55.8285 96.1094 57.5444 96.3585 59.2882 96.0448C59.1119 98.1023 60.596 100.058 62.4511 100.778C64.3061 101.498 66.4209 101.156 68.3595 100.4C68.6563 101.11 68.9809 101.839 69.5282 102.365C70.1496 102.955 70.9937 103.214 71.8285 103.315C73.8227 103.555 75.8911 102.965 77.7554 101.802C79.796 102.965 82.3838 103.011 84.4615 101.913C85.0087 101.627 85.5189 101.258 85.9363 100.796C86.7803 99.8553 87.1606 98.5452 87.2348 97.2535C87.309 95.971 87.0957 94.6793 87.0215 93.3692C88.0511 94.6148 89.127 95.8511 90.4719 96.7184C91.8169 97.5857 93.4679 98.0378 94.989 97.6133C96.2505 97.2535 97.3264 96.3124 98.0221 95.1499C98.7177 93.9966 99.0702 92.6403 99.1722 91.0903C99.6824 91.9668 100.239 92.8064 100.851 93.6091C101.417 94.3656 102.038 95.0945 102.799 95.6297C103.559 96.1648 104.487 96.4969 105.396 96.3954C106.806 96.2294 107.956 95.0299 108.522 93.6644C109.088 92.2989 109.171 90.7766 109.255 89.3003C109.301 88.4423 109.347 87.5842 109.31 86.7077C110.052 88.1747 110.804 89.6509 111.796 90.9426C112.788 92.2343 114.041 93.36 115.543 93.9228C115.914 94.0612 116.295 94.1627 116.675 94.2641C117.287 94.4302 117.992 94.5686 118.521 94.1903C118.938 93.8859 119.105 93.3323 119.17 92.7971C119.226 92.2712 119.198 91.7269 119.495 91.1918C125.19 88.959 130.792 86.4678 136.218 83.7922C136.765 85.8773 137.368 87.9441 138.175 89.937C142.238 88.9497 146.18 87.4366 149.825 85.4714C153.044 84.1889 156.206 82.7588 159.082 80.8674C158.618 64.0754 155.882 47.0619 148.526 32.1151C148.063 31.174 147.58 30.2422 146.838 29.4395C138.769 32.3734 130.913 35.9441 123.353 40.1144C123.566 40.5388 123.78 40.9725 123.761 41.443C115.933 42.0243 108.281 39.2656 100.888 36.5346C98.5415 35.6673 96.1577 34.7908 93.6812 34.6155C91.4737 34.4586 89.2754 34.8646 86.8082 35.086C84.1925 33.4253 81.2615 32.3734 78.3119 31.5154C76.5311 30.9987 74.7038 30.5466 72.858 30.5651C71.1606 30.5835 69.4911 31.0079 67.8679 31.5062C59.1027 34.1818 50.9125 39.1179 41.8134 40.0037C41.8876 39.3671 41.9618 38.7304 42.0267 38.0846C42.0638 37.7432 42.0916 37.3557 41.9154 37.0789C38.938 35.8241 35.9514 34.5693 32.9461 34.228Z" fill="white"/>
<path d="M154.852 80.4893C154.815 80.4893 154.787 80.4801 154.75 80.4708L146.727 77.3154C146.588 77.2601 146.523 77.1032 146.578 76.974C146.634 76.8356 146.792 76.7711 146.922 76.8264L154.945 79.9818C155.084 80.0372 155.149 80.194 155.093 80.3232C155.065 80.4247 154.963 80.4893 154.852 80.4893Z" fill="black"/>
<path d="M157.57 77.343C157.542 77.343 157.514 77.3338 157.477 77.3246C153.062 75.7561 148.684 73.9016 144.473 71.8164C144.343 71.7518 144.287 71.595 144.352 71.4566C144.417 71.3274 144.575 71.272 144.714 71.3366C148.907 73.4126 153.266 75.2579 157.663 76.8263C157.802 76.8725 157.876 77.0293 157.82 77.1677C157.783 77.2784 157.672 77.343 157.57 77.343Z" fill="black"/>
<path d="M158.247 72.4065C158.219 72.4065 158.191 72.4065 158.163 72.388C153.257 70.7088 148.35 68.7989 143.601 66.7045C143.462 66.6492 143.406 66.4923 143.462 66.3539C143.518 66.2155 143.685 66.1602 143.814 66.2156C148.554 68.3007 153.442 70.2106 158.33 71.8806C158.47 71.9267 158.544 72.0835 158.497 72.2219C158.46 72.3326 158.358 72.4065 158.247 72.4065Z" fill="black"/>
<path d="M158.247 67.6642C158.21 67.6642 158.182 67.6549 158.145 67.6457C152.44 65.4129 148.007 63.4846 141.904 60.7905C141.764 60.7351 141.709 60.5783 141.764 60.4399C141.82 60.3015 141.987 60.2461 142.117 60.3015C148.22 62.9864 152.635 64.9147 158.34 67.1475C158.479 67.2028 158.544 67.3597 158.488 67.4889C158.46 67.5996 158.358 67.6642 158.247 67.6642Z" fill="black"/>
<path d="M156.828 62.3134C156.791 62.3134 156.754 62.3042 156.726 62.2949L140.346 55.3198C140.206 55.2644 140.151 55.1076 140.206 54.9692C140.262 54.8308 140.42 54.7754 140.559 54.8308L156.939 61.8059C157.078 61.8613 157.134 62.0182 157.078 62.1565C157.032 62.2488 156.93 62.3134 156.828 62.3134Z" fill="black"/>
<path d="M156.299 57.1924C156.262 57.1924 156.225 57.1832 156.188 57.1647L138.398 48.9348C138.268 48.8702 138.203 48.7134 138.268 48.5842C138.333 48.455 138.491 48.3904 138.62 48.455L156.411 56.685C156.54 56.7496 156.605 56.9064 156.54 57.0356C156.494 57.1278 156.401 57.1924 156.299 57.1924Z" fill="black"/>
<path d="M154.565 50.7528C154.527 50.7528 154.49 50.7436 154.453 50.7251L136.505 42.3014C136.376 42.2369 136.311 42.08 136.376 41.9508C136.44 41.8124 136.598 41.7663 136.728 41.8217L154.676 50.2454C154.806 50.31 154.871 50.4668 154.806 50.596C154.759 50.6975 154.667 50.7528 154.565 50.7528Z" fill="black"/>
<path d="M150.53 42.3291C150.493 42.3291 150.465 42.3199 150.428 42.3107C145.966 40.5207 141.421 38.7954 136.914 37.1808C136.774 37.1346 136.7 36.9778 136.756 36.8394C136.802 36.701 136.96 36.6272 137.099 36.6825C141.616 38.2972 146.17 40.0225 150.632 41.8124C150.771 41.8678 150.836 42.0246 150.78 42.163C150.734 42.2645 150.632 42.3291 150.53 42.3291Z" fill="black"/>
<path d="M150.177 36.4053C150.14 36.4053 150.103 36.3961 150.066 36.3869L143.657 33.5913C143.518 33.5359 143.462 33.3791 143.518 33.2407C143.573 33.1023 143.731 33.0469 143.87 33.1023L150.279 35.8979C150.419 35.9532 150.474 36.1101 150.419 36.2485C150.372 36.35 150.279 36.4053 150.177 36.4053Z" fill="black"/>
<path d="M14.3584 27.9814C20.6934 30.205 27.0934 32.2164 33.1966 34.1262C32.1949 38.5364 29.6256 42.347 27.9004 46.5081C26.9821 48.7132 26.305 51.0105 25.6372 53.3171C22.4929 64.0936 19.4876 74.9069 16.603 85.7572C10.9543 83.7366 6.57634 82.7032 0.519531 81.5776C6.09402 63.457 11.1213 46.0652 14.3584 27.9814Z" fill="#ACD4F7"/>
<g opacity="0.1294">
<path d="M133.936 81.5506C132.944 81.8551 131.979 82.2241 131.033 82.6393C130.82 82.6301 130.597 82.6485 130.393 82.6947C129.911 82.7777 129.466 82.9807 129.011 83.1744C128.51 83.3497 128.037 83.525 127.555 83.7372C127.36 83.8111 126.785 84.0417 126.553 84.1063C126.479 84.1248 126.432 84.1524 126.377 84.1709C126.238 84.217 126.089 84.2724 125.941 84.3093C125.857 84.3093 125.765 84.3093 125.681 84.3093C125.588 84.2908 125.486 84.2632 125.394 84.2355C125.394 84.2355 125.394 84.2355 125.384 84.2355C125.18 84.0325 124.986 83.8111 124.809 83.5896C124.568 83.2759 124.837 83.6358 124.93 83.7557C124.772 83.5343 124.605 83.3221 124.429 83.1191C124.373 83.0545 124.336 82.9991 124.299 82.953C124.132 82.7131 123.984 82.464 123.835 82.2149C123.205 81.2184 122.639 80.1759 122.119 79.124C121.006 76.882 119.986 74.5847 118.808 72.3796C118.122 70.8756 117.537 69.3164 116.675 67.914C114.208 63.9835 111.815 60.9019 108.123 57.4697C105.795 55.0062 103.114 52.9026 100.239 51.1957C98.291 50.0701 96.2505 48.9537 93.9873 48.7876C92.4012 48.4094 92.0209 50.8636 93.6534 50.9743C95.1374 51.0573 96.7235 51.7585 98.4302 52.7827C98.2725 53.1886 98.3096 53.6684 98.6899 54.0928C100.267 55.5229 102.085 56.6209 103.726 57.9679C103.652 57.9126 104.561 58.7245 104.747 58.9275C104.941 59.1212 105.127 59.3242 105.303 59.5272C105.155 59.6748 105.053 59.8778 105.062 60.1084C105.173 60.8189 105.934 61.6585 106.286 62.3228C108.095 65.1922 110.219 67.8678 111.75 70.9125C113.781 75.0921 115.256 79.2532 115.933 84.8536C116.285 86.6159 116.48 89.8267 115.933 90.7493C115.886 90.8047 115.84 90.86 115.784 90.9062C115.738 90.9338 115.701 90.9523 115.673 90.9707C115.599 90.9984 115.534 91.0169 115.46 91.0538C115.423 91.063 115.395 91.0815 115.358 91.0907C115.348 91.0907 115.339 91.0907 115.33 91.0999C115.181 91.1091 115.005 91.0999 114.894 91.0907C114.838 91.0815 114.783 91.0722 114.727 91.063C114.115 90.8969 114.449 91.0446 113.53 90.5279C112.111 89.6883 110.896 91.8842 112.278 92.7607C115.775 95.3902 118.233 94.4583 118.919 90.8969C119.263 88.7472 119.031 86.5513 118.669 84.4108C118.771 84.7337 118.873 85.0566 118.975 85.3795C119.179 86.6528 119.346 87.8522 119.504 88.9225C119.476 88.9502 119.448 88.9778 119.43 89.0148C119.031 89.6698 119.328 90.4817 119.884 90.8693C120.135 91.2844 120.663 91.4782 121.118 91.349C121.517 91.2199 121.73 90.9707 121.841 90.6663C125.663 89.0978 129.456 87.4094 132.972 85.1766C133.797 84.6414 133.806 84.5861 134.493 84.2908C134.845 84.134 135.281 83.9218 135.495 83.5804C135.661 83.4512 135.819 83.3036 135.949 83.1099C136.608 81.6613 135.003 80.9416 133.936 81.5506Z" fill="black"/>
</g>
<g opacity="0.1294">
<path d="M158.386 77.4264C158.182 77.4264 157.997 77.4818 157.811 77.5648C156.921 77.8416 156.123 78.4321 155.251 78.7643C153.702 79.5485 153.099 79.6961 151.021 80.7295C147.45 82.7132 141.523 84.6507 138.333 86.0439C136.237 86.7082 137.081 89.9467 139.223 89.4023C142.562 88.2767 145.725 86.6436 148.953 85.2043C150.65 84.3831 153.888 83.1652 156.577 81.7905C157.83 81.1078 159.397 80.2958 159.546 79.8899C160.334 78.958 159.564 77.3895 158.386 77.4264Z" fill="black"/>
</g>
<g opacity="0.1294">
<path d="M40.125 41.5072C38.7708 46.6279 36.3778 50.4199 34.6155 56.0573C33.5488 59.3511 32.7419 62.7187 32.1297 66.1325C31.7494 67.6456 31.4526 69.1772 31.1465 70.7088C30.9239 72.0651 30.5436 73.449 30.7755 74.8238C31.1094 76.1616 32.5285 76.8074 33.6787 76.3738C34.4114 77.1765 35.1813 77.9331 35.9604 78.6896C35.9604 78.6527 35.9604 78.625 35.9604 78.5881C35.9048 77.075 35.9233 75.5711 36.0068 74.058C35.7007 72.9969 35.5894 72.305 35.5245 71.4377C35.8213 69.7677 36.2016 68.1162 36.3963 66.4277C37.1569 60.9934 38.6317 55.7067 40.3198 50.5214C40.83 48.9714 41.2195 47.3752 41.8688 45.8805C42.3233 44.5335 43.0746 43.1587 43.0746 41.7102C42.9355 40.0402 40.5146 39.8742 40.125 41.5072Z" fill="black"/>
</g>
<g opacity="0.1294">
<path d="M41.6556 83.045C41.5721 83.3771 41.266 83.6262 40.9414 83.6078C41.2011 83.7554 41.4887 83.8292 41.7947 83.737C42.2678 83.6078 42.5831 83.1096 42.5553 82.6113C42.2585 82.759 41.9617 82.9066 41.6556 83.045Z" fill="black"/>
</g>
<g opacity="0.1294">
<path d="M30.7845 74.8238C30.7569 74.6208 30.7292 74.4178 30.7107 74.2148C30.7015 74.4271 30.7292 74.63 30.7845 74.8238Z" fill="black"/>
</g>
<g opacity="0.1294">
<path d="M50.6434 87.2065C50.0683 87.6124 49.2892 87.4833 47.7958 87.4648C46.8034 87.3633 45.5326 87.4464 44.4196 87.0773C43.6868 86.902 43.0097 86.3115 42.2399 86.413C40.8115 86.5422 40.6816 88.7842 42.0636 89.1532C43.0654 89.5592 44.0764 89.919 45.1338 90.1589C46.0242 90.3711 46.9332 90.5833 47.8329 90.3527C48.9552 90.1128 50.0219 89.6146 51.0236 89.0425C51.4318 88.7657 51.979 88.5443 52.1367 88.0369C52.35 87.0865 51.2926 86.6068 50.6434 87.2065Z" fill="black"/>
</g>
<g opacity="0.1294">
<path d="M65.8087 89.2361C65.3078 89.4114 65.2058 89.6882 64.4266 90.1219C62.8684 91.0076 62.2005 91.1737 60.1229 91.5981C58.1472 92.1332 58.3142 92.0133 56.1252 92.1701C55.4388 92.1978 54.7617 92.1609 54.0753 92.0779C53.6301 92.0041 53.1849 91.8103 52.7397 91.9118C50.9403 92.0963 50.7826 94.8642 52.5171 95.344C56.9321 96.6818 60.5774 95.344 63.7031 93.3603C64.6492 92.7698 65.586 92.1517 66.393 91.3582C66.8289 90.8415 66.9402 90.9338 67.0423 90.2326C67.0608 89.5683 66.4116 89.0608 65.8087 89.2361Z" fill="black"/>
</g>
<g opacity="0.1294">
<path d="M84.3594 98.7388C83.4318 98.8772 83.6637 98.9972 83.1721 99.154C82.7826 99.2648 82.7269 99.4493 81.3356 99.7999C80.3802 99.9752 80.4173 99.966 80.1669 99.9936C80.3524 99.7445 80.4266 99.4124 80.371 99.1079C80.3339 98.4805 79.7495 98.0007 79.1652 97.9915C78.4417 98.0376 77.8852 98.665 77.2266 98.9326C75.8446 99.5692 76.1785 99.4677 74.2585 100.141C72.524 100.649 71.6243 100.603 70.9565 100.649C70.3257 100.63 69.7043 100.197 69.1292 100.123C70.2886 99.6523 71.4017 99.0064 72.4591 98.3237C73.6742 97.5579 74.7408 96.5983 75.7333 95.5557C75.9559 95.3528 76.0857 95.0575 76.0857 94.753C76.095 94.3748 75.8817 94.0426 75.5849 93.8489C75.2046 93.609 74.6759 93.6828 74.3605 94.0149C74.4255 93.9596 74.5924 93.8304 74.4997 93.895C74.0081 94.2179 73.5072 94.5316 73.0063 94.8453C70.1217 96.7828 66.3095 97.9177 63.833 98.3144C63.2486 98.379 62.655 98.4528 62.0614 98.3975C62.015 98.3882 61.9872 98.3882 61.9594 98.3882C61.9408 98.3882 61.913 98.379 61.8944 98.379C61.4492 98.3329 61.004 98.1022 60.5588 98.1668C59.4921 98.2683 59.3901 99.9383 60.4289 100.215C61.3657 100.556 62.3118 100.889 63.295 100.981C64.3339 101.101 65.3913 100.944 66.4208 100.824C66.9866 100.778 67.5339 100.667 68.0626 100.51C67.5617 101.082 67.5802 102.153 68.3223 102.568C71.0121 103.989 73.9153 103.693 76.5959 102.42C77.0875 102.217 77.5605 101.968 78.015 101.691C78.0336 102.54 78.6643 103.389 79.5733 103.352C81.2521 103.131 83.0608 103.029 84.4799 101.968C84.8973 101.627 85.4539 101.341 85.6394 100.796C86.0939 99.8645 85.3333 98.7204 84.3594 98.7388Z" fill="black"/>
</g>
<g opacity="0.1294">
<path d="M97.9293 92.2162C96.8998 92.7606 97.1502 92.8713 96.4824 93.3049C95.4899 94.0246 95.6198 93.9415 94.1821 94.329C93.0041 94.5413 93.7183 94.4951 92.698 94.5136C92.5775 94.5136 92.4662 94.4951 92.3456 94.4859C92.2157 94.4582 92.0488 94.4305 91.9282 94.3936C91.0749 94.246 90.1659 93.5817 89.3311 94.1168C88.2273 94.7442 88.4592 96.6172 89.6836 96.9309C90.8059 97.2815 91.9653 97.6229 93.1525 97.5398C94.5624 97.4383 95.9444 96.894 97.1317 96.0821C97.6975 95.6577 98.2354 95.1963 98.7549 94.7166C99.1351 94.3936 99.5062 93.9969 99.4876 93.4525C99.4969 92.6314 98.6807 91.9855 97.9293 92.2162Z" fill="black"/>
</g>
<g opacity="0.1294">
<path d="M109.579 87.9537C109.588 87.3079 109.171 86.6712 108.55 86.5144C108.512 86.5052 108.485 86.5052 108.448 86.4959C108.438 85.2781 108.475 84.0509 108.179 82.87C107.752 81.0247 106.787 79.4008 105.99 77.7032C105.257 75.9225 104.301 74.2064 103.077 72.7486C102.558 72.2688 101.677 72.7394 101.695 73.459C101.741 74.0772 102.279 74.5108 102.548 75.0275C104.06 77.3341 104.57 79.0502 105.294 81.8089C106.175 84.706 106.333 86.1084 106.073 89.0978C106.073 89.1347 106.064 89.1624 106.064 89.1901C106.036 89.3284 106.017 89.4576 105.99 89.596C105.98 89.6606 105.952 89.7713 105.915 89.882C105.767 90.1311 105.619 90.371 105.452 90.6109C105.248 90.86 104.839 91.3675 104.608 91.5889C104.552 91.6258 104.506 91.6535 104.459 91.6812C104.005 91.7273 103.661 91.7089 102.446 91.2937C102.103 91.1553 102.029 91.1184 102.419 91.2937C101.806 91.0722 101.25 90.6294 100.61 90.5094C99.1722 90.2326 98.4672 92.4101 99.738 93.139C100.183 93.3788 100.675 93.6095 101.111 93.8125C101.203 94.3015 101.463 94.7628 101.918 95.0211C102.02 95.0857 102.131 95.1319 102.242 95.178C102.279 95.7777 102.623 96.3497 103.355 96.5804C103.968 96.7557 104.608 96.931 105.248 96.7834C105.47 96.7465 105.906 96.5435 105.971 96.5066C106.611 96.2206 107.27 95.8238 107.548 95.1503C107.705 94.8089 107.715 94.4676 107.622 94.1539C107.863 93.8955 108.002 93.5541 108.03 93.2035C108.661 92.3363 109.115 91.3214 109.347 90.2788C109.486 89.5499 109.57 88.8025 109.579 88.0644C109.579 88.0368 109.579 88.0091 109.579 87.9814C109.579 87.9629 109.579 87.9445 109.579 87.9353V87.9537Z" fill="black"/>
</g>
<path d="M26.1936 88.7099C26.1472 88.7099 26.0916 88.7007 26.0452 88.6915C21.4817 87.8242 16.7606 86.9292 12.1043 85.6006C10.3049 84.9732 8.56116 84.558 6.72464 84.1244C4.72116 83.6446 2.64348 83.1556 0.528696 82.3806C0.111305 82.2238 -0.102029 81.7717 0.0556523 81.3565C0.213333 80.9413 0.667826 80.7291 1.08522 80.8859C3.11652 81.6333 5.14783 82.113 7.10493 82.5744C8.90435 82.9988 10.7594 83.4416 12.5959 84.0783C16.8904 85.2961 21.3055 86.1634 25.6 86.9754C27.4643 79.1145 29.9965 71.4381 32.4452 64.0016C33.9014 59.5729 35.4133 54.9967 36.7861 50.3742C36.7954 50.3558 36.7954 50.3373 36.8046 50.3189C37.2684 49.1194 37.76 47.9384 38.233 46.8036C39.5316 43.722 40.7559 40.7972 41.3588 37.4204C41.3403 37.3927 41.3125 37.365 41.2846 37.3465C41.1826 37.3465 41.127 37.3373 41.0342 37.2912C36.9994 35.6858 32.7791 34.514 28.698 33.3884C23.8655 32.0506 18.8661 30.6666 14.0058 28.5353C13.5977 28.36 13.4214 27.8895 13.5977 27.4835C13.7739 27.0776 14.247 26.893 14.6551 27.0776C19.4041 29.1627 24.3478 30.5375 29.1246 31.8568C33.2151 32.9917 37.4354 34.1542 41.5165 35.7688C42.3049 35.8703 42.9728 36.6177 42.9728 37.4296C42.9728 37.4757 42.9727 37.5218 42.9635 37.568C42.3327 41.1755 40.9971 44.3494 39.7078 47.4125C39.2348 48.5289 38.7525 49.6822 38.3072 50.854C36.9252 55.4949 35.4226 60.0712 33.9571 64.4998C31.3229 72.4899 28.8371 80.0279 26.9727 88.0825C26.8893 88.4608 26.5646 88.7099 26.1936 88.7099Z" fill="black"/>
<path d="M16.8347 86.2464C16.7698 86.2464 16.7141 86.2372 16.6492 86.2279C16.2225 86.1264 15.9535 85.6928 16.0556 85.2684C20.3037 67.5722 26.2863 48.7595 32.473 33.6651C32.6399 33.2592 33.113 33.0654 33.5211 33.2223C33.9292 33.3883 34.1332 33.8589 33.9663 34.2648C27.8167 49.2946 21.8527 68.015 17.6231 85.6374C17.5211 86.0065 17.1964 86.2464 16.8347 86.2464Z" fill="black"/>
<path d="M138.073 90.961C137.943 90.961 137.823 90.9333 137.711 90.8779C137.507 90.7764 137.359 90.5919 137.303 90.3797C134.363 79.8155 131.256 69.2605 127.954 58.0781C126.256 52.3116 124.494 46.3421 122.741 40.2988C122.639 39.9482 122.796 39.5699 123.112 39.3854C130.606 35.1505 138.49 31.5245 146.541 28.6182C146.959 28.4705 147.413 28.6828 147.571 29.0979C147.719 29.5131 147.506 29.9652 147.089 30.1221C139.316 32.9269 131.701 36.4053 124.448 40.4741C126.145 46.3052 127.842 52.0625 129.484 57.6352C132.693 68.5224 135.726 78.819 138.602 89.1157C145.447 86.56 152.255 83.6352 158.841 80.4244C159.239 80.2307 159.722 80.3967 159.917 80.7935C160.111 81.1902 159.944 81.67 159.545 81.8637C152.654 85.2221 145.521 88.2669 138.342 90.9148C138.268 90.9425 138.166 90.961 138.073 90.961Z" fill="black"/>
<path d="M146.978 86.9199C146.616 86.9199 146.291 86.68 146.198 86.3202C141.885 69.3621 136.96 52.3393 131.571 35.7226C131.432 35.3074 131.664 34.8553 132.091 34.7169C132.517 34.5785 132.962 34.8092 133.102 35.2336C138.5 51.878 143.434 68.9376 147.757 85.9235C147.868 86.3479 147.608 86.7815 147.172 86.8922C147.107 86.9107 147.042 86.9199 146.978 86.9199Z" fill="black"/>
<path d="M65.113 63.9369C63.3878 63.9369 61.3658 63.1526 60.4661 61.335C58.8707 58.115 61.8666 54.489 62.8498 53.2988C66.9124 48.3812 71.1142 43.3067 76.3362 39.4685C82.2446 35.1321 88.7003 33.1761 94.5159 33.9419C97.4933 34.3386 100.313 35.4273 103.049 36.4791C103.93 36.8205 104.839 37.1711 105.73 37.494C111.406 39.5238 117.333 40.6033 123.334 40.6956C123.78 40.7048 124.132 41.0646 124.123 41.5075C124.114 41.9411 123.761 42.2917 123.325 42.2917H123.316C117.139 42.1995 111.045 41.0923 105.201 38.9979C104.283 38.675 103.365 38.3152 102.474 37.9738C99.8307 36.9497 97.0945 35.8979 94.3118 35.5288C88.9136 34.8091 82.866 36.6729 77.3008 40.7509C72.2365 44.4692 68.0997 49.4699 64.102 54.3138C61.8666 57.0171 61.1524 59.0838 61.913 60.6338C62.553 61.9255 64.1113 62.4238 65.3634 62.3407C66.8197 62.2485 68.1924 61.5842 69.7136 60.7815C70.7339 60.2463 71.7542 59.7204 72.7745 59.1853C78.9889 55.956 84.8603 52.9021 90.4347 48.8056C90.7872 48.5472 91.2974 48.6211 91.5571 48.9717C91.8168 49.3223 91.7426 49.8205 91.3901 50.0881C85.7229 54.2584 79.7959 57.34 73.5258 60.5969C72.5147 61.1228 71.4945 61.6487 70.4742 62.1839C68.851 63.0419 67.2463 63.8077 65.4747 63.9277C65.3449 63.9277 65.2336 63.9369 65.113 63.9369Z" fill="black"/>
<path d="M119.81 92.078C119.504 92.078 119.207 91.9027 119.077 91.5983C118.901 91.1923 119.086 90.7217 119.494 90.5464C124.819 88.2583 130.189 85.8779 135.448 83.4698C135.847 83.2853 136.329 83.4606 136.515 83.8665C136.7 84.2633 136.524 84.743 136.116 84.9276C130.838 87.3357 125.458 89.7161 120.125 92.0134C120.023 92.0504 119.912 92.078 119.81 92.078Z" fill="black"/>
<path d="M117.741 95.1686C117.584 95.1686 117.435 95.1594 117.305 95.1409C114.829 94.8642 112.39 93.1573 110.627 90.4447C109.505 88.7194 108.726 86.8003 107.965 84.9365C107.724 84.3461 107.492 83.7648 107.242 83.1835C105.238 78.4965 102.521 74.2062 99.1814 70.4419C98.8846 70.1097 98.9217 69.6115 99.2556 69.3162C99.5895 69.021 100.09 69.0579 100.387 69.3901C103.847 73.2836 106.648 77.7215 108.726 82.5654C108.976 83.1558 109.217 83.7556 109.459 84.3461C110.182 86.136 110.933 87.9813 111.972 89.5774C113.475 91.884 115.488 93.3326 117.482 93.554C117.769 93.5817 117.964 93.5725 118.047 93.5079C118.15 93.4433 118.307 93.2034 118.289 92.3177C118.02 83.368 115.2 74.3723 110.34 66.982C105.489 59.6101 98.4672 53.6314 90.5739 50.1622C90.1658 49.9869 89.9895 49.5164 90.1658 49.1104C90.342 48.7045 90.815 48.5292 91.2232 48.7045C99.3947 52.3028 106.667 58.4844 111.685 66.1147C116.703 73.7357 119.615 83.0267 119.893 92.2715C119.912 92.7882 119.949 94.1722 118.938 94.8457C118.548 95.104 118.122 95.1686 117.741 95.1686Z" fill="black"/>
<path d="M80.8069 103.638C79.7681 103.638 78.4231 103.463 76.9576 102.347C76.6052 102.079 76.5402 101.581 76.8092 101.23C77.0782 100.88 77.5791 100.815 77.9315 101.083C79.2858 102.116 80.4266 102.07 81.4284 102.024L81.5397 102.014C83.0237 101.95 84.582 101.193 85.5188 100.095C85.9547 99.5787 86.4463 98.7575 86.3165 97.7611C86.3072 97.7242 86.3072 97.6965 86.3072 97.6596C86.3165 96.008 86.0939 94.3381 85.8991 93.0556C85.8434 92.705 86.0289 92.3636 86.3536 92.216C86.6782 92.0684 87.0585 92.1514 87.2997 92.419C88.4127 93.7107 89.5721 95.0393 90.982 95.9158C92.4289 96.82 94.0336 97.0783 95.2765 96.6078C97.0017 95.9435 98.7733 92.7973 98.3744 91.0811C98.2724 90.6475 98.5414 90.2231 98.9773 90.1216C99.4133 90.0201 99.84 90.2969 99.942 90.7213C100.517 93.2217 98.3373 97.1429 95.8515 98.0932C94.1171 98.7575 92.0301 98.453 90.1287 97.2628C89.266 96.7185 88.5055 96.0634 87.8005 95.353C87.8655 96.0819 87.9118 96.8476 87.9118 97.6042C88.051 98.8313 87.6521 100.049 86.7431 101.119C85.5095 102.577 83.5431 103.528 81.6046 103.611H81.5026C81.2985 103.629 81.0574 103.638 80.8069 103.638Z" fill="black"/>
<path d="M105.146 97.3179C104.515 97.3179 103.921 97.1426 103.346 96.9119C100.526 95.7678 99.0423 92.5847 97.6047 89.5031C96.6122 87.3718 95.5826 85.1759 94.182 83.875C93.8574 83.5705 93.8389 83.0723 94.1449 82.7494C94.451 82.4264 94.9519 82.408 95.2765 82.7125C96.8997 84.2256 97.9942 86.5691 99.0516 88.8388C100.415 91.7728 101.714 94.5407 103.94 95.4449C104.923 95.8416 106.045 96.2937 107.622 93.5166C108.058 92.7508 108.179 91.7728 108.243 90.8317C108.401 88.4236 107.789 85.9417 107.186 83.5336C107.093 83.1646 107.001 82.7955 106.917 82.4357C106.815 82.0113 107.075 81.5776 107.511 81.4761C107.947 81.3746 108.373 81.633 108.475 82.0666C108.559 82.4264 108.652 82.7955 108.744 83.1553C109.375 85.6741 110.024 88.2852 109.848 90.9424C109.774 92.068 109.626 93.2582 109.023 94.31C107.706 96.6259 106.379 97.3179 105.146 97.3179Z" fill="black"/>
<path d="M57.062 96.8479C56.9971 96.8479 56.9322 96.8479 56.8673 96.8479C54.502 96.7926 51.7194 95.3256 50.9774 92.6314C50.7362 91.7549 50.727 90.8692 50.8383 90.0204C49.3357 90.9522 47.4806 91.3305 45.7183 90.9984C42.9449 90.4817 40.6168 88.1105 40.1809 85.3703C40.0417 84.4661 40.1994 83.7649 40.6632 83.2851C40.9693 82.9714 41.4794 82.9622 41.7948 83.2666C42.1102 83.5711 42.1194 84.0786 41.8133 84.3923C41.7577 84.4476 41.6835 84.6598 41.7577 85.1212C42.0916 87.2155 43.8817 89.0239 46.0058 89.4299C48.0742 89.8174 50.2817 88.9501 51.5061 87.2617C51.7194 86.9757 52.0904 86.8557 52.4244 86.9757C52.6841 86.8373 52.9159 86.745 53.0736 86.6804C56.0417 85.4718 59.149 84.7244 62.3304 84.4661C65.549 84.2077 66.8846 85.3703 67.4319 86.3944C67.8122 87.0956 67.942 87.9629 67.8215 88.9593C67.6731 90.2326 67.1351 91.4781 66.3281 92.4469C65.5397 93.388 64.5287 94.0615 63.5641 94.6428C61.8296 95.6854 59.5478 96.8479 57.062 96.8479ZM52.7212 88.7195C52.3965 90.0204 52.2203 91.146 52.5171 92.207C53.0551 94.1446 55.1328 95.2056 56.9044 95.2517C59.0562 95.3071 61.1432 94.2276 62.72 93.2865C63.5733 92.7791 64.4452 92.207 65.076 91.4412C65.6881 90.7031 66.0962 89.7528 66.2168 88.784C66.2725 88.3227 66.2817 87.6769 66.0035 87.1602C65.4099 86.0622 63.7403 85.9608 62.4417 86.0622C59.4365 86.3021 56.4777 87.0126 53.6673 88.1566C53.2035 88.3504 52.8974 88.5349 52.7212 88.7195Z" fill="black"/>
<path d="M64.3154 102.07C63.1467 102.07 62.0429 101.784 61.1154 101.212C59.3067 100.104 58.2215 97.8993 58.407 95.7311C58.4441 95.2883 58.8337 94.9653 59.2789 95.0022C59.7241 95.0391 60.0487 95.4267 60.0116 95.8695C59.8818 97.4288 60.6795 99.0711 61.9595 99.8553C63.1838 100.612 64.8627 100.686 66.5508 100.058C68.1554 99.4586 69.556 98.3791 70.9751 97.2166C72.9971 95.565 74.8893 93.7198 75.0563 91.3947C75.0655 91.2563 75.0748 91.0533 75.0285 90.9334C74.9821 90.8227 74.8522 90.7027 74.6296 90.5643C73.2105 89.6786 71.5131 89.9 70.6319 90.103C69.2685 90.4259 68.1554 91.0257 66.8661 91.7269L66.6435 91.8468C66.254 92.059 65.7624 91.9114 65.5583 91.5239C65.345 91.1364 65.4934 90.6566 65.8829 90.4444L66.1055 90.3245C67.4412 89.6048 68.7027 88.922 70.2702 88.553C72.218 88.0917 74.0731 88.3223 75.4922 89.2173C75.8169 89.4203 76.2806 89.7616 76.5125 90.3245C76.6887 90.7489 76.6795 91.1825 76.6609 91.5054C76.4476 94.4394 74.2864 96.5707 71.9954 98.4437C70.5299 99.6431 68.9438 100.861 67.1166 101.544C66.1705 101.894 65.2151 102.07 64.3154 102.07Z" fill="black"/>
<path d="M72.9414 104.266C71.8747 104.266 70.7988 104.007 69.8434 103.509C68.7304 102.937 67.5802 101.784 67.673 100.289C67.7008 99.8461 68.0904 99.5139 68.517 99.5416C68.9623 99.5693 69.2962 99.9475 69.2683 100.381C69.222 101.119 69.9454 101.756 70.5854 102.088C71.5779 102.605 72.7188 102.78 73.8133 102.586C75.557 102.282 77.0689 101.082 78.3211 99.9475C79.7402 98.6651 80.3431 97.604 80.2225 96.6076C80.0927 95.4543 78.9054 94.6793 77.8759 94.6239C76.8463 94.5685 75.7889 95.0114 74.5368 96.0356C74.1936 96.3123 73.6927 96.2662 73.4052 95.9248C73.1269 95.5835 73.1733 95.0852 73.5165 94.7992C74.5089 93.9873 76.0486 92.9078 77.9686 93.0277C79.6753 93.1292 81.5768 94.4209 81.8086 96.4231C82.0498 98.4621 80.5379 100.086 79.3878 101.129C78.0521 102.337 76.2434 103.776 74.0823 104.155C73.7112 104.229 73.3217 104.266 72.9414 104.266Z" fill="black"/>
<path d="M52.2295 88.0368C51.8399 88.0368 51.506 87.76 51.4411 87.3725C51.1814 85.804 49.5304 84.8629 48.575 84.4385C45.7831 83.2114 43.353 83.2483 41.3588 84.5584C40.997 84.7983 40.5054 84.7061 40.255 84.3462C37.4353 80.2589 33.9106 77.2327 29.8017 75.3597C29.4028 75.1752 29.2173 74.7046 29.4028 74.2987C29.5883 73.9019 30.0614 73.7174 30.4695 73.9019C34.6434 75.8026 38.233 78.8012 41.1454 82.8239C43.4735 81.5968 46.1912 81.6429 49.2243 82.9807C51.3854 83.931 52.7396 85.398 53.0272 87.1142C53.1014 87.5478 52.8046 87.963 52.3686 88.0276C52.313 88.0276 52.2759 88.0368 52.2295 88.0368Z" fill="black"/>
<path d="M41.5444 41.009C41.1827 41.009 40.8581 40.7599 40.7653 40.4C40.6633 39.9756 40.923 39.542 41.3589 39.4405C49.5398 37.466 57.0528 34.7535 63.323 32.3638L63.8795 32.1516C66.2725 31.2382 68.7491 30.2879 71.3647 29.9834C77.3844 29.2914 82.9218 31.9856 87.8099 34.366C88.2088 34.5597 88.3757 35.0395 88.181 35.4362C87.9862 35.833 87.5039 35.999 87.105 35.8053C82.421 33.5264 77.1062 30.9337 71.5502 31.5796C69.1386 31.8564 66.7641 32.7698 64.4638 33.6463L63.9073 33.8585C57.5815 36.2666 50.0128 38.9976 41.7485 40.9998C41.6743 41.009 41.6094 41.009 41.5444 41.009Z" fill="black"/>
<path d="M154.852 80.4893C154.815 80.4893 154.787 80.4801 154.75 80.4708L146.727 77.3154C146.588 77.2601 146.523 77.1032 146.578 76.974C146.634 76.8356 146.792 76.7711 146.922 76.8264L154.945 79.9818C155.084 80.0372 155.149 80.194 155.093 80.3232C155.065 80.4247 154.963 80.4893 154.852 80.4893Z" fill="black"/>
<path d="M157.57 77.343C157.542 77.343 157.514 77.3338 157.477 77.3246C153.062 75.7561 148.684 73.9016 144.473 71.8164C144.343 71.7518 144.287 71.595 144.352 71.4566C144.417 71.3274 144.575 71.272 144.714 71.3366C148.907 73.4126 153.266 75.2579 157.663 76.8263C157.802 76.8725 157.876 77.0293 157.82 77.1677C157.783 77.2784 157.672 77.343 157.57 77.343Z" fill="black"/>
<path d="M158.247 72.4065C158.219 72.4065 158.191 72.4065 158.163 72.388C153.257 70.7088 148.35 68.7989 143.601 66.7045C143.462 66.6492 143.406 66.4923 143.462 66.3539C143.518 66.2155 143.685 66.1602 143.814 66.2156C148.554 68.3007 153.442 70.2106 158.33 71.8806C158.47 71.9267 158.544 72.0835 158.497 72.2219C158.46 72.3326 158.358 72.4065 158.247 72.4065Z" fill="black"/>
<path d="M158.247 67.6642C158.21 67.6642 158.182 67.6549 158.145 67.6457C152.44 65.4129 148.007 63.4846 141.904 60.7905C141.764 60.7351 141.709 60.5783 141.764 60.4399C141.82 60.3015 141.987 60.2461 142.117 60.3015C148.22 62.9864 152.635 64.9147 158.34 67.1475C158.479 67.2028 158.544 67.3597 158.488 67.4889C158.46 67.5996 158.358 67.6642 158.247 67.6642Z" fill="black"/>
<path d="M156.828 62.3134C156.791 62.3134 156.754 62.3042 156.726 62.2949L140.346 55.3198C140.206 55.2644 140.151 55.1076 140.206 54.9692C140.262 54.8308 140.42 54.7754 140.559 54.8308L156.939 61.8059C157.078 61.8613 157.134 62.0182 157.078 62.1565C157.032 62.2488 156.93 62.3134 156.828 62.3134Z" fill="black"/>
<path d="M156.299 57.1924C156.262 57.1924 156.225 57.1832 156.188 57.1647L138.398 48.9348C138.268 48.8702 138.203 48.7134 138.268 48.5842C138.333 48.455 138.491 48.3904 138.62 48.455L156.411 56.685C156.54 56.7496 156.605 56.9064 156.54 57.0356C156.494 57.1278 156.401 57.1924 156.299 57.1924Z" fill="black"/>
<path d="M154.565 50.7528C154.527 50.7528 154.49 50.7436 154.453 50.7251L136.505 42.3014C136.376 42.2369 136.311 42.08 136.376 41.9508C136.44 41.8124 136.598 41.7663 136.728 41.8217L154.676 50.2454C154.806 50.31 154.871 50.4668 154.806 50.596C154.759 50.6975 154.667 50.7528 154.565 50.7528Z" fill="black"/>
<path d="M150.53 42.3291C150.493 42.3291 150.465 42.3199 150.428 42.3107C145.966 40.5207 141.421 38.7954 136.914 37.1808C136.774 37.1346 136.7 36.9778 136.756 36.8394C136.802 36.701 136.96 36.6272 137.099 36.6825C141.616 38.2972 146.17 40.0225 150.632 41.8124C150.771 41.8678 150.836 42.0246 150.78 42.163C150.734 42.2645 150.632 42.3291 150.53 42.3291Z" fill="black"/>
<path d="M150.177 36.4053C150.14 36.4053 150.103 36.3961 150.066 36.3869L143.657 33.5913C143.518 33.5359 143.462 33.3791 143.518 33.2407C143.573 33.1023 143.731 33.0469 143.87 33.1023L150.279 35.8979C150.419 35.9532 150.474 36.1101 150.419 36.2485C150.372 36.35 150.279 36.4053 150.177 36.4053Z" fill="black"/>
<path d="M14.3584 27.9814C20.6934 30.205 27.0934 32.2164 33.1966 34.1262C32.1949 38.5364 29.6256 42.347 27.9004 46.5081C26.9821 48.7132 26.305 51.0105 25.6372 53.3171C22.4929 64.0936 19.4876 74.9069 16.603 85.7572C10.9543 83.7366 6.57634 82.7032 0.519531 81.5776C6.09402 63.457 11.1213 46.0652 14.3584 27.9814Z" fill="#ACD4F7"/>
<g opacity="0.1294">
<path d="M40.125 41.5072C38.7708 46.6279 36.3778 50.4199 34.6155 56.0573C33.5488 59.3511 32.7419 62.7187 32.1297 66.1325C31.7494 67.6456 31.4526 69.1772 31.1465 70.7088C30.9239 72.0651 30.5436 73.449 30.7755 74.8238C31.1094 76.1616 32.5285 76.8074 33.6787 76.3738C34.4114 77.1765 35.1813 77.9331 35.9604 78.6896C35.9604 78.6527 35.9604 78.625 35.9604 78.5881C35.9048 77.075 35.9233 75.5711 36.0068 74.058C35.7007 72.9969 35.5894 72.305 35.5245 71.4377C35.8213 69.7677 36.2016 68.1162 36.3963 66.4277C37.1569 60.9934 38.6317 55.7067 40.3198 50.5214C40.83 48.9714 41.2195 47.3752 41.8688 45.8805C42.3233 44.5335 43.0746 43.1587 43.0746 41.7102C42.9355 40.0402 40.5146 39.8742 40.125 41.5072Z" fill="black"/>
</g>
<g opacity="0.1294">
<path d="M41.6556 83.045C41.5721 83.3771 41.266 83.6262 40.9414 83.6078C41.2011 83.7554 41.4887 83.8292 41.7947 83.737C42.2678 83.6078 42.5831 83.1096 42.5553 82.6113C42.2585 82.759 41.9617 82.9066 41.6556 83.045Z" fill="black"/>
</g>
<g opacity="0.1294">
<path d="M30.7845 74.8238C30.7569 74.6208 30.7292 74.4178 30.7107 74.2148C30.7015 74.4271 30.7292 74.63 30.7845 74.8238Z" fill="black"/>
</g>
<path d="M26.1936 88.7099C26.1472 88.7099 26.0916 88.7007 26.0452 88.6915C21.4817 87.8242 16.7606 86.9292 12.1043 85.6006C10.3049 84.9732 8.56116 84.558 6.72464 84.1244C4.72116 83.6446 2.64348 83.1556 0.528696 82.3806C0.111305 82.2238 -0.102029 81.7717 0.0556523 81.3565C0.213333 80.9413 0.667826 80.7291 1.08522 80.8859C3.11652 81.6333 5.14783 82.113 7.10493 82.5744C8.90435 82.9988 10.7594 83.4416 12.5959 84.0783C16.8904 85.2961 21.3055 86.1634 25.6 86.9754C27.4643 79.1145 29.9965 71.4381 32.4452 64.0016C33.9014 59.5729 35.4133 54.9967 36.7861 50.3742C36.7954 50.3558 36.7954 50.3373 36.8046 50.3189C37.2684 49.1194 37.76 47.9384 38.233 46.8036C39.5316 43.722 40.7559 40.7972 41.3588 37.4204C41.3403 37.3927 41.3125 37.365 41.2846 37.3465C41.1826 37.3465 41.127 37.3373 41.0342 37.2912C36.9994 35.6858 32.7791 34.514 28.698 33.3884C23.8655 32.0506 18.8661 30.6666 14.0058 28.5353C13.5977 28.36 13.4214 27.8895 13.5977 27.4835C13.7739 27.0776 14.247 26.893 14.6551 27.0776C19.4041 29.1627 24.3478 30.5375 29.1246 31.8568C33.2151 32.9917 37.4354 34.1542 41.5165 35.7688C42.3049 35.8703 42.9728 36.6177 42.9728 37.4296C42.9728 37.4757 42.9727 37.5218 42.9635 37.568C42.3327 41.1755 40.9971 44.3494 39.7078 47.4125C39.2348 48.5289 38.7525 49.6822 38.3072 50.854C36.9252 55.4949 35.4226 60.0712 33.9571 64.4998C31.3229 72.4899 28.8371 80.0279 26.9727 88.0825C26.8893 88.4608 26.5646 88.7099 26.1936 88.7099Z" fill="black"/>
<path d="M16.8347 86.2464C16.7698 86.2464 16.7141 86.2372 16.6492 86.2279C16.2225 86.1264 15.9535 85.6928 16.0556 85.2684C20.3037 67.5722 26.2863 48.7595 32.473 33.6651C32.6399 33.2592 33.113 33.0654 33.5211 33.2223C33.9292 33.3883 34.1332 33.8589 33.9663 34.2648C27.8167 49.2946 21.8527 68.015 17.6231 85.6374C17.5211 86.0065 17.1964 86.2464 16.8347 86.2464Z" fill="black"/>
<path d="M119.81 92.078C119.504 92.078 119.207 91.9027 119.077 91.5983C118.901 91.1923 119.086 90.7217 119.494 90.5464C124.819 88.2583 130.189 85.8779 135.448 83.4698C135.847 83.2853 136.329 83.4606 136.515 83.8665C136.7 84.2633 136.524 84.743 136.116 84.9276C130.838 87.3357 125.458 89.7161 120.125 92.0134C120.023 92.0504 119.912 92.078 119.81 92.078Z" fill="black"/>
<path d="M106.416 32.4192C105.962 32.41 105.609 32.0501 105.619 31.6165L105.85 9.20558C105.86 8.77194 106.212 8.41211 106.648 8.41211H106.657C107.103 8.42134 107.455 8.78117 107.455 9.21481L107.223 31.6257C107.214 32.0686 106.861 32.4192 106.416 32.4192Z" fill="#42526D"/>
<path d="M101.908 15.7016C101.723 15.7016 101.537 15.6371 101.389 15.5079C101.055 15.2219 101.009 14.7144 101.296 14.3823C103.105 12.2787 104.719 9.97205 106.101 7.52706C106.249 7.26872 106.537 7.13032 106.815 7.12109C107.112 7.13032 107.381 7.2964 107.511 7.55473L107.659 7.84998C108.976 10.3965 109.839 12.0757 111.583 14.3085C111.852 14.6591 111.787 15.1573 111.444 15.4249C111.091 15.6924 110.59 15.6278 110.321 15.2865C108.735 13.2567 107.817 11.6144 106.75 9.58454C105.498 11.6513 104.07 13.6073 102.511 15.4249C102.363 15.6094 102.131 15.7016 101.908 15.7016Z" fill="#42526D"/>
<path d="M85.7693 25.5549C85.76 25.5549 85.76 25.5549 85.7693 25.5549C85.3148 25.5549 84.9623 25.1859 84.9716 24.7523L85.2035 2.34132C85.2035 1.90768 85.5652 1.54785 86.0012 1.54785H86.0105C86.4557 1.55708 86.8081 1.91691 86.8081 2.35055L86.5762 24.7615C86.567 25.2043 86.2052 25.5549 85.7693 25.5549Z" fill="#42526D"/>
<path d="M81.2522 8.84618C81.0667 8.84618 80.8812 8.78159 80.7328 8.65242C80.3989 8.36641 80.3525 7.85895 80.64 7.5268C82.4487 5.42318 84.0626 3.11658 85.4447 0.671587C85.5931 0.413247 85.862 0.265625 86.1589 0.265625C86.4557 0.274851 86.7247 0.440927 86.8545 0.699266L87.0029 0.985284C88.32 3.53177 89.1919 5.21098 90.9357 7.45299C91.2047 7.8036 91.1397 8.30182 90.7965 8.56939C90.4441 8.83695 89.9432 8.77237 89.6742 8.43099C88.0881 6.40118 87.1699 4.75888 86.1032 2.72907C84.851 4.79579 83.4226 6.75179 81.8644 8.56939C81.7067 8.74469 81.4841 8.84618 81.2522 8.84618Z" fill="#42526D"/>
<path d="M62.2749 28.5169C61.8204 28.5169 61.468 28.1478 61.4772 27.7142L61.7091 5.30324C61.7184 4.8696 62.0709 4.50977 62.5068 4.50977H62.5161C62.9613 4.51899 63.3138 4.87882 63.3138 5.31246L63.0819 27.7234C63.0726 28.1663 62.7201 28.5169 62.2749 28.5169Z" fill="#42526D"/>
<path d="M57.7671 11.7983C57.5816 11.7983 57.3961 11.7337 57.2477 11.6046C56.9138 11.3186 56.8674 10.8111 57.1549 10.479C58.9636 8.37533 60.5775 6.06873 61.9596 3.62374C62.108 3.3654 62.3955 3.21777 62.6738 3.21777C62.9706 3.227 63.2395 3.39308 63.3694 3.65141L63.5178 3.94666C64.8349 6.49315 65.6975 8.17235 67.4506 10.4051C67.7195 10.7557 67.6546 11.254 67.3114 11.5215C66.959 11.7891 66.4581 11.7337 66.1891 11.3831C64.603 9.35333 63.6848 7.71103 62.6181 5.68122C61.3659 7.74794 59.9375 9.70393 58.3793 11.5215C58.2123 11.7061 57.9897 11.7983 57.7671 11.7983Z" fill="#42526D"/>
</g>
<defs>
<clipPath id="clip0_10103_4211">
<rect width="160" height="104" fill="white" transform="translate(0 0.265625)"/>
</clipPath>
</defs>
</svg>
