<svg width="180" height="181" viewBox="0 0 180 181" fill="none" xmlns="http://www.w3.org/2000/svg">
<g clip-path="url(#clip0_10103_4048)">
<path d="M121.874 71.5838L143.75 109.58L180 94.0078L155 41.0635L121.874 71.5838Z" fill="#8133F1"/>
<path d="M63.7489 75.3219L71.8748 77.8132L81.2497 73.4529C81.2497 73.4529 81.2497 65.9789 85.0004 67.8479C88.7511 69.7169 92.4999 71.5858 92.4999 71.5858C92.4999 71.5858 102.499 72.2082 104.375 72.8325C106.25 73.4548 108.75 74.0791 106.874 77.1928C104.999 80.3065 108.125 80.9308 112.499 79.0618C116.874 77.1928 119.998 75.3238 119.998 75.3238L139.374 104.598L126.875 109.58C126.875 109.58 128.126 119.546 126.875 123.906C125.624 128.266 118.749 126.397 118.749 126.397C118.749 126.397 121.249 131.38 118.125 131.38C115 131.38 110.625 130.133 110.625 130.133L106.874 132.002L98.7485 128.264L96.2487 125.151L96.8732 131.38L92.498 135.118L86.2474 134.496L79.9969 137.609L73.1218 135.74C73.1218 135.74 65.6223 136.363 64.9959 133.871C64.3714 131.38 63.1205 128.889 63.1205 128.889L57.4964 121.415L52.4967 116.432L54.3721 109.58L43.1218 103.351L63.7489 75.3219Z" fill="white"/>
<path d="M54.0616 111.754C54.2608 111.739 54.46 111.749 54.6573 111.775C54.7225 111.777 54.7857 111.764 54.8412 111.733C54.9006 111.714 54.9523 111.682 54.9945 111.634C55.0405 111.59 55.0749 111.541 55.0941 111.481C55.1247 111.424 55.1382 111.363 55.1362 111.298C55.1305 111.174 55.0903 111.046 54.9964 110.96C54.9638 110.935 54.9313 110.911 54.8987 110.886C54.824 110.842 54.7435 110.821 54.6573 110.821C54.46 110.796 54.2608 110.785 54.0616 110.8C53.9965 110.798 53.9332 110.811 53.8777 110.842C53.8183 110.861 53.7666 110.893 53.7245 110.941C53.6785 110.985 53.644 111.035 53.6248 111.094C53.5942 111.151 53.5808 111.212 53.5827 111.277C53.5884 111.401 53.6287 111.529 53.7225 111.615C53.8126 111.695 53.9371 111.764 54.0616 111.754Z" fill="#222221"/>
<path d="M56.7224 110.784C57.6725 110.397 58.5116 109.812 59.4387 109.381C59.9214 109.156 60.4616 109.02 60.9635 108.841C61.4826 108.657 61.9979 108.468 62.5132 108.276C64.5801 107.501 66.6164 106.651 68.6488 105.792C69.6162 105.383 70.5817 104.902 71.5854 104.589C72.436 104.324 73.365 104.08 74.2615 104.225C75.7461 104.465 76.6656 105.725 76.7518 107.128C76.7958 107.827 76.6809 108.528 76.3821 109.165C76.0028 109.975 75.3668 110.645 74.7327 111.261C74.0336 111.943 73.2865 112.575 72.6256 113.297C71.9762 114.005 71.1774 114.564 70.3978 115.116C69.6143 115.671 68.8174 116.225 68.124 116.891C67.9746 117.035 67.8443 117.208 67.6661 117.317C67.4439 117.453 67.2198 117.584 66.9919 117.712C66.5628 117.953 66.1222 118.178 65.6739 118.384C63.9097 119.199 61.9883 119.726 60.0498 119.898C59.5479 119.942 59.046 119.936 58.5441 119.965C58.0978 119.992 57.6706 120.024 57.23 119.932C56.4044 119.761 55.483 119.316 55.0099 118.598C54.7877 118.262 54.6708 117.911 54.5195 117.535C54.3241 117.052 54.1421 116.565 53.9812 116.07C53.667 115.106 53.4333 114.11 53.3778 113.094C53.3663 112.89 53.3337 112.636 53.3835 112.457C53.4353 112.269 53.5349 112.09 53.5904 111.895C53.7609 111.303 52.8376 111.051 52.6671 111.641C52.6096 111.842 52.5062 112.029 52.4526 112.229C52.3855 112.481 52.4047 112.751 52.4162 113.006C52.4411 113.564 52.5139 114.119 52.6211 114.667C52.8299 115.738 53.1901 116.775 53.5981 117.787C53.7667 118.203 53.9084 118.638 54.1479 119.02C54.4275 119.465 54.7972 119.818 55.2359 120.104C56.0788 120.656 57.0634 120.979 58.0786 120.954C60.1973 120.9 62.2795 120.645 64.2928 119.957C65.2908 119.617 66.262 119.192 67.1892 118.693C67.6374 118.453 68.1776 118.214 68.5282 117.842C68.8672 117.481 69.2427 117.157 69.6315 116.849C70.4284 116.223 71.2847 115.675 72.0854 115.055C72.9129 114.411 73.593 113.636 74.3573 112.924C75.7174 111.655 77.2498 110.341 77.6176 108.426C77.9126 106.894 77.5448 105.137 76.2786 104.12C75.5105 103.503 74.5623 103.201 73.5777 103.234C72.5528 103.266 71.5069 103.553 70.5683 103.95C68.4535 104.843 66.3463 105.748 64.2123 106.598C63.1396 107.025 62.0592 107.438 60.9712 107.827C60.4214 108.024 59.8582 108.192 59.3123 108.4C58.8027 108.594 58.3238 108.877 57.8507 109.146C57.4005 109.404 56.9484 109.665 56.4676 109.862C56.2282 109.959 56.0596 110.179 56.1324 110.45C56.1956 110.677 56.481 110.883 56.7224 110.784Z" fill="#222221"/>
<path d="M57.9467 120.549C58.0041 121.466 58.0099 122.392 58.1823 123.296C58.3585 124.22 58.7646 125.062 59.3834 125.774C59.9868 126.469 60.7722 126.989 61.6572 127.246C62.4732 127.485 63.341 127.504 64.1838 127.46C65.1071 127.41 66.0247 127.304 66.948 127.267C68.0361 127.225 69.128 127.229 70.2103 127.088C71.2945 126.947 72.3097 126.651 73.2867 126.156C74.1832 125.704 75.0069 125.127 75.8019 124.518C76.6026 123.905 77.3784 123.26 78.1963 122.67C78.9338 122.136 79.6062 121.561 80.1732 120.845C80.7747 120.083 81.2824 119.253 81.8474 118.466C82.4624 117.611 83.0964 116.764 83.5734 115.821C83.9374 115.101 84.3032 114.366 84.5733 113.604C84.8319 112.877 85.0024 112.05 84.784 111.29C84.4009 109.95 82.993 109.421 81.7383 109.248C80.3954 109.06 78.9951 109.164 77.6906 109.532C76.5317 109.86 75.2942 110.446 74.6429 111.51C74.4993 111.745 74.3882 112.008 74.323 112.275C74.1755 112.871 75.1008 113.127 75.2463 112.529C75.2617 112.47 75.277 112.411 75.2961 112.354C75.3038 112.333 75.3536 112.197 75.3364 112.241C75.3191 112.281 75.3843 112.144 75.3996 112.115C75.4321 112.056 75.4666 111.997 75.503 111.939C75.5337 111.894 75.5643 111.848 75.5969 111.804C75.5413 111.878 75.6333 111.762 75.6524 111.737C75.7367 111.64 75.8268 111.548 75.9225 111.462C76.0471 111.349 76.0585 111.342 76.1562 111.271C76.275 111.185 76.3995 111.105 76.5279 111.033C76.639 110.968 76.752 110.908 76.8688 110.851C77.0106 110.782 77.1102 110.739 77.2098 110.698C78.3726 110.238 79.5468 110.072 80.7805 110.114C80.9337 110.12 81.087 110.128 81.2402 110.141C81.4107 110.156 81.4969 110.166 81.6042 110.183C81.8647 110.223 82.1214 110.277 82.3742 110.349C82.4987 110.385 82.6194 110.425 82.7401 110.471C82.765 110.481 82.7918 110.49 82.8167 110.502C82.7995 110.494 82.7325 110.464 82.8148 110.502C82.8742 110.529 82.9336 110.557 82.993 110.586C83.2228 110.704 83.4336 110.849 83.6002 111.05C84.0025 111.529 83.9718 112.174 83.8243 112.774C83.6519 113.472 83.3378 114.121 83.0236 114.765C82.6213 115.593 82.1674 116.372 81.6348 117.126C81.0774 117.915 80.5238 118.703 79.9778 119.499C79.5296 120.152 79.0392 120.763 78.4396 121.284C77.7423 121.891 76.957 122.407 76.2309 122.98C74.7828 124.121 73.2752 125.343 71.4707 125.868C69.5858 126.416 67.5706 126.235 65.6339 126.393C64.1264 126.517 62.4406 126.771 61.071 125.963C60.3412 125.532 59.7435 124.845 59.4044 124.07C59.0941 123.361 59.0156 122.579 58.9696 121.815C58.9447 121.393 58.9275 120.969 58.9006 120.547C58.8662 119.938 57.9084 119.935 57.9467 120.549Z" fill="#222221"/>
<path d="M61.7527 128.717C61.8696 130.301 62.1914 131.865 63.1549 133.167C64.2296 134.618 65.7582 135.7 67.4516 136.319C69.304 136.994 71.2943 136.748 73.1485 136.21C74.045 135.95 74.9109 135.601 75.7921 135.297C76.7001 134.984 77.5218 134.597 78.1961 133.898C78.8053 133.264 79.2727 132.508 79.9029 131.893C80.3531 131.454 80.8377 131.046 81.2955 130.614C82.3817 129.587 83.4276 128.516 84.4045 127.386C85.4504 126.178 86.437 124.898 87.2415 123.514C87.9714 122.26 88.5614 120.901 88.7433 119.454C88.9062 118.158 88.7127 116.613 87.5633 115.806C86.6151 115.141 85.3144 115.233 84.2206 115.311C83.9391 115.332 83.6575 115.353 83.3759 115.368C82.7629 115.403 82.7591 116.357 83.3759 116.323C83.9276 116.292 84.4773 116.237 85.029 116.22C85.5903 116.203 86.0213 116.21 86.5079 116.353C86.5653 116.371 86.6209 116.39 86.6764 116.409C86.7032 116.418 86.732 116.43 86.7588 116.439C86.6803 116.407 86.7492 116.436 86.7645 116.443C86.8756 116.499 86.981 116.558 87.0825 116.626C87.1687 116.684 87.0806 116.615 87.1553 116.686C87.1975 116.726 87.2415 116.766 87.2817 116.808C87.3047 116.831 87.3852 116.928 87.3756 116.915C87.3756 116.917 87.4465 117.02 87.4714 117.062C87.7606 117.543 87.843 118.192 87.8334 118.795C87.8143 120.015 87.3545 121.258 86.776 122.373C86.0979 123.677 85.2378 124.885 84.3068 126.021C83.3778 127.153 82.374 128.224 81.33 129.249C80.3799 130.181 79.3148 131.019 78.4854 132.061C77.9854 132.689 77.5008 133.384 76.8054 133.816C76.0794 134.266 75.2155 134.474 74.4205 134.774C72.7348 135.41 70.8805 135.95 69.0588 135.738C67.442 135.549 65.8425 134.618 64.7008 133.493C64.1798 132.98 63.7354 132.407 63.4097 131.75C63.1051 131.137 62.9346 130.465 62.8274 129.791C62.7699 129.434 62.7373 129.074 62.7105 128.713C62.6914 128.455 62.5036 128.236 62.2316 128.236C61.9883 128.239 61.7336 128.459 61.7527 128.717Z" fill="#222221"/>
<path d="M71.6736 135.996C71.5855 136.765 71.8173 137.548 72.4188 138.061C72.9858 138.548 73.7252 138.783 74.4531 138.896C76.1388 139.161 77.9874 139.088 79.5639 138.415C80.5715 137.983 81.4603 137.323 82.2668 136.589C83.1748 135.761 84.0349 134.854 84.849 133.932C85.6842 132.985 86.3374 131.912 87.1266 130.931C87.5136 130.45 87.9063 129.971 88.2415 129.453C88.5499 128.978 88.7951 128.466 89.0058 127.941C89.4656 126.794 89.6897 125.526 89.161 124.366C88.7089 123.373 87.7377 122.394 86.5654 122.453C85.9524 122.485 85.9485 123.44 86.5654 123.407C87.3469 123.367 87.9676 124.083 88.2932 124.763C88.6936 125.599 88.4924 126.552 88.1917 127.395C87.8373 128.388 87.2607 129.241 86.6037 130.06C86.2359 130.52 85.8585 130.975 85.5271 131.464C85.2168 131.918 84.916 132.37 84.5636 132.796C83.8165 133.699 82.989 134.543 82.1576 135.37C81.4546 136.07 80.7017 136.723 79.8359 137.216C79.0065 137.687 78.0851 137.983 77.1292 138.038C76.5104 138.075 75.886 138.082 75.2672 138.037C74.6178 137.989 73.8593 137.861 73.3114 137.534C73.2386 137.491 73.1639 137.443 73.0969 137.391C73.1677 137.447 73.095 137.387 73.0796 137.372C73.0432 137.34 73.0068 137.307 72.9724 137.273C72.9532 137.254 72.934 137.233 72.9149 137.212C72.8957 137.191 72.8785 137.17 72.8613 137.149C72.8938 137.191 72.8938 137.191 72.8613 137.147C72.8172 137.084 72.7808 137.017 72.7425 136.95C72.731 136.931 72.6927 136.845 72.7291 136.929C72.7118 136.889 72.6984 136.847 72.685 136.805C72.6582 136.719 72.6352 136.63 72.6218 136.54C72.6352 136.624 72.6199 136.521 72.6199 136.5C72.6161 136.441 72.6122 136.381 72.6122 136.322C72.6122 136.213 72.6199 136.105 72.6333 135.996C72.662 135.74 72.3919 135.518 72.1544 135.518C71.869 135.518 71.7023 135.738 71.6736 135.996Z" fill="#222221"/>
<path d="M85.4909 79.0752C84.9239 77.6091 83.7975 76.4541 83.0964 75.0566C82.4145 73.6993 82.0869 72.1739 82.108 70.6562C82.1099 70.536 82.1176 70.4157 82.1291 70.2954C82.1386 70.2076 82.1233 70.3145 82.1386 70.2286C82.1501 70.1675 82.1616 70.1064 82.175 70.0453C82.198 69.9441 82.2268 69.8449 82.2612 69.7456C82.2708 69.7189 82.3149 69.6082 82.2995 69.6444C82.2842 69.6788 82.3398 69.5623 82.3551 69.5337C82.3992 69.4497 82.449 69.3733 82.5007 69.2951C82.5601 69.2034 82.4796 69.3122 82.5313 69.2512C82.5639 69.2111 82.5984 69.1729 82.6329 69.1347C82.6903 69.0736 82.7516 69.0202 82.8148 68.9629C82.901 68.8846 82.7861 68.9801 82.8532 68.9304C82.8953 68.8999 82.9374 68.8713 82.9815 68.8445C83.0581 68.7968 83.1386 68.751 83.219 68.7109C83.2535 68.6937 83.2899 68.6765 83.3263 68.6613C83.4087 68.6231 83.3378 68.6555 83.3225 68.6632C83.3474 68.6536 83.3723 68.6441 83.3972 68.6345C83.5868 68.5677 83.7784 68.5143 83.9757 68.4761C84.0255 68.4665 84.0734 68.4589 84.1232 68.4513C84.2075 68.4379 84.0696 68.4551 84.1902 68.4417C84.3013 68.4303 84.4105 68.4207 84.5216 68.415C84.7362 68.4054 84.9488 68.4073 85.1633 68.4188C85.6269 68.4436 85.9487 68.4952 86.4353 68.6078C86.8835 68.7109 87.3241 68.8483 87.7513 69.0144C87.803 69.0335 87.8547 69.0545 87.9046 69.0755C87.9965 69.1118 87.918 69.0793 87.985 69.1099C88.0827 69.1538 88.1804 69.1977 88.2781 69.2435C88.4716 69.3352 88.6593 69.4344 88.8451 69.5413C89.0098 69.6368 89.1727 69.7399 89.3278 69.8506C89.3642 69.8773 89.4006 69.9041 89.437 69.9308C89.5041 69.9804 89.391 69.8907 89.4734 69.9594C89.6075 70.074 89.7416 70.1866 89.8719 70.3069C91.0844 71.4199 92.0575 72.76 93.295 73.8501C94.5076 74.9173 95.8925 75.7725 97.0994 76.8454C98.2219 77.8458 99.2084 79.039 100.509 79.8236C100.973 80.1042 101.478 80.3047 101.957 80.5548C102.406 80.7896 102.802 81.0416 103.043 81.4501C103.179 81.6792 103.246 81.9293 103.287 82.2042C103.325 82.46 103.649 82.5994 103.877 82.5383C104.151 82.4639 104.248 82.208 104.212 81.9503C104.12 81.326 103.819 80.7495 103.342 80.3314C102.909 79.9515 102.396 79.6995 101.881 79.4532C101.319 79.186 100.783 78.8977 100.296 78.5083C99.6682 78.0062 99.1031 77.4315 98.5284 76.8722C97.9461 76.3052 97.3369 75.784 96.6913 75.2896C96.0305 74.7856 95.3543 74.3026 94.7049 73.7833C94.0306 73.2449 93.3985 72.6646 92.8104 72.0346C92.2261 71.4084 91.6763 70.7517 91.0787 70.1408C90.3259 69.3733 89.5194 68.7472 88.5348 68.3119C87.6096 67.9033 86.6422 67.6246 85.6365 67.5063C84.7189 67.3974 83.7573 67.4452 82.901 67.8155C82.0869 68.1687 81.4912 68.8655 81.2728 69.7265C81.1157 70.3451 81.1406 70.998 81.1923 71.628C81.2594 72.4527 81.4088 73.2736 81.6655 74.062C81.9203 74.8428 82.267 75.5969 82.6961 76.2975C83.1213 76.9924 83.6213 77.6396 84.0504 78.3326C84.2477 78.6514 84.4373 78.9798 84.5733 79.3311C84.6672 79.5716 84.8952 79.7377 85.1633 79.6652C85.3875 79.6002 85.5848 79.3177 85.4909 79.0752Z" fill="#222221"/>
<path d="M101.177 80.2641C103.129 80.3691 105.08 80.2336 107.005 79.8976C108.673 79.6074 110.301 79.1893 111.868 78.5421C114.83 77.3184 117.452 75.4685 119.847 73.3609C122.257 71.2399 124.442 68.8822 126.68 66.5856C128.097 65.1309 129.467 63.6265 130.873 62.1604C132.285 60.6923 133.702 59.228 135.106 57.7523C135.811 57.0135 136.51 56.2709 137.208 55.5225C137.909 54.7684 138.528 53.938 139.173 53.1343C139.303 52.972 139.411 52.8594 139.583 52.7429C139.805 52.5921 139.968 52.4413 140.127 52.2255C140.39 51.8705 140.665 51.5249 140.951 51.1889C141.522 50.515 142.133 49.8774 142.767 49.2646C143.077 48.9648 143.395 48.6689 143.713 48.3768C144.167 47.9607 143.489 47.2868 143.035 47.701C141.721 48.9076 140.48 50.1752 139.405 51.6013C139.286 51.7578 139.2 51.8475 139.037 51.9564C138.851 52.0824 138.694 52.2064 138.552 52.3821C138.225 52.7906 137.897 53.1992 137.57 53.6077C137.242 54.0163 136.918 54.4248 136.56 54.8104C136.217 55.1789 135.873 55.5473 135.526 55.9139C132.756 58.8538 129.919 61.7289 127.157 64.6746C124.904 67.0762 122.632 69.4836 120.22 71.7286C117.952 73.8382 115.493 75.7701 112.69 77.1294C109.568 78.6452 106.022 79.3363 102.561 79.342C102.099 79.342 101.637 79.3287 101.176 79.3038C100.561 79.2771 100.563 80.2316 101.177 80.2641Z" fill="#222221"/>
<path d="M69.7774 77.6298C70.5302 77.5859 71.2849 77.5152 72.0263 77.3739C72.3941 77.3033 72.758 77.2155 73.1143 77.1029C73.2867 77.0494 73.463 76.996 73.6296 76.9215C73.8269 76.8337 74.0127 76.7096 74.2062 76.6103C75.5529 75.9154 77.0279 75.5069 78.4492 74.9914C79.2844 74.6879 80.1177 74.3748 80.9452 74.0503C81.1866 73.9567 81.3533 73.7295 81.2805 73.4623C81.2172 73.2332 80.9337 73.0346 80.6905 73.1282C79.2691 73.6837 77.8382 74.2106 76.3938 74.7032C75.664 74.9513 74.9456 75.2129 74.2426 75.5336C73.9055 75.6863 73.5913 75.8772 73.2599 76.0414C72.9477 76.1961 72.5722 76.2743 72.2351 76.3545C71.4286 76.5473 70.6049 76.6275 69.7793 76.6752C69.1663 76.7115 69.1605 77.666 69.7774 77.6298Z" fill="#222221"/>
<path d="M90.3945 70.6274C91.0113 70.6274 91.0113 69.6729 90.3945 69.6729C89.7796 69.6729 89.7777 70.6274 90.3945 70.6274Z" fill="#222221"/>
<path d="M91.4482 72.0301C92.3754 71.9747 93.2968 71.822 94.2277 71.8201C95.1875 71.8182 96.105 72.1103 97.0398 72.2935C98.0455 72.4921 99.0359 72.5952 100.061 72.5474C100.978 72.5035 101.925 72.3871 102.836 72.557C103.492 72.6792 104.126 72.9617 104.74 73.2118C105.242 73.418 105.846 73.7043 106.332 74.0442C106.53 74.1816 106.744 74.363 106.93 74.573C107.016 74.6684 107.047 74.7085 107.129 74.8402C107.166 74.8975 107.198 74.9548 107.229 75.0159C107.275 75.1075 107.273 75.1018 107.292 75.1552C107.505 75.7432 107.436 76.3503 107.032 76.8982C106.758 77.2705 106.413 77.6008 106.087 77.9291C105.819 78.1983 105.478 78.3224 105.114 78.4083C104.273 78.6049 103.405 78.6718 102.781 79.3437C102.363 79.7943 103.038 80.4701 103.459 80.0196C103.97 79.4697 104.779 79.4812 105.463 79.3056C105.871 79.2006 106.254 79.0326 106.583 78.7672C106.917 78.498 107.215 78.1506 107.497 77.8299C108.074 77.1731 108.449 76.4267 108.351 75.5351C108.277 74.8555 107.962 74.2522 107.48 73.7693C106.564 72.8491 105.277 72.4004 104.091 71.9423C103.17 71.5872 102.227 71.4917 101.245 71.5299C100.227 71.57 99.2159 71.675 98.2007 71.5318C97.6088 71.4478 97.0226 71.3218 96.4383 71.1939C95.8809 71.0698 95.3273 70.9266 94.7564 70.8846C93.6492 70.8006 92.5478 71.0126 91.4444 71.0775C90.8352 71.1118 90.8314 72.0683 91.4482 72.0301Z" fill="#222221"/>
<path d="M69.0494 78.5864C70.9439 78.8536 72.8672 78.8918 74.756 79.2049C75.7578 79.371 76.7539 79.5466 77.7653 79.6631C78.7691 79.7795 79.7786 79.8578 80.7881 79.9113C82.7286 80.0125 84.6729 80.0182 86.6173 80.0296C87.598 80.0354 88.5769 80.043 89.5577 80.064C90.4733 80.085 91.3813 80.1423 92.297 80.1995C92.7567 80.2282 93.2126 80.2358 93.6705 80.2816C94.1149 80.3255 94.5574 80.379 94.998 80.442C95.9596 80.5794 96.9135 80.757 97.8618 80.9613C99.4249 81.2992 100.95 81.6943 102.406 82.3682C105.097 83.6168 107.403 85.5068 109.455 87.6201C111.535 89.764 113.372 92.1255 115.261 94.4355C115.491 94.7161 115.723 94.9968 115.954 95.2774C116.119 95.4759 116.46 95.4473 116.633 95.2774C116.83 95.0808 116.797 94.802 116.633 94.6016C114.713 92.2916 112.886 89.9034 110.846 87.6984C108.811 85.4991 106.536 83.4679 103.881 82.0399C102.517 81.3049 101.059 80.7322 99.5532 80.3599C97.72 79.9074 95.8466 79.5619 93.9693 79.3557C93.0479 79.2545 92.1169 79.224 91.1898 79.161C90.2416 79.0961 89.2857 79.0961 88.3336 79.0846C86.3778 79.0617 84.422 79.0732 82.4662 79.0178C80.4721 78.9605 78.4741 78.8346 76.5011 78.5348C75.5069 78.384 74.5223 78.1874 73.5223 78.0747C72.5588 77.9659 71.5933 77.901 70.6279 77.8094C70.1854 77.7674 69.7448 77.7216 69.3061 77.6586C69.0494 77.6223 68.7908 77.7216 68.7161 77.9927C68.6548 78.2236 68.7927 78.5501 69.0494 78.5864Z" fill="#222221"/>
<path d="M116.466 95.5942C116.282 95.4816 116.196 95.3689 116.196 95.1628C115.956 95.3002 115.715 95.4377 115.475 95.5751C116.272 96.1211 116.857 96.9554 117.391 97.7419C117.962 98.58 118.512 99.4276 119.107 100.247C119.837 101.249 120.454 102.326 121.063 103.402C121.657 104.454 122.268 105.491 122.91 106.514C123.553 107.539 124.182 108.599 124.584 109.746C125.005 110.949 125.172 112.224 125.486 113.454C125.645 114.078 125.866 114.683 126.051 115.3C126.235 115.911 126.396 116.529 126.544 117.15C126.842 118.419 127.082 119.702 127.356 120.977C127.58 122.02 127.881 123.049 128.072 124.099C128.208 124.847 128.264 125.658 127.877 126.288C127.442 126.997 126.48 127.344 125.678 127.531C124.802 127.733 123.835 127.712 123.03 127.281C122.636 127.069 122.262 126.771 122.004 126.403C121.737 126.023 121.575 125.59 121.444 125.147C121.159 124.171 121.019 123.165 120.653 122.212C119.789 119.964 118.36 118.003 117.226 115.891C115.998 113.606 114.92 111.247 113.659 108.981C112.422 106.757 110.924 104.712 109.403 102.675C109.031 102.177 108.66 101.678 108.292 101.178C108.139 100.97 107.876 100.867 107.637 101.006C107.411 101.138 107.336 101.434 107.464 101.659C108.581 103.607 109.987 105.365 111.29 107.19C111.937 108.099 112.562 109.026 113.106 110.002C113.696 111.06 114.167 112.18 114.648 113.289C115.648 115.597 116.59 117.932 117.64 120.219C118.105 121.233 118.617 122.226 119.063 123.247C119.485 124.209 119.862 125.242 119.95 126.294C120.027 127.21 119.828 128.043 119.471 128.881C119.398 129.051 119.32 129.217 119.232 129.379C119.192 129.454 119.149 129.526 119.102 129.597C119.021 129.715 119.197 129.511 119.058 129.65C119.012 129.696 118.967 129.746 118.916 129.784C118.59 130.024 118.13 130.072 117.742 130.129C116.652 130.288 115.619 130.689 114.508 130.717C114.004 130.731 113.479 130.706 113.006 130.519C112.675 130.387 112.412 130.171 112.159 129.904C111.474 129.182 110.853 128.365 110.294 127.544C109.64 126.586 109.066 125.578 108.497 124.57C107.378 122.583 106.192 120.634 105.045 118.663C103.903 116.701 102.719 114.752 101.258 113.005C100.536 112.142 99.7733 111.321 99.0799 110.433C98.3864 109.548 97.7121 108.645 96.9593 107.805C96.5934 107.394 96.2084 107.003 95.7985 106.634C95.4173 106.289 94.72 106.745 95.0456 107.213C95.6969 108.148 96.4977 108.952 97.3233 109.735C98.1681 110.538 98.9841 111.361 99.758 112.234C101.363 114.042 102.869 115.945 104.327 117.873C105.771 119.78 107.144 121.745 108.347 123.814C109.449 125.71 110.662 127.819 110.775 130.061C110.819 130.939 110.696 131.981 110.094 132.638C109.6 133.176 108.905 133.422 108.164 133.531C107.418 133.64 106.533 133.592 105.794 133.482C104.813 133.337 103.844 133.081 102.965 132.617C102.118 132.17 101.319 131.557 100.674 130.851C100.359 130.507 100.179 130.103 100.005 129.677C99.7829 129.133 99.5339 128.602 99.2638 128.079C98.7197 127.031 98.1297 125.998 97.5244 124.984C96.9133 123.963 96.2084 123.003 95.492 122.054C93.9882 120.057 92.5765 118.011 91.2087 115.92C90.5651 114.937 89.9234 113.952 89.2759 112.971C88.6572 112.031 88.0154 111.104 87.2837 110.248C86.9427 109.849 86.5807 109.469 86.1899 109.12C85.9964 109.37 85.8029 109.62 85.6095 109.87C86.347 110.401 86.8623 111.315 87.322 112.098C87.5749 112.528 87.8162 112.963 88.0748 113.389C88.3717 113.875 88.6974 114.345 88.9905 114.836C89.6456 115.933 90.2222 117.079 90.7643 118.236C91.316 119.412 91.8715 120.592 92.3811 121.787C92.881 122.959 93.2833 124.171 93.7679 125.349C94.017 125.952 94.2813 126.546 94.5859 127.123C94.8617 127.646 95.1567 128.159 95.4173 128.692C95.6759 129.219 95.8732 129.761 96.0245 130.328C96.1548 130.811 96.354 131.271 96.5111 131.744C96.58 131.954 96.6509 132.17 96.6835 132.39C96.7103 132.569 96.7045 132.674 96.6298 132.867C96.5226 133.144 96.2027 133.472 95.9077 133.703C95.0782 134.356 94.1875 134.694 93.2009 134.957C91.86 135.314 90.4751 135.379 89.0958 135.456C88.4828 135.488 88.479 136.443 89.0958 136.41C91.4233 136.284 93.8427 136.118 95.8828 134.875C96.6777 134.39 97.5417 133.688 97.6451 132.701C97.6968 132.203 97.5053 131.681 97.3405 131.221C97.1547 130.702 96.9938 130.187 96.831 129.66C96.4555 128.449 95.7717 127.386 95.2123 126.258C94.6204 125.063 94.1913 123.799 93.7124 122.558C93.2239 121.29 92.6454 120.061 92.0822 118.826C91.5286 117.612 90.9597 116.401 90.3141 115.231C89.682 114.082 88.9445 112.997 88.2855 111.861C87.6936 110.84 87.0653 109.752 86.0884 109.047C85.6478 108.731 85.1057 109.437 85.5079 109.798C87.186 111.304 88.3411 113.301 89.5652 115.164C90.9827 117.321 92.3734 119.494 93.9231 121.561C94.6529 122.537 95.4039 123.497 96.082 124.511C96.7639 125.527 97.352 126.605 97.9478 127.672C98.237 128.19 98.5186 128.715 98.7715 129.251C99.0147 129.769 99.1871 130.326 99.4706 130.824C99.9591 131.683 100.831 132.371 101.628 132.928C103.252 134.062 105.313 134.56 107.282 134.547C108.152 134.541 109.041 134.408 109.824 134.016C110.621 133.619 111.198 132.922 111.478 132.082C112.221 129.847 111.296 127.405 110.294 125.408C109.194 123.219 107.871 121.149 106.445 119.156C105.007 117.144 103.478 115.189 101.9 113.284C101.095 112.312 100.271 111.356 99.4017 110.443C98.6106 109.611 97.737 108.86 96.9421 108.03C96.5532 107.623 96.1873 107.198 95.8655 106.736C95.6146 106.928 95.3636 107.121 95.1127 107.314C96.8463 108.879 98.0895 110.873 99.6239 112.614C100.384 113.478 101.126 114.336 101.789 115.281C102.455 116.231 103.068 117.218 103.662 118.217C104.254 119.213 104.827 120.223 105.415 121.224C106.007 122.232 106.625 123.224 107.202 124.242C107.786 125.276 108.357 126.319 108.993 127.323C109.608 128.295 110.307 129.19 111.035 130.08C111.594 130.763 112.217 131.347 113.106 131.555C114.303 131.836 115.596 131.632 116.765 131.309C117.249 131.176 117.73 131.101 118.224 131.019C118.717 130.937 119.197 130.79 119.584 130.465C119.914 130.189 120.105 129.788 120.276 129.402C120.452 129.001 120.615 128.589 120.736 128.167C121.36 125.973 120.337 123.684 119.404 121.737C118.328 119.49 117.335 117.213 116.364 114.918C115.406 112.654 114.502 110.348 113.169 108.272C111.926 106.337 110.457 104.557 109.185 102.641C108.869 102.165 108.568 101.68 108.282 101.186C108.007 101.346 107.731 101.507 107.455 101.667C109.001 103.776 110.631 105.833 112.002 108.064C113.405 110.346 114.527 112.785 115.749 115.164C116.324 116.281 116.931 117.375 117.581 118.45C118.22 119.511 118.866 120.571 119.389 121.697C119.626 122.211 119.841 122.739 119.992 123.283C120.13 123.778 120.228 124.284 120.347 124.784C120.592 125.813 120.941 126.834 121.755 127.56C123.356 128.986 125.82 128.852 127.597 127.817C128.444 127.325 128.969 126.54 129.089 125.572C129.202 124.66 128.976 123.722 128.762 122.841C128.145 120.315 127.752 117.73 127.017 115.235C126.831 114.601 126.601 113.982 126.433 113.345C126.264 112.701 126.134 112.05 125.992 111.401C125.856 110.777 125.718 110.149 125.509 109.544C125.298 108.933 125.03 108.341 124.73 107.768C124.141 106.646 123.419 105.603 122.778 104.511C122.136 103.418 121.54 102.295 120.877 101.215C120.278 100.237 119.569 99.336 118.939 98.3795C118.345 97.4804 117.768 96.5583 117.05 95.7508C116.721 95.3785 116.357 95.0444 115.947 94.7638C115.64 94.5538 115.226 94.8344 115.226 95.1761C115.224 95.724 115.51 96.1497 115.97 96.4304C116.51 96.7397 116.991 95.913 116.466 95.5942Z" fill="#222221"/>
<path d="M125.913 112.732C127.819 112.923 128.973 111.149 130.333 110.181C132.246 108.818 134.388 107.81 136.459 106.714C137.723 106.046 138.987 105.378 140.259 104.725C140.807 104.442 140.323 103.62 139.777 103.9C137.629 105.006 135.489 106.126 133.357 107.26C132.358 107.793 131.367 108.347 130.421 108.969C129.637 109.484 128.971 110.095 128.27 110.714C127.599 111.307 126.843 111.871 125.913 111.779C125.655 111.752 125.435 112.018 125.435 112.256C125.435 112.533 125.655 112.705 125.913 112.732Z" fill="#222221"/>
<path d="M85.5599 133.298C85.6346 133.844 85.9947 134.299 86.3606 134.69C86.5311 134.871 86.7073 135.047 86.8702 135.236C86.8893 135.259 86.9104 135.282 86.9295 135.307C86.9353 135.314 86.9429 135.322 86.9487 135.33C86.9813 135.37 86.9736 135.36 86.9295 135.305C86.9314 135.335 87.0081 135.414 87.0253 135.438C87.0943 135.542 87.1537 135.648 87.2016 135.761C87.2992 135.992 87.6594 136.059 87.8567 135.933C88.098 135.778 88.1344 135.526 88.0291 135.28C87.8299 134.812 87.4467 134.448 87.1019 134.085C87.0196 133.999 86.9391 133.911 86.8625 133.822C86.8472 133.804 86.7782 133.696 86.7552 133.692C86.7993 133.749 86.805 133.757 86.7744 133.717C86.7686 133.709 86.7629 133.699 86.7571 133.692C86.7399 133.667 86.7227 133.642 86.7054 133.617C86.6728 133.568 86.6422 133.518 86.6135 133.465C86.6001 133.438 86.5866 133.413 86.5732 133.386C86.5675 133.373 86.5598 133.36 86.5541 133.346C86.5388 133.314 86.5464 133.329 86.5732 133.392C86.5809 133.358 86.5273 133.262 86.5177 133.224C86.5024 133.165 86.4909 133.106 86.4832 133.046C86.4487 132.798 86.1173 132.642 85.8932 132.712C85.6193 132.8 85.5235 133.031 85.5599 133.298Z" fill="#222221"/>
<path d="M75.0203 110.379C75.0337 110.486 75.049 110.591 75.0624 110.698C75.3594 110.618 75.6582 110.538 75.9551 110.458C75.2004 109.118 74.2981 107.787 73.0128 106.899C72.0243 106.216 70.6049 106.002 69.4555 106.363C66.7086 107.224 67.356 111.202 68.8253 112.924C69.264 113.44 69.8635 113.831 70.5283 113.988C71.2753 114.163 72.0531 114.066 72.7752 113.833C72.9208 113.785 73.0856 113.663 73.1105 113.499C73.1315 113.363 73.1507 113.228 73.1718 113.092C73.2101 112.838 73.1085 112.579 72.8365 112.504C72.6105 112.443 72.2868 112.581 72.2465 112.838C72.2255 112.974 72.2063 113.109 72.1852 113.245C72.2963 113.134 72.4074 113.024 72.5205 112.911C72.0282 113.069 71.4611 113.174 70.9803 113.106C70.5034 113.037 70.0953 112.836 69.7524 112.514C68.9996 111.806 68.6491 110.788 68.559 109.774C68.4728 108.812 68.6127 107.722 69.5436 107.34C70.3961 106.991 71.5416 107.123 72.2983 107.573C73.5664 108.329 74.4207 109.686 75.1257 110.939C75.3421 111.323 76.0835 111.185 76.0183 110.698C76.0049 110.591 75.9896 110.486 75.9762 110.379C75.9417 110.124 75.7808 109.902 75.4973 109.902C75.2674 109.902 74.9858 110.122 75.0203 110.379Z" fill="#222221"/>
<path d="M82.9987 115.981C82.2593 115.317 81.5582 114.61 80.7574 114.017C80.0333 113.48 79.1388 112.993 78.2059 113.171C77.0872 113.383 76.5067 114.525 76.137 115.483C75.6696 116.691 75.549 118.234 76.4627 119.276C77.2021 120.118 78.4147 119.931 79.4108 119.893C80.0257 119.868 80.0276 118.913 79.4108 118.938C78.9855 118.955 78.5603 118.996 78.1331 118.982C77.8132 118.973 77.5527 118.936 77.2998 118.759C77.3688 118.808 77.2443 118.713 77.2443 118.711C77.2193 118.688 77.1964 118.665 77.1734 118.64C77.1063 118.57 77.091 118.545 77.0355 118.453C76.909 118.245 76.8324 118.016 76.7788 117.78C76.6504 117.205 76.7615 116.609 76.9435 116.059C77.1063 115.563 77.3209 115.036 77.6484 114.622C77.75 114.494 77.9109 114.339 78.0047 114.276C78.1771 114.162 78.2097 114.148 78.4147 114.101C78.5066 114.08 78.4453 114.093 78.4223 114.095C78.4683 114.089 78.5143 114.087 78.5603 114.085C78.6369 114.084 78.7154 114.087 78.792 114.095C78.7135 114.085 78.9127 114.122 78.9472 114.129C79.0449 114.154 79.1388 114.185 79.2326 114.221C79.3284 114.257 79.5295 114.358 79.6713 114.441C79.8552 114.547 80.0295 114.664 80.2019 114.788C80.9605 115.338 81.6233 116.027 82.3225 116.655C82.7784 117.067 83.4565 116.394 82.9987 115.981Z" fill="#222221"/>
<path d="M86.9468 120.499C86.6518 120.45 86.4142 120.284 86.1729 120.114C85.9066 119.929 85.6499 119.753 85.3587 119.61C85.1384 119.501 84.9565 119.253 84.6959 119.144C84.3952 119.018 84.0906 119.083 83.8052 119.213C83.3052 119.44 82.8895 119.875 82.5313 120.28C82.2612 120.585 81.9873 120.904 81.7862 121.261C81.382 121.979 81.1732 122.804 81.0774 123.617C80.9835 124.409 81.0218 125.278 81.4011 125.998C81.8839 126.916 82.8723 127.149 83.8301 126.945C84.4316 126.817 84.1768 125.896 83.5753 126.024C83.3819 126.066 83.311 126.08 83.0811 126.072C83.039 126.07 82.9968 126.068 82.9547 126.064C83.0715 126.076 82.9432 126.063 82.9221 126.059C82.8359 126.04 82.7516 126.017 82.6693 125.984C82.7861 126.03 82.606 125.944 82.5773 125.929C82.5524 125.916 82.5275 125.896 82.5045 125.881C82.6041 125.95 82.5122 125.887 82.493 125.87C82.4432 125.822 82.3934 125.772 82.3474 125.721C82.2708 125.631 82.4011 125.805 82.3379 125.706C82.311 125.665 82.2861 125.625 82.2612 125.585C82.2248 125.522 82.1923 125.455 82.1616 125.389C82.2076 125.496 82.1291 125.286 82.1176 125.251C82.0697 125.097 82.0371 124.936 82.0141 124.776C82.0294 124.89 82.0122 124.749 82.0122 124.734C82.0084 124.692 82.0045 124.648 82.0026 124.606C81.9969 124.518 81.9931 124.43 81.9931 124.342C81.9911 124.163 81.9988 123.982 82.016 123.804C82.0352 123.585 82.0371 123.575 82.0792 123.342C82.1137 123.149 82.1578 122.958 82.2114 122.771C82.2536 122.619 82.3015 122.466 82.3551 122.317C82.3838 122.239 82.4126 122.162 82.4451 122.086C82.4011 122.189 82.4547 122.069 82.4605 122.053C82.4815 122.008 82.5045 121.96 82.5275 121.914C82.5869 121.796 82.6501 121.681 82.7229 121.572C82.8455 121.385 82.8455 121.397 82.9892 121.223C83.2784 120.872 83.6021 120.498 83.9642 120.236C84.0102 120.204 84.0561 120.173 84.104 120.142C84.1213 120.133 84.2803 120.049 84.219 120.076C84.2611 120.058 84.309 120.053 84.3511 120.034C84.2937 120.058 84.3492 120.051 84.3205 120.024C84.4948 120.183 84.7113 120.362 84.9354 120.467C85.5388 120.753 86.0081 121.311 86.6901 121.427C86.9448 121.471 87.2054 121.36 87.2801 121.093C87.3452 120.858 87.2034 120.543 86.9468 120.499Z" fill="#222221"/>
<path d="M84.6844 126.404C84.7323 127.092 84.8146 127.788 85.1135 128.416C85.3817 128.982 85.8816 129.39 86.4831 129.56C86.893 129.676 87.3317 129.69 87.7551 129.659C88.0041 129.642 88.2454 129.453 88.234 129.182C88.2225 128.94 88.0232 128.686 87.7551 128.705C87.575 128.718 87.3949 128.724 87.2149 128.714C87.1402 128.71 87.0674 128.701 86.9927 128.695C86.962 128.693 87.0884 128.712 86.9907 128.693C86.9505 128.686 86.9084 128.678 86.8681 128.67C86.8049 128.657 86.7436 128.64 86.6823 128.621C86.6498 128.611 86.6191 128.6 86.5885 128.588C86.4889 128.554 86.6574 128.623 86.5885 128.59C86.5329 128.563 86.4774 128.537 86.4237 128.504C86.4007 128.491 86.3797 128.478 86.3586 128.464C86.3471 128.457 86.3375 128.449 86.326 128.443C86.259 128.399 86.3375 128.441 86.3509 128.464C86.326 128.424 86.2628 128.39 86.2283 128.357C86.1862 128.317 86.1498 128.269 86.1096 128.227C86.0693 128.185 86.1709 128.313 86.1383 128.264C86.1306 128.254 86.123 128.243 86.1153 128.233C86.1 128.212 86.0866 128.191 86.0713 128.17C86.0349 128.117 86.0023 128.059 85.9736 128.002C85.9621 127.979 85.9487 127.954 85.9372 127.932C85.8835 127.819 85.9429 127.93 85.9353 127.933C85.9391 127.932 85.874 127.769 85.8663 127.75C85.8222 127.618 85.7878 127.485 85.7571 127.349C85.7399 127.273 85.7265 127.195 85.713 127.116C85.7054 127.072 85.6996 127.03 85.692 126.987C85.6747 126.874 85.6996 127.048 85.6881 126.964C85.6671 126.777 85.6479 126.588 85.6345 126.399C85.6173 126.15 85.4276 125.91 85.1556 125.921C84.9181 125.937 84.6652 126.137 84.6844 126.404Z" fill="#222221"/>
<path d="M69.1316 78.735C72.2157 78.9736 75.3056 78.838 78.3935 78.8132C79.9547 78.8018 81.5178 78.819 83.0752 78.9316C84.6057 79.0423 86.1056 79.2943 87.617 79.5501C90.5594 80.0465 93.5036 80.539 96.4134 81.2072C97.8999 81.5489 99.3749 81.9365 100.833 82.3851C102.032 82.7555 103.164 83.1812 104.237 83.8379C106.294 85.0941 107.972 86.86 109.612 88.601C110.029 89.0459 110.447 89.4907 110.868 89.9317C111.062 90.134 111.257 90.3345 111.455 90.5349C111.709 90.7927 111.903 91.0848 112.114 91.3807C112.935 92.528 113.811 93.6372 114.728 94.712C115.682 95.8288 116.682 96.9055 117.711 97.9536C118.196 98.4481 118.659 98.9005 118.983 99.5209C119.268 100.069 119.46 100.657 119.676 101.233C119.906 101.844 120.159 102.457 120.544 102.99C120.944 103.541 121.433 104.005 121.918 104.483C122.117 104.679 122.36 104.884 122.517 105.115C122.705 105.391 122.862 105.682 123.075 105.945C123.504 106.476 123.858 107.058 124.193 107.656C125.611 110.185 126.113 113.157 126.505 115.996C126.706 117.449 126.852 118.91 127.007 120.368C127.088 121.124 127.17 121.878 127.26 122.634C127.302 122.991 127.331 123.356 127.415 123.707C127.505 124.081 127.582 124.461 127.634 124.843C127.731 125.565 127.735 126.298 127.647 127.021C127.616 127.277 127.89 127.498 128.126 127.498C128.411 127.498 128.574 127.279 128.605 127.021C128.699 126.246 128.678 125.471 128.572 124.698C128.473 123.967 128.293 123.256 128.204 122.523C128.024 121.009 127.877 119.49 127.706 117.976C127.538 116.493 127.346 115.011 127.076 113.543C126.804 112.065 126.484 110.555 125.946 109.148C125.699 108.501 125.404 107.875 125.069 107.268C124.72 106.636 124.354 105.962 123.875 105.422C123.684 105.206 123.53 104.964 123.385 104.716C123.214 104.425 122.963 104.183 122.728 103.944C122.266 103.478 121.759 103.043 121.37 102.511C120.594 101.449 120.387 100.101 119.764 98.9578C119.427 98.3354 118.956 97.8601 118.464 97.3599C117.931 96.8177 117.406 96.2698 116.893 95.7124C115.91 94.6471 114.962 93.5475 114.066 92.4077C113.625 91.8465 113.198 91.2718 112.786 90.6877C112.596 90.4204 112.424 90.1608 112.192 89.9279C111.964 89.6969 111.738 89.464 111.514 89.231C109.824 87.4671 108.21 85.6114 106.273 84.1052C105.304 83.3511 104.265 82.6829 103.135 82.1923C101.823 81.6215 100.413 81.2492 99.032 80.8788C96.0993 80.0923 93.1148 79.531 90.1245 79.0175C88.6036 78.756 87.0826 78.4696 85.5539 78.2501C83.9736 78.0229 82.3817 77.9141 80.7861 77.8759C77.6675 77.8033 74.547 77.9885 71.4284 77.9026C70.6603 77.8816 69.894 77.8434 69.1297 77.7842C68.5186 77.7327 68.5206 78.6872 69.1316 78.735Z" fill="#222221"/>
<path d="M53.8952 111.449C53.8991 111.638 53.899 111.825 53.8876 112.014C53.8761 112.184 53.8761 112.219 53.832 112.381C53.8205 112.427 53.8052 112.473 53.7879 112.516C53.765 112.583 53.8243 112.446 53.7918 112.505C53.7841 112.52 53.7765 112.537 53.7669 112.553C53.7439 112.593 53.719 112.631 53.696 112.669C53.6309 112.772 53.7228 112.648 53.6558 112.721C53.2899 113.131 52.9221 113.563 52.7171 114.078C52.4815 114.67 52.47 115.361 52.4988 115.987C52.5275 116.596 52.5965 117.234 52.7861 117.816C53.1654 118.975 54.0236 119.8 55.1423 120.258C56.2035 120.693 57.3969 120.781 58.5329 120.787C59.6324 120.79 60.73 120.699 61.8277 120.657C63.4023 120.596 64.8466 120.107 66.1703 119.263C66.9078 118.792 67.6051 118.261 68.3387 117.784C69.105 117.283 69.8789 116.795 70.6183 116.256C70.9573 116.01 71.2926 115.756 71.6125 115.487C71.6948 115.418 71.5378 115.54 71.6067 115.491C71.6374 115.468 71.668 115.445 71.6987 115.422C71.7696 115.37 71.8404 115.321 71.9113 115.271C72.2848 115.012 72.6641 114.76 73.0415 114.506C73.9916 113.86 74.9398 113.196 75.7942 112.427C76.4857 111.804 77.2845 111.004 77.386 110.033C77.4071 109.84 77.388 109.641 77.3324 109.456C77.1581 108.868 76.2329 109.118 76.4091 109.71C76.4206 109.75 76.4263 109.792 76.4398 109.83C76.4168 109.75 76.4378 109.769 76.4378 109.842C76.4378 109.878 76.4378 109.914 76.4359 109.953C76.4359 109.974 76.4321 109.995 76.4302 110.016C76.4321 109.985 76.4512 109.926 76.4321 109.985C76.4072 110.067 76.388 110.151 76.3612 110.231C76.3287 110.334 76.3842 110.193 76.3459 110.269C76.3229 110.315 76.3018 110.361 76.2769 110.405C76.0547 110.814 75.8383 111.048 75.4896 111.396C74.7215 112.161 73.8882 112.761 73.0013 113.376C72.3097 113.855 71.5818 114.294 70.9229 114.819C69.5839 115.886 68.1089 116.743 66.7124 117.73C65.5113 118.58 64.3122 119.343 62.8391 119.603C62.2491 119.706 61.6476 119.706 61.0499 119.738C60.527 119.767 60.004 119.8 59.4792 119.819C58.3777 119.859 57.2724 119.855 56.238 119.609C55.7169 119.485 55.3185 119.343 54.8837 119.068C54.5025 118.83 54.1826 118.509 53.9489 118.102C53.7075 117.684 53.5849 117.184 53.5178 116.695C53.4355 116.105 53.4029 115.42 53.4949 114.865C53.5178 114.733 53.5466 114.601 53.5887 114.473C53.5964 114.452 53.6519 114.315 53.6175 114.387C53.65 114.319 53.6883 114.252 53.7286 114.187C53.8761 113.939 53.9776 113.803 54.1462 113.61C54.4412 113.274 54.6959 112.954 54.7802 112.503C54.8454 112.156 54.8549 111.802 54.8473 111.451C54.8434 110.835 53.8856 110.833 53.8952 111.449Z" fill="#222221"/>
<path d="M57.255 109.994C58.0193 110.07 58.7913 110.194 59.4943 109.805C59.7759 109.648 60.023 109.448 60.3429 109.371C60.6494 109.299 60.9693 109.316 61.2816 109.299C61.6532 109.278 62.0114 109.219 62.3524 109.066C62.6589 108.928 62.929 108.707 63.1933 108.503C63.6722 108.13 64.1109 107.712 64.5706 107.317C65.0017 106.947 65.4576 106.609 65.9729 106.366C66.6012 106.072 67.3195 105.998 67.9976 105.897C68.7485 105.784 69.5033 105.675 70.2293 105.444C70.9783 105.206 71.6947 104.877 72.4475 104.648C73.072 104.459 73.8268 104.253 74.4225 104.345C74.5336 104.362 74.7022 104.408 74.7731 104.44C74.8516 104.476 74.9321 104.536 74.9876 104.593C75.024 104.631 75.0776 104.717 75.0987 104.78C75.1485 104.927 75.1523 105.059 75.1466 105.217C75.1255 105.832 76.0833 105.83 76.1044 105.217C76.1255 104.599 75.8994 104.009 75.3554 103.671C74.8822 103.379 74.2731 103.335 73.7348 103.396C72.9437 103.484 72.1794 103.711 71.4342 103.98C70.666 104.257 69.9247 104.576 69.1221 104.744C68.3329 104.91 67.5283 104.99 66.7372 105.141C66.0686 105.269 65.4403 105.517 64.8695 105.889C64.3369 106.239 63.86 106.664 63.3849 107.088C63.1531 107.294 62.9213 107.5 62.68 107.695C62.4443 107.886 62.1877 108.108 61.9061 108.224C61.567 108.365 61.182 108.342 60.8218 108.36C60.3832 108.379 59.9598 108.445 59.5652 108.648C59.2645 108.802 58.9982 109.051 58.6572 109.11C58.2013 109.188 57.7071 109.083 57.255 109.037C56.9964 109.012 56.7761 109.274 56.7761 109.515C56.7761 109.795 56.9964 109.967 57.255 109.994Z" fill="#222221"/>
<path d="M52.9622 113.444C53.0101 113.312 53.0599 113.184 53.1135 113.054C53.0982 113.092 53.081 113.131 53.0656 113.169C53.2323 112.776 53.4315 112.398 53.6652 112.041C53.8012 111.831 53.715 111.504 53.4928 111.388C53.2553 111.262 52.9833 111.334 52.8377 111.56C52.5063 112.069 52.2439 112.621 52.0389 113.192C51.9546 113.427 52.1347 113.724 52.3741 113.78C52.6404 113.837 52.8703 113.696 52.9622 113.444Z" fill="#222221"/>
<path d="M58.9121 122.165C59.142 123.738 59.9484 125.051 61.0192 126.2C61.5307 126.748 62.0651 127.29 62.636 127.779C63.0804 128.159 63.5765 128.516 64.1589 128.648C65.6722 128.993 67.1491 127.982 68.3923 127.277C68.7927 127.05 69.1969 126.851 69.6355 126.712C70.057 126.578 70.4899 126.489 70.9209 126.391C71.7369 126.208 72.5281 125.975 73.2253 125.498C74.4188 124.681 75.2674 123.453 76.5642 122.776C78.0756 121.987 79.4855 121 80.6808 119.78C81.1271 119.324 81.5428 118.835 81.97 118.36C82.4202 117.86 82.8646 117.356 83.286 116.833C83.7074 116.309 84.1212 115.771 84.4507 115.183C84.7418 114.666 84.9736 114.095 84.9277 113.492C84.8127 112.008 83.5484 110.836 82.3704 110.074C81.7382 109.666 81.0448 109.355 80.3015 109.208C79.4069 109.03 78.4932 109.038 77.5871 109.066C77.1427 109.082 76.6964 109.099 76.252 109.099C75.6352 109.101 75.6352 110.055 76.252 110.053C77.8477 110.05 79.6177 109.754 81.1137 110.462C81.675 110.727 82.2037 111.077 82.6711 111.485C83.1347 111.892 83.5829 112.371 83.8262 112.944C83.9411 113.217 83.9929 113.475 83.9756 113.757C83.9699 113.837 83.9507 113.937 83.922 114.034C83.9067 114.085 83.8913 114.135 83.8722 114.185C83.8607 114.215 83.8511 114.244 83.8396 114.273C83.8109 114.343 83.8396 114.274 83.8205 114.318C83.5772 114.855 83.2343 115.345 82.8799 115.813C82.1807 116.737 81.3762 117.571 80.6157 118.442C79.564 119.643 78.34 120.651 76.9646 121.462C76.2979 121.853 75.6122 122.174 75.0088 122.663C74.4801 123.089 74.0146 123.583 73.5165 124.043C73.0453 124.477 72.5281 124.891 71.9208 125.122C71.1297 125.423 70.2773 125.519 69.4689 125.763C67.9211 126.233 66.6779 127.489 65.0554 127.741C64.6473 127.804 64.2489 127.722 63.8773 127.506C63.3773 127.214 62.9521 126.777 62.521 126.353C61.5307 125.376 60.5365 124.351 60.0921 123.001C59.9752 122.646 59.8948 122.279 59.8411 121.909C59.8028 121.653 59.4791 121.514 59.2511 121.575C58.9734 121.651 58.8757 121.907 58.9121 122.165Z" fill="#222221"/>
<path d="M64.2107 129.639C64.385 128.667 64.0057 127.783 63.5057 126.968C63.272 126.586 62.5786 126.716 62.6131 127.209C62.6686 127.986 62.705 128.768 62.841 129.538C62.9694 130.261 63.228 130.95 63.5766 131.598C63.7796 131.974 64.0191 132.327 64.2356 132.695C64.4367 133.041 64.6244 133.392 64.8313 133.734C65.2527 134.429 65.7719 135.068 66.4883 135.473C69.626 137.248 73.3863 136.111 76.1658 134.205C76.8574 133.73 77.5163 133.205 78.1331 132.638C78.4377 132.357 78.7308 132.067 79.0641 131.819C79.4108 131.563 79.7748 131.327 80.1311 131.086C80.8667 130.59 81.6061 130.053 82.0907 129.293C82.5332 128.598 82.6961 127.772 83.1462 127.077C84.0102 125.744 85.4124 124.866 86.3031 123.551C86.6671 123.013 86.9353 122.398 87.2379 121.823C87.5866 121.163 87.9275 120.494 88.2149 119.803C88.4562 119.221 88.6919 118.582 88.6842 117.944C88.6765 117.245 88.4275 116.539 87.985 115.999C87.1862 115.027 85.8261 114.805 84.6404 114.737C84.3435 114.72 84.0466 114.712 83.7477 114.706C83.1309 114.695 83.1309 115.649 83.7477 115.661C84.8262 115.68 85.9794 115.686 86.8644 116.264C87.2494 116.516 87.5253 116.923 87.6498 117.425C87.7149 117.688 87.7436 117.955 87.7092 118.225C87.7187 118.15 87.6938 118.307 87.69 118.326C87.6766 118.396 87.6594 118.467 87.6421 118.538C87.6038 118.688 87.5578 118.839 87.5061 118.986C87.0923 120.193 86.4104 121.289 85.8453 122.428C85.1806 123.767 83.9412 124.633 82.9757 125.735C82.4298 126.359 82.0352 127.027 81.7344 127.799C81.6042 128.135 81.4758 128.469 81.2843 128.776C81.0678 129.123 80.7709 129.41 80.4567 129.669C79.8476 130.173 79.1484 130.563 78.5163 131.038C77.8745 131.521 77.3228 132.104 76.7022 132.611C74.3767 134.517 71.1719 136.061 68.1242 135.131C67.3924 134.908 66.6971 134.578 66.1856 133.999C65.7029 133.451 65.3887 132.77 65.021 132.146C64.6493 131.514 64.2394 130.914 63.9999 130.217C63.7911 129.612 63.7049 128.996 63.6513 128.366C63.6187 127.98 63.5958 127.592 63.567 127.207C63.2701 127.287 62.9713 127.367 62.6744 127.447C63.0211 128.014 63.4061 128.692 63.2835 129.383C63.2375 129.637 63.3525 129.897 63.6187 129.971C63.8544 130.036 64.1666 129.893 64.2107 129.639Z" fill="#222221"/>
<path d="M73.2714 135.739C73.258 136.497 73.3883 137.288 73.802 137.939C74.1698 138.517 74.7139 138.926 75.3479 139.176C76.6563 139.693 78.2098 139.489 79.5201 139.09C80.8801 138.676 82.2115 137.992 83.2037 136.961C84.6404 135.472 86.4641 134.298 87.42 132.406C87.7169 131.82 87.8759 131.196 88.1172 130.591C88.3701 129.955 88.7226 129.361 88.9773 128.725C89.5233 127.361 89.2359 125.95 89.2283 124.527C89.2244 123.913 88.2666 123.913 88.2705 124.527C88.2781 125.681 88.5501 126.899 88.2111 128.025C88.0483 128.567 87.7763 129.065 87.5311 129.573C87.2744 130.104 87.0981 130.644 86.9027 131.196C86.5848 132.089 86.0675 132.882 85.4163 133.569C84.7458 134.277 83.9834 134.89 83.2727 135.554C82.9432 135.862 82.6367 136.194 82.3092 136.505C82.0563 136.746 81.9012 136.862 81.6655 137.026C81.3935 137.213 81.11 137.381 80.8188 137.536C80.5028 137.702 80.2154 137.83 79.9453 137.935C79.3094 138.181 78.6466 138.363 77.9723 138.462C77.821 138.485 78.0661 138.452 77.9148 138.469C77.8688 138.475 77.8229 138.481 77.7769 138.485C77.7003 138.492 77.6256 138.498 77.5489 138.504C77.3861 138.515 77.2214 138.521 77.0566 138.519C76.8976 138.517 76.7386 138.509 76.5796 138.494C76.5509 138.492 76.5241 138.488 76.4954 138.485C76.3555 138.469 76.5931 138.502 76.4551 138.479C76.3728 138.466 76.2923 138.452 76.2099 138.435C76.0529 138.403 75.8958 138.361 75.7445 138.307C75.7081 138.294 75.6697 138.28 75.6333 138.267C75.5108 138.221 75.7215 138.309 75.6046 138.256C75.5337 138.223 75.4648 138.191 75.3977 138.154C75.3307 138.118 75.2656 138.08 75.2004 138.038C75.1679 138.017 75.1372 137.996 75.1066 137.973C75.0299 137.92 75.1602 138.025 75.0683 137.944C74.9476 137.839 74.8346 137.733 74.7311 137.61C74.6736 137.544 74.7234 137.603 74.7349 137.616C74.7043 137.574 74.6736 137.532 74.6449 137.488C74.6008 137.421 74.5606 137.353 74.5223 137.282C74.507 137.251 74.4917 137.221 74.4763 137.19C74.4668 137.171 74.4093 137.036 74.4495 137.133C74.417 137.053 74.3882 136.971 74.3633 136.889C74.2369 136.471 74.2158 136.19 74.2235 135.738C74.2388 135.125 73.281 135.125 73.2714 135.739Z" fill="#222221"/>
<path d="M86.4122 133.998C86.8202 135.615 88.6132 135.768 90.0096 135.699C90.6629 135.667 91.3103 135.608 91.9635 135.592C92.7815 135.573 93.5899 135.304 94.3274 134.97C95.0955 134.623 95.8522 134.142 96.3713 133.47C96.9153 132.765 96.9268 131.925 96.8617 131.072C96.8272 130.631 96.7717 130.192 96.7429 129.749C96.7084 129.245 96.7333 128.737 96.7238 128.231C96.6989 127.044 96.5073 125.91 96.1568 124.774C95.9575 124.125 95.7277 123.483 95.494 122.844C95.2718 122.233 95.0764 121.605 94.766 121.032C94.2431 120.062 93.427 119.291 92.8543 118.352C92.6053 117.945 91.9731 118.119 91.9616 118.592C91.8927 121.496 93.9347 123.783 94.5381 126.522C94.6703 127.122 95.5936 126.868 95.4614 126.269C94.881 123.634 92.8543 121.374 92.9194 118.592C92.6225 118.672 92.3237 118.753 92.0268 118.833C92.5076 119.619 93.1512 120.282 93.6588 121.047C94.2354 121.916 94.5266 122.954 94.8695 123.93C95.2296 124.955 95.5859 126.009 95.6989 127.093C95.7985 128.057 95.72 129.025 95.8043 129.989C95.8713 130.751 96.0571 131.675 95.8752 132.381C95.8081 132.643 95.651 132.868 95.4403 133.088C95.1932 133.344 94.9135 133.552 94.6109 133.737C93.9653 134.134 93.2451 134.424 92.4999 134.571C91.998 134.67 91.3314 134.647 90.7529 134.691C90.3774 134.72 90.002 134.747 89.6265 134.754C89.2875 134.762 88.8488 134.747 88.5959 134.703C88.2262 134.64 88.004 134.571 87.7301 134.384C87.6611 134.338 87.8086 134.457 87.7052 134.365C87.6726 134.336 87.6401 134.306 87.6094 134.275C87.5883 134.254 87.5692 134.233 87.55 134.21C87.46 134.107 87.5922 134.281 87.5155 134.164C87.4025 133.989 87.3872 133.949 87.3355 133.743C87.1861 133.149 86.2608 133.401 86.4122 133.998Z" fill="#222221"/>
<path d="M94.837 123.409C94.8849 123.272 94.9308 123.136 94.9787 122.999C94.7125 123.07 94.4443 123.14 94.178 123.209C94.8868 124.112 95.6185 124.996 96.333 125.893C96.9786 126.703 97.5858 127.541 98.2065 128.369C98.7869 129.146 99.4018 129.9 100.091 130.586C100.729 131.219 101.446 131.832 102.266 132.216C103.396 132.745 104.695 132.972 105.926 133.115C107.258 133.27 108.654 133.274 109.959 132.924C111.345 132.552 112.558 131.685 112.962 130.259C113.129 129.667 112.206 129.414 112.039 130.005C111.955 130.305 111.901 130.435 111.732 130.702C111.604 130.905 111.483 131.046 111.257 131.244C111.131 131.355 111.139 131.349 110.999 131.441C110.884 131.517 110.765 131.586 110.644 131.651C110.384 131.788 110.229 131.848 109.92 131.943C108.738 132.306 107.489 132.313 106.223 132.191C105.177 132.09 104.018 131.869 102.971 131.481C102.22 131.204 101.566 130.668 100.992 130.124C100.34 129.507 99.7524 128.822 99.2064 128.112C98.5245 127.222 97.8789 126.309 97.1816 125.431C96.4116 124.461 95.6224 123.507 94.8561 122.533C94.6167 122.228 94.1589 122.442 94.0554 122.743C94.0075 122.881 93.9615 123.016 93.9137 123.154C93.8294 123.398 94.0094 123.675 94.2489 123.742C94.5094 123.814 94.7527 123.654 94.837 123.409Z" fill="#222221"/>
<path d="M112.499 131.235C112.999 131.227 113.284 131.29 113.774 131.391C114.272 131.494 114.767 131.619 115.265 131.72C116.259 131.922 117.349 132.086 118.312 131.668C119.521 131.143 119.86 129.847 120.09 128.669C120.264 127.776 120.372 126.869 120.429 125.962C120.481 125.122 120.51 124.278 120.389 123.444C120.18 122.006 119.416 120.72 118.755 119.45C117.994 117.988 117.058 116.628 116.09 115.298C114.2 112.696 112.161 110.14 111.06 107.081C110.819 106.409 110.585 105.722 110.405 105.031C110.292 104.59 110.202 104.145 110.077 103.706C109.823 102.811 109.372 101.673 108.3 101.57C108.049 101.545 107.792 101.596 107.558 101.686C107.265 101.801 107.116 102.093 107.273 102.387C107.612 103.026 107.995 103.639 108.342 104.273C108.685 104.897 108.964 105.537 109.188 106.213C109.62 107.52 109.978 108.86 110.911 109.918C111.081 110.111 111.413 110.092 111.589 109.918C111.782 109.725 111.759 109.437 111.589 109.242C110.725 108.261 110.451 106.942 110.039 105.739C109.568 104.366 108.777 103.177 108.1 101.904C108.005 102.137 107.909 102.372 107.815 102.604C107.92 102.564 108.028 102.526 108.141 102.511C108.051 102.522 108.173 102.517 108.204 102.515C108.223 102.513 108.244 102.517 108.263 102.517C108.198 102.513 108.217 102.503 108.271 102.52C108.313 102.534 108.355 102.543 108.397 102.559C108.319 102.528 108.382 102.553 108.418 102.576C108.432 102.585 108.537 102.658 108.495 102.625C108.459 102.597 108.556 102.685 108.577 102.706C108.61 102.74 108.643 102.774 108.671 102.813C108.616 102.744 108.692 102.847 108.708 102.87C108.769 102.963 108.823 103.061 108.872 103.162C108.928 103.273 108.939 103.301 108.966 103.374C109.008 103.488 109.051 103.605 109.087 103.721C109.223 104.151 109.319 104.594 109.424 105.031C109.562 105.613 109.75 106.184 109.939 106.751C110.42 108.2 111.056 109.578 111.845 110.886C112.66 112.234 113.594 113.503 114.527 114.771C115.464 116.042 116.403 117.316 117.219 118.667C117.627 119.341 117.983 120.04 118.345 120.739C118.644 121.315 118.956 121.892 119.173 122.507C119.678 123.936 119.548 125.511 119.385 126.995C119.295 127.814 119.153 128.635 118.937 129.431C118.805 129.912 118.613 130.299 118.259 130.603C118.201 130.653 118.284 130.593 118.198 130.649C118.161 130.672 118.125 130.696 118.086 130.719C118.042 130.744 117.998 130.769 117.952 130.792C117.927 130.805 117.901 130.817 117.874 130.828C117.918 130.809 117.904 130.815 117.866 130.828C117.768 130.863 117.671 130.891 117.571 130.916C117.519 130.927 117.47 130.937 117.418 130.947C117.311 130.966 117.429 130.95 117.32 130.96C117.098 130.977 116.878 130.981 116.657 130.968C116.542 130.96 116.428 130.948 116.313 130.937C116.288 130.935 116.263 130.931 116.238 130.927C116.309 130.937 116.224 130.926 116.215 130.924C116.148 130.914 116.079 130.903 116.012 130.891C115.037 130.729 114.089 130.435 113.108 130.318C112.909 130.294 112.707 130.28 112.506 130.282C111.884 130.288 111.882 131.242 112.499 131.235Z" fill="#222221"/>
<path d="M121.249 126.874C121.866 126.874 121.866 125.92 121.249 125.92C120.632 125.92 120.632 126.874 121.249 126.874Z" fill="#222221"/>
<path d="M121.008 126.809C122.391 127.495 123.666 128.4 125.128 128.927C125.735 129.144 126.431 129.303 127.068 129.125C127.766 128.932 128.201 128.35 128.407 127.684C128.551 127.222 128.595 126.723 128.605 126.242C128.618 125.534 128.603 124.822 128.599 124.114C128.595 123.377 128.632 122.632 128.584 121.899C128.543 121.292 128.429 120.695 128.294 120.103C128.151 119.477 127.99 118.852 127.94 118.211C127.883 117.493 127.896 116.771 127.787 116.057C127.68 115.353 127.442 114.668 127.243 113.986C127.042 113.293 126.821 112.598 126.66 111.894C126.511 111.243 126.438 110.577 126.306 109.922C126.18 109.297 126.007 108.667 125.586 108.175C125.249 107.782 124.791 107.507 124.368 107.217C124.168 107.081 124.03 106.986 123.862 106.816C123.703 106.657 123.632 106.541 123.586 106.34C123.45 105.741 122.527 105.995 122.663 106.594C122.875 107.528 123.81 107.938 124.504 108.469C124.81 108.704 125.034 108.963 125.166 109.347C125.352 109.889 125.44 110.462 125.532 111.025C125.745 112.337 126.134 113.595 126.501 114.87C126.687 115.511 126.864 116.136 126.91 116.806C126.957 117.499 126.952 118.19 127.059 118.877C127.241 120.053 127.636 121.172 127.643 122.373C127.647 123.081 127.639 123.787 127.645 124.496C127.649 125.168 127.676 125.845 127.637 126.515C127.616 126.899 127.567 127.269 127.409 127.646C127.446 127.558 127.365 127.731 127.352 127.754C127.318 127.815 127.279 127.873 127.239 127.93C127.197 127.989 127.316 127.85 127.235 127.932C127.21 127.957 127.189 127.983 127.164 128.008C127.139 128.031 127.114 128.054 127.09 128.077C127.007 128.15 127.174 128.025 127.082 128.083C127.026 128.117 126.971 128.148 126.913 128.178C126.819 128.228 126.99 128.153 126.923 128.174C126.898 128.182 126.871 128.192 126.846 128.201C126.783 128.22 126.718 128.234 126.653 128.245C126.793 128.218 126.584 128.249 126.542 128.249C126.477 128.251 126.41 128.249 126.344 128.245C126.31 128.243 126.103 128.216 126.229 128.235C126.07 128.211 125.911 128.174 125.756 128.13C124.998 127.915 124.35 127.563 123.617 127.159C122.91 126.767 122.216 126.347 121.492 125.988C120.941 125.712 120.456 126.534 121.008 126.809Z" fill="#222221"/>
<path d="M83.876 77.9755C83.6729 77.9335 83.5159 77.8571 83.3741 77.7292C83.1998 77.5727 83.081 77.4104 82.9603 77.2081C82.7132 76.7957 82.5542 76.3757 82.3722 75.9423C81.9374 74.9038 81.1999 73.913 81.0371 72.779C80.972 72.317 81.0907 71.9409 81.3129 71.5305C81.5773 71.0437 81.9144 70.5989 82.2803 70.1846C82.9737 69.398 83.784 68.5924 84.83 68.3213C86.0444 68.0044 87.188 68.5103 88.1382 69.2377C89.1707 70.028 90.0461 71.0112 90.8698 72.0077C91.7701 73.094 92.6206 74.2242 93.588 75.2532C94.4768 76.1982 95.4557 77.0687 96.6606 77.5861C97.1874 77.8132 97.7314 77.9851 98.2831 78.1378C98.8693 78.3001 99.4459 78.407 99.9554 78.7525C100.45 79.0885 100.886 79.4627 101.446 79.6918C101.923 79.8865 102.432 80.0087 102.892 80.2435C103.108 80.3542 103.258 80.4554 103.405 80.6406C103.566 80.8429 103.915 80.8086 104.084 80.6406C104.283 80.442 104.244 80.1671 104.084 79.9648C103.721 79.5123 103.135 79.287 102.605 79.0961C102.066 78.9033 101.587 78.7544 101.12 78.4241C100.574 78.0366 100.082 77.6357 99.4229 77.4543C98.8252 77.2902 98.2237 77.1432 97.6376 76.9427C96.3943 76.5189 95.4136 75.7553 94.5056 74.8236C93.4673 73.7603 92.5727 72.5728 91.6284 71.4274C90.7395 70.3469 89.799 69.3102 88.6841 68.4588C87.5807 67.615 86.2992 67.0995 84.8893 67.3324C83.6634 67.5348 82.6807 68.3557 81.855 69.23C81.0735 70.0605 80.1789 71.1162 80.0697 72.296C79.9529 73.5465 80.744 74.7492 81.2727 75.824C81.493 76.2707 81.6539 76.7365 81.8895 77.231C82.1309 77.7388 82.4412 78.2275 82.899 78.5673C83.1117 78.7258 83.3588 78.8384 83.6193 78.8938C84.2227 79.0236 84.4813 78.1034 83.876 77.9755Z" fill="#222221"/>
<path d="M91.249 72.0611C92.1915 72.0611 93.1358 72.0611 94.0783 72.0611C95.0112 72.0611 95.9498 72.0306 96.8808 72.0783C97.7045 72.1222 98.5167 72.2521 99.3308 72.3819C100.174 72.5155 101.013 72.609 101.861 72.6873C103.059 72.7961 104.237 73.2009 105.07 74.0905C105.495 74.5448 105.794 75.1004 106.035 75.6712C106.145 75.9327 106.24 76.2019 106.309 76.4749C106.374 76.7403 106.39 76.8052 106.388 77.061C106.388 77.124 106.384 77.1851 106.378 77.2462C106.388 77.145 106.373 77.2767 106.365 77.3149C106.353 77.3646 106.338 77.4142 106.325 77.4638C106.286 77.5879 106.344 77.4543 106.292 77.5421C106.267 77.586 106.244 77.6318 106.217 77.6738C106.204 77.6948 106.189 77.7158 106.173 77.7368C106.133 77.7941 106.248 77.6566 106.164 77.7483C106.089 77.8304 106.012 77.9067 105.924 77.9755C105.991 77.922 105.861 78.0175 105.84 78.0308C105.781 78.069 105.717 78.1053 105.654 78.1396C105.52 78.2122 105.426 78.2542 105.309 78.2981C104.965 78.4279 104.606 78.5195 104.246 78.594C103.993 78.6474 103.846 78.9434 103.911 79.182C103.984 79.4435 104.246 79.5676 104.501 79.5161C105.585 79.2889 106.901 78.8574 107.258 77.6795C107.411 77.1736 107.344 76.62 107.206 76.1179C107.026 75.4612 106.733 74.7968 106.369 74.2203C105.608 73.0138 104.407 72.2272 103.024 71.9084C102.221 71.7232 101.396 71.7137 100.582 71.6087C99.6929 71.4922 98.8098 71.3223 97.9191 71.2135C96.831 71.0818 95.7391 71.1028 94.6434 71.1028C93.5113 71.1028 92.3792 71.1028 91.2471 71.1028C90.6322 71.1066 90.6322 72.0611 91.249 72.0611Z" fill="#222221"/>
<path d="M103.124 80.7815C104.873 80.9208 106.654 80.8731 108.365 80.4626C110.166 80.0312 111.74 79.0747 113.338 78.1756C114.956 77.2649 116.615 76.4383 118.202 75.4723C118.979 74.9989 119.747 74.5082 120.519 74.0233C121.314 73.5232 122.15 73.0688 122.927 72.5457C123.603 72.0913 124.155 71.5072 124.644 70.8619C125.165 70.1746 125.542 69.4015 125.998 68.6741C126.925 67.1946 127.992 65.8105 129.025 64.4054C129.549 63.6914 130.036 62.9641 130.655 62.3264C131.243 61.7193 131.879 61.1466 132.373 60.4555C132.618 60.1119 132.821 59.7396 133.07 59.396C133.308 59.0657 133.561 58.7488 133.821 58.4357C134.356 57.7924 134.917 57.17 135.438 56.5171C135.965 55.8566 136.457 55.1808 137.037 54.5661C137.604 53.9647 138.214 53.4053 138.844 52.8727C139.484 52.3305 140.145 51.8151 140.804 51.2996C141.491 50.7632 142.181 50.242 142.8 49.6254C143.108 49.318 143.414 49.0126 143.723 48.7071C144.16 48.2718 143.483 47.5979 143.045 48.0313C142.428 48.646 141.832 49.2779 141.148 49.8201C140.487 50.3451 139.819 50.8567 139.16 51.3836C137.88 52.4031 136.641 53.4798 135.605 54.7493C135.064 55.4137 134.559 56.1009 134.001 56.7519C133.459 57.3858 132.911 58.0157 132.411 58.6839C132.16 59.0199 131.923 59.3655 131.704 59.7225C131.49 60.0737 131.222 60.3792 130.938 60.677C130.369 61.2764 129.752 61.8301 129.243 62.4849C128.682 63.2084 128.164 63.9682 127.619 64.7051C127.105 65.3981 126.59 66.0911 126.096 66.7994C125.607 67.5 125.138 68.214 124.711 68.9528C124.5 69.3175 124.31 69.6897 124.067 70.0353C123.849 70.3445 123.617 70.6424 123.358 70.9192C123.1 71.196 122.818 71.4556 122.508 71.6733C122.136 71.9348 121.724 72.1486 121.337 72.3853C120.562 72.8588 119.793 73.3475 119.023 73.8324C118.265 74.3097 117.502 74.7831 116.728 75.2337C115.914 75.7071 115.077 76.1309 114.248 76.5777C113.447 77.0072 112.658 77.4616 111.865 77.9045C111.068 78.3474 110.269 78.8227 109.413 79.1435C107.804 79.7467 106.082 79.9319 104.371 79.8918C103.955 79.8823 103.538 79.8575 103.124 79.825C102.865 79.804 102.645 80.0598 102.645 80.3023C102.645 80.5791 102.865 80.7605 103.124 80.7815Z" fill="#222221"/>
<path d="M120.77 71.5837C120.755 71.7212 120.739 71.8567 120.724 71.9942C120.671 72.46 121.421 72.6528 121.617 72.2347C121.925 71.5742 122.326 71.1084 122.837 70.5967C123.341 70.0908 123.887 69.6288 124.393 69.1267C124.166 68.9015 123.94 68.6762 123.714 68.4509C123.404 68.7602 123.094 69.0695 122.785 69.3768C122.603 69.5582 122.603 69.8694 122.785 70.0526C122.969 70.2359 123.28 70.2359 123.463 70.0526C123.774 69.7434 124.084 69.4341 124.393 69.1267C124.574 68.9454 124.574 68.6342 124.393 68.4509C124.209 68.2677 123.898 68.2677 123.714 68.4509C122.676 69.4799 121.42 70.3944 120.787 71.7536C121.084 71.8338 121.383 71.914 121.68 71.9942C121.695 71.8567 121.711 71.7212 121.726 71.5837C121.755 71.3279 121.485 71.1064 121.247 71.1064C120.966 71.1064 120.799 71.326 120.77 71.5837Z" fill="#222221"/>
<path d="M122.626 70.7993C123.257 70.6924 123.864 70.4328 124.402 70.0949C124.575 69.9861 124.69 69.7608 124.622 69.5565C124.561 69.3675 124.375 69.1881 124.161 69.2052C124.023 69.2167 123.887 69.2282 123.749 69.2396C123.621 69.2511 123.504 69.2854 123.41 69.379C123.328 69.4611 123.264 69.5985 123.27 69.7169C123.282 69.9574 123.481 70.2171 123.749 70.1941C123.887 70.1827 124.023 70.1712 124.161 70.1598C124.08 69.8639 124 69.5661 123.919 69.2702C123.795 69.3484 123.667 69.4229 123.536 69.4897C123.465 69.526 123.395 69.5603 123.324 69.5928C123.297 69.6042 123.27 69.6176 123.243 69.6291C123.195 69.6501 123.207 69.6443 123.276 69.6157C123.257 69.6233 123.239 69.631 123.22 69.6386C122.946 69.7474 122.663 69.8295 122.372 69.8791C122.261 69.8982 122.14 70.0051 122.086 70.0987C122.027 70.2018 122 70.3526 122.038 70.4671C122.125 70.7325 122.362 70.8432 122.626 70.7993Z" fill="#222221"/>
<path d="M126.588 112.409C129.457 109.664 132.957 107.702 136.524 106.004C137.641 105.474 138.771 104.966 139.901 104.464C140.137 104.359 140.192 104.015 140.073 103.811C139.932 103.568 139.656 103.534 139.418 103.639C135.648 105.311 131.863 107.058 128.54 109.527C127.62 110.21 126.737 110.941 125.91 111.734C125.465 112.159 126.143 112.835 126.588 112.409Z" fill="#222221"/>
<path d="M50.2861 65.0702C52.8511 68.1228 55.9103 70.7306 59.2625 72.8898C60.9291 73.9627 62.6646 74.9248 64.448 75.7916C66.3042 76.6946 68.2198 77.4505 70.1258 78.2409C72.4322 79.1954 74.7596 80.1939 77.2269 80.6521C77.7786 80.7552 78.0296 80.1061 77.5966 79.7796C76.7557 79.1477 75.704 79.3463 74.7596 79.0236C74.2616 78.8537 73.8038 78.5884 73.323 78.3784C72.8134 78.1569 72.277 78.0099 71.7503 77.8362C69.7715 77.1814 67.8597 76.3452 66.0227 75.3639C64.1032 74.3388 62.2547 73.1742 60.4119 72.0192C58.5653 70.8623 56.7416 69.6653 54.9755 68.3863C53.0005 66.9564 51.106 65.4196 49.3398 63.7377C49.2268 64.0088 49.1138 64.2818 49.0008 64.5528C49.1272 64.5643 49.2517 64.5738 49.3781 64.5853C49.6367 64.6082 49.857 64.3505 49.857 64.108C49.857 63.8312 49.6367 63.6537 49.3781 63.6308C49.2517 63.6193 49.1272 63.6098 49.0008 63.5983C48.5812 63.562 48.3763 64.1405 48.6617 64.4135C51.8473 67.4451 55.4505 70.0013 59.1572 72.3571C62.8026 74.6748 66.4881 76.9618 70.5722 78.4356C71.1488 78.6437 71.733 78.8365 72.3192 79.0179C72.8805 79.1916 73.3881 79.4723 73.9225 79.709C74.4838 79.9572 75.0336 80.1003 75.6446 80.1653C76.1791 80.2225 76.6714 80.2722 77.1158 80.6043C77.2384 80.3142 77.361 80.0221 77.4855 79.7319C75.3056 79.3272 73.2329 78.4948 71.1909 77.6548C69.3098 76.8778 67.4115 76.139 65.5706 75.2723C62.0421 73.6114 58.6668 71.5821 55.6708 69.0793C53.9698 67.6589 52.3933 66.0916 50.9681 64.3963C50.8014 64.1978 50.4623 64.2245 50.2899 64.3963C50.0888 64.591 50.1195 64.8717 50.2861 65.0702Z" fill="#222221"/>
<path d="M41.9056 103.99C43.2216 105.143 44.9188 105.546 46.413 106.393C47.1869 106.831 47.7845 107.464 48.4799 108.007C49.2155 108.581 50.0583 108.902 50.8993 109.29C51.8513 109.729 52.7957 110.233 53.878 110.04C54.1328 109.994 54.2765 109.685 54.2132 109.452C54.1404 109.185 53.8799 109.072 53.6232 109.118C52.8302 109.259 52.0352 108.763 51.3456 108.448C50.5755 108.094 49.7653 107.808 49.0929 107.279C48.4205 106.752 47.8343 106.13 47.0968 105.685C46.4053 105.265 45.6525 104.965 44.9112 104.647C44.0894 104.293 43.2618 103.908 42.5837 103.314C42.3902 103.144 42.0972 103.123 41.9056 103.314C41.7313 103.49 41.7102 103.82 41.9056 103.99Z" fill="#222221"/>
<path d="M55.6248 109.103C54.213 109.284 52.828 109.706 51.3913 109.575C51.4718 109.596 51.5523 109.618 51.6327 109.639C48.3283 107.986 45.4281 105.669 42.5758 103.353C42.3747 103.191 42.095 103.158 41.8977 103.353C41.7291 103.521 41.6966 103.865 41.8977 104.029C43.5087 105.336 45.1274 106.638 46.8227 107.833C47.6579 108.423 48.5141 108.987 49.3953 109.508C49.8186 109.758 50.2497 109.998 50.6864 110.227C50.9278 110.353 51.1634 110.506 51.4354 110.533C51.7036 110.56 51.9737 110.563 52.2419 110.554C53.3874 110.516 54.4927 110.203 55.6248 110.058C55.8815 110.025 56.1037 109.861 56.1037 109.58C56.1037 109.347 55.8834 109.069 55.6248 109.103Z" fill="#222221"/>
<path d="M75.4608 110.076C75.2942 109.392 74.7866 108.892 74.2483 108.47C73.7215 108.058 73.2253 107.63 72.7311 107.18C72.2656 106.756 71.7695 106.319 71.1603 106.12C70.5225 105.912 69.8712 106.099 69.3501 106.494C68.3674 107.239 67.7659 108.472 67.333 109.595C67.1549 110.059 66.9671 110.597 67.0169 111.103C67.0763 111.71 67.3943 112.246 67.81 112.682C68.2755 113.168 68.8559 113.543 69.4248 113.896C69.9382 114.215 70.509 114.532 70.9094 114.9C71.3615 115.316 72.0415 114.642 71.5875 114.224C70.8175 113.516 69.8309 113.096 69.0034 112.464C68.6318 112.18 68.2927 111.859 68.0897 111.446C68.0609 111.389 68.0284 111.298 67.9996 111.193C67.992 111.166 67.9632 111.007 67.9747 111.103C67.969 111.059 67.969 111.015 67.969 110.971C67.969 110.923 67.9728 110.874 67.9766 110.826C67.9843 110.738 67.9671 110.864 67.9843 110.773C68.0054 110.656 68.0322 110.54 68.0648 110.425C68.2046 109.919 68.4191 109.436 68.6605 108.97C68.7831 108.734 68.9134 108.501 69.0532 108.274C69.1126 108.178 69.1739 108.083 69.239 107.989C69.2658 107.949 69.2926 107.911 69.3214 107.873C69.3386 107.848 69.3559 107.825 69.375 107.8C69.3482 107.836 69.3501 107.831 69.3769 107.798C69.5685 107.567 69.783 107.34 70.0378 107.178C70.2447 107.048 70.4305 106.983 70.6316 106.987C70.8002 106.991 70.986 107.061 71.1661 107.162C71.3883 107.288 71.5894 107.445 71.7829 107.613C72.3116 108.069 72.802 108.556 73.3575 108.982C73.8268 109.341 74.3939 109.73 74.5414 110.333C74.6831 110.925 75.6083 110.673 75.4608 110.076Z" fill="#222221"/>
<path d="M81.8741 115.954C81.8473 115.952 81.6902 115.929 81.8032 115.95C81.7515 115.941 81.6998 115.929 81.648 115.916C81.6021 115.903 81.558 115.887 81.5139 115.872C81.5005 115.868 81.422 115.834 81.4756 115.859C81.5331 115.884 81.4182 115.83 81.4182 115.83C81.3224 115.781 81.2285 115.727 81.1366 115.67C81.0925 115.641 81.0485 115.613 81.0063 115.582C80.9814 115.565 80.9565 115.546 80.9316 115.529C80.8128 115.443 80.9661 115.557 80.899 115.506C80.4968 115.189 80.1386 114.824 79.7612 114.479C79.0486 113.826 78.1119 113.096 77.0813 113.453C76.0028 113.828 75.3017 114.969 75.1121 116.046C74.9224 117.115 75.0872 118.278 75.6695 119.207C75.9741 119.696 76.4012 120.131 76.9223 120.387C77.541 120.691 78.2019 120.746 78.8762 120.63C79.131 120.586 79.2746 120.273 79.2114 120.042C79.1367 119.772 78.8781 119.665 78.6214 119.707C78.518 119.725 78.4567 119.732 78.3207 119.736C78.1961 119.74 78.0697 119.736 77.9452 119.721C77.8628 119.711 78.0084 119.732 77.9299 119.717C77.9069 119.713 77.882 119.709 77.859 119.704C77.8054 119.692 77.7517 119.681 77.6981 119.665C77.6464 119.65 77.5947 119.635 77.5429 119.618C77.5142 119.608 77.4855 119.597 77.4567 119.585C77.5027 119.604 77.4759 119.593 77.4452 119.58C77.3495 119.534 77.2575 119.484 77.1694 119.427C77.1253 119.398 77.0813 119.37 77.0391 119.337C76.9951 119.305 77.0391 119.337 77.0468 119.343C77.0181 119.32 76.9893 119.295 76.9606 119.27C76.7882 119.118 76.6599 118.969 76.5698 118.839C76.294 118.438 76.1714 118.123 76.0679 117.648C76.0143 117.398 76.0009 117.298 75.9913 117.023C75.9875 116.909 75.9875 116.794 75.9932 116.68C75.9951 116.622 75.999 116.565 76.0047 116.508C76.0066 116.483 76.0277 116.317 76.0162 116.391C76.0507 116.16 76.1082 115.931 76.1867 115.71C76.2346 115.574 76.2308 115.586 76.2863 115.469C76.338 115.362 76.3974 115.257 76.4625 115.156C76.5775 114.977 76.702 114.828 76.9031 114.648C76.9932 114.566 77.0142 114.549 77.1215 114.482C77.1751 114.448 77.2307 114.419 77.2862 114.391C77.2901 114.389 77.3571 114.358 77.3111 114.379C77.2613 114.4 77.3763 114.358 77.3744 114.358C77.4146 114.347 77.4548 114.335 77.495 114.326C77.5219 114.32 77.5487 114.314 77.5736 114.311C77.5544 114.314 77.4759 114.316 77.564 114.314C77.6023 114.314 77.6425 114.311 77.6809 114.312C77.7192 114.314 77.8513 114.335 77.746 114.314C77.836 114.332 77.9241 114.358 78.0123 114.385C78.087 114.41 77.9682 114.358 78.0659 114.406C78.1214 114.435 78.1789 114.461 78.2325 114.492C78.3149 114.538 78.3935 114.589 78.472 114.643C78.5946 114.727 78.6042 114.734 78.6846 114.801C78.8647 114.948 79.0371 115.105 79.2076 115.263C79.9604 115.964 80.7688 116.853 81.8702 116.905C82.4909 116.937 82.489 115.983 81.8741 115.954Z" fill="#222221"/>
<path d="M86.0865 121.54C86.2149 121.067 86.1976 120.554 85.941 120.124C85.6996 119.723 85.3069 119.462 84.8759 119.299C84.0445 118.988 82.9737 119.082 82.2266 119.568C81.401 120.105 81.219 120.985 81.1462 121.903C81.062 122.959 81.1367 124.049 81.3608 125.084C81.5543 125.973 81.9642 127.262 82.9986 127.48C83.2515 127.533 83.5158 127.405 83.5886 127.146C83.6537 126.909 83.5082 126.611 83.2534 126.558C83.2227 126.552 83.1921 126.544 83.1634 126.535C83.1442 126.529 83.125 126.521 83.104 126.514C83.104 126.514 83.1921 126.556 83.1461 126.531C83.104 126.506 82.9507 126.397 83.0408 126.475C82.9833 126.426 82.9316 126.376 82.8798 126.321C82.8684 126.307 82.8013 126.223 82.8377 126.271C82.8684 126.313 82.7936 126.204 82.7764 126.18C82.5561 125.834 82.4795 125.595 82.3665 125.177C82.1251 124.284 82.0542 123.413 82.0753 122.466C82.0791 122.256 82.0906 122.044 82.1079 121.836C82.1155 121.741 82.127 121.644 82.1385 121.548C82.127 121.632 82.1385 121.542 82.1443 121.508C82.1519 121.462 82.1596 121.416 82.1673 121.371C82.196 121.216 82.2343 121.067 82.2803 120.916C82.2898 120.882 82.3205 120.819 82.2879 120.888C82.3052 120.851 82.3224 120.815 82.3435 120.779C82.3626 120.744 82.3856 120.71 82.4067 120.678C82.4527 120.603 82.4144 120.662 82.4029 120.678C82.4201 120.657 82.4354 120.636 82.4546 120.616C82.5082 120.557 82.5657 120.502 82.627 120.45C82.6845 120.399 82.5848 120.473 82.6749 120.416C82.7151 120.391 82.7534 120.365 82.7956 120.34C82.832 120.319 82.8664 120.3 82.9048 120.281C82.9201 120.273 83.0408 120.218 82.9986 120.237C82.9546 120.254 83.0599 120.216 83.0791 120.208C83.125 120.193 83.1729 120.177 83.2208 120.164C83.3109 120.139 83.4009 120.122 83.4909 120.103C83.512 120.099 83.5331 120.095 83.5541 120.093C83.5465 120.095 83.4756 120.103 83.5331 120.097C83.5905 120.092 83.6461 120.086 83.7035 120.084C83.7898 120.08 83.874 120.08 83.9602 120.082C84.01 120.084 84.0599 120.088 84.1077 120.092C84.1288 120.093 84.1499 120.095 84.171 120.099C84.2457 120.109 84.0943 120.086 84.169 120.099C84.2706 120.118 84.3702 120.139 84.4698 120.168C84.5138 120.181 84.5579 120.197 84.6039 120.212C84.7092 120.246 84.5732 120.189 84.6709 120.24C84.7495 120.282 84.8261 120.326 84.9008 120.374C84.9908 120.429 84.8759 120.338 84.9487 120.412C84.9774 120.443 85.01 120.471 85.0387 120.5C85.0521 120.513 85.0617 120.527 85.0751 120.54C85.1192 120.59 85.0291 120.473 85.0655 120.529C85.0924 120.569 85.1153 120.611 85.1402 120.651C85.1977 120.737 85.1364 120.615 85.1594 120.685C85.1747 120.733 85.1881 120.779 85.2015 120.826C85.2054 120.846 85.2092 120.865 85.213 120.882C85.2264 120.951 85.2073 120.8 85.2092 120.87C85.2111 120.918 85.213 120.964 85.213 121.012C85.213 121.042 85.192 121.191 85.2073 121.099C85.1958 121.161 85.1824 121.222 85.1651 121.283C85.0023 121.88 85.9256 122.134 86.0865 121.54Z" fill="#222221"/>
<path d="M140.068 103.688C138.911 101.464 137.664 99.2438 135.947 97.392C135.133 96.5138 134.103 95.7788 133.486 94.7365C132.878 93.7113 132.658 92.5047 132.206 91.4128C131.243 89.0837 129.733 87.083 128.4 84.962C127.699 83.8452 127.172 82.6463 126.586 81.4703C126.032 80.3554 125.308 79.3512 124.557 78.3642C123.695 77.2322 122.933 76.039 122.358 74.737C121.812 73.4961 121.278 72.2495 120.337 71.2472C119.916 70.7967 119.24 71.4725 119.659 71.923C120.462 72.7802 120.935 73.8646 121.4 74.926C121.906 76.0829 122.509 77.1653 123.245 78.1943C123.967 79.2061 124.756 80.1626 125.377 81.245C126.03 82.3828 126.511 83.6085 127.157 84.752C127.773 85.844 128.511 86.8673 129.197 87.9172C129.863 88.9405 130.503 89.9848 131.024 91.092C131.543 92.1955 131.821 93.3791 132.298 94.4959C132.796 95.6585 133.662 96.4985 134.562 97.3595C136.581 99.2896 137.962 101.72 139.24 104.173C139.526 104.717 140.353 104.234 140.068 103.688Z" fill="#222221"/>
<path d="M140.687 104.905C140.551 104.634 140.415 104.363 140.275 104.092C140.221 103.989 140.098 103.903 139.989 103.872C139.874 103.842 139.721 103.855 139.62 103.92C139.518 103.985 139.428 104.084 139.399 104.204C139.371 104.334 139.386 104.452 139.447 104.573C139.585 104.844 139.723 105.115 139.859 105.386C139.911 105.489 140.037 105.575 140.144 105.606C140.259 105.636 140.413 105.623 140.514 105.558C140.616 105.493 140.706 105.394 140.734 105.273C140.74 105.231 140.746 105.189 140.752 105.147C140.752 105.06 140.731 104.979 140.687 104.905Z" fill="#222221"/>
<path d="M141.349 107.69C142.027 108.952 143.313 110.779 145.004 110.204C145.497 110.036 145.895 109.696 146.32 109.408C146.782 109.093 147.253 108.79 147.73 108.497C148.669 107.921 149.632 107.386 150.613 106.882C152.557 105.88 154.559 104.998 156.559 104.112C157.57 103.664 158.58 103.215 159.584 102.749C160.065 102.526 160.536 102.27 161.03 102.079C161.522 101.89 162.03 101.736 162.541 101.606C163.691 101.314 164.877 101.174 166.024 100.876C166.279 100.81 166.509 100.661 166.752 100.56C166.884 100.504 167.022 100.462 167.154 100.411C167.311 100.35 167.445 100.246 167.583 100.153C167.872 99.9601 168.162 99.7692 168.451 99.5764C168.503 99.542 168.558 99.5076 168.608 99.4714C168.69 99.3816 168.721 99.3587 168.702 99.4046C168.7 99.4065 168.7 99.4084 168.698 99.4103C168.752 99.3912 168.828 99.395 168.916 99.4065C168.916 99.0876 168.916 98.7707 168.916 98.4519C168.507 98.4557 168.085 98.45 167.679 98.5187C167.258 98.5894 167.012 99.0934 167.396 99.3969C167.577 99.5401 167.846 99.5286 168.068 99.521C168.395 99.5096 168.725 99.4637 169.045 99.3912C169.579 99.269 169.451 98.4577 168.918 98.4538C166.725 98.4367 164.666 99.1583 162.635 99.9047C160.593 100.657 158.59 101.514 156.628 102.457C155.664 102.921 154.751 103.444 153.847 104.015C152.971 104.567 152.107 105.139 151.224 105.68C150.772 105.956 150.316 106.226 149.851 106.48C149.416 106.718 148.96 107.008 148.479 107.138C147.464 107.415 146.366 107.383 145.384 107.785C144.937 107.969 144.531 108.226 144.1 108.44C143.759 108.61 143.294 108.79 142.914 108.669C142.104 108.41 141.773 107.413 141.55 106.69C141.37 106.103 140.445 106.354 140.627 106.943C140.878 107.761 141.215 108.629 141.907 109.177C142.288 109.479 142.725 109.668 143.217 109.652C143.681 109.637 144.112 109.494 144.525 109.294C144.91 109.108 145.269 108.872 145.659 108.698C146.134 108.49 146.673 108.413 147.182 108.335C147.715 108.253 148.255 108.192 148.774 108.045C149.293 107.9 149.786 107.598 150.257 107.342C152.147 106.315 153.893 105.046 155.754 103.969C156.718 103.412 157.756 102.963 158.77 102.507C159.76 102.06 160.762 101.64 161.775 101.245C162.934 100.794 164.106 100.361 165.294 99.9925C166.474 99.626 167.679 99.3969 168.916 99.4065C168.874 99.0934 168.832 98.7822 168.79 98.4691C168.727 98.4844 168.664 98.4977 168.6 98.5092C168.562 98.5168 168.522 98.5226 168.484 98.5283C168.474 98.5302 168.382 98.5436 168.434 98.5359C168.462 98.5321 168.334 98.5474 168.302 98.5493C168.242 98.555 168.183 98.5588 168.123 98.5627C168.037 98.5665 167.953 98.5703 167.867 98.5665C167.836 98.5646 167.796 98.555 167.765 98.5607C167.727 98.5684 167.872 98.5779 167.846 98.5703C167.712 98.5359 168.041 98.66 168.095 98.7727C168.11 98.8948 168.127 99.017 168.143 99.1411C168.143 99.1392 168.143 99.1392 168.143 99.1373C168.102 99.2079 168.06 99.2786 168.02 99.3473C167.991 99.3778 167.742 99.5038 167.909 99.4408C167.786 99.4886 167.848 99.4466 167.899 99.4427C167.947 99.4389 167.995 99.4351 168.045 99.4313C168.334 99.4103 168.625 99.4084 168.916 99.4046C169.175 99.4026 169.395 99.1869 169.395 98.9273C169.395 98.6409 169.175 98.4844 168.916 98.45C168.413 98.3851 168.043 98.7001 167.65 98.9597C167.413 99.1163 167.177 99.2747 166.94 99.4313C166.717 99.5783 166.449 99.6508 166.204 99.7596C166.03 99.8379 165.865 99.9372 165.677 99.9735C165.392 100.029 165.108 100.096 164.823 100.153C164.321 100.252 163.815 100.346 163.313 100.449C162.287 100.661 161.246 100.913 160.293 101.358C159.31 101.816 158.331 102.278 157.343 102.721C153.437 104.467 149.464 106.124 145.906 108.53C145.495 108.809 145.071 109.223 144.571 109.33C144.263 109.395 143.954 109.29 143.658 109.095C143.001 108.664 142.541 107.892 142.171 107.205C141.886 106.667 141.058 107.148 141.349 107.69Z" fill="#222221"/>
<path d="M120.91 74.4131C121.703 75.2149 122.592 75.9232 123.327 76.7803C124.053 77.6261 124.59 78.6226 125.111 79.602C125.666 80.6481 126.185 81.7153 126.726 82.7691C127.27 83.8325 127.86 84.8653 128.469 85.8924C130.94 90.0618 133.269 94.3114 135.66 98.5266C136.987 100.865 138.38 103.166 139.849 105.416C140.185 105.93 141.014 105.451 140.677 104.935C138.018 100.867 135.683 96.6137 133.302 92.3832C132.108 90.2641 130.907 88.1508 129.676 86.0546C129.067 85.0199 128.446 83.9966 127.887 82.9333C127.335 81.8852 126.818 80.8199 126.276 79.7661C125.684 78.6169 125.076 77.46 124.276 76.4386C123.49 75.4325 122.479 74.6422 121.586 73.7392C121.155 73.3001 120.477 73.9759 120.91 74.4131Z" fill="#222221"/>
<path d="M139.537 105.092C139.367 105.766 139.608 106.382 139.987 106.936C140.156 107.182 140.34 107.419 140.497 107.675C140.533 107.736 140.57 107.797 140.602 107.86C140.617 107.888 140.633 107.917 140.646 107.946C140.665 107.984 140.692 108.049 140.662 107.972C140.69 108.045 140.715 108.118 140.736 108.192C140.746 108.23 140.755 108.266 140.763 108.305C140.769 108.331 140.784 108.448 140.771 108.333C140.799 108.58 140.97 108.824 141.25 108.811C141.485 108.801 141.759 108.599 141.729 108.333C141.65 107.665 141.307 107.148 140.928 106.611C140.769 106.388 140.612 106.159 140.499 105.907C140.549 106.018 140.503 105.907 140.495 105.888C140.483 105.853 140.472 105.821 140.464 105.787C140.457 105.758 140.451 105.729 140.443 105.701C140.428 105.64 140.436 105.645 140.441 105.705C140.436 105.632 140.432 105.559 140.435 105.487C140.437 105.456 140.462 105.349 140.435 105.462C140.445 105.424 140.451 105.384 140.462 105.346C140.524 105.103 140.384 104.817 140.127 104.758C139.878 104.702 139.602 104.834 139.537 105.092Z" fill="#222221"/>
<path d="M42.5664 103.303C46.0546 99.8835 49.7383 96.6343 52.7956 92.8104C53.5695 91.8425 54.3089 90.8459 54.987 89.8093C55.69 88.7307 56.2839 87.5986 56.8566 86.4474C57.4045 85.3459 57.9581 84.2539 58.6841 83.2536C59.3718 82.3067 60.1629 81.4418 60.9349 80.5618C62.5976 78.6661 64.5228 76.2243 63.4922 73.5574C63.3715 73.2443 63.0919 73.1431 62.7892 73.2729C62.4521 73.4142 62.1015 73.523 61.749 73.6127C61.1514 73.7636 61.4042 74.6837 62.0038 74.5329C62.4406 74.4222 62.8582 74.2714 63.2738 74.0976C63.0401 74.0022 62.8045 73.9067 62.5708 73.8132C63.4233 76.0182 61.8601 78.0475 60.4828 79.634C59.7147 80.5159 58.9274 81.3808 58.211 82.3067C57.4639 83.2746 56.8662 84.3093 56.3164 85.3994C55.7571 86.5104 55.2169 87.6311 54.5656 88.6944C53.9296 89.731 53.2208 90.7276 52.4757 91.6898C51.0218 93.5645 49.3993 95.3055 47.7212 96.9836C45.8094 98.8984 43.823 100.735 41.8921 102.629C41.4496 103.06 42.1258 103.734 42.5664 103.303Z" fill="#222221"/>
<path d="M61.8735 75.1765C61.7528 75.1632 61.8601 75.1823 61.885 75.1899C61.7432 75.1555 61.8965 75.2128 61.8314 75.167C61.7567 75.1135 61.8888 75.2548 61.7911 75.1231C61.8046 75.1422 61.862 75.2434 61.8007 75.125C61.8065 75.1365 61.8199 75.1746 61.8199 75.1918C61.8275 75.3159 61.818 75.083 61.8256 75.2147C61.8314 75.3006 61.8294 75.3865 61.8218 75.4724C61.8122 75.6194 61.8314 75.4209 61.818 75.5125C61.8122 75.5545 61.8046 75.5946 61.7969 75.6366C61.7796 75.7244 61.7605 75.8104 61.7375 75.8963C61.6839 76.1082 61.6149 76.3182 61.5402 76.5243C61.3065 77.1772 61 77.7977 60.6858 78.4468C59.3507 81.2035 57.8182 83.838 55.8969 86.232C54.0196 88.5725 51.968 90.7756 50.2995 93.2784C49.4739 94.5155 48.7747 95.8327 47.9261 97.0564C47.0756 98.284 45.9952 99.2862 44.957 100.35C44.4551 100.865 43.9666 101.4 43.5471 101.986C43.1333 102.566 42.7981 103.196 42.459 103.82C42.1296 104.431 41.7962 105.042 41.3806 105.6C41.0032 106.107 40.5281 106.533 40.0531 106.949C39.5665 107.377 39.0685 107.799 38.6528 108.299C38.3137 108.708 38.0762 109.154 37.808 109.609C37.6969 109.799 37.5781 109.987 37.4191 110.141C37.3099 110.246 37.1969 110.307 37.0935 110.292C36.8291 110.254 36.5667 110.03 36.3502 109.887C36.0437 109.685 35.7487 109.465 35.4442 109.261C34.8197 108.843 34.155 108.49 33.5324 108.068C32.9098 107.646 32.3083 107.194 31.7222 106.722C30.5824 105.804 29.4656 104.895 28.2224 104.112C27.0003 103.343 25.7321 102.652 24.4774 101.936C23.1729 101.191 21.9067 100.392 20.6578 99.5554C18.0123 97.78 15.4416 95.8938 12.7445 94.1947C11.4668 93.391 10.1527 92.6159 8.99374 91.6442C7.93443 90.7565 7.05326 89.716 6.24871 88.5992C5.82537 88.0093 5.37903 87.4347 4.83692 86.9479C4.64345 87.198 4.44997 87.4481 4.2565 87.6982C5.28517 88.4465 6.18166 89.3552 7.09923 90.2315C8.0168 91.1058 9.00524 91.8981 10.0033 92.6808C10.9898 93.454 11.9859 94.2138 12.9494 95.0156C13.4456 95.4299 13.934 95.8556 14.4053 96.2966C14.8593 96.7223 15.2654 97.213 15.7538 97.5986C16.2538 97.9938 16.8419 98.2782 17.294 98.7288C17.5162 98.9502 17.7307 99.1889 17.9644 99.397C18.2173 99.6222 18.5027 99.8208 18.769 100.031C19.7919 100.834 20.8206 101.632 21.8607 102.413C23.9008 103.942 25.9984 105.399 28.1956 106.699C30.7816 108.23 33.4021 109.714 36.0916 111.056C36.287 111.153 36.5111 111.136 36.6721 110.981C36.9038 110.76 37.1739 110.586 37.4172 110.376C37.6816 110.149 37.8137 109.82 37.9727 109.517C38.2735 108.942 38.5666 108.366 38.8807 107.799C39.5071 106.663 40.2178 105.58 41.1718 104.691C41.6219 104.271 40.9438 103.597 40.4936 104.015C39.5301 104.914 38.7869 106.008 38.1451 107.15C37.8348 107.701 37.5456 108.265 37.2544 108.826C37.1146 109.093 36.992 109.456 36.7774 109.668C36.538 109.903 36.2391 110.072 35.9958 110.305C36.1893 110.281 36.3828 110.256 36.5763 110.231C34.1933 109.042 31.8697 107.738 29.5691 106.394C27.3336 105.088 25.1766 103.677 23.0905 102.142C22.058 101.382 21.0428 100.603 20.0333 99.815C19.518 99.4141 18.9548 99.0342 18.4931 98.5741C18.2709 98.3527 18.0526 98.1217 17.8227 97.906C17.5717 97.6731 17.2748 97.4898 16.9894 97.3027C16.7614 97.1538 16.5297 97.0087 16.3209 96.835C16.0623 96.6212 15.842 96.3596 15.6025 96.1229C15.1543 95.6781 14.6869 95.2505 14.2099 94.8362C13.2636 94.0153 12.2732 93.2459 11.2829 92.4766C10.1661 91.606 9.03397 90.7431 8.00339 89.7714C6.94407 88.773 5.92306 87.7363 4.74306 86.8753C4.30439 86.5565 3.76228 87.2648 4.16264 87.6256C4.74881 88.1525 5.19897 88.7787 5.65871 89.4125C6.07631 89.989 6.52264 90.5484 7.00537 91.0715C8.03595 92.1864 9.24852 93.0894 10.5166 93.916C11.8403 94.7789 13.185 95.5998 14.4953 96.4837C15.8764 97.4172 17.2403 98.3756 18.6138 99.3187C19.9528 100.241 21.2976 101.163 22.6921 102.001C23.9583 102.763 25.2609 103.461 26.5348 104.208C27.8278 104.966 29.0959 105.773 30.2472 106.737C31.4272 107.726 32.6436 108.679 33.9634 109.479C34.6128 109.872 35.2334 110.292 35.8675 110.71C36.3675 111.04 36.9345 111.399 37.5513 111.17C38.0494 110.985 38.3769 110.529 38.6374 110.09C38.9248 109.603 39.1738 109.128 39.5646 108.709C40.4745 107.732 41.5779 106.995 42.3498 105.884C43.1774 104.695 43.685 103.303 44.5987 102.171C45.57 100.966 46.7787 99.9773 47.7844 98.8013C48.7613 97.6597 49.5161 96.3596 50.2919 95.0805C51.1098 93.7308 52.0159 92.4422 53.0024 91.2089C53.9641 90.0081 54.9755 88.8512 55.9543 87.6638C56.9313 86.4802 57.8833 85.2679 58.7205 83.9793C59.6093 82.6124 60.387 81.1672 61.1207 79.7144C61.523 78.9164 61.9233 78.1108 62.2643 77.2842C62.5516 76.5873 62.9482 75.6653 62.7298 74.8997C62.611 74.4835 62.2834 74.2659 61.8678 74.2182C61.6111 74.1876 61.3889 74.4587 61.3889 74.6955C61.3946 74.9818 61.6168 75.146 61.8735 75.1765Z" fill="#222221"/>
<path d="M28.2875 97.249C28.2914 97.2719 28.3086 97.396 28.2952 97.2738C28.299 97.312 28.3029 97.3502 28.3048 97.3884C28.3086 97.4667 28.3086 97.543 28.3048 97.6213C28.3029 97.6595 28.2741 97.8847 28.2933 97.7702C28.278 97.8637 28.2607 97.9573 28.2416 98.0489C28.1688 98.383 28.0615 98.7095 27.9734 99.0416C27.7895 99.7289 27.686 100.481 28.1688 101.073C28.4331 101.397 28.8277 101.588 29.2185 101.714C29.7032 101.871 30.2184 101.947 30.7242 101.873C31.5651 101.749 32.2662 101.17 32.6915 100.456C33.1359 99.7117 33.3025 98.8164 33.155 97.9649C33.088 97.5812 32.9367 97.1975 32.7087 96.8787C32.4693 96.5427 32.1455 96.3288 31.7682 96.1742C30.9943 95.8592 30.1035 95.8172 29.2856 95.9394C28.9197 95.9929 28.5442 96.0959 28.2243 96.2849C27.8604 96.5007 27.6496 96.8099 27.5213 97.2089C27.1822 98.2608 27.709 99.3166 28.4829 100.023C29.2434 100.72 30.2261 101.208 31.2548 101.336C31.5115 101.369 31.7337 101.094 31.7337 100.859C31.7337 100.575 31.5134 100.414 31.2548 100.382C31.3659 100.395 31.2203 100.376 31.2069 100.372C31.1609 100.365 31.1169 100.355 31.0728 100.346C30.9943 100.328 30.9176 100.309 30.841 100.286C30.6686 100.237 30.4694 100.164 30.3583 100.113C30.0231 99.9599 29.6457 99.7423 29.389 99.5418C29.0806 99.2994 28.8105 99.0187 28.6304 98.7228C28.4561 98.4346 28.3661 98.1558 28.3756 97.8408C28.3776 97.8084 28.3795 97.774 28.3814 97.7416C28.3948 97.585 28.3603 97.8237 28.3929 97.6671C28.412 97.5812 28.435 97.4953 28.4638 97.4113C28.4829 97.3559 28.5136 97.3139 28.5442 97.2414C28.5557 97.2147 28.6036 97.1822 28.5231 97.2643C28.5519 97.2357 28.5844 97.2051 28.6113 97.1746C28.6592 97.1173 28.6074 97.1746 28.5921 97.186C28.6208 97.165 28.6477 97.1459 28.6783 97.1268C28.73 97.0944 28.7856 97.0677 28.8392 97.039C28.9522 96.9818 28.7454 97.0715 28.868 97.0257C28.9063 97.0104 28.9446 96.997 28.9829 96.9856C29.0633 96.9588 29.1476 96.9359 29.23 96.9168C29.8085 96.7813 30.5403 96.8004 31.1437 96.9665C31.2145 96.9856 31.2854 97.0085 31.3563 97.0333C31.3965 97.0467 31.4368 97.0619 31.477 97.0791C31.3774 97.039 31.5019 97.0925 31.5134 97.0982C31.5708 97.1288 31.6302 97.1574 31.6858 97.1937C31.7126 97.2108 31.7375 97.228 31.7643 97.2452C31.7931 97.2662 31.7854 97.2586 31.7394 97.2261C31.7586 97.2414 31.7758 97.2567 31.7931 97.2719C31.8333 97.312 31.8735 97.3502 31.9099 97.3941C31.8371 97.3044 31.9271 97.4266 31.9348 97.438C31.9597 97.4762 31.9846 97.5163 32.0076 97.5564C32.1072 97.7339 32.1149 97.7549 32.1704 97.9497C32.1934 98.0317 32.2107 98.1138 32.2279 98.1959C32.2317 98.2169 32.247 98.3181 32.2356 98.2284C32.2413 98.2742 32.2451 98.32 32.249 98.3677C32.2605 98.5396 32.2566 98.7114 32.2413 98.8832C32.226 99.0359 32.2585 98.7916 32.2336 98.9443C32.2279 98.9825 32.2202 99.0226 32.2126 99.0607C32.1953 99.1466 32.1762 99.2306 32.1513 99.3146C32.1015 99.4903 32.0478 99.6277 31.9999 99.7308C31.9252 99.8855 31.839 100.034 31.7394 100.174C31.7452 100.166 31.6551 100.286 31.6934 100.237C31.7318 100.187 31.636 100.304 31.6436 100.296C31.5843 100.365 31.521 100.431 31.454 100.493C31.2567 100.678 30.9885 100.836 30.7165 100.907C30.6782 100.916 30.4713 100.953 30.5498 100.945C30.4713 100.955 30.3928 100.958 30.3142 100.956C30.0748 100.955 29.9828 100.93 29.7319 100.871C29.5729 100.832 29.3258 100.752 29.2511 100.714C29.184 100.68 29.1208 100.643 29.0557 100.605C29.0404 100.596 28.9369 100.514 29.0231 100.584C28.9848 100.552 28.9503 100.517 28.9139 100.483C28.8967 100.468 28.8814 100.447 28.866 100.43C28.9484 100.523 28.8584 100.412 28.8431 100.386C28.8316 100.367 28.8239 100.346 28.8124 100.326C28.7741 100.265 28.8296 100.412 28.8009 100.288C28.7913 100.244 28.7664 100.053 28.7741 100.189C28.7703 100.12 28.7645 100.053 28.7664 99.9847C28.7664 99.9504 28.7703 99.9141 28.7722 99.8797C28.7741 99.8664 28.7913 99.7251 28.7798 99.7995C28.7683 99.8797 28.7875 99.7575 28.7894 99.7537C28.799 99.7041 28.8086 99.6545 28.8181 99.6048C28.8526 99.4502 28.8929 99.2956 28.9369 99.1428C29.1342 98.4422 29.3545 97.7339 29.2108 96.9989C29.161 96.745 28.8584 96.6018 28.6208 96.6648C28.3565 96.7336 28.2377 96.9951 28.2875 97.249Z" fill="#222221"/>
<path d="M21.039 91.2756C20.654 90.6513 20.0697 90.3668 19.3418 90.4814C19.1866 90.5062 19.041 90.6685 19.0066 90.8155C18.7556 91.9075 18.6024 93.282 19.1636 94.3072C19.6521 95.2025 20.8704 95.6588 21.8263 95.7943C22.3857 95.8745 22.9622 95.8669 23.4795 95.6168C23.92 95.403 24.1959 94.983 24.2821 94.5114C24.4641 93.5111 24.1901 92.3294 23.694 91.4493C23.3875 90.909 22.8684 90.5253 22.2516 90.4203C21.5581 90.3019 20.8551 90.4184 20.1578 90.4184C20.1578 90.7372 20.1578 91.0541 20.1578 91.3729C20.7555 91.3557 21.3282 91.4302 21.9087 91.5734C22.4795 91.7146 23.0427 91.8788 23.6231 91.9762C23.8779 92.0182 24.1384 91.9094 24.2131 91.6421C24.2763 91.413 24.1346 91.098 23.8779 91.0541C23.2764 90.9548 22.6941 90.7811 22.1021 90.636C21.4643 90.4814 20.8149 90.3955 20.1578 90.4165C19.5429 90.4356 19.5391 91.371 20.1578 91.371C20.6961 91.371 21.2363 91.3004 21.7746 91.3214C22.1654 91.3366 22.5178 91.455 22.7515 91.7471C22.8109 91.8215 22.9163 92.0182 22.9776 92.148C22.9871 92.1671 22.9967 92.1881 23.0044 92.2091C23.0006 92.1995 22.9795 92.148 23.0006 92.2015C23.0216 92.253 23.0427 92.3045 23.0619 92.358C23.1002 92.4611 23.1346 92.5642 23.1653 92.6692C23.3032 93.1216 23.376 93.4882 23.376 93.9368C23.376 94.0342 23.3722 94.1296 23.3607 94.2251C23.3549 94.2823 23.3607 94.2213 23.3626 94.2117C23.3588 94.2346 23.3549 94.2556 23.3511 94.2785C23.3415 94.3282 23.33 94.3778 23.3166 94.4255C23.3109 94.4427 23.2649 94.5706 23.286 94.5229C23.3071 94.4752 23.2592 94.5725 23.2496 94.5878C23.24 94.605 23.1749 94.689 23.2113 94.647C23.2477 94.605 23.1595 94.6928 23.1442 94.7081C23.2189 94.6413 22.9852 94.7978 23.014 94.7844C23.0504 94.7673 22.9488 94.8073 22.9278 94.815C22.878 94.8303 22.8262 94.8436 22.7745 94.8551C22.7515 94.8608 22.6404 94.8799 22.7171 94.8684C22.6615 94.8761 22.604 94.8799 22.5466 94.8837C22.4374 94.8894 22.3263 94.8875 22.2171 94.8818C22.0025 94.8684 21.8455 94.8398 21.6041 94.7787C21.4087 94.7291 21.1329 94.6374 21.0007 94.5802C20.8072 94.4981 20.6214 94.3988 20.4452 94.2843C20.3992 94.2556 20.3551 94.2251 20.3111 94.1926C20.3705 94.2365 20.29 94.1754 20.2708 94.1583C20.2057 94.1029 20.1444 94.0418 20.0869 93.9769C20.0544 93.9406 20.0927 93.9864 20.0965 93.9922C20.0716 93.9597 20.0506 93.9253 20.0276 93.8891C19.9969 93.8394 19.9682 93.786 19.9433 93.7325C19.9605 93.7707 19.9107 93.6504 19.9031 93.6275C19.882 93.5664 19.8647 93.5054 19.8494 93.4443C19.7805 93.177 19.7613 92.9555 19.7556 92.6711C19.7441 92.1041 19.8054 91.6058 19.928 91.0675C19.8169 91.1782 19.7057 91.2889 19.5927 91.4016C19.7057 91.3844 19.8322 91.4092 19.905 91.4436C20.0257 91.5027 20.1233 91.6211 20.2076 91.7566C20.5333 92.2797 21.3627 91.8005 21.039 91.2756Z" fill="#222221"/>
</g>
<defs>
<clipPath id="clip0_10103_4048">
<rect width="180" height="180" fill="white" transform="translate(0 0.265625)"/>
</clipPath>
</defs>
</svg>
