<svg width="160" height="105" viewBox="0 0 160 105" fill="none" xmlns="http://www.w3.org/2000/svg">
<g clip-path="url(#clip0_10103_4160)">
<path d="M53.5688 103.323C60.9159 103.684 135.577 103.2 138.383 103.341C123.204 80.8379 108.298 57.4637 92.7363 34.917C77.7293 56.7154 64.3169 79.3677 53.5688 103.323Z" fill="white"/>
<path d="M72.865 104.221C63.0958 104.221 55.6277 104.186 53.5184 104.08C53.2359 104.063 52.9836 103.94 52.8322 103.728C52.6808 103.526 52.6505 103.27 52.7514 103.042C62.7325 80.7942 75.5596 58.3796 91.9794 34.5211C92.1409 34.2922 92.4235 34.1514 92.7262 34.1514C93.029 34.1514 93.3116 34.2922 93.473 34.5211C102.627 47.7797 111.679 61.5138 120.429 74.7988C126.545 84.0781 132.873 93.6743 139.12 102.945C139.281 103.182 139.281 103.491 139.109 103.728C138.938 103.966 138.645 104.107 138.312 104.089C137.263 104.036 125.303 104.08 111.447 104.124C98.6906 104.177 84.2287 104.221 72.865 104.221ZM54.8304 102.601C62.127 102.769 90.4353 102.681 111.467 102.61C123.285 102.575 133.064 102.54 136.849 102.557C130.844 93.639 124.789 84.4566 118.935 75.5647C110.428 62.6495 101.627 49.3028 92.7464 36.3964C76.9725 59.4184 64.5592 81.1024 54.8304 102.601Z" fill="black"/>
<path d="M92.7365 34.917C86.4491 43.0253 80.737 53.5812 77.457 58.3881C80.2424 58.9251 82.8664 56.0815 85.6821 56.4688C87.2363 56.6889 87.8822 59.1364 91.9291 59.1364C97.066 59.1364 97.2173 57.0675 99.7404 56.416C102.829 55.6149 105.362 57.0059 108.399 57.9303C102.99 49.2057 98.1458 41.7048 92.7365 34.917Z" fill="white"/>
<path d="M91.939 59.9026C89.0022 59.9026 87.5692 58.7053 86.6205 57.913C86.2067 57.5696 85.8434 57.2615 85.5507 57.2263C84.4507 57.0766 83.2699 57.5872 82.0286 58.1331C80.535 58.7846 78.9909 59.4625 77.2752 59.1367C77.0027 59.0839 76.7706 58.9166 76.6596 58.6965C76.5486 58.4676 76.5688 58.2123 76.7101 58.001C77.8101 56.3811 79.2028 54.1009 80.8075 51.4597C83.936 46.3007 87.8416 39.8827 92.0097 34.4947C92.1712 34.2834 92.4436 34.1602 92.7262 34.1602C92.9987 34.1602 93.2813 34.2834 93.4529 34.4859C98.7007 41.0712 103.363 48.2023 109.186 57.5784C109.358 57.8513 109.318 58.1947 109.085 58.4324C108.853 58.6701 108.47 58.7581 108.137 58.6613C107.481 58.4588 106.845 58.2387 106.24 58.0274C104.05 57.2615 102.162 56.6012 100.023 57.1558C99.2861 57.3495 98.7714 57.7017 98.186 58.1067C96.9952 58.899 95.552 59.9026 91.939 59.9026ZM85.137 55.668C85.3691 55.668 85.6012 55.6856 85.8333 55.712C86.6609 55.8265 87.2361 56.3019 87.8316 56.8037C88.7096 57.5344 89.7087 58.3708 91.939 58.3708C94.9364 58.3708 95.9759 57.6577 97.086 56.8917C97.7521 56.4339 98.4484 55.9497 99.5081 55.6768C102.092 55.0077 104.342 55.712 106.512 56.4691C101.496 48.4488 97.308 42.1012 92.7464 36.2643C88.8912 41.3793 85.2883 47.3219 82.3516 52.1552C81.09 54.233 79.9597 56.0906 78.9909 57.5872C79.7175 57.4288 80.4643 57.103 81.2414 56.7597C82.4827 56.2226 83.7443 55.668 85.137 55.668Z" fill="black"/>
<path d="M11.5552 103.323C11.5552 103.323 66.002 103.261 73.8738 103.261C64.902 87.2648 55.6273 70.335 44.3646 54.6113C32.5669 70.9249 23.1409 87.3001 11.5552 103.323Z" fill="#ACD4F7"/>
<path d="M11.5553 104.089C11.2425 104.089 10.9498 103.94 10.7883 103.693C10.6369 103.447 10.647 103.156 10.8186 102.918C16.5711 94.9597 21.8997 86.7457 27.0568 78.8046C32.2845 70.7403 37.6938 62.4119 43.628 54.1979C43.7895 53.9778 44.0619 53.8457 44.3647 53.8457C44.6675 53.8457 44.94 53.9778 45.1014 54.2067C55.5266 68.7594 64.1957 84.2542 72.5822 99.2384L74.6511 102.927C74.7823 103.165 74.7621 103.438 74.6107 103.667C74.4492 103.887 74.1666 104.028 73.874 104.028C66.093 104.028 12.1003 104.089 11.5553 104.089ZM44.3546 56.0467C38.7333 63.8909 33.5662 71.8496 28.5706 79.5618C23.6557 87.1331 18.5895 94.9421 13.1297 102.566C21.6777 102.557 62.2782 102.513 72.4712 102.505L71.0179 99.9075C62.8433 85.3107 54.4063 70.2385 44.3546 56.0467Z" fill="black"/>
<path d="M94.0784 2.65137C93.8059 8.80526 93.5435 14.9592 93.3618 21.3067C104.726 19.3171 116.079 17.3274 127.443 15.3377C116.957 10.8918 106.27 6.79799 94.0784 2.65137Z" fill="white"/>
<path d="M93.3619 22.0636C93.1601 22.0636 92.9582 22.002 92.7967 21.8876C92.5949 21.7379 92.4839 21.5178 92.4839 21.2889C92.6655 14.8973 92.938 8.65537 93.2004 2.61592C93.2105 2.36941 93.3619 2.14051 93.594 2.00845C93.8261 1.8764 94.1289 1.84998 94.3913 1.93802C106.29 5.9878 116.917 10.0288 127.816 14.6596C128.149 14.8005 128.351 15.1174 128.301 15.4431C128.25 15.7689 127.978 16.0242 127.604 16.0946L93.5234 22.0636C93.4729 22.0636 93.4124 22.0636 93.3619 22.0636ZM94.906 3.74281C94.6739 9.13958 94.4317 14.6948 94.2601 20.3645L124.718 15.0294C115.02 10.9796 105.452 7.3612 94.906 3.74281Z" fill="black"/>
<path d="M159.122 104.266L0.86792 103.94C0.383499 103.94 0 103.597 0 103.174C0 102.752 0.393592 102.417 0.86792 102.417L159.122 102.743C159.606 102.743 159.99 103.086 159.99 103.509C159.99 103.931 159.606 104.266 159.122 104.266Z" fill="black"/>
<path d="M92.7059 35.7097C92.6958 35.7097 92.6857 35.7097 92.6756 35.7097C92.1912 35.692 91.8177 35.3399 91.8278 34.9261L93.1297 1.00484C93.1499 0.582252 93.5637 0.247705 94.038 0.265313C94.5224 0.282921 94.8958 0.635075 94.8857 1.04886L93.5839 34.9701C93.5637 35.3839 93.1802 35.7097 92.7059 35.7097Z" fill="black"/>
<path d="M54.5077 69.8327C53.2765 70.5194 50.9048 71.3646 49.5222 70.9861C47.857 70.5282 46.7671 68.5914 45.0413 68.7851C43.6385 68.9436 42.8917 70.449 41.5697 70.898C39.2687 71.6728 36.786 68.9259 34.5355 69.8151C33.7584 70.1233 33.2437 70.8012 32.9409 71.4615C36.7456 65.959 40.5604 60.4478 44.5165 54.8838C48.0891 59.6115 51.4498 64.5504 54.5077 69.8327Z" fill="white"/>
<path d="M32.9508 72.2189C32.8196 72.2189 32.6884 72.1925 32.5572 72.1397C32.1536 71.9636 31.9719 71.541 32.1334 71.1712C32.315 70.7751 32.5976 70.2997 33.0013 69.8947C36.4932 64.8501 40.096 59.6558 43.7797 54.4791C43.9411 54.259 44.2136 54.127 44.5063 54.1182C44.809 54.1358 45.0815 54.2414 45.243 54.4615C49.1083 59.603 52.3882 64.5155 55.2745 69.4985C55.4764 69.8507 55.3452 70.2733 54.9617 70.4845C53.6094 71.2417 50.9652 72.1925 49.2395 71.7171C48.3615 71.4794 47.655 70.9335 47.0293 70.4669C46.2219 69.8507 45.6871 69.4897 45.132 69.5513C44.6476 69.6042 44.2136 69.9827 43.709 70.4229C43.2044 70.8631 42.6292 71.3561 41.8622 71.6202C40.3786 72.1221 38.9556 71.541 37.6941 71.0392C36.5941 70.599 35.6555 70.2204 34.8784 70.5198C34.6968 70.5902 34.5353 70.7046 34.394 70.8279C34.1518 71.1712 33.9096 71.5234 33.6775 71.8668C33.5362 72.0868 33.2435 72.2189 32.9508 72.2189ZM45.2935 68.0019C46.4944 68.0019 47.3926 68.6886 48.2 69.3048C48.745 69.7186 49.2496 70.106 49.7845 70.2556C50.5716 70.4757 52.1157 70.0884 53.357 69.5337C50.7836 65.1494 47.8972 60.8003 44.5467 56.2927C41.5594 60.5098 38.6226 64.7356 35.7564 68.8734C36.7051 68.9263 37.6134 69.296 38.451 69.6306C39.4905 70.0444 40.4695 70.4405 41.2566 70.1764C41.6805 70.0355 42.0741 69.6922 42.498 69.3224C43.1338 68.7678 43.8604 68.1427 44.9302 68.0195C45.0513 68.0107 45.1724 68.0019 45.2935 68.0019Z" fill="black"/>
<path d="M68.4445 85.8743C68.4041 85.8743 68.3536 85.8655 68.3133 85.8479C68.172 85.7863 68.1114 85.6278 68.1922 85.5046C72.8143 77.766 77.3558 69.8249 81.6954 61.9278C81.766 61.8046 81.9376 61.7518 82.0789 61.8046C82.2202 61.8662 82.2807 62.0159 82.2202 62.1391C77.8806 70.045 73.3391 77.9861 68.717 85.7335C68.6463 85.8215 68.5454 85.8743 68.4445 85.8743Z" fill="black"/>
<path d="M72.9254 89.9419C72.885 89.9419 72.8446 89.9331 72.8043 89.9155C72.663 89.8539 72.5923 89.7042 72.663 89.581C77.5072 80.3281 82.7046 71.0664 88.1039 62.0425C88.1745 61.9192 88.3562 61.8752 88.4975 61.9368C88.6388 61.9985 88.6993 62.1569 88.6186 62.2802C83.2193 71.2865 78.032 80.5482 73.1878 89.7922C73.1373 89.8891 73.0364 89.9419 72.9254 89.9419Z" fill="black"/>
<path d="M76.6696 97.0818C76.6292 97.0818 76.5888 97.073 76.5485 97.0554C76.4072 96.9937 76.3466 96.8441 76.4072 96.7208C82.5936 85.4167 88.5984 73.8484 94.2298 62.3418C94.2904 62.2097 94.4619 62.1569 94.6133 62.2097C94.7647 62.2625 94.8252 62.4122 94.7647 62.5442C89.1232 74.0597 83.1285 85.6368 76.932 96.9497C76.8815 97.029 76.7806 97.0818 76.6696 97.0818Z" fill="black"/>
<path d="M82.523 100.268C82.4826 100.268 82.4422 100.259 82.4019 100.25C82.2505 100.198 82.1899 100.048 82.2505 99.9159L101.859 61.038C101.92 60.906 102.102 60.8532 102.243 60.906C102.394 60.9588 102.455 61.1085 102.394 61.2405L82.7854 100.118C82.7349 100.215 82.634 100.268 82.523 100.268Z" fill="black"/>
<path d="M92.4234 98.9388C92.3932 98.9388 92.3528 98.93 92.3225 98.9212C92.1711 98.8683 92.1005 98.7275 92.161 98.5954C96.8337 88.1012 101.688 77.519 106.603 67.1304C106.663 66.9984 106.835 66.9367 106.986 66.9896C107.138 67.0424 107.208 67.1921 107.148 67.3241C102.243 77.7039 97.3786 88.2861 92.7161 98.7803C92.6555 98.8771 92.5445 98.9388 92.4234 98.9388Z" fill="black"/>
<path d="M99.7907 99.1326C99.7604 99.1326 99.7301 99.1238 99.6998 99.115C99.5485 99.071 99.4677 98.9213 99.5182 98.7892C103.03 89.9502 106.946 81.1111 111.175 72.5185C111.235 72.3865 111.407 72.3336 111.558 72.3865C111.709 72.4393 111.77 72.5889 111.709 72.721C107.491 81.3048 103.575 90.135 100.073 98.9653C100.023 99.0621 99.9118 99.1326 99.7907 99.1326Z" fill="black"/>
<path d="M107.551 98.7983C107.521 98.7983 107.491 98.7895 107.461 98.7807C107.309 98.7367 107.228 98.587 107.279 98.4549L115.544 77.4401C115.595 77.3081 115.766 77.2376 115.918 77.2817C116.069 77.3257 116.15 77.4753 116.099 77.6074L107.834 98.6222C107.784 98.7279 107.673 98.7983 107.551 98.7983Z" fill="black"/>
<path d="M114.444 98.8774C114.414 98.8774 114.384 98.8774 114.353 98.8686C114.202 98.8246 114.121 98.6838 114.162 98.5517L119.208 84.9497C119.258 84.8177 119.42 84.7472 119.571 84.7825C119.722 84.8265 119.803 84.9673 119.763 85.0994L114.717 98.7014C114.686 98.807 114.575 98.8774 114.444 98.8774Z" fill="black"/>
<path d="M120.197 99.4494C120.166 99.4494 120.146 99.4494 120.116 99.4406C119.965 99.4054 119.874 99.2557 119.924 99.1237C120.913 96.2096 121.993 93.2867 123.133 90.4255C123.184 90.2934 123.355 90.223 123.507 90.267C123.658 90.311 123.739 90.4607 123.689 90.5927C122.548 93.4452 121.468 96.3593 120.489 99.2645C120.429 99.379 120.318 99.4494 120.197 99.4494Z" fill="black"/>
<path d="M126.514 99.4581C126.484 99.4581 126.444 99.4493 126.413 99.4405C126.262 99.3964 126.181 99.2468 126.242 99.1147L127.736 95.5491C127.796 95.4171 127.958 95.3467 128.109 95.3995C128.26 95.4435 128.341 95.5932 128.281 95.7252L126.787 99.2908C126.747 99.3876 126.635 99.4581 126.514 99.4581Z" fill="black"/>
<g opacity="0.1294">
<path d="M96.8033 4.15632C96.7629 2.16664 93.372 2.16664 93.3215 4.15632C93.6243 8.86638 92.8371 13.55 92.8472 18.2513C92.5242 19.9152 94.9766 20.822 96.0161 19.3606C96.3189 18.938 96.2482 18.4362 96.2482 17.9608C96.2381 16.8251 96.2482 15.6894 96.329 14.5537C96.662 11.0938 96.9143 7.62504 96.8033 4.15632Z" fill="black"/>
</g>
<g opacity="0.1294">
<path d="M137.111 100.736C136.98 100.577 136.677 100.216 136.546 100.075C136.475 99.996 136.425 99.9432 136.384 99.8991C134.79 97.9887 133.306 96.0078 131.984 93.9389C127.473 87.0807 122.225 80.6715 117.977 73.646C116.332 70.8816 114.777 68.0732 113.072 65.3264C113.001 65.0358 112.799 64.7629 112.618 64.4988C110.529 61.4351 108.833 58.1864 106.905 55.0435C104.675 51.293 102.172 47.6746 99.841 43.9682C99.4979 43.0438 98.519 42.9029 97.8529 43.2199C97.0556 41.8289 96.2482 40.4555 95.4409 39.0733C94.9867 38.2809 94.5225 37.4798 94.0986 36.6786C93.8968 36.3441 93.816 35.9215 93.4225 35.7014C92.3527 34.9178 90.7783 36.124 91.505 37.1716C92.8169 39.848 94.3913 42.4187 95.8345 45.0423C97.0152 47.3577 98.2566 49.6379 99.7502 51.8124C101.345 54.4272 102.919 57.0507 104.554 59.6391C104.574 59.6743 104.584 59.7007 104.604 59.7359C108.147 65.0623 110.882 70.7672 114.414 76.0847C118.31 81.8776 122.397 87.5649 126.686 93.1378C127.705 94.476 128.553 95.9022 129.542 97.2492C130.622 98.5962 131.682 99.9608 132.731 101.325C133.377 101.994 133.831 102.945 134.8 103.297C135.991 103.826 137.525 102.901 137.485 101.757C137.485 101.378 137.363 101.035 137.111 100.736Z" fill="black"/>
</g>
<g opacity="0.1294">
<path d="M74.8934 98.9474C72.3805 94.4662 69.8877 89.9763 67.5161 85.4335C67.072 84.5971 66.6179 83.7695 66.1738 82.9244C65.9922 82.581 65.8408 82.1937 65.4472 81.9912C64.1453 81.0315 62.0966 82.2465 62.5911 83.6639C63.1967 84.9317 63.7719 86.1378 64.3472 87.3351C64.2261 87.1238 64.1049 86.9125 63.9838 86.7012C61.6021 82.9596 59.1901 79.2356 57.0607 75.3795C55.4157 72.6415 53.5083 70.0355 51.833 67.3151C49.6934 63.2125 47.1704 59.5237 45.8282 56.1518C45.2226 54.3382 42.0638 55.0602 42.6088 56.9266C43.6281 59.691 45.1924 62.2617 46.5245 64.9117C47.998 68.0018 49.4008 70.6606 52.1055 75.0009C54.5477 79.3236 56.8992 83.6903 59.7553 87.8281C61.3397 90.2404 62.581 92.8111 63.9536 95.329C64.8921 96.8697 65.9821 98.3399 67.0216 99.8366C67.6069 100.647 68.3033 101.395 68.8684 102.214C69.151 102.531 69.3326 102.918 69.7262 103.138C70.2914 103.578 71.1997 103.596 71.8355 103.27C72.2291 103.05 72.4814 102.786 72.6227 102.487C72.6933 102.566 72.7539 102.654 72.8245 102.733C72.8548 102.759 72.8649 102.777 72.8851 102.803C72.9961 102.936 73.1172 103.059 73.2787 103.147C74.4796 104.071 76.5081 103.164 76.4678 101.791C76.4072 100.691 75.3173 99.9246 74.8934 98.9474Z" fill="black"/>
</g>
</g>
<defs>
<clipPath id="clip0_10103_4160">
<rect width="160" height="104" fill="white" transform="translate(0 0.265625)"/>
</clipPath>
</defs>
</svg>
