<svg version="1.2" xmlns="http://www.w3.org/2000/svg" viewBox="0 0 1332 996" width="1332" height="996">
	<title>FreeVector-Dotted-Map</title>
	<defs>
		<radialGradient id="g1" cx="0" cy="0" r="1" gradientUnits="userSpaceOnUse" gradientTransform="matrix(940.374,0,0,940.374,693.98,505.176)">
			<stop offset="0" stop-color="#ffffff"/>
			<stop offset="1" stop-color="#cccccc"/>
		</radialGradient>
	</defs>
		<style>

			.s3 { fill: #212121aa; } 
		</style>
		<g id="_Artboards_">
	</g>

	<g id="FreeVector.com License">
		<g id="&lt;Group&gt;">
			<g id="FreeVector.com Logo 20 ">
				<g id="FreeVector.com Logo 21 ">
					<path id="&lt;Path&gt;" class="s1" d="m256.9 1015.1c-0.1-1.7-1.6-2.9-3.3-2.9-3.7 0-4.3 3.1-4.3 5.9 0 2.7 1.2 5.3 4 5.3 2.3 0 3.4-1.3 3.8-3.4h6.4c-0.6 5.4-4.8 8.5-10.2 8.5-6.1 0-10.6-4.2-10.6-10.4 0-6.4 4.1-11 10.6-11 5 0 9.5 2.7 10 8z"/>
					<path id="&lt;Path&gt;" class="s1" d="m274.1 1007.3c-6.3 0-10.6 4.6-10.6 10.6 0 6.1 4.3 10.7 10.6 10.7 6.2 0 10.6-4.6 10.6-10.7 0-6-4.4-10.6-10.6-10.6z"/>
					<path id="&lt;Path&gt;" class="s1" d="m239.4 1022.3c-1.7 0-2.9 1.2-2.9 2.9 0 1.7 1.2 2.9 2.9 2.9 1.7 0 2.9-1.2 2.9-2.9 0-1.7-1.2-2.9-2.9-2.9z"/>
					<path id="&lt;Compound Path&gt;" class="s1" d="m285.2 1008.5h6.3v2.8c1.2-2 3.3-3.3 5.7-3.3 2.5 0 4.7 0.8 5.8 3.2 1.5-2.1 3.5-3.2 6.1-3.2 6.3 0 7 4.7 7 8.5v11.8h-6.5v-11.6c0-2.1-1-3.4-2.7-3.4-2.8 0-3 2.1-3 5.3v9.7h-6.5v-11.2c0-2.4-0.7-3.8-2.4-3.8-2.4 0-3.3 1.3-3.3 5.4v9.6h-6.5z"/>
					<path id="&lt;Path&gt;" class="s1" d="m153.7 1028.1h-7.3l-6.5-19.5h6.6l3.6 12.9h0.1l3.6-12.9h6.5z"/>
					<path id="&lt;Path&gt;" class="s1" d="m163.8 1019.9c0.1 2.7 1.6 4.4 4.3 4.4 1.6 0 3.1-0.7 3.7-2.1h6c-1.2 4.5-5.4 6.5-9.7 6.5-6.4 0-10.7-3.9-10.7-10.4 0-6 4.8-10.3 10.5-10.3 7 0 10.5 5.3 10.2 11.9z"/>
					<path id="&lt;Path&gt;" class="s1" d="m191.8 1015.7c0-1.6-1.5-2.8-3.1-2.8-3.6 0-4.2 3-4.2 5.7 0 2.6 1.1 5.2 3.8 5.2 2.3 0 3.4-1.3 3.7-3.4h6.2c-0.6 5.2-4.6 8.3-9.8 8.3-5.9 0-10.3-4.1-10.3-10.1 0-6.2 4-10.6 10.3-10.6 4.8 0 9.1 2.6 9.6 7.7z"/>
					<path id="&lt;Path&gt;" class="s1" d="m210.3 1012.7h-3.9v8.9c0 1.5 0.9 1.9 2.3 1.9 0.5 0 1.1-0.1 1.6-0.1v4.7c-1.1 0-2.3 0.2-3.5 0.2-5.4 0-6.8-1.6-6.8-6.9v-8.7h-3.2v-4.1h3.2v-5.9h6.4v5.9h3.9z"/>
					<path id="&lt;Path&gt;" class="s1" d="m219.1 1008c-6 0-10.3 4.5-10.3 10.3 0 5.9 4.3 10.4 10.3 10.4 6.1 0 10.3-4.5 10.3-10.4 0-5.8-4.2-10.3-10.3-10.3z"/>
					<path id="&lt;Path&gt;" class="s1" d="m229 1008.6h6.2v3.4h0.1c0.9-2.5 3.1-3.8 5.8-3.8 0.5 0 1.1 0 1.5 0.1v5.9c-0.8-0.3-1.5-0.4-2.4-0.4-3.2 0-4.8 2.2-4.8 4.6v9.7h-6.4z"/>
					<path id="&lt;Path&gt;" class="s1" d="m89.6 1008.6h6.2v3.4h0.1c1-2.5 3.1-3.8 5.9-3.8 0.5 0 1 0 1.5 0.1v5.9c-0.8-0.3-1.6-0.4-2.5-0.4-3.1 0-4.8 2.2-4.8 4.6v9.7h-6.4z"/>
					<path id="&lt;Path&gt;" class="s1" d="m107.4 1019.9c0.1 2.7 1.6 4.4 4.4 4.4 1.5 0 3-0.7 3.6-2.1h6c-1.2 4.5-5.4 6.5-9.7 6.5-6.4 0-10.7-3.9-10.7-10.4 0-6 4.8-10.3 10.5-10.3 7 0 10.5 5.3 10.2 11.9z"/>
					<path id="&lt;Path&gt;" class="s1" d="m127.6 1019.9c0.1 2.7 1.6 4.4 4.3 4.4 1.6 0 3.1-0.7 3.7-2.1h6c-1.2 4.5-5.4 6.5-9.8 6.5-6.3 0-10.6-3.9-10.6-10.4 0-6 4.7-10.3 10.5-10.3 7 0 10.5 5.3 10.2 11.9z"/>
					<path id="&lt;Path&gt;" class="s1" d="m88.5 1005.7q0.8 0 1.7 0.2v-4.6c-1 0-2.1-0.1-3.1-0.1-5.4 0-7.4 1.8-7.4 7.4h-3.1v4.1h3.1v15.4h6.4v-15.4h3.8v-4.1h-3.8v-0.9c0-1.8 0.9-2 2.4-2z"/>
				</g>
				<g id="FreeVector Icon 3 ">
					<path id="&lt;Path&gt;" class="s2" d="m70.3 1014.8c0 7.9-6.4 14.4-14.4 14.4-8 0-14.4-6.5-14.4-14.4 0-8 6.4-14.5 14.4-14.5 8 0 14.4 6.5 14.4 14.5z"/>
					<g id="&lt;Group&gt;">
						<path id="&lt;Compound Path&gt;" fill-rule="evenodd" class="s1" d="m62.9 1002q-0.1 0-0.1 0c-1-0.1-1.5 0.6-2 2.2l-2.7 9.1c0.4-0.1 0.8 0 0.9 0 0.4 0.2 0.4 0.7 0.4 1.8 0 0.7 0 1.5 0.2 2.6 0.1 1.2 0.5 2.1 0.9 2.7 0.4 0.6 0.7 0.8 0.7 0.9-0.1 0.1-0.4-0.1-0.8-0.6-0.5-0.6-1.1-1.7-1.2-3-0.1-1.1-0.1-1.9-0.2-2.6 0-0.6 0-1.3-0.1-1.4-0.3-0.1-1.8-0.1-2.3 1-0.7 1.4-0.6 2.1-0.3 4 0.2 1.3 0.4 2 0.6 2.4 0.1 0.3 0.1 0.5 0 0.7q0 0 0 0c-0.5 0.7-0.9 1.3-1.2 2.1-0.3 0.6-0.4 1.4-0.5 2.3 0 0.3 0 0.7-0.1 0.7-0.1 0-0.1-0.4-0.1-0.7 0-0.8 0.2-1.7 0.4-2.4 0.3-0.9 0.8-1.7 1.2-2.2q0 0 0 0c0-0.1 0-0.2-0.1-0.4-0.1-0.4-0.4-1.1-0.6-2.4q-0.1-0.8-0.2-1.4c-0.2 0.4-0.5 0.7-1.1 0.9-0.6 0.2-1.2-0.1-1.8-0.4q0.2 0.7-0.1 1.5-0.2 0.5-1 0.7c-0.6 0.1-1.4 0-1.7-0.3-0.8-0.8-2.5-2.1-2.5-2.6 0-0.1 2.3 1.9 2.7 2.3 0.2 0.2 0.9 0.3 1.5 0.2 0.2-0.1 0.5-0.2 0.6-0.5q0.5-1-0.1-1.7c-0.2-0.3-1.9-2-2.7-2.9-0.1-0.2-0.5-0.4-0.9-0.3-0.3 0.1-0.7 0.4-1 0.8-0.7 0.9-0.9 1.3-0.4 3.3 0.3 1.5 0.4 3.2 0.9 5.8 0.2 1.7 0.8 2.8 1.3 3.5-4.9-2.3-8.2-7.3-8.2-13 0-6.2 4-11.6 9.7-13.6-0.6 0.5-0.7 1.5-0.4 2.5 0 0 1.5 5.8 1.7 6.7 0.3 0.8 0.4 1.7 0.4 1.7 1.1 1.3 2.7 3.4 3.1 4.1 0.1-0.5 0.2-1 0.5-1.5q0.3-0.5 0.6-0.7c0 0-0.4-1.1-0.7-2.2-0.3-1-3.1-9.9-3.1-9.9q-0.2-1-0.9-1 1.8-0.5 3.8-0.5c2.5 0 4.9 0.6 7 1.7zm-7.4 14.4c-0.1-0.4-1.8-2.4-3.3-4.2-0.4-0.4-0.9-0.4-1.3-0.3-1.3 0.5-1.7 1.7-1.2 2.4 0.3 0.2 2.4 2.5 2.7 2.9 0.5 0.3 1.4 1 2.1 0.7 0.8-0.3 1.2-0.8 1-1.5zm5.4 4.9q0 0 0 0zm0 0q0 0 0 0 0 0 0 0z"/>
						<path id="&lt;Path&gt;" class="s1" d="m63.6 1002.5c0.4 0.4 0.5 0.9 0.4 1.4l-2.4 10.8c-0.2 0.8-0.4 2.6-0.2 3.8 0.3 1.6 0.9 3.8 0.5 6.2-0.3 1.3-0.7 2.7-1.3 3.7 5.8-1.9 9.9-7.3 9.9-13.7 0-5.1-2.7-9.6-6.9-12.2z"/>
					</g>
				</g>
			</g>
			<g id="Legal Line">
				<g id="&lt;Group&gt;">
					<path id="&lt;Compound Path&gt;" class="s1" d="m345 1009h4.9v19.2h-4.9z"/>
					<path id="&lt;Compound Path&gt;" class="s1" d="m353.2 1014.2h4.5v2c0.8-1.4 2.3-2.4 4-2.4 1.8 0 3.3 0.6 4.1 2.3 1.1-1.5 2.4-2.3 4.3-2.3 4.4 0 4.9 3.4 4.9 6.1v8.3h-4.5v-8.2c0-1.5-0.8-2.4-1.9-2.4-2 0-2.2 1.5-2.2 3.8v6.8h-4.6v-7.9c0-1.7-0.4-2.7-1.7-2.7-1.6 0-2.3 0.9-2.3 3.8v6.8h-4.6z"/>
					<path id="&lt;Compound Path&gt;" fill-rule="evenodd" class="s1" d="m377.9 1018.5c0.1-1.8 0.9-3 2.2-3.7 1.2-0.7 2.8-1 4.4-1 3.3 0 6.5 0.8 6.5 4.7v6.1c0 1.2 0 2.5 0.5 3.6h-4.6c-0.1-0.4-0.2-0.9-0.2-1.3-1.2 1.2-3 1.7-4.6 1.7-2.7 0-4.8-1.4-4.8-4.2 0-4.6 5-4.2 8.1-4.9 0.8-0.1 1.2-0.4 1.2-1.3 0-1-1.2-1.4-2.2-1.4-1.2 0-2 0.6-2.2 1.7zm5.9 7.3c2.1 0 2.9-1.3 2.8-4.1-0.7 0.4-1.9 0.4-2.9 0.7-1 0.3-1.8 0.7-1.8 1.8 0 1.1 0.9 1.6 1.9 1.6z"/>
					<path id="&lt;Compound Path&gt;" fill-rule="evenodd" class="s1" d="m407.5 1026.5c0 2.3-0.4 6.6-7 6.6-3.2 0-6.3-0.8-6.8-4.5h4.5c0.2 0.6 0.4 1 0.8 1.2q0.6 0.3 1.7 0.3c2.2 0 2.4-1.5 2.4-3.2v-1.3h-0.1c-0.8 1.2-2.2 2-3.7 2-4.2 0-6.1-3-6.1-6.9 0-3.7 2.2-6.9 6.1-6.9q2.5 0 3.8 2.2v-1.8h4.4zm-7.1-9.1c-2 0-2.6 1.8-2.6 3.5 0 1.6 0.7 3.3 2.6 3.3 1.9 0 2.8-1.5 2.8-3.3 0-1.8-0.7-3.5-2.8-3.5z"/>
					<path id="&lt;Compound Path&gt;" fill-rule="evenodd" class="s1" d="m414.3 1022.3c0.1 1.9 1.2 3.2 3.1 3.2 1.1 0 2.2-0.5 2.6-1.5h4.3c-0.8 3.2-3.8 4.6-6.9 4.6-4.6 0-7.7-2.8-7.7-7.4 0-4.3 3.4-7.4 7.6-7.4 4.9 0 7.4 3.8 7.2 8.5zm5.7-2.5c-0.1-1.6-1.2-2.9-2.7-2.9-1.6 0-2.7 1.2-3 2.9z"/>
					<path id="&lt;Compound Path&gt;" class="s1" d="m430.4 1023.6c0 0.7 0.2 1.2 0.7 1.5 0.4 0.4 1.1 0.5 1.7 0.5 0.9 0 2.1-0.3 2.1-1.4 0-1.1-1.4-1.3-2.2-1.5-2.9-0.7-6.5-0.8-6.5-4.6 0-3.3 3.7-4.3 6.4-4.3 3.1 0 6.3 0.9 6.4 4.6h-4.2c0-0.6-0.2-1-0.6-1.3-0.4-0.2-0.9-0.3-1.4-0.3-0.8 0-2 0.1-2 1 0 1.4 3.1 1.6 5.2 2.1 2.8 0.5 3.5 2.6 3.5 3.7 0 3.8-3.5 5-6.7 5-3.3 0-6.7-1.1-6.8-5z"/>
				</g>
				<g id="&lt;Group&gt;">
					<path id="&lt;Compound Path&gt;" fill-rule="evenodd" class="s1" d="m450 1018.5c0.1-1.8 0.9-3 2.2-3.7 1.2-0.7 2.8-1 4.4-1 3.3 0 6.5 0.8 6.5 4.7v6.1c0 1.2 0 2.5 0.5 3.6h-4.5c-0.2-0.4-0.3-0.9-0.3-1.3-1.2 1.2-2.9 1.7-4.6 1.7-2.7 0-4.8-1.4-4.8-4.2 0-4.6 5-4.2 8.2-4.9 0.7-0.1 1.2-0.4 1.2-1.3 0-1-1.3-1.4-2.2-1.4-1.3 0-2.1 0.6-2.3 1.7zm5.9 7.3c2.2 0 2.9-1.3 2.8-4.1-0.7 0.4-1.9 0.4-2.8 0.7-1.1 0.3-1.9 0.7-1.9 1.8 0 1.1 0.9 1.6 1.9 1.6z"/>
					<path id="&lt;Compound Path&gt;" class="s1" d="m466.3 1014.2h4.4v2.5h0.1c0.6-1.8 2.2-2.7 4.1-2.7q0.6 0 1.1 0.1v4.1c-0.6-0.1-1.1-0.2-1.7-0.2-2.3 0-3.5 1.5-3.5 3.3v6.9h-4.5z"/>
					<path id="&lt;Compound Path&gt;" fill-rule="evenodd" class="s1" d="m481 1022.3c0 1.9 1.1 3.2 3.1 3.2 1.1 0 2.1-0.5 2.6-1.5h4.2c-0.8 3.2-3.8 4.6-6.9 4.6-4.5 0-7.6-2.8-7.6-7.4 0-4.3 3.4-7.4 7.5-7.4 5 0 7.5 3.8 7.3 8.5zm5.7-2.5c-0.1-1.6-1.2-2.9-2.8-2.9-1.6 0-2.6 1.2-2.9 2.9z"/>
				</g>
				<g id="&lt;Group&gt;">
					<path id="&lt;Compound Path&gt;" fill-rule="evenodd" class="s1" d="m501.9 1014.2h4.4v1.7c0.9-1.4 2.3-2.1 3.9-2.1 4.3 0 6.2 3.8 6.2 7.7 0 3.6-1.9 7.1-5.9 7.1q-2.6 0-4-1.9v6.2h-4.6zm4.4 6.8c0 2.4 0.7 4 2.8 4 2 0 2.7-2.1 2.7-4 0-1.8-0.7-3.8-2.7-3.8-1.2 0-2.8 0.9-2.8 3.8z"/>
					<path id="&lt;Compound Path&gt;" class="s1" d="m519 1014.2h4.4v2.5h0.1c0.7-1.8 2.2-2.7 4.2-2.7q0.5 0 1 0.1v4.1c-0.5-0.1-1.1-0.2-1.7-0.2-2.3 0-3.4 1.5-3.4 3.3v6.9h-4.6z"/>
					<path id="&lt;Compound Path&gt;" fill-rule="evenodd" class="s1" d="m536.5 1013.8c4.3 0 7.3 3.2 7.3 7.4 0 4.2-3 7.4-7.3 7.4-4.4 0-7.4-3.2-7.4-7.4 0-4.2 3-7.4 7.4-7.4zm0 11.3c2.1 0 2.7-2.1 2.7-3.9 0-1.7-0.6-3.9-2.7-3.9-2.2 0-2.8 2.2-2.8 3.9 0 1.8 0.6 3.9 2.8 3.9z"/>
					<path id="&lt;Compound Path&gt;" fill-rule="evenodd" class="s1" d="m546.2 1014.2h4.3v1.7h0.1c0.9-1.4 2.2-2.1 3.8-2.1 4.4 0 6.3 3.8 6.3 7.7 0 3.6-2 7.1-5.9 7.1q-2.6 0-4-1.9v6.2h-4.6zm4.4 6.8c0 2.4 0.7 4 2.8 4 2 0 2.7-2.1 2.7-4 0-1.8-0.7-3.8-2.7-3.8-1.2 0-2.8 0.9-2.8 3.8z"/>
					<path id="&lt;Compound Path&gt;" fill-rule="evenodd" class="s1" d="m567 1022.3c0.1 1.9 1.2 3.2 3.1 3.2 1.1 0 2.2-0.5 2.6-1.5h4.3c-0.8 3.2-3.8 4.6-6.9 4.6-4.6 0-7.7-2.8-7.7-7.4 0-4.3 3.4-7.4 7.6-7.4 5 0 7.4 3.8 7.2 8.5zm5.7-2.5c-0.1-1.6-1.2-2.9-2.7-2.9-1.6 0-2.7 1.2-3 2.9z"/>
					<path id="&lt;Compound Path&gt;" class="s1" d="m579.7 1014.2h4.4v2.5h0.1c0.6-1.8 2.2-2.7 4.1-2.7q0.6 0 1.1 0.1v4.1c-0.6-0.1-1.1-0.2-1.7-0.2-2.3 0-3.5 1.5-3.5 3.3v6.9h-4.5z"/>
					<path id="&lt;Compound Path&gt;" class="s1" d="m599.4 1017.2h-2.9v6.3c0 1.1 0.7 1.4 1.7 1.4 0.3 0 0.8-0.1 1.2-0.1v3.4c-0.9 0-1.7 0.1-2.5 0.1-3.9 0-4.9-1.1-4.9-4.9v-6.2h-2.3v-3h2.3v-4.2h4.5v4.2h2.9z"/>
					<path id="&lt;Compound Path&gt;" class="s1" d="m609 1029.4c-1.1 3.1-2.7 3.5-5.8 3.5h-2.2v-3.7h1.6c1 0 1.8-0.6 1.8-1.6 0-0.8-0.9-2.9-1.1-3.7l-3.6-9.7h4.8l2.6 9.1h0.1l2.6-9.1h4.7z"/>
				</g>
				<g id="&lt;Group&gt;">
					<path id="&lt;Compound Path&gt;" fill-rule="evenodd" class="s1" d="m630.9 1013.8c4.3 0 7.4 3.2 7.4 7.4 0 4.2-3.1 7.4-7.4 7.4-4.3 0-7.3-3.2-7.3-7.4 0-4.2 3-7.4 7.3-7.4zm0 11.3c2.1 0 2.8-2.1 2.8-3.9 0-1.7-0.7-3.9-2.8-3.9-2.1 0-2.7 2.2-2.7 3.9 0 1.8 0.6 3.9 2.7 3.9z"/>
					<path id="&lt;Compound Path&gt;" class="s1" d="m641.7 1017.2h-2.2v-3h2.2c0-4 1.4-5.2 5.3-5.2 0.7 0 1.4 0.1 2.2 0.1v3.2q-0.7-0.1-1.3-0.1c-1 0-1.7 0.2-1.7 1.4v0.6h2.8v3h-2.8v11h-4.5z"/>
				</g>
				<g id="&lt;Group&gt;">
					<path id="&lt;Compound Path&gt;" class="s1" d="m667.5 1017.2h-2.9v6.3c0 1.1 0.7 1.4 1.7 1.4 0.4 0 0.8-0.1 1.2-0.1v3.4c-0.9 0-1.7 0.1-2.5 0.1-3.9 0-4.9-1.1-4.9-4.9v-6.2h-2.3v-3h2.3v-4.2h4.5v4.2h2.9z"/>
					<path id="&lt;Compound Path&gt;" class="s1" d="m669.5 1009h4.6v7.2c0.7-1.5 2.6-2.4 4.3-2.4 4.6 0 5 3.4 5 5.4v9h-4.6v-6.8c0-1.9 0.2-3.8-2.3-3.8-1.7 0-2.4 1.5-2.4 3v7.6h-4.6z"/>
					<path id="&lt;Compound Path&gt;" fill-rule="evenodd" class="s1" d="m690.3 1022.3c0.1 1.9 1.2 3.2 3.1 3.2 1.1 0 2.2-0.5 2.6-1.5h4.3c-0.8 3.2-3.8 4.6-6.9 4.6-4.6 0-7.7-2.8-7.7-7.4 0-4.3 3.5-7.4 7.6-7.4 5 0 7.5 3.8 7.2 8.5zm5.7-2.5c-0.1-1.6-1.2-2.9-2.7-2.9-1.6 0-2.7 1.2-3 2.9z"/>
				</g>
				<g id="&lt;Group&gt;">
					<path id="&lt;Compound Path&gt;" fill-rule="evenodd" class="s1" d="m725.1 1028.2h-4.4v-1.6c-0.9 1.3-2.3 2-3.9 2-4.3 0-6.2-3.8-6.2-7.7 0-3.6 1.9-7.1 5.9-7.1q2.6 0 4 1.9v-6.7h4.6zm-9.9-7.1c0 1.9 0.7 4 2.8 4 2.2 0 2.7-2.1 2.7-3.9 0-2-0.8-3.8-2.7-3.8-2.1 0-2.8 1.9-2.8 3.7z"/>
					<path id="&lt;Compound Path&gt;" fill-rule="evenodd" class="s1" d="m732.1 1022.3c0.1 1.9 1.2 3.2 3.1 3.2 1.1 0 2.2-0.5 2.6-1.5h4.3c-0.9 3.2-3.8 4.6-7 4.6-4.5 0-7.6-2.8-7.6-7.4 0-4.3 3.4-7.4 7.5-7.4 5 0 7.5 3.8 7.3 8.5zm5.7-2.5c-0.1-1.6-1.2-2.9-2.7-2.9-1.6 0-2.7 1.2-3 2.9z"/>
					<path id="&lt;Compound Path&gt;" class="s1" d="m748.1 1023.6c0 0.7 0.3 1.2 0.8 1.5 0.4 0.4 1 0.5 1.7 0.5 0.9 0 2.1-0.3 2.1-1.4 0-1.1-1.4-1.3-2.2-1.5-2.9-0.7-6.5-0.8-6.5-4.6 0-3.3 3.7-4.3 6.4-4.3 3.1 0 6.3 0.9 6.4 4.6h-4.2c0-0.6-0.2-1-0.6-1.3-0.4-0.2-0.9-0.3-1.4-0.3-0.8 0-2 0.1-2 1 0 1.4 3.1 1.6 5.1 2.1 2.9 0.5 3.6 2.6 3.6 3.7 0 3.8-3.6 5-6.7 5-3.3 0-6.7-1.1-6.8-5z"/>
					<path id="&lt;Compound Path&gt;" class="s1" d="m764.2 1012.5h-4.5v-3.5h4.5zm-4.5 1.8h4.5v13.9h-4.5z"/>
					<path id="&lt;Compound Path&gt;" fill-rule="evenodd" class="s1" d="m780.9 1026.5c0 2.3-0.4 6.6-6.9 6.6-3.3 0-6.3-0.8-6.9-4.5h4.6c0.1 0.6 0.4 1 0.8 1.2q0.6 0.3 1.7 0.3c2.1 0 2.3-1.5 2.3-3.2v-1.3c-0.8 1.2-2.2 2-3.7 2-4.2 0-6.1-3-6.1-6.9 0-3.7 2.1-6.9 6.1-6.9q2.5 0 3.7 2.2h0.1v-1.8h4.3zm-7-9.1c-2 0-2.7 1.8-2.7 3.5 0 1.6 0.8 3.3 2.7 3.3 1.9 0 2.7-1.5 2.7-3.3 0-1.8-0.7-3.5-2.7-3.5z"/>
					<path id="&lt;Compound Path&gt;" class="s1" d="m783.9 1014.2h4.4v2h0.1c0.8-1.5 2.7-2.4 4.3-2.4 4.7 0 5.1 3.4 5.1 5.4v9h-4.6v-6.8c0-1.9 0.2-3.8-2.3-3.8-1.7 0-2.5 1.5-2.5 3v7.6h-4.5z"/>
					<path id="&lt;Compound Path&gt;" fill-rule="evenodd" class="s1" d="m804.7 1022.3c0.1 1.9 1.2 3.2 3.1 3.2 1.1 0 2.2-0.5 2.6-1.5h4.3c-0.9 3.2-3.8 4.6-7 4.6-4.5 0-7.6-2.8-7.6-7.4 0-4.3 3.4-7.4 7.5-7.4 5 0 7.5 3.8 7.3 8.5zm5.7-2.5c-0.1-1.6-1.2-2.9-2.7-2.9-1.6 0-2.7 1.2-3 2.9z"/>
					<path id="&lt;Compound Path&gt;" class="s1" d="m817.3 1014.2h4.5v2.5c0.7-1.8 2.3-2.7 4.2-2.7 0.4 0 0.7 0 1.1 0.1v4.1c-0.6-0.1-1.1-0.2-1.7-0.2-2.3 0-3.5 1.5-3.5 3.3v6.9h-4.6z"/>
				</g>
				<path id="&lt;Compound Path&gt;" class="s1" d="m826.4 1023.2h5v5h-5z"/>
				<g id="&lt;Group&gt;">
					<path id="&lt;Compound Path&gt;" class="s1" d="m861.9 1015.9c-0.3-2-1.8-3-3.9-3-3.2 0-4.4 2.9-4.4 5.7 0 2.8 1.2 5.7 4.4 5.7 2.4 0 3.7-1.4 3.9-3.6h5c-0.3 5-3.9 7.9-8.8 7.9-5.8 0-9.5-4.4-9.5-10 0-5.6 3.7-10 9.5-10 4.2 0 8.6 2.6 8.8 7.3z"/>
					<path id="&lt;Compound Path&gt;" class="s1" d="m869.3 1009h4.6v7.2h0.1c0.7-1.5 2.5-2.4 4.2-2.4 4.7 0 5 3.4 5 5.4v9h-4.5v-6.8c0-1.9 0.2-3.8-2.3-3.8-1.7 0-2.5 1.5-2.5 3v7.6h-4.6z"/>
					<path id="&lt;Compound Path&gt;" fill-rule="evenodd" class="s1" d="m890.2 1022.3c0 1.9 1.1 3.2 3.1 3.2 1.1 0 2.1-0.5 2.6-1.5h4.2c-0.8 3.2-3.8 4.6-6.9 4.6-4.5 0-7.6-2.8-7.6-7.4 0-4.3 3.4-7.4 7.5-7.4 5 0 7.5 3.8 7.3 8.5zm5.7-2.5c-0.1-1.6-1.2-2.9-2.8-2.9-1.6 0-2.6 1.2-2.9 2.9z"/>
					<path id="&lt;Compound Path&gt;" class="s1" d="m911.7 1019.3c0-1.1-1-2-2.2-2-2.5 0-2.9 2.2-2.9 4.1 0 1.8 0.7 3.7 2.7 3.7 1.6 0 2.4-0.9 2.6-2.4h4.4c-0.4 3.7-3.3 5.9-7 5.9-4.2 0-7.3-2.9-7.3-7.2 0-4.4 2.8-7.6 7.3-7.6 3.5 0 6.6 1.9 6.9 5.5z"/>
					<path id="&lt;Compound Path&gt;" class="s1" d="m918.6 1009h4.6v9.9l4.1-4.7h5.3l-5.1 5.3 5.8 8.7h-5.6l-3.4-5.6-1.1 1.1v4.5h-4.6z"/>
				</g>
				<g id="&lt;Group&gt;">
					<path id="&lt;Compound Path&gt;" class="s1" d="m943.1 1009h4.6v19.2h-4.6z"/>
					<path id="&lt;Compound Path&gt;" class="s1" d="m955.6 1012.5h-4.5v-3.5h4.5zm-4.5 1.8h4.5v13.9h-4.5z"/>
					<path id="&lt;Compound Path&gt;" class="s1" d="m967.9 1019.3c0-1.1-1-2-2.2-2-2.5 0-2.9 2.2-2.9 4.1 0 1.8 0.7 3.7 2.7 3.7 1.5 0 2.4-0.9 2.6-2.4h4.4c-0.4 3.7-3.3 5.9-7 5.9-4.2 0-7.3-2.9-7.3-7.2 0-4.4 2.8-7.6 7.3-7.6 3.5 0 6.5 1.9 6.9 5.5z"/>
					<path id="&lt;Compound Path&gt;" fill-rule="evenodd" class="s1" d="m978.7 1022.3c0 1.9 1.1 3.2 3.1 3.2 1.1 0 2.2-0.5 2.6-1.5h4.3c-0.9 3.2-3.9 4.6-7 4.6-4.5 0-7.6-2.8-7.6-7.4 0-4.3 3.4-7.4 7.5-7.4 5 0 7.5 3.8 7.3 8.5zm5.7-2.5c-0.1-1.6-1.2-2.9-2.7-2.9-1.7 0-2.7 1.2-3 2.9z"/>
					<path id="&lt;Compound Path&gt;" class="s1" d="m991.2 1014.2h4.4v2h0.1c0.8-1.5 2.7-2.4 4.3-2.4 4.7 0 5.1 3.4 5.1 5.4v9h-4.6v-6.8c0-1.9 0.2-3.8-2.3-3.8-1.7 0-2.5 1.5-2.5 3v7.6h-4.5z"/>
					<path id="&lt;Compound Path&gt;" class="s1" d="m1011.6 1023.6c0 0.7 0.3 1.2 0.8 1.5 0.4 0.4 1 0.5 1.7 0.5 0.9 0 2.1-0.3 2.1-1.4 0-1.1-1.4-1.3-2.2-1.5-2.9-0.7-6.5-0.8-6.5-4.6 0-3.3 3.7-4.3 6.4-4.3 3.1 0 6.3 0.9 6.4 4.6h-4.2c0-0.6-0.2-1-0.6-1.3-0.4-0.2-0.9-0.3-1.4-0.3-0.8 0-2 0.1-2 1 0 1.4 3.1 1.6 5.1 2.1 2.9 0.5 3.6 2.6 3.6 3.7 0 3.8-3.6 5-6.7 5-3.3 0-6.7-1.1-6.8-5z"/>
					<path id="&lt;Compound Path&gt;" fill-rule="evenodd" class="s1" d="m1026.9 1022.3c0.1 1.9 1.2 3.2 3.1 3.2 1.1 0 2.2-0.5 2.6-1.5h4.3c-0.8 3.2-3.8 4.6-6.9 4.6-4.6 0-7.7-2.8-7.7-7.4 0-4.3 3.5-7.4 7.6-7.4 5 0 7.5 3.8 7.2 8.5zm5.7-2.5c-0.1-1.6-1.2-2.9-2.7-2.9-1.6 0-2.7 1.2-3 2.9z"/>
				</g>
				<g id="&lt;Group&gt;">
					<path id="&lt;Compound Path&gt;" class="s1" d="m1048.9 1017.2h-2.2v-3h2.2c0-4 1.4-5.2 5.3-5.2 0.7 0 1.4 0.1 2.2 0.1v3.2q-0.7-0.1-1.3-0.1c-1 0-1.7 0.2-1.7 1.4v0.6h2.8v3h-2.8v11h-4.5z"/>
					<path id="&lt;Compound Path&gt;" fill-rule="evenodd" class="s1" d="m1064.5 1013.8c4.3 0 7.3 3.2 7.3 7.4 0 4.2-3 7.4-7.3 7.4-4.3 0-7.4-3.2-7.4-7.4 0-4.2 3.1-7.4 7.4-7.4zm0 11.3c2.1 0 2.8-2.1 2.8-3.9 0-1.7-0.7-3.9-2.8-3.9-2.2 0-2.8 2.2-2.8 3.9 0 1.8 0.6 3.9 2.8 3.9z"/>
					<path id="&lt;Compound Path&gt;" class="s1" d="m1074.4 1014.2h4.4v2.5h0.1c0.6-1.8 2.2-2.7 4.2-2.7q0.5 0 1 0.1v4.1c-0.6-0.1-1.1-0.2-1.7-0.2-2.3 0-3.5 1.5-3.5 3.3v6.9h-4.5z"/>
				</g>
				<g id="&lt;Group&gt;">
					<path id="&lt;Compound Path&gt;" fill-rule="evenodd" class="s1" d="m1094.1 1014.2h4.4v1.7c0.9-1.4 2.2-2.1 3.9-2.1 4.3 0 6.2 3.8 6.2 7.7 0 3.6-1.9 7.1-5.9 7.1q-2.6 0-4-1.9v6.2h-4.6zm4.4 6.8c0 2.4 0.7 4 2.8 4 2 0 2.7-2.1 2.7-4 0-1.8-0.7-3.8-2.7-3.8-1.2 0-2.8 0.9-2.8 3.8z"/>
					<path id="&lt;Compound Path&gt;" fill-rule="evenodd" class="s1" d="m1114.9 1022.3c0.1 1.9 1.2 3.2 3.1 3.2 1.1 0 2.2-0.5 2.6-1.5h4.3c-0.8 3.2-3.8 4.6-6.9 4.6-4.6 0-7.6-2.8-7.6-7.4 0-4.3 3.4-7.4 7.5-7.4 5 0 7.5 3.8 7.3 8.5zm5.6-2.5c-0.1-1.6-1.2-2.9-2.7-2.9-1.6 0-2.7 1.2-2.9 2.9z"/>
					<path id="&lt;Compound Path&gt;" class="s1" d="m1127.6 1014.2h4.4v2.5h0.1c0.6-1.8 2.2-2.7 4.2-2.7q0.5 0 1 0.1v4.1c-0.6-0.1-1.1-0.2-1.7-0.2-2.3 0-3.4 1.5-3.4 3.3v6.9h-4.6z"/>
					<path id="&lt;Compound Path&gt;" class="s1" d="m1138.9 1014.2h4.4v2c0.9-1.4 2.4-2.4 4-2.4 1.8 0 3.4 0.6 4.1 2.3 1.1-1.5 2.5-2.3 4.4-2.3 4.4 0 4.9 3.4 4.9 6.1v8.3h-4.6v-8.2c0-1.5-0.7-2.4-1.9-2.4-2 0-2.1 1.5-2.1 3.8v6.8h-4.6v-7.9c0-1.7-0.5-2.7-1.7-2.7-1.7 0-2.4 0.9-2.4 3.8v6.8h-4.5z"/>
					<path id="&lt;Compound Path&gt;" class="s1" d="m1168.5 1012.5h-4.6v-3.5h4.6zm-4.6 1.8h4.6v13.9h-4.6z"/>
					<path id="&lt;Compound Path&gt;" class="s1" d="m1180.1 1017.2h-2.8v6.3c0 1.1 0.6 1.4 1.6 1.4 0.4 0 0.8-0.1 1.2-0.1v3.4c-0.9 0-1.7 0.1-2.5 0.1-3.9 0-4.9-1.1-4.9-4.9v-6.2h-2.3v-3h2.3v-4.2h4.6v4.2h2.8z"/>
					<path id="&lt;Compound Path&gt;" class="s1" d="m1190.5 1017.2h-2.8v6.3c0 1.1 0.6 1.4 1.6 1.4 0.4 0 0.8-0.1 1.2-0.1v3.4c-0.8 0-1.6 0.1-2.5 0.1-3.9 0-4.9-1.1-4.9-4.9v-6.2h-2.3v-3h2.3v-4.2h4.6v4.2h2.8z"/>
					<path id="&lt;Compound Path&gt;" fill-rule="evenodd" class="s1" d="m1196.5 1022.3c0 1.9 1.1 3.2 3.1 3.2 1.1 0 2.1-0.5 2.6-1.5h4.2c-0.8 3.2-3.8 4.6-6.9 4.6-4.5 0-7.6-2.8-7.6-7.4 0-4.3 3.4-7.4 7.5-7.4 5 0 7.5 3.8 7.3 8.5zm5.6-2.5c0-1.6-1.1-2.9-2.7-2.9-1.6 0-2.6 1.2-2.9 2.9z"/>
					<path id="&lt;Compound Path&gt;" fill-rule="evenodd" class="s1" d="m1222.8 1028.2h-4.4v-1.6c-0.9 1.3-2.3 2-3.9 2-4.4 0-6.2-3.8-6.2-7.7 0-3.6 1.9-7.1 5.9-7.1q2.5 0 3.9 1.9h0.1v-6.7h4.6zm-9.9-7.1c0 1.9 0.7 4 2.7 4 2.3 0 2.8-2.1 2.8-3.9 0-2-0.8-3.8-2.8-3.8-2 0-2.7 1.9-2.7 3.7z"/>
				</g>
				<g id="&lt;Group&gt;">
					<path id="&lt;Compound Path&gt;" class="s1" d="m1248.2 1028.2h-4.4v-1.9h-0.1c-0.9 1.4-2.6 2.3-4.2 2.3-4 0-5.2-2.3-5.2-6v-8.4h4.6v8.1c0 1.9 0.8 2.5 2.2 2.5 1 0 2.5-0.6 2.5-3.1v-7.5h4.6z"/>
					<path id="&lt;Compound Path&gt;" class="s1" d="m1254.8 1023.6c0 0.7 0.3 1.2 0.7 1.5 0.5 0.4 1.1 0.5 1.7 0.5 0.9 0 2.2-0.3 2.2-1.4 0-1.1-1.4-1.3-2.2-1.5-2.9-0.7-6.5-0.8-6.5-4.6 0-3.3 3.6-4.3 6.3-4.3 3.1 0 6.3 0.9 6.5 4.6h-4.3c0-0.6-0.2-1-0.5-1.3-0.4-0.2-0.9-0.3-1.5-0.3-0.7 0-2 0.1-2 1 0 1.4 3.1 1.6 5.2 2.1 2.8 0.5 3.5 2.6 3.5 3.7 0 3.8-3.5 5-6.6 5-3.3 0-6.7-1.1-6.9-5z"/>
					<path id="&lt;Compound Path&gt;" fill-rule="evenodd" class="s1" d="m1270.1 1022.3c0 1.9 1.1 3.2 3.1 3.2 1.1 0 2.2-0.5 2.6-1.5h4.3c-0.9 3.2-3.9 4.6-7 4.6-4.5 0-7.6-2.8-7.6-7.4 0-4.3 3.4-7.4 7.5-7.4 5 0 7.5 3.8 7.3 8.5zm5.7-2.5c-0.1-1.6-1.2-2.9-2.7-2.9-1.7 0-2.7 1.2-3 2.9z"/>
				</g>
				<path id="&lt;Compound Path&gt;" class="s1" d="m1282.8 1023.2h5v5h-5z"/>
			</g>
		</g>
	</g>
	<g id="Vector Graphics">
		<g id="&lt;Group&gt;">
			<path id="&lt;Path&gt;" class="s3" d="m407.8 855.7c0 5.1-4.2 9.3-9.3 9.3-5.2 0-9.3-4.2-9.3-9.3 0-5.2 4.1-9.4 9.3-9.4 5.1 0 9.3 4.2 9.3 9.4z"/>
			<path id="&lt;Path&gt;" class="s3" d="m407.8 827.8c0 5.1-4.2 9.3-9.3 9.3-5.2 0-9.3-4.2-9.3-9.3 0-5.2 4.1-9.4 9.3-9.4 5.1 0 9.3 4.2 9.3 9.4z"/>
			<path id="&lt;Path&gt;" class="s3" d="m407.8 803c0 5.1-4.2 9.3-9.3 9.3-5.2 0-9.3-4.2-9.3-9.3 0-5.2 4.1-9.4 9.3-9.4 5.1 0 9.3 4.2 9.3 9.4z"/>
			<path id="&lt;Path&gt;" class="s3" d="m407.8 778.2c0 5.1-4.2 9.3-9.3 9.3-5.2 0-9.3-4.2-9.3-9.3 0-5.2 4.1-9.4 9.3-9.4 5.1 0 9.3 4.2 9.3 9.4z"/>
			<path id="&lt;Path&gt;" class="s3" d="m407.8 750.3c0 5.1-4.2 9.3-9.3 9.3-5.2 0-9.3-4.2-9.3-9.3 0-5.2 4.1-9.4 9.3-9.4 5.1 0 9.3 4.2 9.3 9.4z"/>
			<path id="&lt;Path&gt;" class="s3" d="m407.8 725.5c0 5.1-4.2 9.3-9.3 9.3-5.2 0-9.3-4.2-9.3-9.3 0-5.2 4.1-9.3 9.3-9.3 5.1 0 9.3 4.1 9.3 9.3z"/>
			<path id="&lt;Path&gt;" class="s3" d="m432.6 725.5c0 5.1-4.2 9.3-9.3 9.3-5.2 0-9.3-4.2-9.3-9.3 0-5.2 4.1-9.3 9.3-9.3 5.1 0 9.3 4.1 9.3 9.3z"/>
			<path id="&lt;Path&gt;" class="s3" d="m432.6 750.3c0 5.1-4.2 9.3-9.3 9.3-5.2 0-9.3-4.2-9.3-9.3 0-5.2 4.1-9.4 9.3-9.4 5.1 0 9.3 4.2 9.3 9.4z"/>
			<path id="&lt;Path&gt;" class="s3" d="m457.4 725.5c0 5.1-4.2 9.3-9.3 9.3-5.2 0-9.3-4.2-9.3-9.3 0-5.2 4.1-9.3 9.3-9.3 5.1 0 9.3 4.1 9.3 9.3z"/>
			<path id="&lt;Path&gt;" class="s3" d="m407.8 700.7c0 5.1-4.2 9.3-9.3 9.3-5.2 0-9.3-4.2-9.3-9.3 0-5.2 4.1-9.3 9.3-9.3 5.1 0 9.3 4.1 9.3 9.3z"/>
			<path id="&lt;Path&gt;" class="s3" d="m432.6 700.7c0 5.1-4.2 9.3-9.3 9.3-5.2 0-9.3-4.2-9.3-9.3 0-5.2 4.1-9.3 9.3-9.3 5.1 0 9.3 4.1 9.3 9.3z"/>
			<path id="&lt;Path&gt;" class="s3" d="m457.4 700.7c0 5.1-4.2 9.3-9.3 9.3-5.2 0-9.3-4.2-9.3-9.3 0-5.2 4.1-9.3 9.3-9.3 5.1 0 9.3 4.1 9.3 9.3z"/>
			<path id="&lt;Path&gt;" class="s3" d="m485.3 700.7c0 5.1-4.2 9.3-9.3 9.3-5.2 0-9.4-4.2-9.4-9.3 0-5.2 4.2-9.3 9.4-9.3 5.1 0 9.3 4.1 9.3 9.3z"/>
			<path id="&lt;Path&gt;" class="s3" d="m407.8 675.9c0 5.2-4.2 9.3-9.3 9.3-5.2 0-9.3-4.1-9.3-9.3 0-5.2 4.1-9.3 9.3-9.3 5.1 0 9.3 4.1 9.3 9.3z"/>
			<path id="&lt;Path&gt;" class="s3" d="m383 675.9c0 5.2-4.1 9.3-9.3 9.3-5.2 0-9.3-4.1-9.3-9.3 0-5.2 4.1-9.3 9.3-9.3 5.2 0 9.3 4.1 9.3 9.3z"/>
			<path id="&lt;Path&gt;" class="s3" d="m432.6 675.9c0 5.2-4.2 9.3-9.3 9.3-5.2 0-9.3-4.1-9.3-9.3 0-5.2 4.1-9.3 9.3-9.3 5.1 0 9.3 4.1 9.3 9.3z"/>
			<path id="&lt;Path&gt;" class="s3" d="m457.4 675.9c0 5.2-4.2 9.3-9.3 9.3-5.2 0-9.3-4.1-9.3-9.3 0-5.2 4.1-9.3 9.3-9.3 5.1 0 9.3 4.1 9.3 9.3z"/>
			<path id="&lt;Path&gt;" class="s3" d="m485.3 675.9c0 5.2-4.2 9.3-9.3 9.3-5.2 0-9.4-4.1-9.4-9.3 0-5.2 4.2-9.3 9.4-9.3 5.1 0 9.3 4.1 9.3 9.3z"/>
			<path id="&lt;Path&gt;" class="s3" d="m407.8 651.1c0 5.2-4.2 9.3-9.3 9.3-5.2 0-9.3-4.1-9.3-9.3 0-5.1 4.1-9.3 9.3-9.3 5.1 0 9.3 4.2 9.3 9.3z"/>
			<path id="&lt;Path&gt;" class="s3" d="m383 651.1c0 5.2-4.1 9.3-9.3 9.3-5.2 0-9.3-4.1-9.3-9.3 0-5.1 4.1-9.3 9.3-9.3 5.2 0 9.3 4.2 9.3 9.3z"/>
			<path id="&lt;Path&gt;" class="s3" d="m358.2 651.1c0 5.2-4.1 9.3-9.3 9.3-5.1 0-9.3-4.1-9.3-9.3 0-5.1 4.2-9.3 9.3-9.3 5.2 0 9.3 4.2 9.3 9.3z"/>
			<path id="&lt;Path&gt;" class="s3" d="m432.6 651.1c0 5.2-4.2 9.3-9.3 9.3-5.2 0-9.3-4.1-9.3-9.3 0-5.1 4.1-9.3 9.3-9.3 5.1 0 9.3 4.2 9.3 9.3z"/>
			<path id="&lt;Path&gt;" class="s3" d="m407.8 623.2c0 5.2-4.2 9.3-9.3 9.3-5.2 0-9.3-4.1-9.3-9.3 0-5.1 4.1-9.3 9.3-9.3 5.1 0 9.3 4.2 9.3 9.3z"/>
			<path id="&lt;Path&gt;" class="s3" d="m383 623.2c0 5.2-4.1 9.3-9.3 9.3-5.2 0-9.3-4.1-9.3-9.3 0-5.1 4.1-9.3 9.3-9.3 5.2 0 9.3 4.2 9.3 9.3z"/>
			<path id="&lt;Path&gt;" class="s3" d="m358.2 623.2c0 5.2-4.1 9.3-9.3 9.3-5.1 0-9.3-4.1-9.3-9.3 0-5.1 4.2-9.3 9.3-9.3 5.2 0 9.3 4.2 9.3 9.3z"/>
			<path id="&lt;Path&gt;" class="s3" d="m432.6 623.2c0 5.2-4.2 9.3-9.3 9.3-5.2 0-9.3-4.1-9.3-9.3 0-5.1 4.1-9.3 9.3-9.3 5.1 0 9.3 4.2 9.3 9.3z"/>
			<path id="&lt;Path&gt;" class="s3" d="m407.8 598.4c0 5.2-4.2 9.3-9.3 9.3-5.2 0-9.3-4.1-9.3-9.3 0-5.1 4.1-9.3 9.3-9.3 5.1 0 9.3 4.2 9.3 9.3z"/>
			<path id="&lt;Path&gt;" class="s3" d="m383 598.4c0 5.2-4.1 9.3-9.3 9.3-5.2 0-9.3-4.1-9.3-9.3 0-5.1 4.1-9.3 9.3-9.3 5.2 0 9.3 4.2 9.3 9.3z"/>
			<path id="&lt;Path&gt;" class="s3" d="m358.2 598.4c0 5.2-4.1 9.3-9.3 9.3-5.1 0-9.3-4.1-9.3-9.3 0-5.1 4.2-9.3 9.3-9.3 5.2 0 9.3 4.2 9.3 9.3z"/>
			<path id="&lt;Path&gt;" class="s3" d="m355.1 573.6c0 5.2-4.1 9.4-9.3 9.4-5.1 0-9.3-4.2-9.3-9.4 0-5.1 4.2-9.3 9.3-9.3 5.2 0 9.3 4.2 9.3 9.3z"/>
			<path id="&lt;Path&gt;" class="s3" d="m330.3 573.6c0 5.2-4.1 9.4-9.3 9.4-5.1 0-9.3-4.2-9.3-9.4 0-5.1 4.2-9.3 9.3-9.3 5.2 0 9.3 4.2 9.3 9.3z"/>
			<path id="&lt;Path&gt;" class="s3" d="m306.6 547.8c0 5.2-4.2 9.3-9.3 9.3-5.2 0-9.4-4.1-9.4-9.3 0-5.2 4.2-9.3 9.4-9.3 5.1 0 9.3 4.1 9.3 9.3z"/>
			<path id="&lt;Path&gt;" class="s3" d="m281.8 547.8c0 5.2-4.2 9.3-9.3 9.3-5.2 0-9.4-4.1-9.4-9.3 0-5.2 4.2-9.3 9.4-9.3 5.1 0 9.3 4.1 9.3 9.3z"/>
			<path id="&lt;Path&gt;" class="s3" d="m306.6 523c0 5.2-4.2 9.3-9.3 9.3-5.2 0-9.4-4.1-9.4-9.3 0-5.2 4.2-9.3 9.4-9.3 5.1 0 9.3 4.1 9.3 9.3z"/>
			<path id="&lt;Path&gt;" class="s3" d="m281.8 523c0 5.2-4.2 9.3-9.3 9.3-5.2 0-9.4-4.1-9.4-9.3 0-5.2 4.2-9.3 9.4-9.3 5.1 0 9.3 4.1 9.3 9.3z"/>
			<path id="&lt;Path&gt;" class="s3" d="m257 523c0 5.2-4.2 9.3-9.3 9.3-5.2 0-9.4-4.1-9.4-9.3 0-5.2 4.2-9.3 9.4-9.3 5.1 0 9.3 4.1 9.3 9.3z"/>
			<path id="&lt;Path&gt;" class="s3" d="m306.6 498.2c0 5.2-4.2 9.3-9.3 9.3-5.2 0-9.4-4.1-9.4-9.3 0-5.1 4.2-9.3 9.4-9.3 5.1 0 9.3 4.2 9.3 9.3z"/>
			<path id="&lt;Path&gt;" class="s3" d="m281.8 498.2c0 5.2-4.2 9.3-9.3 9.3-5.2 0-9.4-4.1-9.4-9.3 0-5.1 4.2-9.3 9.4-9.3 5.1 0 9.3 4.2 9.3 9.3z"/>
			<path id="&lt;Path&gt;" class="s3" d="m257 498.2c0 5.2-4.2 9.3-9.3 9.3-5.2 0-9.4-4.1-9.4-9.3 0-5.1 4.2-9.3 9.4-9.3 5.1 0 9.3 4.2 9.3 9.3z"/>
			<path id="&lt;Path&gt;" class="s3" d="m232.2 498.2c0 5.2-4.2 9.3-9.3 9.3-5.2 0-9.4-4.1-9.4-9.3 0-5.1 4.2-9.3 9.4-9.3 5.1 0 9.3 4.2 9.3 9.3z"/>
			<path id="&lt;Path&gt;" class="s3" d="m381 498.2c0 5.2-4.2 9.3-9.4 9.3-5.1 0-9.3-4.1-9.3-9.3 0-5.1 4.2-9.3 9.3-9.3 5.2 0 9.4 4.2 9.4 9.3z"/>
			<path id="&lt;Path&gt;" class="s3" d="m356.2 498.2c0 5.2-4.2 9.3-9.4 9.3-5.1 0-9.3-4.1-9.3-9.3 0-5.1 4.2-9.3 9.3-9.3 5.2 0 9.4 4.2 9.4 9.3z"/>
			<path id="&lt;Path&gt;" class="s3" d="m331.4 498.2c0 5.2-4.2 9.3-9.4 9.3-5.1 0-9.3-4.1-9.3-9.3 0-5.1 4.2-9.3 9.3-9.3 5.2 0 9.4 4.2 9.4 9.3z"/>
			<path id="&lt;Path&gt;" class="s3" d="m306.6 473.4c0 5.2-4.2 9.3-9.3 9.3-5.2 0-9.4-4.1-9.4-9.3 0-5.1 4.2-9.3 9.4-9.3 5.1 0 9.3 4.2 9.3 9.3z"/>
			<path id="&lt;Path&gt;" class="s3" d="m281.8 473.4c0 5.2-4.2 9.3-9.3 9.3-5.2 0-9.4-4.1-9.4-9.3 0-5.1 4.2-9.3 9.4-9.3 5.1 0 9.3 4.2 9.3 9.3z"/>
			<path id="&lt;Path&gt;" class="s3" d="m257 473.4c0 5.2-4.2 9.3-9.3 9.3-5.2 0-9.4-4.1-9.4-9.3 0-5.1 4.2-9.3 9.4-9.3 5.1 0 9.3 4.2 9.3 9.3z"/>
			<path id="&lt;Path&gt;" class="s3" d="m232.2 473.4c0 5.2-4.2 9.3-9.3 9.3-5.2 0-9.4-4.1-9.4-9.3 0-5.1 4.2-9.3 9.4-9.3 5.1 0 9.3 4.2 9.3 9.3z"/>
			<path id="&lt;Path&gt;" class="s3" d="m381 473.4c0 5.2-4.2 9.3-9.4 9.3-5.1 0-9.3-4.1-9.3-9.3 0-5.1 4.2-9.3 9.3-9.3 5.2 0 9.4 4.2 9.4 9.3z"/>
			<path id="&lt;Path&gt;" class="s3" d="m356.2 473.4c0 5.2-4.2 9.3-9.4 9.3-5.1 0-9.3-4.1-9.3-9.3 0-5.1 4.2-9.3 9.3-9.3 5.2 0 9.4 4.2 9.4 9.3z"/>
			<path id="&lt;Path&gt;" class="s3" d="m331.4 473.4c0 5.2-4.2 9.3-9.4 9.3-5.1 0-9.3-4.1-9.3-9.3 0-5.1 4.2-9.3 9.3-9.3 5.2 0 9.4 4.2 9.4 9.3z"/>
			<path id="&lt;Path&gt;" class="s3" d="m306.6 445.5c0 5.2-4.2 9.4-9.3 9.4-5.2 0-9.4-4.2-9.4-9.4 0-5.1 4.2-9.3 9.4-9.3 5.1 0 9.3 4.2 9.3 9.3z"/>
			<path id="&lt;Path&gt;" class="s3" d="m281.8 445.5c0 5.2-4.2 9.4-9.3 9.4-5.2 0-9.4-4.2-9.4-9.4 0-5.1 4.2-9.3 9.4-9.3 5.1 0 9.3 4.2 9.3 9.3z"/>
			<path id="&lt;Path&gt;" class="s3" d="m257 445.5c0 5.2-4.2 9.4-9.3 9.4-5.2 0-9.4-4.2-9.4-9.4 0-5.1 4.2-9.3 9.4-9.3 5.1 0 9.3 4.2 9.3 9.3z"/>
			<path id="&lt;Path&gt;" class="s3" d="m232.2 445.5c0 5.2-4.2 9.4-9.3 9.4-5.2 0-9.4-4.2-9.4-9.4 0-5.1 4.2-9.3 9.4-9.3 5.1 0 9.3 4.2 9.3 9.3z"/>
			<path id="&lt;Path&gt;" class="s3" d="m381 445.5c0 5.2-4.2 9.4-9.4 9.4-5.1 0-9.3-4.2-9.3-9.4 0-5.1 4.2-9.3 9.3-9.3 5.2 0 9.4 4.2 9.4 9.3z"/>
			<path id="&lt;Path&gt;" class="s3" d="m408.9 445.5c0 5.2-4.2 9.4-9.4 9.4-5.1 0-9.3-4.2-9.3-9.4 0-5.1 4.2-9.3 9.3-9.3 5.2 0 9.4 4.2 9.4 9.3z"/>
			<path id="&lt;Path&gt;" class="s3" d="m433.7 445.5c0 5.2-4.2 9.4-9.4 9.4-5.1 0-9.3-4.2-9.3-9.4 0-5.1 4.2-9.3 9.3-9.3 5.2 0 9.4 4.2 9.4 9.3z"/>
			<path id="&lt;Path&gt;" class="s3" d="m356.2 445.5c0 5.2-4.2 9.4-9.4 9.4-5.1 0-9.3-4.2-9.3-9.4 0-5.1 4.2-9.3 9.3-9.3 5.2 0 9.4 4.2 9.4 9.3z"/>
			<path id="&lt;Path&gt;" class="s3" d="m331.4 445.5c0 5.2-4.2 9.4-9.4 9.4-5.1 0-9.3-4.2-9.3-9.4 0-5.1 4.2-9.3 9.3-9.3 5.2 0 9.4 4.2 9.4 9.3z"/>
			<path id="&lt;Path&gt;" class="s3" d="m306.6 420.7c0 5.2-4.2 9.4-9.3 9.4-5.2 0-9.4-4.2-9.4-9.4 0-5.1 4.2-9.3 9.4-9.3 5.1 0 9.3 4.2 9.3 9.3z"/>
			<path id="&lt;Path&gt;" class="s3" d="m281.8 420.7c0 5.2-4.2 9.4-9.3 9.4-5.2 0-9.4-4.2-9.4-9.4 0-5.1 4.2-9.3 9.4-9.3 5.1 0 9.3 4.2 9.3 9.3z"/>
			<path id="&lt;Path&gt;" class="s3" d="m257 420.7c0 5.2-4.2 9.4-9.3 9.4-5.2 0-9.4-4.2-9.4-9.4 0-5.1 4.2-9.3 9.4-9.3 5.1 0 9.3 4.2 9.3 9.3z"/>
			<path id="&lt;Path&gt;" class="s3" d="m232.2 420.7c0 5.2-4.2 9.4-9.3 9.4-5.2 0-9.4-4.2-9.4-9.4 0-5.1 4.2-9.3 9.4-9.3 5.1 0 9.3 4.2 9.3 9.3z"/>
			<path id="&lt;Path&gt;" class="s3" d="m204.3 420.7c0 5.2-4.2 9.4-9.3 9.4-5.2 0-9.4-4.2-9.4-9.4 0-5.1 4.2-9.3 9.4-9.3 5.1 0 9.3 4.2 9.3 9.3z"/>
			<path id="&lt;Path&gt;" class="s3" d="m381 420.7c0 5.2-4.2 9.4-9.4 9.4-5.1 0-9.3-4.2-9.3-9.4 0-5.1 4.2-9.3 9.3-9.3 5.2 0 9.4 4.2 9.4 9.3z"/>
			<path id="&lt;Path&gt;" class="s3" d="m408.9 420.7c0 5.2-4.2 9.4-9.4 9.4-5.1 0-9.3-4.2-9.3-9.4 0-5.1 4.2-9.3 9.3-9.3 5.2 0 9.4 4.2 9.4 9.3z"/>
			<path id="&lt;Path&gt;" class="s3" d="m433.7 420.7c0 5.2-4.2 9.4-9.4 9.4-5.1 0-9.3-4.2-9.3-9.4 0-5.1 4.2-9.3 9.3-9.3 5.2 0 9.4 4.2 9.4 9.3z"/>
			<path id="&lt;Path&gt;" class="s3" d="m356.2 420.7c0 5.2-4.2 9.4-9.4 9.4-5.1 0-9.3-4.2-9.3-9.4 0-5.1 4.2-9.3 9.3-9.3 5.2 0 9.4 4.2 9.4 9.3z"/>
			<path id="&lt;Path&gt;" class="s3" d="m331.4 420.7c0 5.2-4.2 9.4-9.4 9.4-5.1 0-9.3-4.2-9.3-9.4 0-5.1 4.2-9.3 9.3-9.3 5.2 0 9.4 4.2 9.4 9.3z"/>
			<path id="&lt;Path&gt;" class="s3" d="m179.5 369.6c0 5.1-4.2 9.3-9.3 9.3-5.2 0-9.3-4.2-9.3-9.3 0-5.2 4.1-9.3 9.3-9.3 5.1 0 9.3 4.1 9.3 9.3z"/>
			<path id="&lt;Path&gt;" class="s3" d="m154.7 369.6c0 5.1-4.2 9.3-9.3 9.3-5.2 0-9.3-4.2-9.3-9.3 0-5.2 4.1-9.3 9.3-9.3 5.1 0 9.3 4.1 9.3 9.3z"/>
			<path id="&lt;Path&gt;" class="s3" d="m129.9 369.6c0 5.1-4.2 9.3-9.3 9.3-5.2 0-9.3-4.2-9.3-9.3 0-5.2 4.1-9.3 9.3-9.3 5.1 0 9.3 4.1 9.3 9.3z"/>
			<path id="&lt;Path&gt;" class="s3" d="m105.1 369.6c0 5.1-4.1 9.3-9.3 9.3-5.1 0-9.3-4.2-9.3-9.3 0-5.2 4.2-9.3 9.3-9.3 5.2 0 9.3 4.1 9.3 9.3z"/>
			<path id="&lt;Path&gt;" class="s3" d="m105.1 394.4c0 5.1-4.1 9.3-9.3 9.3-5.1 0-9.3-4.2-9.3-9.3 0-5.2 4.2-9.3 9.3-9.3 5.2 0 9.3 4.1 9.3 9.3z"/>
			<path id="&lt;Path&gt;" class="s3" d="m253.9 369.6c0 5.1-4.2 9.3-9.3 9.3-5.2 0-9.4-4.2-9.4-9.3 0-5.2 4.2-9.3 9.4-9.3 5.1 0 9.3 4.1 9.3 9.3z"/>
			<path id="&lt;Path&gt;" class="s3" d="m281.8 369.6c0 5.1-4.2 9.3-9.3 9.3-5.2 0-9.4-4.2-9.4-9.3 0-5.2 4.2-9.3 9.4-9.3 5.1 0 9.3 4.1 9.3 9.3z"/>
			<path id="&lt;Path&gt;" class="s3" d="m306.6 369.6c0 5.1-4.2 9.3-9.3 9.3-5.2 0-9.4-4.2-9.4-9.3 0-5.2 4.2-9.3 9.4-9.3 5.1 0 9.3 4.1 9.3 9.3z"/>
			<path id="&lt;Path&gt;" class="s3" d="m229.1 369.6c0 5.1-4.2 9.3-9.3 9.3-5.2 0-9.4-4.2-9.4-9.3 0-5.2 4.2-9.3 9.4-9.3 5.1 0 9.3 4.1 9.3 9.3z"/>
			<path id="&lt;Path&gt;" class="s3" d="m204.3 369.6c0 5.1-4.2 9.3-9.3 9.3-5.2 0-9.4-4.2-9.4-9.3 0-5.2 4.2-9.3 9.4-9.3 5.1 0 9.3 4.1 9.3 9.3z"/>
			<path id="&lt;Path&gt;" class="s3" d="m179.5 344.8c0 5.1-4.2 9.3-9.3 9.3-5.2 0-9.3-4.2-9.3-9.3 0-5.2 4.1-9.3 9.3-9.3 5.1 0 9.3 4.1 9.3 9.3z"/>
			<path id="&lt;Path&gt;" class="s3" d="m154.7 344.8c0 5.1-4.2 9.3-9.3 9.3-5.2 0-9.3-4.2-9.3-9.3 0-5.2 4.1-9.3 9.3-9.3 5.1 0 9.3 4.1 9.3 9.3z"/>
			<path id="&lt;Path&gt;" class="s3" d="m129.9 344.8c0 5.1-4.2 9.3-9.3 9.3-5.2 0-9.3-4.2-9.3-9.3 0-5.2 4.1-9.3 9.3-9.3 5.1 0 9.3 4.1 9.3 9.3z"/>
			<path id="&lt;Path&gt;" class="s3" d="m105.1 344.8c0 5.1-4.1 9.3-9.3 9.3-5.1 0-9.3-4.2-9.3-9.3 0-5.2 4.2-9.3 9.3-9.3 5.2 0 9.3 4.1 9.3 9.3z"/>
			<path id="&lt;Path&gt;" class="s3" d="m253.9 344.8c0 5.1-4.2 9.3-9.3 9.3-5.2 0-9.4-4.2-9.4-9.3 0-5.2 4.2-9.3 9.4-9.3 5.1 0 9.3 4.1 9.3 9.3z"/>
			<path id="&lt;Path&gt;" class="s3" d="m281.8 344.8c0 5.1-4.2 9.3-9.3 9.3-5.2 0-9.4-4.2-9.4-9.3 0-5.2 4.2-9.3 9.4-9.3 5.1 0 9.3 4.1 9.3 9.3z"/>
			<path id="&lt;Path&gt;" class="s3" d="m306.6 344.8c0 5.1-4.2 9.3-9.3 9.3-5.2 0-9.4-4.2-9.4-9.3 0-5.2 4.2-9.3 9.4-9.3 5.1 0 9.3 4.1 9.3 9.3z"/>
			<path id="&lt;Path&gt;" class="s3" d="m331.4 344.8c0 5.1-4.2 9.3-9.4 9.3-5.1 0-9.3-4.2-9.3-9.3 0-5.2 4.2-9.3 9.3-9.3 5.2 0 9.4 4.1 9.4 9.3z"/>
			<path id="&lt;Path&gt;" class="s3" d="m229.1 344.8c0 5.1-4.2 9.3-9.3 9.3-5.2 0-9.4-4.2-9.4-9.3 0-5.2 4.2-9.3 9.4-9.3 5.1 0 9.3 4.1 9.3 9.3z"/>
			<path id="&lt;Path&gt;" class="s3" d="m204.3 344.8c0 5.1-4.2 9.3-9.3 9.3-5.2 0-9.4-4.2-9.4-9.3 0-5.2 4.2-9.3 9.4-9.3 5.1 0 9.3 4.1 9.3 9.3z"/>
			<path id="&lt;Path&gt;" class="s3" d="m179.5 320c0 5.2-4.2 9.3-9.3 9.3-5.2 0-9.3-4.1-9.3-9.3 0-5.2 4.1-9.3 9.3-9.3 5.1 0 9.3 4.1 9.3 9.3z"/>
			<path id="&lt;Path&gt;" class="s3" d="m154.7 320c0 5.2-4.2 9.3-9.3 9.3-5.2 0-9.3-4.1-9.3-9.3 0-5.2 4.1-9.3 9.3-9.3 5.1 0 9.3 4.1 9.3 9.3z"/>
			<path id="&lt;Path&gt;" class="s3" d="m129.9 320c0 5.2-4.2 9.3-9.3 9.3-5.2 0-9.3-4.1-9.3-9.3 0-5.2 4.1-9.3 9.3-9.3 5.1 0 9.3 4.1 9.3 9.3z"/>
			<path id="&lt;Path&gt;" class="s3" d="m105.1 320c0 5.2-4.1 9.3-9.3 9.3-5.1 0-9.3-4.1-9.3-9.3 0-5.2 4.2-9.3 9.3-9.3 5.2 0 9.3 4.1 9.3 9.3z"/>
			<path id="&lt;Path&gt;" class="s3" d="m80.3 320c0 5.2-4.1 9.3-9.3 9.3-5.1 0-9.3-4.1-9.3-9.3 0-5.2 4.2-9.3 9.3-9.3 5.2 0 9.3 4.1 9.3 9.3z"/>
			<path id="&lt;Path&gt;" class="s3" d="m253.9 320c0 5.2-4.2 9.3-9.3 9.3-5.2 0-9.4-4.1-9.4-9.3 0-5.2 4.2-9.3 9.4-9.3 5.1 0 9.3 4.1 9.3 9.3z"/>
			<path id="&lt;Path&gt;" class="s3" d="m281.8 320c0 5.2-4.2 9.3-9.3 9.3-5.2 0-9.4-4.1-9.4-9.3 0-5.2 4.2-9.3 9.4-9.3 5.1 0 9.3 4.1 9.3 9.3z"/>
			<path id="&lt;Path&gt;" class="s3" d="m306.6 320c0 5.2-4.2 9.3-9.3 9.3-5.2 0-9.4-4.1-9.4-9.3 0-5.2 4.2-9.3 9.4-9.3 5.1 0 9.3 4.1 9.3 9.3z"/>
			<path id="&lt;Path&gt;" class="s3" d="m331.4 320c0 5.2-4.2 9.3-9.4 9.3-5.1 0-9.3-4.1-9.3-9.3 0-5.2 4.2-9.3 9.3-9.3 5.2 0 9.4 4.1 9.4 9.3z"/>
			<path id="&lt;Path&gt;" class="s3" d="m229.1 320c0 5.2-4.2 9.3-9.3 9.3-5.2 0-9.4-4.1-9.4-9.3 0-5.2 4.2-9.3 9.4-9.3 5.1 0 9.3 4.1 9.3 9.3z"/>
			<path id="&lt;Path&gt;" class="s3" d="m204.3 320c0 5.2-4.2 9.3-9.3 9.3-5.2 0-9.4-4.1-9.4-9.3 0-5.2 4.2-9.3 9.4-9.3 5.1 0 9.3 4.1 9.3 9.3z"/>
			<path id="&lt;Path&gt;" class="s3" d="m787 320c0 5.2-4.2 9.3-9.4 9.3-5.1 0-9.3-4.1-9.3-9.3 0-5.2 4.2-9.3 9.3-9.3 5.2 0 9.4 4.1 9.4 9.3z"/>
			<path id="&lt;Path&gt;" class="s3" d="m762.2 320c0 5.2-4.2 9.3-9.4 9.3-5.1 0-9.3-4.1-9.3-9.3 0-5.2 4.2-9.3 9.3-9.3 5.2 0 9.4 4.1 9.4 9.3z"/>
			<path id="&lt;Path&gt;" class="s3" d="m737.4 320c0 5.2-4.2 9.3-9.3 9.3-5.2 0-9.4-4.1-9.4-9.3 0-5.2 4.2-9.3 9.4-9.3 5.1 0 9.3 4.1 9.3 9.3z"/>
			<path id="&lt;Path&gt;" class="s3" d="m712.6 320c0 5.2-4.2 9.3-9.3 9.3-5.2 0-9.4-4.1-9.4-9.3 0-5.2 4.2-9.3 9.4-9.3 5.1 0 9.3 4.1 9.3 9.3z"/>
			<path id="&lt;Path&gt;" class="s3" d="m737.4 295.2c0 5.2-4.2 9.3-9.3 9.3-5.2 0-9.4-4.1-9.4-9.3 0-5.1 4.2-9.3 9.4-9.3 5.1 0 9.3 4.2 9.3 9.3z"/>
			<path id="&lt;Path&gt;" class="s3" d="m712.6 295.2c0 5.2-4.2 9.3-9.3 9.3-5.2 0-9.4-4.1-9.4-9.3 0-5.1 4.2-9.3 9.4-9.3 5.1 0 9.3 4.2 9.3 9.3z"/>
			<path id="&lt;Path&gt;" class="s3" d="m687.8 320c0 5.2-4.2 9.3-9.3 9.3-5.2 0-9.4-4.1-9.4-9.3 0-5.2 4.2-9.3 9.4-9.3 5.1 0 9.3 4.1 9.3 9.3z"/>
			<path id="&lt;Path&gt;" class="s3" d="m861.4 320c0 5.2-4.2 9.3-9.4 9.3-5.1 0-9.3-4.1-9.3-9.3 0-5.2 4.2-9.3 9.3-9.3 5.2 0 9.4 4.1 9.4 9.3z"/>
			<path id="&lt;Path&gt;" class="s3" d="m889.2 320c0 5.2-4.1 9.3-9.3 9.3-5.1 0-9.3-4.1-9.3-9.3 0-5.2 4.2-9.3 9.3-9.3 5.2 0 9.3 4.1 9.3 9.3z"/>
			<path id="&lt;Path&gt;" class="s3" d="m914 320c0 5.2-4.1 9.3-9.3 9.3-5.1 0-9.3-4.1-9.3-9.3 0-5.2 4.2-9.3 9.3-9.3 5.2 0 9.3 4.1 9.3 9.3z"/>
			<path id="&lt;Path&gt;" class="s3" d="m938.8 320c0 5.2-4.1 9.3-9.3 9.3-5.1 0-9.3-4.1-9.3-9.3 0-5.2 4.2-9.3 9.3-9.3 5.2 0 9.3 4.1 9.3 9.3z"/>
			<path id="&lt;Path&gt;" class="s3" d="m836.6 320c0 5.2-4.2 9.3-9.4 9.3-5.1 0-9.3-4.1-9.3-9.3 0-5.2 4.2-9.3 9.3-9.3 5.2 0 9.4 4.1 9.4 9.3z"/>
			<path id="&lt;Path&gt;" class="s3" d="m811.8 320c0 5.2-4.2 9.3-9.4 9.3-5.1 0-9.3-4.1-9.3-9.3 0-5.2 4.2-9.3 9.3-9.3 5.2 0 9.4 4.1 9.4 9.3z"/>
			<path id="&lt;Path&gt;" class="s3" d="m1065.9 320c0 5.2-4.2 9.3-9.3 9.3-5.2 0-9.4-4.1-9.4-9.3 0-5.2 4.2-9.3 9.4-9.3 5.1 0 9.3 4.1 9.3 9.3z"/>
			<path id="&lt;Path&gt;" class="s3" d="m1041.1 320c0 5.2-4.2 9.3-9.3 9.3-5.2 0-9.4-4.1-9.4-9.3 0-5.2 4.2-9.3 9.4-9.3 5.1 0 9.3 4.1 9.3 9.3z"/>
			<path id="&lt;Path&gt;" class="s3" d="m1016.3 320c0 5.2-4.2 9.3-9.3 9.3-5.2 0-9.3-4.1-9.3-9.3 0-5.2 4.1-9.3 9.3-9.3 5.1 0 9.3 4.1 9.3 9.3z"/>
			<path id="&lt;Path&gt;" class="s3" d="m991.5 320c0 5.2-4.2 9.3-9.3 9.3-5.2 0-9.3-4.1-9.3-9.3 0-5.2 4.1-9.3 9.3-9.3 5.1 0 9.3 4.1 9.3 9.3z"/>
			<path id="&lt;Path&gt;" class="s3" d="m966.7 320c0 5.2-4.2 9.3-9.3 9.3-5.2 0-9.3-4.1-9.3-9.3 0-5.2 4.1-9.3 9.3-9.3 5.1 0 9.3 4.1 9.3 9.3z"/>
			<path id="&lt;Path&gt;" class="s3" d="m1140.3 320c0 5.2-4.2 9.3-9.3 9.3-5.2 0-9.4-4.1-9.4-9.3 0-5.2 4.2-9.3 9.4-9.3 5.1 0 9.3 4.1 9.3 9.3z"/>
			<path id="&lt;Path&gt;" class="s3" d="m1168.2 320c0 5.2-4.2 9.3-9.4 9.3-5.1 0-9.3-4.1-9.3-9.3 0-5.2 4.2-9.3 9.3-9.3 5.2 0 9.4 4.1 9.4 9.3z"/>
			<path id="&lt;Path&gt;" class="s3" d="m1193 320c0 5.2-4.2 9.3-9.4 9.3-5.1 0-9.3-4.1-9.3-9.3 0-5.2 4.2-9.3 9.3-9.3 5.2 0 9.4 4.1 9.4 9.3z"/>
			<path id="&lt;Path&gt;" class="s3" d="m1217.8 320c0 5.2-4.2 9.3-9.4 9.3-5.1 0-9.3-4.1-9.3-9.3 0-5.2 4.2-9.3 9.3-9.3 5.2 0 9.4 4.1 9.4 9.3z"/>
			<path id="&lt;Path&gt;" class="s3" d="m1245.7 320c0 5.2-4.2 9.3-9.4 9.3-5.1 0-9.3-4.1-9.3-9.3 0-5.2 4.2-9.3 9.3-9.3 5.2 0 9.4 4.1 9.4 9.3z"/>
			<path id="&lt;Path&gt;" class="s3" d="m1270.5 320c0 5.2-4.2 9.3-9.4 9.3-5.1 0-9.3-4.1-9.3-9.3 0-5.2 4.2-9.3 9.3-9.3 5.2 0 9.4 4.1 9.4 9.3z"/>
			<path id="&lt;Path&gt;" class="s3" d="m1115.5 320c0 5.2-4.2 9.3-9.3 9.3-5.2 0-9.4-4.1-9.4-9.3 0-5.2 4.2-9.3 9.4-9.3 5.1 0 9.3 4.1 9.3 9.3z"/>
			<path id="&lt;Path&gt;" class="s3" d="m1090.7 320c0 5.2-4.2 9.3-9.3 9.3-5.2 0-9.4-4.1-9.4-9.3 0-5.2 4.2-9.3 9.4-9.3 5.1 0 9.3 4.1 9.3 9.3z"/>
			<path id="&lt;Path&gt;" class="s3" d="m687.8 419.2c0 5.1-4.2 9.3-9.3 9.3-5.2 0-9.4-4.2-9.4-9.3 0-5.2 4.2-9.4 9.4-9.4 5.1 0 9.3 4.2 9.3 9.4z"/>
			<path id="&lt;Path&gt;" class="s3" d="m663 419.2c0 5.1-4.2 9.3-9.3 9.3-5.2 0-9.4-4.2-9.4-9.3 0-5.2 4.2-9.4 9.4-9.4 5.1 0 9.3 4.2 9.3 9.4z"/>
			<path id="&lt;Path&gt;" class="s3" d="m638.2 419.2c0 5.1-4.2 9.3-9.3 9.3-5.2 0-9.4-4.2-9.4-9.3 0-5.2 4.2-9.4 9.4-9.4 5.1 0 9.3 4.2 9.3 9.4z"/>
			<path id="&lt;Path&gt;" class="s3" d="m613.4 419.2c0 5.1-4.2 9.3-9.3 9.3-5.2 0-9.3-4.2-9.3-9.3 0-5.2 4.1-9.4 9.3-9.4 5.1 0 9.3 4.2 9.3 9.4z"/>
			<path id="&lt;Path&gt;" class="s3" d="m613.4 394.4c0 5.1-4.2 9.3-9.3 9.3-5.2 0-9.3-4.2-9.3-9.3 0-5.2 4.1-9.3 9.3-9.3 5.1 0 9.3 4.1 9.3 9.3z"/>
			<path id="&lt;Path&gt;" class="s3" d="m588.6 419.2c0 5.1-4.2 9.3-9.3 9.3-5.2 0-9.3-4.2-9.3-9.3 0-5.2 4.1-9.4 9.3-9.4 5.1 0 9.3 4.2 9.3 9.4z"/>
			<path id="&lt;Path&gt;" class="s3" d="m762.2 419.2c0 5.1-4.2 9.3-9.4 9.3-5.1 0-9.3-4.2-9.3-9.3 0-5.2 4.2-9.4 9.3-9.4 5.2 0 9.4 4.2 9.4 9.4z"/>
			<path id="&lt;Path&gt;" class="s3" d="m790.1 419.2c0 5.1-4.2 9.3-9.4 9.3-5.1 0-9.3-4.2-9.3-9.3 0-5.2 4.2-9.4 9.3-9.4 5.2 0 9.4 4.2 9.4 9.4z"/>
			<path id="&lt;Path&gt;" class="s3" d="m814.9 419.2c0 5.1-4.2 9.3-9.4 9.3-5.1 0-9.3-4.2-9.3-9.3 0-5.2 4.2-9.4 9.3-9.4 5.2 0 9.4 4.2 9.4 9.4z"/>
			<path id="&lt;Path&gt;" class="s3" d="m839.7 419.2c0 5.1-4.2 9.3-9.4 9.3-5.1 0-9.3-4.2-9.3-9.3 0-5.2 4.2-9.4 9.3-9.4 5.2 0 9.4 4.2 9.4 9.4z"/>
			<path id="&lt;Path&gt;" class="s3" d="m737.4 419.2c0 5.1-4.2 9.3-9.3 9.3-5.2 0-9.4-4.2-9.4-9.3 0-5.2 4.2-9.4 9.4-9.4 5.1 0 9.3 4.2 9.3 9.4z"/>
			<path id="&lt;Path&gt;" class="s3" d="m712.6 419.2c0 5.1-4.2 9.3-9.3 9.3-5.2 0-9.4-4.2-9.4-9.3 0-5.2 4.2-9.4 9.4-9.4 5.1 0 9.3 4.2 9.3 9.4z"/>
			<path id="&lt;Path&gt;" class="s3" d="m966.7 419.2c0 5.1-4.2 9.3-9.3 9.3-5.2 0-9.3-4.2-9.3-9.3 0-5.2 4.1-9.4 9.3-9.4 5.1 0 9.3 4.2 9.3 9.4z"/>
			<path id="&lt;Path&gt;" class="s3" d="m941.9 419.2c0 5.1-4.1 9.3-9.3 9.3-5.1 0-9.3-4.2-9.3-9.3 0-5.2 4.2-9.4 9.3-9.4 5.2 0 9.3 4.2 9.3 9.4z"/>
			<path id="&lt;Path&gt;" class="s3" d="m917.1 419.2c0 5.1-4.1 9.3-9.3 9.3-5.1 0-9.3-4.2-9.3-9.3 0-5.2 4.2-9.4 9.3-9.4 5.2 0 9.3 4.2 9.3 9.4z"/>
			<path id="&lt;Path&gt;" class="s3" d="m892.3 419.2c0 5.1-4.1 9.3-9.3 9.3-5.1 0-9.3-4.2-9.3-9.3 0-5.2 4.2-9.4 9.3-9.4 5.2 0 9.3 4.2 9.3 9.4z"/>
			<path id="&lt;Path&gt;" class="s3" d="m867.6 419.2c0 5.1-4.2 9.3-9.4 9.3-5.1 0-9.3-4.2-9.3-9.3 0-5.2 4.2-9.4 9.3-9.4 5.2 0 9.4 4.2 9.4 9.4z"/>
			<path id="&lt;Path&gt;" class="s3" d="m1041.1 419.2c0 5.1-4.2 9.3-9.3 9.3-5.2 0-9.4-4.2-9.4-9.3 0-5.2 4.2-9.4 9.4-9.4 5.1 0 9.3 4.2 9.3 9.4z"/>
			<path id="&lt;Path&gt;" class="s3" d="m1069 419.2c0 5.1-4.2 9.3-9.3 9.3-5.2 0-9.4-4.2-9.4-9.3 0-5.2 4.2-9.4 9.4-9.4 5.1 0 9.3 4.2 9.3 9.4z"/>
			<path id="&lt;Path&gt;" class="s3" d="m1093.8 419.2c0 5.1-4.2 9.3-9.3 9.3-5.2 0-9.4-4.2-9.4-9.3 0-5.2 4.2-9.4 9.4-9.4 5.1 0 9.3 4.2 9.3 9.4z"/>
			<path id="&lt;Path&gt;" class="s3" d="m1171.3 388.2c0 5.1-4.2 9.3-9.4 9.3-5.1 0-9.3-4.2-9.3-9.3 0-5.2 4.2-9.3 9.3-9.3 5.2 0 9.4 4.1 9.4 9.3z"/>
			<path id="&lt;Path&gt;" class="s3" d="m1168.2 420.7c0 5.2-4.2 9.4-9.4 9.4-5.1 0-9.3-4.2-9.3-9.4 0-5.1 4.2-9.3 9.3-9.3 5.2 0 9.4 4.2 9.4 9.3z"/>
			<path id="&lt;Path&gt;" class="s3" d="m1115.5 473.4c0 5.2-4.2 9.3-9.3 9.3-5.2 0-9.4-4.1-9.4-9.3 0-5.1 4.2-9.3 9.4-9.3 5.1 0 9.3 4.2 9.3 9.3z"/>
			<path id="&lt;Path&gt;" class="s3" d="m1093.8 498.2c0 5.2-4.2 9.3-9.3 9.3-5.2 0-9.4-4.1-9.4-9.3 0-5.1 4.2-9.3 9.4-9.3 5.1 0 9.3 4.2 9.3 9.3z"/>
			<path id="&lt;Path&gt;" class="s3" d="m1016.3 419.2c0 5.1-4.2 9.3-9.3 9.3-5.2 0-9.3-4.2-9.3-9.3 0-5.2 4.1-9.4 9.3-9.4 5.1 0 9.3 4.2 9.3 9.4z"/>
			<path id="&lt;Path&gt;" class="s3" d="m991.5 419.2c0 5.1-4.2 9.3-9.3 9.3-5.2 0-9.3-4.2-9.3-9.3 0-5.2 4.1-9.4 9.3-9.4 5.1 0 9.3 4.2 9.3 9.4z"/>
			<path id="&lt;Path&gt;" class="s3" d="m687.8 447.1c0 5.1-4.2 9.3-9.3 9.3-5.2 0-9.4-4.2-9.4-9.3 0-5.2 4.2-9.4 9.4-9.4 5.1 0 9.3 4.2 9.3 9.4z"/>
			<path id="&lt;Path&gt;" class="s3" d="m663 447.1c0 5.1-4.2 9.3-9.3 9.3-5.2 0-9.4-4.2-9.4-9.3 0-5.2 4.2-9.4 9.4-9.4 5.1 0 9.3 4.2 9.3 9.4z"/>
			<path id="&lt;Path&gt;" class="s3" d="m638.2 447.1c0 5.1-4.2 9.3-9.3 9.3-5.2 0-9.4-4.2-9.4-9.3 0-5.2 4.2-9.4 9.4-9.4 5.1 0 9.3 4.2 9.3 9.4z"/>
			<path id="&lt;Path&gt;" class="s3" d="m613.4 447.1c0 5.1-4.2 9.3-9.3 9.3-5.2 0-9.3-4.2-9.3-9.3 0-5.2 4.1-9.4 9.3-9.4 5.1 0 9.3 4.2 9.3 9.4z"/>
			<path id="&lt;Path&gt;" class="s3" d="m762.2 447.1c0 5.1-4.2 9.3-9.4 9.3-5.1 0-9.3-4.2-9.3-9.3 0-5.2 4.2-9.4 9.3-9.4 5.2 0 9.4 4.2 9.4 9.4z"/>
			<path id="&lt;Path&gt;" class="s3" d="m790.1 447.1c0 5.1-4.2 9.3-9.4 9.3-5.1 0-9.3-4.2-9.3-9.3 0-5.2 4.2-9.4 9.3-9.4 5.2 0 9.4 4.2 9.4 9.4z"/>
			<path id="&lt;Path&gt;" class="s3" d="m814.9 447.1c0 5.1-4.2 9.3-9.4 9.3-5.1 0-9.3-4.2-9.3-9.3 0-5.2 4.2-9.4 9.3-9.4 5.2 0 9.4 4.2 9.4 9.4z"/>
			<path id="&lt;Path&gt;" class="s3" d="m839.7 447.1c0 5.1-4.2 9.3-9.4 9.3-5.1 0-9.3-4.2-9.3-9.3 0-5.2 4.2-9.4 9.3-9.4 5.2 0 9.4 4.2 9.4 9.4z"/>
			<path id="&lt;Path&gt;" class="s3" d="m737.4 447.1c0 5.1-4.2 9.3-9.3 9.3-5.2 0-9.4-4.2-9.4-9.3 0-5.2 4.2-9.4 9.4-9.4 5.1 0 9.3 4.2 9.3 9.4z"/>
			<path id="&lt;Path&gt;" class="s3" d="m712.6 447.1c0 5.1-4.2 9.3-9.3 9.3-5.2 0-9.4-4.2-9.4-9.3 0-5.2 4.2-9.4 9.4-9.4 5.1 0 9.3 4.2 9.3 9.4z"/>
			<path id="&lt;Path&gt;" class="s3" d="m966.7 447.1c0 5.1-4.2 9.3-9.3 9.3-5.2 0-9.3-4.2-9.3-9.3 0-5.2 4.1-9.4 9.3-9.4 5.1 0 9.3 4.2 9.3 9.4z"/>
			<path id="&lt;Path&gt;" class="s3" d="m941.9 447.1c0 5.1-4.1 9.3-9.3 9.3-5.1 0-9.3-4.2-9.3-9.3 0-5.2 4.2-9.4 9.3-9.4 5.2 0 9.3 4.2 9.3 9.4z"/>
			<path id="&lt;Path&gt;" class="s3" d="m917.1 447.1c0 5.1-4.1 9.3-9.3 9.3-5.1 0-9.3-4.2-9.3-9.3 0-5.2 4.2-9.4 9.3-9.4 5.2 0 9.3 4.2 9.3 9.4z"/>
			<path id="&lt;Path&gt;" class="s3" d="m892.3 447.1c0 5.1-4.1 9.3-9.3 9.3-5.1 0-9.3-4.2-9.3-9.3 0-5.2 4.2-9.4 9.3-9.4 5.2 0 9.3 4.2 9.3 9.4z"/>
			<path id="&lt;Path&gt;" class="s3" d="m867.6 447.1c0 5.1-4.2 9.3-9.4 9.3-5.1 0-9.3-4.2-9.3-9.3 0-5.2 4.2-9.4 9.3-9.4 5.2 0 9.4 4.2 9.4 9.4z"/>
			<path id="&lt;Path&gt;" class="s3" d="m1041.1 447.1c0 5.1-4.2 9.3-9.3 9.3-5.2 0-9.4-4.2-9.4-9.3 0-5.2 4.2-9.4 9.4-9.4 5.1 0 9.3 4.2 9.3 9.4z"/>
			<path id="&lt;Path&gt;" class="s3" d="m1069 447.1c0 5.1-4.2 9.3-9.3 9.3-5.2 0-9.4-4.2-9.4-9.3 0-5.2 4.2-9.4 9.4-9.4 5.1 0 9.3 4.2 9.3 9.4z"/>
			<path id="&lt;Path&gt;" class="s3" d="m1093.8 447.1c0 5.1-4.2 9.3-9.3 9.3-5.2 0-9.4-4.2-9.4-9.3 0-5.2 4.2-9.4 9.4-9.4 5.1 0 9.3 4.2 9.3 9.4z"/>
			<path id="&lt;Path&gt;" class="s3" d="m1016.3 447.1c0 5.1-4.2 9.3-9.3 9.3-5.2 0-9.3-4.2-9.3-9.3 0-5.2 4.1-9.4 9.3-9.4 5.1 0 9.3 4.2 9.3 9.4z"/>
			<path id="&lt;Path&gt;" class="s3" d="m991.5 447.1c0 5.1-4.2 9.3-9.3 9.3-5.2 0-9.3-4.2-9.3-9.3 0-5.2 4.1-9.4 9.3-9.4 5.1 0 9.3 4.2 9.3 9.4z"/>
			<path id="&lt;Path&gt;" class="s3" d="m613.4 521.5c0 5.1-4.2 9.3-9.3 9.3-5.2 0-9.3-4.2-9.3-9.3 0-5.2 4.1-9.4 9.3-9.4 5.1 0 9.3 4.2 9.3 9.4z"/>
			<path id="&lt;Path&gt;" class="s3" d="m588.6 521.5c0 5.1-4.2 9.3-9.3 9.3-5.2 0-9.3-4.2-9.3-9.3 0-5.2 4.1-9.4 9.3-9.4 5.1 0 9.3 4.2 9.3 9.4z"/>
			<path id="&lt;Path&gt;" class="s3" d="m687.8 521.5c0 5.1-4.2 9.3-9.3 9.3-5.2 0-9.4-4.2-9.4-9.3 0-5.2 4.2-9.4 9.4-9.4 5.1 0 9.3 4.2 9.3 9.4z"/>
			<path id="&lt;Path&gt;" class="s3" d="m715.7 521.5c0 5.1-4.2 9.3-9.3 9.3-5.2 0-9.4-4.2-9.4-9.3 0-5.2 4.2-9.4 9.4-9.4 5.1 0 9.3 4.2 9.3 9.4z"/>
			<path id="&lt;Path&gt;" class="s3" d="m740.5 521.5c0 5.1-4.2 9.3-9.3 9.3-5.2 0-9.4-4.2-9.4-9.3 0-5.2 4.2-9.4 9.4-9.4 5.1 0 9.3 4.2 9.3 9.4z"/>
			<path id="&lt;Path&gt;" class="s3" d="m765.3 521.5c0 5.1-4.2 9.3-9.4 9.3-5.1 0-9.3-4.2-9.3-9.3 0-5.2 4.2-9.4 9.3-9.4 5.2 0 9.4 4.2 9.4 9.4z"/>
			<path id="&lt;Path&gt;" class="s3" d="m663 521.5c0 5.1-4.2 9.3-9.3 9.3-5.2 0-9.4-4.2-9.4-9.3 0-5.2 4.2-9.4 9.4-9.4 5.1 0 9.3 4.2 9.3 9.4z"/>
			<path id="&lt;Path&gt;" class="s3" d="m638.2 521.5c0 5.1-4.2 9.3-9.3 9.3-5.2 0-9.4-4.2-9.4-9.3 0-5.2 4.2-9.4 9.4-9.4 5.1 0 9.3 4.2 9.3 9.4z"/>
			<path id="&lt;Path&gt;" class="s3" d="m892.3 521.5c0 5.1-4.1 9.3-9.3 9.3-5.1 0-9.3-4.2-9.3-9.3 0-5.2 4.2-9.4 9.3-9.4 5.2 0 9.3 4.2 9.3 9.4z"/>
			<path id="&lt;Path&gt;" class="s3" d="m867.6 521.5c0 5.1-4.2 9.3-9.4 9.3-5.1 0-9.3-4.2-9.3-9.3 0-5.2 4.2-9.4 9.3-9.4 5.2 0 9.4 4.2 9.4 9.4z"/>
			<path id="&lt;Path&gt;" class="s3" d="m842.8 521.5c0 5.1-4.2 9.3-9.4 9.3-5.1 0-9.3-4.2-9.3-9.3 0-5.2 4.2-9.4 9.3-9.4 5.2 0 9.4 4.2 9.4 9.4z"/>
			<path id="&lt;Path&gt;" class="s3" d="m818 521.5c0 5.1-4.2 9.3-9.4 9.3-5.1 0-9.3-4.2-9.3-9.3 0-5.2 4.2-9.4 9.3-9.4 5.2 0 9.4 4.2 9.4 9.4z"/>
			<path id="&lt;Path&gt;" class="s3" d="m793.2 521.5c0 5.1-4.2 9.3-9.4 9.3-5.1 0-9.3-4.2-9.3-9.3 0-5.2 4.2-9.4 9.3-9.4 5.2 0 9.4 4.2 9.4 9.4z"/>
			<path id="&lt;Path&gt;" class="s3" d="m966.7 521.5c0 5.1-4.2 9.3-9.3 9.3-5.2 0-9.3-4.2-9.3-9.3 0-5.2 4.1-9.4 9.3-9.4 5.1 0 9.3 4.2 9.3 9.4z"/>
			<path id="&lt;Path&gt;" class="s3" d="m994.6 521.5c0 5.1-4.2 9.3-9.3 9.3-5.2 0-9.3-4.2-9.3-9.3 0-5.2 4.1-9.4 9.3-9.4 5.1 0 9.3 4.2 9.3 9.4z"/>
			<path id="&lt;Path&gt;" class="s3" d="m1019.4 521.5c0 5.1-4.2 9.3-9.3 9.3-5.2 0-9.3-4.2-9.3-9.3 0-5.2 4.1-9.4 9.3-9.4 5.1 0 9.3 4.2 9.3 9.4z"/>
			<path id="&lt;Path&gt;" class="s3" d="m941.9 521.5c0 5.1-4.1 9.3-9.3 9.3-5.1 0-9.3-4.2-9.3-9.3 0-5.2 4.2-9.4 9.3-9.4 5.2 0 9.3 4.2 9.3 9.4z"/>
			<path id="&lt;Path&gt;" class="s3" d="m917.1 521.5c0 5.1-4.1 9.3-9.3 9.3-5.1 0-9.3-4.2-9.3-9.3 0-5.2 4.2-9.4 9.3-9.4 5.2 0 9.3 4.2 9.3 9.4z"/>
			<path id="&lt;Path&gt;" class="s3" d="m613.4 546.2c0 5.2-4.2 9.4-9.3 9.4-5.2 0-9.3-4.2-9.3-9.4 0-5.1 4.1-9.3 9.3-9.3 5.1 0 9.3 4.2 9.3 9.3z"/>
			<path id="&lt;Path&gt;" class="s3" d="m588.6 546.2c0 5.2-4.2 9.4-9.3 9.4-5.2 0-9.3-4.2-9.3-9.4 0-5.1 4.1-9.3 9.3-9.3 5.1 0 9.3 4.2 9.3 9.3z"/>
			<path id="&lt;Path&gt;" class="s3" d="m687.8 546.2c0 5.2-4.2 9.4-9.3 9.4-5.2 0-9.4-4.2-9.4-9.4 0-5.1 4.2-9.3 9.4-9.3 5.1 0 9.3 4.2 9.3 9.3z"/>
			<path id="&lt;Path&gt;" class="s3" d="m715.7 546.2c0 5.2-4.2 9.4-9.3 9.4-5.2 0-9.4-4.2-9.4-9.4 0-5.1 4.2-9.3 9.4-9.3 5.1 0 9.3 4.2 9.3 9.3z"/>
			<path id="&lt;Path&gt;" class="s3" d="m740.5 546.2c0 5.2-4.2 9.4-9.3 9.4-5.2 0-9.4-4.2-9.4-9.4 0-5.1 4.2-9.3 9.4-9.3 5.1 0 9.3 4.2 9.3 9.3z"/>
			<path id="&lt;Path&gt;" class="s3" d="m765.3 546.2c0 5.2-4.2 9.4-9.4 9.4-5.1 0-9.3-4.2-9.3-9.4 0-5.1 4.2-9.3 9.3-9.3 5.2 0 9.4 4.2 9.4 9.3z"/>
			<path id="&lt;Path&gt;" class="s3" d="m663 546.2c0 5.2-4.2 9.4-9.3 9.4-5.2 0-9.4-4.2-9.4-9.4 0-5.1 4.2-9.3 9.4-9.3 5.1 0 9.3 4.2 9.3 9.3z"/>
			<path id="&lt;Path&gt;" class="s3" d="m638.2 546.2c0 5.2-4.2 9.4-9.3 9.4-5.2 0-9.4-4.2-9.4-9.4 0-5.1 4.2-9.3 9.4-9.3 5.1 0 9.3 4.2 9.3 9.3z"/>
			<path id="&lt;Path&gt;" class="s3" d="m892.3 546.2c0 5.2-4.1 9.4-9.3 9.4-5.1 0-9.3-4.2-9.3-9.4 0-5.1 4.2-9.3 9.3-9.3 5.2 0 9.3 4.2 9.3 9.3z"/>
			<path id="&lt;Path&gt;" class="s3" d="m818 546.2c0 5.2-4.2 9.4-9.4 9.4-5.1 0-9.3-4.2-9.3-9.4 0-5.1 4.2-9.3 9.3-9.3 5.2 0 9.4 4.2 9.4 9.3z"/>
			<path id="&lt;Path&gt;" class="s3" d="m793.2 546.2c0 5.2-4.2 9.4-9.4 9.4-5.1 0-9.3-4.2-9.3-9.4 0-5.1 4.2-9.3 9.3-9.3 5.2 0 9.4 4.2 9.4 9.3z"/>
			<path id="&lt;Path&gt;" class="s3" d="m613.4 574.1c0 5.2-4.2 9.4-9.3 9.4-5.2 0-9.3-4.2-9.3-9.4 0-5.1 4.1-9.3 9.3-9.3 5.1 0 9.3 4.2 9.3 9.3z"/>
			<path id="&lt;Path&gt;" class="s3" d="m588.6 574.1c0 5.2-4.2 9.4-9.3 9.4-5.2 0-9.3-4.2-9.3-9.4 0-5.1 4.1-9.3 9.3-9.3 5.1 0 9.3 4.2 9.3 9.3z"/>
			<path id="&lt;Path&gt;" class="s3" d="m687.8 574.1c0 5.2-4.2 9.4-9.3 9.4-5.2 0-9.4-4.2-9.4-9.4 0-5.1 4.2-9.3 9.4-9.3 5.1 0 9.3 4.2 9.3 9.3z"/>
			<path id="&lt;Path&gt;" class="s3" d="m715.7 574.1c0 5.2-4.2 9.4-9.3 9.4-5.2 0-9.4-4.2-9.4-9.4 0-5.1 4.2-9.3 9.4-9.3 5.1 0 9.3 4.2 9.3 9.3z"/>
			<path id="&lt;Path&gt;" class="s3" d="m740.5 574.1c0 5.2-4.2 9.4-9.3 9.4-5.2 0-9.4-4.2-9.4-9.4 0-5.1 4.2-9.3 9.4-9.3 5.1 0 9.3 4.2 9.3 9.3z"/>
			<path id="&lt;Path&gt;" class="s3" d="m765.3 574.1c0 5.2-4.2 9.4-9.4 9.4-5.1 0-9.3-4.2-9.3-9.4 0-5.1 4.2-9.3 9.3-9.3 5.2 0 9.4 4.2 9.4 9.3z"/>
			<path id="&lt;Path&gt;" class="s3" d="m663 574.1c0 5.2-4.2 9.4-9.3 9.4-5.2 0-9.4-4.2-9.4-9.4 0-5.1 4.2-9.3 9.4-9.3 5.1 0 9.3 4.2 9.3 9.3z"/>
			<path id="&lt;Path&gt;" class="s3" d="m638.2 574.1c0 5.2-4.2 9.4-9.3 9.4-5.2 0-9.4-4.2-9.4-9.4 0-5.1 4.2-9.3 9.4-9.3 5.1 0 9.3 4.2 9.3 9.3z"/>
			<path id="&lt;Path&gt;" class="s3" d="m818 574.1c0 5.2-4.2 9.4-9.4 9.4-5.1 0-9.3-4.2-9.3-9.4 0-5.1 4.2-9.3 9.3-9.3 5.2 0 9.4 4.2 9.4 9.3z"/>
			<path id="&lt;Path&gt;" class="s3" d="m892.3 569.5c0 5.2-4.1 9.4-9.3 9.4-5.1 0-9.3-4.2-9.3-9.4 0-5.1 4.2-9.3 9.3-9.3 5.2 0 9.3 4.2 9.3 9.3z"/>
			<path id="&lt;Path&gt;" class="s3" d="m892.3 597.4c0 5.2-4.1 9.4-9.3 9.4-5.1 0-9.3-4.2-9.3-9.4 0-5.1 4.2-9.3 9.3-9.3 5.2 0 9.3 4.2 9.3 9.3z"/>
			<path id="&lt;Path&gt;" class="s3" d="m793.2 574.1c0 5.2-4.2 9.4-9.4 9.4-5.1 0-9.3-4.2-9.3-9.4 0-5.1 4.2-9.3 9.3-9.3 5.2 0 9.4 4.2 9.4 9.3z"/>
			<path id="&lt;Path&gt;" class="s3" d="m613.4 598.9c0 5.2-4.2 9.4-9.3 9.4-5.2 0-9.3-4.2-9.3-9.4 0-5.1 4.1-9.3 9.3-9.3 5.1 0 9.3 4.2 9.3 9.3z"/>
			<path id="&lt;Path&gt;" class="s3" d="m588.6 598.9c0 5.2-4.2 9.4-9.3 9.4-5.2 0-9.3-4.2-9.3-9.4 0-5.1 4.1-9.3 9.3-9.3 5.1 0 9.3 4.2 9.3 9.3z"/>
			<path id="&lt;Path&gt;" class="s3" d="m687.8 598.9c0 5.2-4.2 9.4-9.3 9.4-5.2 0-9.4-4.2-9.4-9.4 0-5.1 4.2-9.3 9.4-9.3 5.1 0 9.3 4.2 9.3 9.3z"/>
			<path id="&lt;Path&gt;" class="s3" d="m715.7 598.9c0 5.2-4.2 9.4-9.3 9.4-5.2 0-9.4-4.2-9.4-9.4 0-5.1 4.2-9.3 9.4-9.3 5.1 0 9.3 4.2 9.3 9.3z"/>
			<path id="&lt;Path&gt;" class="s3" d="m740.5 598.9c0 5.2-4.2 9.4-9.3 9.4-5.2 0-9.4-4.2-9.4-9.4 0-5.1 4.2-9.3 9.4-9.3 5.1 0 9.3 4.2 9.3 9.3z"/>
			<path id="&lt;Path&gt;" class="s3" d="m765.3 598.9c0 5.2-4.2 9.4-9.4 9.4-5.1 0-9.3-4.2-9.3-9.4 0-5.1 4.2-9.3 9.3-9.3 5.2 0 9.4 4.2 9.4 9.3z"/>
			<path id="&lt;Path&gt;" class="s3" d="m663 598.9c0 5.2-4.2 9.4-9.3 9.4-5.2 0-9.4-4.2-9.4-9.4 0-5.1 4.2-9.3 9.4-9.3 5.1 0 9.3 4.2 9.3 9.3z"/>
			<path id="&lt;Path&gt;" class="s3" d="m638.2 598.9c0 5.2-4.2 9.4-9.3 9.4-5.2 0-9.4-4.2-9.4-9.4 0-5.1 4.2-9.3 9.4-9.3 5.1 0 9.3 4.2 9.3 9.3z"/>
			<path id="&lt;Path&gt;" class="s3" d="m793.2 598.9c0 5.2-4.2 9.4-9.4 9.4-5.1 0-9.3-4.2-9.3-9.4 0-5.1 4.2-9.3 9.3-9.3 5.2 0 9.4 4.2 9.4 9.3z"/>
			<path id="&lt;Path&gt;" class="s3" d="m687.8 623.7c0 5.2-4.2 9.4-9.3 9.4-5.2 0-9.4-4.2-9.4-9.4 0-5.1 4.2-9.3 9.4-9.3 5.1 0 9.3 4.2 9.3 9.3z"/>
			<path id="&lt;Path&gt;" class="s3" d="m715.7 623.7c0 5.2-4.2 9.4-9.3 9.4-5.2 0-9.4-4.2-9.4-9.4 0-5.1 4.2-9.3 9.4-9.3 5.1 0 9.3 4.2 9.3 9.3z"/>
			<path id="&lt;Path&gt;" class="s3" d="m740.5 623.7c0 5.2-4.2 9.4-9.3 9.4-5.2 0-9.4-4.2-9.4-9.4 0-5.1 4.2-9.3 9.4-9.3 5.1 0 9.3 4.2 9.3 9.3z"/>
			<path id="&lt;Path&gt;" class="s3" d="m765.3 623.7c0 5.2-4.2 9.4-9.4 9.4-5.1 0-9.3-4.2-9.3-9.4 0-5.1 4.2-9.3 9.3-9.3 5.2 0 9.4 4.2 9.4 9.3z"/>
			<path id="&lt;Path&gt;" class="s3" d="m793.2 623.7c0 5.2-4.2 9.4-9.4 9.4-5.1 0-9.3-4.2-9.3-9.4 0-5.1 4.2-9.3 9.3-9.3 5.2 0 9.4 4.2 9.4 9.3z"/>
			<path id="&lt;Path&gt;" class="s3" d="m687.8 648.5c0 5.2-4.2 9.4-9.3 9.4-5.2 0-9.4-4.2-9.4-9.4 0-5.1 4.2-9.3 9.4-9.3 5.1 0 9.3 4.2 9.3 9.3z"/>
			<path id="&lt;Path&gt;" class="s3" d="m715.7 648.5c0 5.2-4.2 9.4-9.3 9.4-5.2 0-9.4-4.2-9.4-9.4 0-5.1 4.2-9.3 9.4-9.3 5.1 0 9.3 4.2 9.3 9.3z"/>
			<path id="&lt;Path&gt;" class="s3" d="m740.5 648.5c0 5.2-4.2 9.4-9.3 9.4-5.2 0-9.4-4.2-9.4-9.4 0-5.1 4.2-9.3 9.4-9.3 5.1 0 9.3 4.2 9.3 9.3z"/>
			<path id="&lt;Path&gt;" class="s3" d="m687.8 673.3c0 5.2-4.2 9.3-9.3 9.3-5.2 0-9.4-4.1-9.4-9.3 0-5.1 4.2-9.3 9.4-9.3 5.1 0 9.3 4.2 9.3 9.3z"/>
			<path id="&lt;Path&gt;" class="s3" d="m715.7 673.3c0 5.2-4.2 9.3-9.3 9.3-5.2 0-9.4-4.1-9.4-9.3 0-5.1 4.2-9.3 9.4-9.3 5.1 0 9.3 4.2 9.3 9.3z"/>
			<path id="&lt;Path&gt;" class="s3" d="m740.5 673.3c0 5.2-4.2 9.3-9.3 9.3-5.2 0-9.4-4.1-9.4-9.3 0-5.1 4.2-9.3 9.4-9.3 5.1 0 9.3 4.2 9.3 9.3z"/>
			<path id="&lt;Path&gt;" class="s3" d="m687.8 698.1c0 5.2-4.2 9.3-9.3 9.3-5.2 0-9.4-4.1-9.4-9.3 0-5.1 4.2-9.3 9.4-9.3 5.1 0 9.3 4.2 9.3 9.3z"/>
			<path id="&lt;Path&gt;" class="s3" d="m715.7 698.1c0 5.2-4.2 9.3-9.3 9.3-5.2 0-9.4-4.1-9.4-9.3 0-5.1 4.2-9.3 9.4-9.3 5.1 0 9.3 4.2 9.3 9.3z"/>
			<path id="&lt;Path&gt;" class="s3" d="m687.8 726c0 5.2-4.2 9.3-9.3 9.3-5.2 0-9.4-4.1-9.4-9.3 0-5.1 4.2-9.3 9.4-9.3 5.1 0 9.3 4.2 9.3 9.3z"/>
			<path id="&lt;Path&gt;" class="s3" d="m715.7 726c0 5.2-4.2 9.3-9.3 9.3-5.2 0-9.4-4.1-9.4-9.3 0-5.1 4.2-9.3 9.4-9.3 5.1 0 9.3 4.2 9.3 9.3z"/>
			<path id="&lt;Path&gt;" class="s3" d="m740.5 698.1c0 5.2-4.2 9.3-9.3 9.3-5.2 0-9.4-4.1-9.4-9.3 0-5.1 4.2-9.3 9.4-9.3 5.1 0 9.3 4.2 9.3 9.3z"/>
			<path id="&lt;Path&gt;" class="s3" d="m790.1 673.3c0 5.2-4.2 9.3-9.4 9.3-5.1 0-9.3-4.1-9.3-9.3 0-5.1 4.2-9.3 9.3-9.3 5.2 0 9.4 4.2 9.4 9.3z"/>
			<path id="&lt;Path&gt;" class="s3" d="m790.1 698.1c0 5.2-4.2 9.3-9.4 9.3-5.1 0-9.3-4.1-9.3-9.3 0-5.1 4.2-9.3 9.3-9.3 5.2 0 9.4 4.2 9.4 9.3z"/>
			<path id="&lt;Path&gt;" class="s3" d="m765.3 648.5c0 5.2-4.2 9.4-9.4 9.4-5.1 0-9.3-4.2-9.3-9.4 0-5.1 4.2-9.3 9.3-9.3 5.2 0 9.4 4.2 9.4 9.3z"/>
			<path id="&lt;Path&gt;" class="s3" d="m966.7 546.2c0 5.2-4.2 9.4-9.3 9.4-5.2 0-9.3-4.2-9.3-9.4 0-5.1 4.1-9.3 9.3-9.3 5.1 0 9.3 4.2 9.3 9.3z"/>
			<path id="&lt;Path&gt;" class="s3" d="m994.6 546.2c0 5.2-4.2 9.4-9.3 9.4-5.2 0-9.3-4.2-9.3-9.4 0-5.1 4.1-9.3 9.3-9.3 5.1 0 9.3 4.2 9.3 9.3z"/>
			<path id="&lt;Path&gt;" class="s3" d="m966.7 571c0 5.2-4.2 9.4-9.3 9.4-5.2 0-9.3-4.2-9.3-9.4 0-5.1 4.1-9.3 9.3-9.3 5.1 0 9.3 4.2 9.3 9.3z"/>
			<path id="&lt;Path&gt;" class="s3" d="m994.6 571c0 5.2-4.2 9.4-9.3 9.4-5.2 0-9.3-4.2-9.3-9.4 0-5.1 4.1-9.3 9.3-9.3 5.1 0 9.3 4.2 9.3 9.3z"/>
			<path id="&lt;Path&gt;" class="s3" d="m994.6 598.9c0 5.2-4.2 9.4-9.3 9.4-5.2 0-9.3-4.2-9.3-9.4 0-5.1 4.1-9.3 9.3-9.3 5.1 0 9.3 4.2 9.3 9.3z"/>
			<path id="&lt;Path&gt;" class="s3" d="m1044.2 598.9c0 5.2-4.2 9.4-9.3 9.4-5.2 0-9.4-4.2-9.4-9.4 0-5.1 4.2-9.3 9.4-9.3 5.1 0 9.3 4.2 9.3 9.3z"/>
			<path id="&lt;Path&gt;" class="s3" d="m1019.4 546.2c0 5.2-4.2 9.4-9.3 9.4-5.2 0-9.3-4.2-9.3-9.4 0-5.1 4.1-9.3 9.3-9.3 5.1 0 9.3 4.2 9.3 9.3z"/>
			<path id="&lt;Path&gt;" class="s3" d="m941.9 546.2c0 5.2-4.1 9.4-9.3 9.4-5.1 0-9.3-4.2-9.3-9.4 0-5.1 4.2-9.3 9.3-9.3 5.2 0 9.3 4.2 9.3 9.3z"/>
			<path id="&lt;Path&gt;" class="s3" d="m917.1 546.2c0 5.2-4.1 9.4-9.3 9.4-5.1 0-9.3-4.2-9.3-9.4 0-5.1 4.2-9.3 9.3-9.3 5.2 0 9.3 4.2 9.3 9.3z"/>
			<path id="&lt;Path&gt;" class="s3" d="m687.8 471.9c0 5.1-4.2 9.3-9.3 9.3-5.2 0-9.4-4.2-9.4-9.3 0-5.2 4.2-9.4 9.4-9.4 5.1 0 9.3 4.2 9.3 9.4z"/>
			<path id="&lt;Path&gt;" class="s3" d="m663 471.9c0 5.1-4.2 9.3-9.3 9.3-5.2 0-9.4-4.2-9.4-9.3 0-5.2 4.2-9.4 9.4-9.4 5.1 0 9.3 4.2 9.3 9.4z"/>
			<path id="&lt;Path&gt;" class="s3" d="m638.2 471.9c0 5.1-4.2 9.3-9.3 9.3-5.2 0-9.4-4.2-9.4-9.3 0-5.2 4.2-9.4 9.4-9.4 5.1 0 9.3 4.2 9.3 9.4z"/>
			<path id="&lt;Path&gt;" class="s3" d="m613.4 471.9c0 5.1-4.2 9.3-9.3 9.3-5.2 0-9.3-4.2-9.3-9.3 0-5.2 4.1-9.4 9.3-9.4 5.1 0 9.3 4.2 9.3 9.4z"/>
			<path id="&lt;Path&gt;" class="s3" d="m638.2 496.7c0 5.1-4.2 9.3-9.3 9.3-5.2 0-9.4-4.2-9.4-9.3 0-5.2 4.2-9.4 9.4-9.4 5.1 0 9.3 4.2 9.3 9.4z"/>
			<path id="&lt;Path&gt;" class="s3" d="m613.4 496.7c0 5.1-4.2 9.3-9.3 9.3-5.2 0-9.3-4.2-9.3-9.3 0-5.2 4.1-9.4 9.3-9.4 5.1 0 9.3 4.2 9.3 9.4z"/>
			<path id="&lt;Path&gt;" class="s3" d="m762.2 471.9c0 5.1-4.2 9.3-9.4 9.3-5.1 0-9.3-4.2-9.3-9.3 0-5.2 4.2-9.4 9.3-9.4 5.2 0 9.4 4.2 9.4 9.4z"/>
			<path id="&lt;Path&gt;" class="s3" d="m790.1 471.9c0 5.1-4.2 9.3-9.4 9.3-5.1 0-9.3-4.2-9.3-9.3 0-5.2 4.2-9.4 9.3-9.4 5.2 0 9.4 4.2 9.4 9.4z"/>
			<path id="&lt;Path&gt;" class="s3" d="m814.9 471.9c0 5.1-4.2 9.3-9.4 9.3-5.1 0-9.3-4.2-9.3-9.3 0-5.2 4.2-9.4 9.3-9.4 5.2 0 9.4 4.2 9.4 9.4z"/>
			<path id="&lt;Path&gt;" class="s3" d="m839.7 471.9c0 5.1-4.2 9.3-9.4 9.3-5.1 0-9.3-4.2-9.3-9.3 0-5.2 4.2-9.4 9.3-9.4 5.2 0 9.4 4.2 9.4 9.4z"/>
			<path id="&lt;Path&gt;" class="s3" d="m712.6 471.9c0 5.1-4.2 9.3-9.3 9.3-5.2 0-9.4-4.2-9.4-9.3 0-5.2 4.2-9.4 9.4-9.4 5.1 0 9.3 4.2 9.3 9.4z"/>
			<path id="&lt;Path&gt;" class="s3" d="m966.7 471.9c0 5.1-4.2 9.3-9.3 9.3-5.2 0-9.3-4.2-9.3-9.3 0-5.2 4.1-9.4 9.3-9.4 5.1 0 9.3 4.2 9.3 9.4z"/>
			<path id="&lt;Path&gt;" class="s3" d="m941.9 471.9c0 5.1-4.1 9.3-9.3 9.3-5.1 0-9.3-4.2-9.3-9.3 0-5.2 4.2-9.4 9.3-9.4 5.2 0 9.3 4.2 9.3 9.4z"/>
			<path id="&lt;Path&gt;" class="s3" d="m917.1 471.9c0 5.1-4.1 9.3-9.3 9.3-5.1 0-9.3-4.2-9.3-9.3 0-5.2 4.2-9.4 9.3-9.4 5.2 0 9.3 4.2 9.3 9.4z"/>
			<path id="&lt;Path&gt;" class="s3" d="m892.3 471.9c0 5.1-4.1 9.3-9.3 9.3-5.1 0-9.3-4.2-9.3-9.3 0-5.2 4.2-9.4 9.3-9.4 5.2 0 9.3 4.2 9.3 9.4z"/>
			<path id="&lt;Path&gt;" class="s3" d="m867.6 471.9c0 5.1-4.2 9.3-9.4 9.3-5.1 0-9.3-4.2-9.3-9.3 0-5.2 4.2-9.4 9.3-9.4 5.2 0 9.4 4.2 9.4 9.4z"/>
			<path id="&lt;Path&gt;" class="s3" d="m1041.1 471.9c0 5.1-4.2 9.3-9.3 9.3-5.2 0-9.4-4.2-9.4-9.3 0-5.2 4.2-9.4 9.4-9.4 5.1 0 9.3 4.2 9.3 9.4z"/>
			<path id="&lt;Path&gt;" class="s3" d="m1069 471.9c0 5.1-4.2 9.3-9.3 9.3-5.2 0-9.4-4.2-9.4-9.3 0-5.2 4.2-9.4 9.4-9.4 5.1 0 9.3 4.2 9.3 9.4z"/>
			<path id="&lt;Path&gt;" class="s3" d="m1016.3 471.9c0 5.1-4.2 9.3-9.3 9.3-5.2 0-9.3-4.2-9.3-9.3 0-5.2 4.1-9.4 9.3-9.4 5.1 0 9.3 4.2 9.3 9.4z"/>
			<path id="&lt;Path&gt;" class="s3" d="m991.5 471.9c0 5.1-4.2 9.3-9.3 9.3-5.2 0-9.3-4.2-9.3-9.3 0-5.2 4.1-9.4 9.3-9.4 5.1 0 9.3 4.2 9.3 9.4z"/>
			<path id="&lt;Path&gt;" class="s3" d="m762.2 496.7c0 5.1-4.2 9.3-9.4 9.3-5.1 0-9.3-4.2-9.3-9.3 0-5.2 4.2-9.4 9.3-9.4 5.2 0 9.4 4.2 9.4 9.4z"/>
			<path id="&lt;Path&gt;" class="s3" d="m790.1 496.7c0 5.1-4.2 9.3-9.4 9.3-5.1 0-9.3-4.2-9.3-9.3 0-5.2 4.2-9.4 9.3-9.4 5.2 0 9.4 4.2 9.4 9.4z"/>
			<path id="&lt;Path&gt;" class="s3" d="m709.5 496.7c0 5.1-4.2 9.3-9.3 9.3-5.2 0-9.4-4.2-9.4-9.3 0-5.2 4.2-9.4 9.4-9.4 5.1 0 9.3 4.2 9.3 9.4z"/>
			<path id="&lt;Path&gt;" class="s3" d="m737.4 496.7c0 5.1-4.2 9.3-9.3 9.3-5.2 0-9.4-4.2-9.4-9.3 0-5.2 4.2-9.4 9.4-9.4 5.1 0 9.3 4.2 9.3 9.4z"/>
			<path id="&lt;Path&gt;" class="s3" d="m814.9 496.7c0 5.1-4.2 9.3-9.4 9.3-5.1 0-9.3-4.2-9.3-9.3 0-5.2 4.2-9.4 9.3-9.4 5.2 0 9.4 4.2 9.4 9.4z"/>
			<path id="&lt;Path&gt;" class="s3" d="m839.7 496.7c0 5.1-4.2 9.3-9.4 9.3-5.1 0-9.3-4.2-9.3-9.3 0-5.2 4.2-9.4 9.3-9.4 5.2 0 9.4 4.2 9.4 9.4z"/>
			<path id="&lt;Path&gt;" class="s3" d="m966.7 496.7c0 5.1-4.2 9.3-9.3 9.3-5.2 0-9.3-4.2-9.3-9.3 0-5.2 4.1-9.4 9.3-9.4 5.1 0 9.3 4.2 9.3 9.4z"/>
			<path id="&lt;Path&gt;" class="s3" d="m941.9 496.7c0 5.1-4.1 9.3-9.3 9.3-5.1 0-9.3-4.2-9.3-9.3 0-5.2 4.2-9.4 9.3-9.4 5.2 0 9.3 4.2 9.3 9.4z"/>
			<path id="&lt;Path&gt;" class="s3" d="m917.1 496.7c0 5.1-4.1 9.3-9.3 9.3-5.1 0-9.3-4.2-9.3-9.3 0-5.2 4.2-9.4 9.3-9.4 5.2 0 9.3 4.2 9.3 9.4z"/>
			<path id="&lt;Path&gt;" class="s3" d="m892.3 496.7c0 5.1-4.1 9.3-9.3 9.3-5.1 0-9.3-4.2-9.3-9.3 0-5.2 4.2-9.4 9.3-9.4 5.2 0 9.3 4.2 9.3 9.4z"/>
			<path id="&lt;Path&gt;" class="s3" d="m867.6 496.7c0 5.1-4.2 9.3-9.4 9.3-5.1 0-9.3-4.2-9.3-9.3 0-5.2 4.2-9.4 9.3-9.4 5.2 0 9.4 4.2 9.4 9.4z"/>
			<path id="&lt;Path&gt;" class="s3" d="m1041.1 496.7c0 5.1-4.2 9.3-9.3 9.3-5.2 0-9.4-4.2-9.4-9.3 0-5.2 4.2-9.4 9.4-9.4 5.1 0 9.3 4.2 9.3 9.4z"/>
			<path id="&lt;Path&gt;" class="s3" d="m1016.3 496.7c0 5.1-4.2 9.3-9.3 9.3-5.2 0-9.3-4.2-9.3-9.3 0-5.2 4.1-9.4 9.3-9.4 5.1 0 9.3 4.2 9.3 9.4z"/>
			<path id="&lt;Path&gt;" class="s3" d="m991.5 496.7c0 5.1-4.2 9.3-9.3 9.3-5.2 0-9.3-4.2-9.3-9.3 0-5.2 4.1-9.4 9.3-9.4 5.1 0 9.3 4.2 9.3 9.4z"/>
			<path id="&lt;Path&gt;" class="s3" d="m1044.2 648.5c0 5.2-4.2 9.4-9.4 9.4-5.1 0-9.3-4.2-9.3-9.4 0-5.1 4.2-9.3 9.3-9.3 5.2 0 9.4 4.2 9.4 9.3z"/>
			<path id="&lt;Path&gt;" class="s3" d="m1019.4 648.5c0 5.2-4.2 9.4-9.3 9.4-5.2 0-9.4-4.2-9.4-9.4 0-5.1 4.2-9.3 9.4-9.3 5.1 0 9.3 4.2 9.3 9.3z"/>
			<path id="&lt;Path&gt;" class="s3" d="m1019.4 623.7c0 5.2-4.2 9.4-9.3 9.4-5.2 0-9.4-4.2-9.4-9.4 0-5.1 4.2-9.3 9.4-9.3 5.1 0 9.3 4.2 9.3 9.3z"/>
			<path id="&lt;Path&gt;" class="s3" d="m966.7 623.7c0 5.2-4.2 9.4-9.3 9.4-5.2 0-9.4-4.2-9.4-9.4 0-5.1 4.2-9.3 9.4-9.3 5.1 0 9.3 4.2 9.3 9.3z"/>
			<path id="&lt;Path&gt;" class="s3" d="m994.6 648.5c0 5.2-4.2 9.4-9.3 9.4-5.2 0-9.4-4.2-9.4-9.4 0-5.1 4.2-9.3 9.4-9.3 5.1 0 9.3 4.2 9.3 9.3z"/>
			<path id="&lt;Path&gt;" class="s3" d="m1118.6 648.5c0 5.2-4.2 9.4-9.4 9.4-5.1 0-9.3-4.2-9.3-9.4 0-5.1 4.2-9.3 9.3-9.3 5.2 0 9.4 4.2 9.4 9.3z"/>
			<path id="&lt;Path&gt;" class="s3" d="m1093.8 648.5c0 5.2-4.2 9.4-9.4 9.4-5.1 0-9.3-4.2-9.3-9.4 0-5.1 4.2-9.3 9.3-9.3 5.2 0 9.4 4.2 9.4 9.3z"/>
			<path id="&lt;Path&gt;" class="s3" d="m1069 648.5c0 5.2-4.2 9.4-9.4 9.4-5.1 0-9.3-4.2-9.3-9.4 0-5.1 4.2-9.3 9.3-9.3 5.2 0 9.4 4.2 9.4 9.3z"/>
			<path id="&lt;Path&gt;" class="s3" d="m1044.2 701.2c0 5.2-4.2 9.3-9.4 9.3-5.1 0-9.3-4.1-9.3-9.3 0-5.1 4.2-9.3 9.3-9.3 5.2 0 9.4 4.2 9.4 9.3z"/>
			<path id="&lt;Path&gt;" class="s3" d="m1019.4 701.2c0 5.2-4.2 9.3-9.3 9.3-5.2 0-9.4-4.1-9.4-9.3 0-5.1 4.2-9.3 9.4-9.3 5.1 0 9.3 4.2 9.3 9.3z"/>
			<path id="&lt;Path&gt;" class="s3" d="m1118.6 701.2c0 5.2-4.2 9.3-9.4 9.3-5.1 0-9.3-4.1-9.3-9.3 0-5.1 4.2-9.3 9.3-9.3 5.2 0 9.4 4.2 9.4 9.3z"/>
			<path id="&lt;Path&gt;" class="s3" d="m1093.8 701.2c0 5.2-4.2 9.3-9.4 9.3-5.1 0-9.3-4.1-9.3-9.3 0-5.1 4.2-9.3 9.3-9.3 5.2 0 9.4 4.2 9.4 9.3z"/>
			<path id="&lt;Path&gt;" class="s3" d="m1069 701.2c0 5.2-4.2 9.3-9.4 9.3-5.1 0-9.3-4.1-9.3-9.3 0-5.1 4.2-9.3 9.3-9.3 5.2 0 9.4 4.2 9.4 9.3z"/>
			<path id="&lt;Path&gt;" class="s3" d="m1044.2 726c0 5.2-4.2 9.3-9.4 9.3-5.1 0-9.3-4.1-9.3-9.3 0-5.1 4.2-9.3 9.3-9.3 5.2 0 9.4 4.2 9.4 9.3z"/>
			<path id="&lt;Path&gt;" class="s3" d="m1019.4 726c0 5.2-4.2 9.3-9.3 9.3-5.2 0-9.4-4.1-9.4-9.3 0-5.1 4.2-9.3 9.4-9.3 5.1 0 9.3 4.2 9.3 9.3z"/>
			<path id="&lt;Path&gt;" class="s3" d="m1118.6 726c0 5.2-4.2 9.3-9.4 9.3-5.1 0-9.3-4.1-9.3-9.3 0-5.1 4.2-9.3 9.3-9.3 5.2 0 9.4 4.2 9.4 9.3z"/>
			<path id="&lt;Path&gt;" class="s3" d="m1146.5 726c0 5.2-4.2 9.3-9.4 9.3-5.1 0-9.3-4.1-9.3-9.3 0-5.1 4.2-9.3 9.3-9.3 5.2 0 9.4 4.2 9.4 9.3z"/>
			<path id="&lt;Path&gt;" class="s3" d="m1093.8 726c0 5.2-4.2 9.3-9.4 9.3-5.1 0-9.3-4.1-9.3-9.3 0-5.1 4.2-9.3 9.3-9.3 5.2 0 9.4 4.2 9.4 9.3z"/>
			<path id="&lt;Path&gt;" class="s3" d="m1069 726c0 5.2-4.2 9.3-9.4 9.3-5.1 0-9.3-4.1-9.3-9.3 0-5.1 4.2-9.3 9.3-9.3 5.2 0 9.4 4.2 9.4 9.3z"/>
			<path id="&lt;Path&gt;" class="s3" d="m1044.2 750.8c0 5.2-4.2 9.3-9.4 9.3-5.1 0-9.3-4.1-9.3-9.3 0-5.2 4.2-9.3 9.3-9.3 5.2 0 9.4 4.1 9.4 9.3z"/>
			<path id="&lt;Path&gt;" class="s3" d="m1118.6 750.8c0 5.2-4.2 9.3-9.4 9.3-5.1 0-9.3-4.1-9.3-9.3 0-5.2 4.2-9.3 9.3-9.3 5.2 0 9.4 4.1 9.4 9.3z"/>
			<path id="&lt;Path&gt;" class="s3" d="m1118.6 778.7c0 5.1-4.2 9.3-9.4 9.3-5.1 0-9.3-4.2-9.3-9.3 0-5.2 4.2-9.3 9.3-9.3 5.2 0 9.4 4.1 9.4 9.3z"/>
			<path id="&lt;Path&gt;" class="s3" d="m1196.1 803.6c0 5.1-4.2 9.3-9.4 9.3-5.1 0-9.3-4.2-9.3-9.3 0-5.2 4.2-9.4 9.3-9.4 5.2 0 9.4 4.2 9.4 9.4z"/>
			<path id="&lt;Path&gt;" class="s3" d="m1220.9 778.7c0 5.1-4.2 9.3-9.4 9.3-5.1 0-9.3-4.2-9.3-9.3 0-5.2 4.2-9.3 9.3-9.3 5.2 0 9.4 4.1 9.4 9.3z"/>
			<path id="&lt;Path&gt;" class="s3" d="m1093.8 750.8c0 5.2-4.2 9.3-9.4 9.3-5.1 0-9.3-4.1-9.3-9.3 0-5.2 4.2-9.3 9.3-9.3 5.2 0 9.4 4.1 9.4 9.3z"/>
			<path id="&lt;Path&gt;" class="s3" d="m1069 750.8c0 5.2-4.2 9.3-9.4 9.3-5.1 0-9.3-4.1-9.3-9.3 0-5.2 4.2-9.3 9.3-9.3 5.2 0 9.4 4.1 9.4 9.3z"/>
			<path id="&lt;Path&gt;" class="s3" d="m1093.8 673.3c0 5.2-4.2 9.3-9.4 9.3-5.1 0-9.3-4.1-9.3-9.3 0-5.1 4.2-9.3 9.3-9.3 5.2 0 9.4 4.2 9.4 9.3z"/>
			<path id="&lt;Path&gt;" class="s3" d="m1069 673.3c0 5.2-4.2 9.3-9.4 9.3-5.1 0-9.3-4.1-9.3-9.3 0-5.1 4.2-9.3 9.3-9.3 5.2 0 9.4 4.2 9.4 9.3z"/>
			<path id="&lt;Path&gt;" class="s3" d="m861.4 292.1c0 5.2-4.2 9.3-9.4 9.3-5.1 0-9.3-4.1-9.3-9.3 0-5.1 4.2-9.3 9.3-9.3 5.2 0 9.4 4.2 9.4 9.3z"/>
			<path id="&lt;Path&gt;" class="s3" d="m889.2 292.1c0 5.2-4.1 9.3-9.3 9.3-5.1 0-9.3-4.1-9.3-9.3 0-5.1 4.2-9.3 9.3-9.3 5.2 0 9.3 4.2 9.3 9.3z"/>
			<path id="&lt;Path&gt;" class="s3" d="m914 292.1c0 5.2-4.1 9.3-9.3 9.3-5.1 0-9.3-4.1-9.3-9.3 0-5.1 4.2-9.3 9.3-9.3 5.2 0 9.3 4.2 9.3 9.3z"/>
			<path id="&lt;Path&gt;" class="s3" d="m938.8 292.1c0 5.2-4.1 9.3-9.3 9.3-5.1 0-9.3-4.1-9.3-9.3 0-5.1 4.2-9.3 9.3-9.3 5.2 0 9.3 4.2 9.3 9.3z"/>
			<path id="&lt;Path&gt;" class="s3" d="m1065.9 292.1c0 5.2-4.2 9.3-9.3 9.3-5.2 0-9.4-4.1-9.4-9.3 0-5.1 4.2-9.3 9.4-9.3 5.1 0 9.3 4.2 9.3 9.3z"/>
			<path id="&lt;Path&gt;" class="s3" d="m1041.1 292.1c0 5.2-4.2 9.3-9.3 9.3-5.2 0-9.4-4.1-9.4-9.3 0-5.1 4.2-9.3 9.4-9.3 5.1 0 9.3 4.2 9.3 9.3z"/>
			<path id="&lt;Path&gt;" class="s3" d="m1016.3 292.1c0 5.2-4.2 9.3-9.3 9.3-5.2 0-9.3-4.1-9.3-9.3 0-5.1 4.1-9.3 9.3-9.3 5.1 0 9.3 4.2 9.3 9.3z"/>
			<path id="&lt;Path&gt;" class="s3" d="m991.5 292.1c0 5.2-4.2 9.3-9.3 9.3-5.2 0-9.3-4.1-9.3-9.3 0-5.1 4.1-9.3 9.3-9.3 5.1 0 9.3 4.2 9.3 9.3z"/>
			<path id="&lt;Path&gt;" class="s3" d="m966.7 292.1c0 5.2-4.2 9.3-9.3 9.3-5.2 0-9.3-4.1-9.3-9.3 0-5.1 4.1-9.3 9.3-9.3 5.1 0 9.3 4.2 9.3 9.3z"/>
			<path id="&lt;Path&gt;" class="s3" d="m1140.3 292.1c0 5.2-4.2 9.3-9.3 9.3-5.2 0-9.4-4.1-9.4-9.3 0-5.1 4.2-9.3 9.4-9.3 5.1 0 9.3 4.2 9.3 9.3z"/>
			<path id="&lt;Path&gt;" class="s3" d="m1115.5 292.1c0 5.2-4.2 9.3-9.3 9.3-5.2 0-9.4-4.1-9.4-9.3 0-5.1 4.2-9.3 9.4-9.3 5.1 0 9.3 4.2 9.3 9.3z"/>
			<path id="&lt;Path&gt;" class="s3" d="m1090.7 292.1c0 5.2-4.2 9.3-9.3 9.3-5.2 0-9.4-4.1-9.4-9.3 0-5.1 4.2-9.3 9.4-9.3 5.1 0 9.3 4.2 9.3 9.3z"/>
			<path id="&lt;Path&gt;" class="s3" d="m889.2 267.3c0 5.2-4.1 9.3-9.3 9.3-5.1 0-9.3-4.1-9.3-9.3 0-5.1 4.2-9.3 9.3-9.3 5.2 0 9.3 4.2 9.3 9.3z"/>
			<path id="&lt;Path&gt;" class="s3" d="m914 267.3c0 5.2-4.1 9.3-9.3 9.3-5.1 0-9.3-4.1-9.3-9.3 0-5.1 4.2-9.3 9.3-9.3 5.2 0 9.3 4.2 9.3 9.3z"/>
			<path id="&lt;Path&gt;" class="s3" d="m938.8 267.3c0 5.2-4.1 9.3-9.3 9.3-5.1 0-9.3-4.1-9.3-9.3 0-5.1 4.2-9.3 9.3-9.3 5.2 0 9.3 4.2 9.3 9.3z"/>
			<path id="&lt;Path&gt;" class="s3" d="m1065.9 267.3c0 5.2-4.2 9.3-9.3 9.3-5.2 0-9.4-4.1-9.4-9.3 0-5.1 4.2-9.3 9.4-9.3 5.1 0 9.3 4.2 9.3 9.3z"/>
			<path id="&lt;Path&gt;" class="s3" d="m1041.1 267.3c0 5.2-4.2 9.3-9.3 9.3-5.2 0-9.4-4.1-9.4-9.3 0-5.1 4.2-9.3 9.4-9.3 5.1 0 9.3 4.2 9.3 9.3z"/>
			<path id="&lt;Path&gt;" class="s3" d="m1016.3 267.3c0 5.2-4.2 9.3-9.3 9.3-5.2 0-9.3-4.1-9.3-9.3 0-5.1 4.1-9.3 9.3-9.3 5.1 0 9.3 4.2 9.3 9.3z"/>
			<path id="&lt;Path&gt;" class="s3" d="m991.5 267.3c0 5.2-4.2 9.3-9.3 9.3-5.2 0-9.3-4.1-9.3-9.3 0-5.1 4.1-9.3 9.3-9.3 5.1 0 9.3 4.2 9.3 9.3z"/>
			<path id="&lt;Path&gt;" class="s3" d="m966.7 267.3c0 5.2-4.2 9.3-9.3 9.3-5.2 0-9.3-4.1-9.3-9.3 0-5.1 4.1-9.3 9.3-9.3 5.1 0 9.3 4.2 9.3 9.3z"/>
			<path id="&lt;Path&gt;" class="s3" d="m938.8 242.5c0 5.2-4.1 9.4-9.3 9.4-5.1 0-9.3-4.2-9.3-9.4 0-5.1 4.2-9.3 9.3-9.3 5.2 0 9.3 4.2 9.3 9.3z"/>
			<path id="&lt;Path&gt;" class="s3" d="m991.5 242.5c0 5.2-4.2 9.4-9.3 9.4-5.2 0-9.3-4.2-9.3-9.4 0-5.1 4.1-9.3 9.3-9.3 5.1 0 9.3 4.2 9.3 9.3z"/>
			<path id="&lt;Path&gt;" class="s3" d="m966.7 242.5c0 5.2-4.2 9.4-9.3 9.4-5.2 0-9.3-4.2-9.3-9.4 0-5.1 4.1-9.3 9.3-9.3 5.1 0 9.3 4.2 9.3 9.3z"/>
			<path id="&lt;Path&gt;" class="s3" d="m991.5 217.7c0 5.2-4.2 9.4-9.3 9.4-5.2 0-9.3-4.2-9.3-9.4 0-5.1 4.1-9.3 9.3-9.3 5.1 0 9.3 4.2 9.3 9.3z"/>
			<path id="&lt;Path&gt;" class="s3" d="m966.7 217.7c0 5.2-4.2 9.4-9.3 9.4-5.2 0-9.3-4.2-9.3-9.4 0-5.1 4.1-9.3 9.3-9.3 5.1 0 9.3 4.2 9.3 9.3z"/>
			<path id="&lt;Path&gt;" class="s3" d="m966.7 192.9c0 5.2-4.2 9.4-9.3 9.4-5.2 0-9.3-4.2-9.3-9.4 0-5.1 4.1-9.3 9.3-9.3 5.1 0 9.3 4.2 9.3 9.3z"/>
			<path id="&lt;Path&gt;" class="s3" d="m1090.7 267.3c0 5.2-4.2 9.3-9.3 9.3-5.2 0-9.4-4.1-9.4-9.3 0-5.1 4.2-9.3 9.4-9.3 5.1 0 9.3 4.2 9.3 9.3z"/>
			<path id="&lt;Path&gt;" class="s3" d="m1090.7 242.5c0 5.2-4.2 9.4-9.3 9.4-5.2 0-9.4-4.2-9.4-9.4 0-5.1 4.2-9.3 9.4-9.3 5.1 0 9.3 4.2 9.3 9.3z"/>
			<path id="&lt;Path&gt;" class="s3" d="m762.2 344.8c0 5.1-4.2 9.3-9.4 9.3-5.1 0-9.3-4.2-9.3-9.3 0-5.2 4.2-9.3 9.3-9.3 5.2 0 9.4 4.1 9.4 9.3z"/>
			<path id="&lt;Path&gt;" class="s3" d="m737.4 344.8c0 5.1-4.2 9.3-9.3 9.3-5.2 0-9.4-4.2-9.4-9.3 0-5.2 4.2-9.3 9.4-9.3 5.1 0 9.3 4.1 9.3 9.3z"/>
			<path id="&lt;Path&gt;" class="s3" d="m712.6 344.8c0 5.1-4.2 9.3-9.3 9.3-5.2 0-9.4-4.2-9.4-9.3 0-5.2 4.2-9.3 9.4-9.3 5.1 0 9.3 4.1 9.3 9.3z"/>
			<path id="&lt;Path&gt;" class="s3" d="m687.8 344.8c0 5.1-4.2 9.3-9.3 9.3-5.2 0-9.4-4.2-9.4-9.3 0-5.2 4.2-9.3 9.4-9.3 5.1 0 9.3 4.1 9.3 9.3z"/>
			<path id="&lt;Path&gt;" class="s3" d="m663 344.8c0 5.1-4.2 9.3-9.3 9.3-5.2 0-9.4-4.2-9.4-9.3 0-5.2 4.2-9.3 9.4-9.3 5.1 0 9.3 4.1 9.3 9.3z"/>
			<path id="&lt;Path&gt;" class="s3" d="m836.6 344.8c0 5.1-4.2 9.3-9.4 9.3-5.1 0-9.3-4.2-9.3-9.3 0-5.2 4.2-9.3 9.3-9.3 5.2 0 9.4 4.1 9.4 9.3z"/>
			<path id="&lt;Path&gt;" class="s3" d="m864.5 344.8c0 5.1-4.2 9.3-9.4 9.3-5.1 0-9.3-4.2-9.3-9.3 0-5.2 4.2-9.3 9.3-9.3 5.2 0 9.4 4.1 9.4 9.3z"/>
			<path id="&lt;Path&gt;" class="s3" d="m889.2 344.8c0 5.1-4.1 9.3-9.3 9.3-5.1 0-9.3-4.2-9.3-9.3 0-5.2 4.2-9.3 9.3-9.3 5.2 0 9.3 4.1 9.3 9.3z"/>
			<path id="&lt;Path&gt;" class="s3" d="m914 344.8c0 5.1-4.1 9.3-9.3 9.3-5.1 0-9.3-4.2-9.3-9.3 0-5.2 4.2-9.3 9.3-9.3 5.2 0 9.3 4.1 9.3 9.3z"/>
			<path id="&lt;Path&gt;" class="s3" d="m811.8 344.8c0 5.1-4.2 9.3-9.4 9.3-5.1 0-9.3-4.2-9.3-9.3 0-5.2 4.2-9.3 9.3-9.3 5.2 0 9.4 4.1 9.4 9.3z"/>
			<path id="&lt;Path&gt;" class="s3" d="m811.8 267.3c0 5.2-4.2 9.3-9.4 9.3-5.1 0-9.3-4.1-9.3-9.3 0-5.1 4.2-9.3 9.3-9.3 5.2 0 9.4 4.2 9.4 9.3z"/>
			<path id="&lt;Path&gt;" class="s3" d="m839.7 239.4c0 5.2-4.2 9.4-9.4 9.4-5.1 0-9.3-4.2-9.3-9.4 0-5.1 4.2-9.3 9.3-9.3 5.2 0 9.4 4.2 9.4 9.3z"/>
			<path id="&lt;Path&gt;" class="s3" d="m811.8 292.1c0 5.2-4.2 9.3-9.4 9.3-5.1 0-9.3-4.1-9.3-9.3 0-5.1 4.2-9.3 9.3-9.3 5.2 0 9.4 4.2 9.4 9.3z"/>
			<path id="&lt;Path&gt;" class="s3" d="m787 344.8c0 5.1-4.2 9.3-9.4 9.3-5.1 0-9.3-4.2-9.3-9.3 0-5.2 4.2-9.3 9.3-9.3 5.2 0 9.4 4.1 9.4 9.3z"/>
			<path id="&lt;Path&gt;" class="s3" d="m1041.1 344.8c0 5.1-4.2 9.3-9.3 9.3-5.2 0-9.4-4.2-9.4-9.3 0-5.2 4.2-9.3 9.4-9.3 5.1 0 9.3 4.1 9.3 9.3z"/>
			<path id="&lt;Path&gt;" class="s3" d="m1016.3 344.8c0 5.1-4.2 9.3-9.3 9.3-5.2 0-9.3-4.2-9.3-9.3 0-5.2 4.1-9.3 9.3-9.3 5.1 0 9.3 4.1 9.3 9.3z"/>
			<path id="&lt;Path&gt;" class="s3" d="m991.5 344.8c0 5.1-4.2 9.3-9.3 9.3-5.2 0-9.3-4.2-9.3-9.3 0-5.2 4.1-9.3 9.3-9.3 5.1 0 9.3 4.1 9.3 9.3z"/>
			<path id="&lt;Path&gt;" class="s3" d="m966.7 344.8c0 5.1-4.2 9.3-9.3 9.3-5.2 0-9.3-4.2-9.3-9.3 0-5.2 4.1-9.3 9.3-9.3 5.1 0 9.3 4.1 9.3 9.3z"/>
			<path id="&lt;Path&gt;" class="s3" d="m941.9 344.8c0 5.1-4.1 9.3-9.3 9.3-5.1 0-9.3-4.2-9.3-9.3 0-5.2 4.2-9.3 9.3-9.3 5.2 0 9.3 4.1 9.3 9.3z"/>
			<path id="&lt;Path&gt;" class="s3" d="m1115.5 344.8c0 5.1-4.2 9.3-9.3 9.3-5.2 0-9.4-4.2-9.4-9.3 0-5.2 4.2-9.3 9.4-9.3 5.1 0 9.3 4.1 9.3 9.3z"/>
			<path id="&lt;Path&gt;" class="s3" d="m1143.4 344.8c0 5.1-4.2 9.3-9.3 9.3-5.2 0-9.4-4.2-9.4-9.3 0-5.2 4.2-9.3 9.4-9.3 5.1 0 9.3 4.1 9.3 9.3z"/>
			<path id="&lt;Path&gt;" class="s3" d="m1168.2 344.8c0 5.1-4.2 9.3-9.4 9.3-5.1 0-9.3-4.2-9.3-9.3 0-5.2 4.2-9.3 9.3-9.3 5.2 0 9.4 4.1 9.4 9.3z"/>
			<path id="&lt;Path&gt;" class="s3" d="m1193 344.8c0 5.1-4.2 9.3-9.4 9.3-5.1 0-9.3-4.2-9.3-9.3 0-5.2 4.2-9.3 9.3-9.3 5.2 0 9.4 4.1 9.4 9.3z"/>
			<path id="&lt;Path&gt;" class="s3" d="m1220.9 344.8c0 5.1-4.2 9.3-9.4 9.3-5.1 0-9.3-4.2-9.3-9.3 0-5.2 4.2-9.3 9.3-9.3 5.2 0 9.4 4.1 9.4 9.3z"/>
			<path id="&lt;Path&gt;" class="s3" d="m1245.7 344.8c0 5.1-4.2 9.3-9.4 9.3-5.1 0-9.3-4.2-9.3-9.3 0-5.2 4.2-9.3 9.3-9.3 5.2 0 9.4 4.1 9.4 9.3z"/>
			<path id="&lt;Path&gt;" class="s3" d="m1090.7 344.8c0 5.1-4.2 9.3-9.3 9.3-5.2 0-9.4-4.2-9.4-9.3 0-5.2 4.2-9.3 9.4-9.3 5.1 0 9.3 4.1 9.3 9.3z"/>
			<path id="&lt;Path&gt;" class="s3" d="m1065.9 344.8c0 5.1-4.2 9.3-9.3 9.3-5.2 0-9.4-4.2-9.4-9.3 0-5.2 4.2-9.3 9.4-9.3 5.1 0 9.3 4.1 9.3 9.3z"/>
			<path id="&lt;Path&gt;" class="s3" d="m762.2 369.6c0 5.1-4.2 9.3-9.4 9.3-5.1 0-9.3-4.2-9.3-9.3 0-5.2 4.2-9.3 9.3-9.3 5.2 0 9.4 4.1 9.4 9.3z"/>
			<path id="&lt;Path&gt;" class="s3" d="m737.4 369.6c0 5.1-4.2 9.3-9.3 9.3-5.2 0-9.4-4.2-9.4-9.3 0-5.2 4.2-9.3 9.4-9.3 5.1 0 9.3 4.1 9.3 9.3z"/>
			<path id="&lt;Path&gt;" class="s3" d="m687.8 369.6c0 5.1-4.2 9.3-9.3 9.3-5.2 0-9.4-4.2-9.4-9.3 0-5.2 4.2-9.3 9.4-9.3 5.1 0 9.3 4.1 9.3 9.3z"/>
			<path id="&lt;Path&gt;" class="s3" d="m663 369.6c0 5.1-4.2 9.3-9.3 9.3-5.2 0-9.4-4.2-9.4-9.3 0-5.2 4.2-9.3 9.4-9.3 5.1 0 9.3 4.1 9.3 9.3z"/>
			<path id="&lt;Path&gt;" class="s3" d="m836.6 369.6c0 5.1-4.2 9.3-9.4 9.3-5.1 0-9.3-4.2-9.3-9.3 0-5.2 4.2-9.3 9.3-9.3 5.2 0 9.4 4.1 9.4 9.3z"/>
			<path id="&lt;Path&gt;" class="s3" d="m864.5 369.6c0 5.1-4.2 9.3-9.4 9.3-5.1 0-9.3-4.2-9.3-9.3 0-5.2 4.2-9.3 9.3-9.3 5.2 0 9.4 4.1 9.4 9.3z"/>
			<path id="&lt;Path&gt;" class="s3" d="m889.2 369.6c0 5.1-4.1 9.3-9.3 9.3-5.1 0-9.3-4.2-9.3-9.3 0-5.2 4.2-9.3 9.3-9.3 5.2 0 9.3 4.1 9.3 9.3z"/>
			<path id="&lt;Path&gt;" class="s3" d="m914 369.6c0 5.1-4.1 9.3-9.3 9.3-5.1 0-9.3-4.2-9.3-9.3 0-5.2 4.2-9.3 9.3-9.3 5.2 0 9.3 4.1 9.3 9.3z"/>
			<path id="&lt;Path&gt;" class="s3" d="m811.8 369.6c0 5.1-4.2 9.3-9.4 9.3-5.1 0-9.3-4.2-9.3-9.3 0-5.2 4.2-9.3 9.3-9.3 5.2 0 9.4 4.1 9.4 9.3z"/>
			<path id="&lt;Path&gt;" class="s3" d="m787 369.6c0 5.1-4.2 9.3-9.4 9.3-5.1 0-9.3-4.2-9.3-9.3 0-5.2 4.2-9.3 9.3-9.3 5.2 0 9.4 4.1 9.4 9.3z"/>
			<path id="&lt;Path&gt;" class="s3" d="m1041.1 369.6c0 5.1-4.2 9.3-9.3 9.3-5.2 0-9.4-4.2-9.4-9.3 0-5.2 4.2-9.3 9.4-9.3 5.1 0 9.3 4.1 9.3 9.3z"/>
			<path id="&lt;Path&gt;" class="s3" d="m1016.3 369.6c0 5.1-4.2 9.3-9.3 9.3-5.2 0-9.3-4.2-9.3-9.3 0-5.2 4.1-9.3 9.3-9.3 5.1 0 9.3 4.1 9.3 9.3z"/>
			<path id="&lt;Path&gt;" class="s3" d="m991.5 369.6c0 5.1-4.2 9.3-9.3 9.3-5.2 0-9.3-4.2-9.3-9.3 0-5.2 4.1-9.3 9.3-9.3 5.1 0 9.3 4.1 9.3 9.3z"/>
			<path id="&lt;Path&gt;" class="s3" d="m966.7 369.6c0 5.1-4.2 9.3-9.3 9.3-5.2 0-9.3-4.2-9.3-9.3 0-5.2 4.1-9.3 9.3-9.3 5.1 0 9.3 4.1 9.3 9.3z"/>
			<path id="&lt;Path&gt;" class="s3" d="m941.9 369.6c0 5.1-4.1 9.3-9.3 9.3-5.1 0-9.3-4.2-9.3-9.3 0-5.2 4.2-9.3 9.3-9.3 5.2 0 9.3 4.1 9.3 9.3z"/>
			<path id="&lt;Path&gt;" class="s3" d="m1115.5 369.6c0 5.1-4.2 9.3-9.3 9.3-5.2 0-9.4-4.2-9.4-9.3 0-5.2 4.2-9.3 9.4-9.3 5.1 0 9.3 4.1 9.3 9.3z"/>
			<path id="&lt;Path&gt;" class="s3" d="m1143.4 369.6c0 5.1-4.2 9.3-9.3 9.3-5.2 0-9.4-4.2-9.4-9.3 0-5.2 4.2-9.3 9.4-9.3 5.1 0 9.3 4.1 9.3 9.3z"/>
			<path id="&lt;Path&gt;" class="s3" d="m1193 369.6c0 5.1-4.2 9.3-9.4 9.3-5.1 0-9.3-4.2-9.3-9.3 0-5.2 4.2-9.3 9.3-9.3 5.2 0 9.4 4.1 9.4 9.3z"/>
			<path id="&lt;Path&gt;" class="s3" d="m1220.9 369.6c0 5.1-4.2 9.3-9.4 9.3-5.1 0-9.3-4.2-9.3-9.3 0-5.2 4.2-9.3 9.3-9.3 5.2 0 9.4 4.1 9.4 9.3z"/>
			<path id="&lt;Path&gt;" class="s3" d="m1090.7 369.6c0 5.1-4.2 9.3-9.3 9.3-5.2 0-9.4-4.2-9.4-9.3 0-5.2 4.2-9.3 9.4-9.3 5.1 0 9.3 4.1 9.3 9.3z"/>
			<path id="&lt;Path&gt;" class="s3" d="m1065.9 369.6c0 5.1-4.2 9.3-9.3 9.3-5.2 0-9.4-4.2-9.4-9.3 0-5.2 4.2-9.3 9.4-9.3 5.1 0 9.3 4.1 9.3 9.3z"/>
			<path id="&lt;Path&gt;" class="s3" d="m762.2 394.4c0 5.1-4.2 9.3-9.4 9.3-5.1 0-9.3-4.2-9.3-9.3 0-5.2 4.2-9.3 9.3-9.3 5.2 0 9.4 4.1 9.4 9.3z"/>
			<path id="&lt;Path&gt;" class="s3" d="m737.4 394.4c0 5.1-4.2 9.3-9.3 9.3-5.2 0-9.4-4.2-9.4-9.3 0-5.2 4.2-9.3 9.4-9.3 5.1 0 9.3 4.1 9.3 9.3z"/>
			<path id="&lt;Path&gt;" class="s3" d="m709.5 394.4c0 5.1-4.2 9.3-9.3 9.3-5.2 0-9.4-4.2-9.4-9.3 0-5.2 4.2-9.3 9.4-9.3 5.1 0 9.3 4.1 9.3 9.3z"/>
			<path id="&lt;Path&gt;" class="s3" d="m684.7 394.4c0 5.1-4.2 9.3-9.3 9.3-5.2 0-9.4-4.2-9.4-9.3 0-5.2 4.2-9.3 9.4-9.3 5.1 0 9.3 4.1 9.3 9.3z"/>
			<path id="&lt;Path&gt;" class="s3" d="m836.6 394.4c0 5.1-4.2 9.3-9.4 9.3-5.1 0-9.3-4.2-9.3-9.3 0-5.2 4.2-9.3 9.3-9.3 5.2 0 9.4 4.1 9.4 9.3z"/>
			<path id="&lt;Path&gt;" class="s3" d="m864.5 394.4c0 5.1-4.2 9.3-9.4 9.3-5.1 0-9.3-4.2-9.3-9.3 0-5.2 4.2-9.3 9.3-9.3 5.2 0 9.4 4.1 9.4 9.3z"/>
			<path id="&lt;Path&gt;" class="s3" d="m889.2 394.4c0 5.1-4.1 9.3-9.3 9.3-5.1 0-9.3-4.2-9.3-9.3 0-5.2 4.2-9.3 9.3-9.3 5.2 0 9.3 4.1 9.3 9.3z"/>
			<path id="&lt;Path&gt;" class="s3" d="m914 394.4c0 5.1-4.1 9.3-9.3 9.3-5.1 0-9.3-4.2-9.3-9.3 0-5.2 4.2-9.3 9.3-9.3 5.2 0 9.3 4.1 9.3 9.3z"/>
			<path id="&lt;Path&gt;" class="s3" d="m811.8 394.4c0 5.1-4.2 9.3-9.4 9.3-5.1 0-9.3-4.2-9.3-9.3 0-5.2 4.2-9.3 9.3-9.3 5.2 0 9.4 4.1 9.4 9.3z"/>
			<path id="&lt;Path&gt;" class="s3" d="m787 394.4c0 5.1-4.2 9.3-9.4 9.3-5.1 0-9.3-4.2-9.3-9.3 0-5.2 4.2-9.3 9.3-9.3 5.2 0 9.4 4.1 9.4 9.3z"/>
			<path id="&lt;Path&gt;" class="s3" d="m1041.1 394.4c0 5.1-4.2 9.3-9.3 9.3-5.2 0-9.4-4.2-9.4-9.3 0-5.2 4.2-9.3 9.4-9.3 5.1 0 9.3 4.1 9.3 9.3z"/>
			<path id="&lt;Path&gt;" class="s3" d="m1016.3 394.4c0 5.1-4.2 9.3-9.3 9.3-5.2 0-9.3-4.2-9.3-9.3 0-5.2 4.1-9.3 9.3-9.3 5.1 0 9.3 4.1 9.3 9.3z"/>
			<path id="&lt;Path&gt;" class="s3" d="m991.5 394.4c0 5.1-4.2 9.3-9.3 9.3-5.2 0-9.3-4.2-9.3-9.3 0-5.2 4.1-9.3 9.3-9.3 5.1 0 9.3 4.1 9.3 9.3z"/>
			<path id="&lt;Path&gt;" class="s3" d="m966.7 394.4c0 5.1-4.2 9.3-9.3 9.3-5.2 0-9.3-4.2-9.3-9.3 0-5.2 4.1-9.3 9.3-9.3 5.1 0 9.3 4.1 9.3 9.3z"/>
			<path id="&lt;Path&gt;" class="s3" d="m941.9 394.4c0 5.1-4.1 9.3-9.3 9.3-5.1 0-9.3-4.2-9.3-9.3 0-5.2 4.2-9.3 9.3-9.3 5.2 0 9.3 4.1 9.3 9.3z"/>
			<path id="&lt;Path&gt;" class="s3" d="m1090.7 394.4c0 5.1-4.2 9.3-9.3 9.3-5.2 0-9.4-4.2-9.4-9.3 0-5.2 4.2-9.3 9.4-9.3 5.1 0 9.3 4.1 9.3 9.3z"/>
			<path id="&lt;Path&gt;" class="s3" d="m1065.9 394.4c0 5.1-4.2 9.3-9.3 9.3-5.2 0-9.4-4.2-9.4-9.3 0-5.2 4.2-9.3 9.4-9.3 5.1 0 9.3 4.1 9.3 9.3z"/>
			<path id="&lt;Path&gt;" class="s3" d="m204.3 292.1c0 5.2-4.2 9.3-9.3 9.3-5.2 0-9.4-4.1-9.4-9.3 0-5.1 4.2-9.3 9.4-9.3 5.1 0 9.3 4.2 9.3 9.3z"/>
			<path id="&lt;Path&gt;" class="s3" d="m179.5 292.1c0 5.2-4.2 9.3-9.3 9.3-5.2 0-9.3-4.1-9.3-9.3 0-5.1 4.1-9.3 9.3-9.3 5.1 0 9.3 4.2 9.3 9.3z"/>
			<path id="&lt;Path&gt;" class="s3" d="m154.7 292.1c0 5.2-4.2 9.3-9.3 9.3-5.2 0-9.3-4.1-9.3-9.3 0-5.1 4.1-9.3 9.3-9.3 5.1 0 9.3 4.2 9.3 9.3z"/>
			<path id="&lt;Path&gt;" class="s3" d="m129.9 292.1c0 5.2-4.2 9.3-9.3 9.3-5.2 0-9.3-4.1-9.3-9.3 0-5.1 4.1-9.3 9.3-9.3 5.1 0 9.3 4.2 9.3 9.3z"/>
			<path id="&lt;Path&gt;" class="s3" d="m105.1 292.1c0 5.2-4.1 9.3-9.3 9.3-5.1 0-9.3-4.1-9.3-9.3 0-5.1 4.2-9.3 9.3-9.3 5.2 0 9.3 4.2 9.3 9.3z"/>
			<path id="&lt;Path&gt;" class="s3" d="m278.7 292.1c0 5.2-4.2 9.3-9.3 9.3-5.2 0-9.4-4.1-9.4-9.3 0-5.1 4.2-9.3 9.4-9.3 5.1 0 9.3 4.2 9.3 9.3z"/>
			<path id="&lt;Path&gt;" class="s3" d="m306.6 292.1c0 5.2-4.2 9.3-9.3 9.3-5.2 0-9.4-4.1-9.4-9.3 0-5.1 4.2-9.3 9.4-9.3 5.1 0 9.3 4.2 9.3 9.3z"/>
			<path id="&lt;Path&gt;" class="s3" d="m331.4 292.1c0 5.2-4.2 9.3-9.4 9.3-5.1 0-9.3-4.1-9.3-9.3 0-5.1 4.2-9.3 9.3-9.3 5.2 0 9.4 4.2 9.4 9.3z"/>
			<path id="&lt;Path&gt;" class="s3" d="m356.2 292.1c0 5.2-4.2 9.3-9.4 9.3-5.1 0-9.3-4.1-9.3-9.3 0-5.1 4.2-9.3 9.3-9.3 5.2 0 9.4 4.2 9.4 9.3z"/>
			<path id="&lt;Path&gt;" class="s3" d="m384.1 292.1c0 5.2-4.2 9.3-9.4 9.3-5.1 0-9.3-4.1-9.3-9.3 0-5.1 4.2-9.3 9.3-9.3 5.2 0 9.4 4.2 9.4 9.3z"/>
			<path id="&lt;Path&gt;" class="s3" d="m253.9 292.1c0 5.2-4.2 9.3-9.3 9.3-5.2 0-9.4-4.1-9.4-9.3 0-5.1 4.2-9.3 9.4-9.3 5.1 0 9.3 4.2 9.3 9.3z"/>
			<path id="&lt;Path&gt;" class="s3" d="m229.1 292.1c0 5.2-4.2 9.3-9.3 9.3-5.2 0-9.4-4.1-9.4-9.3 0-5.1 4.2-9.3 9.4-9.3 5.1 0 9.3 4.2 9.3 9.3z"/>
			<path id="&lt;Path&gt;" class="s3" d="m278.7 267.3c0 5.2-4.2 9.3-9.3 9.3-5.2 0-9.4-4.1-9.4-9.3 0-5.1 4.2-9.3 9.4-9.3 5.1 0 9.3 4.2 9.3 9.3z"/>
			<path id="&lt;Path&gt;" class="s3" d="m306.6 267.3c0 5.2-4.2 9.3-9.3 9.3-5.2 0-9.4-4.1-9.4-9.3 0-5.1 4.2-9.3 9.4-9.3 5.1 0 9.3 4.2 9.3 9.3z"/>
			<path id="&lt;Path&gt;" class="s3" d="m331.4 267.3c0 5.2-4.2 9.3-9.4 9.3-5.1 0-9.3-4.1-9.3-9.3 0-5.1 4.2-9.3 9.3-9.3 5.2 0 9.4 4.2 9.4 9.3z"/>
			<path id="&lt;Path&gt;" class="s3" d="m356.2 267.3c0 5.2-4.2 9.3-9.4 9.3-5.1 0-9.3-4.1-9.3-9.3 0-5.1 4.2-9.3 9.3-9.3 5.2 0 9.4 4.2 9.4 9.3z"/>
			<path id="&lt;Path&gt;" class="s3" d="m384.1 267.3c0 5.2-4.2 9.3-9.4 9.3-5.1 0-9.3-4.1-9.3-9.3 0-5.1 4.2-9.3 9.3-9.3 5.2 0 9.4 4.2 9.4 9.3z"/>
			<path id="&lt;Path&gt;" class="s3" d="m253.9 267.3c0 5.2-4.2 9.3-9.3 9.3-5.2 0-9.4-4.1-9.4-9.3 0-5.1 4.2-9.3 9.4-9.3 5.1 0 9.3 4.2 9.3 9.3z"/>
			<path id="&lt;Path&gt;" class="s3" d="m229.1 267.3c0 5.2-4.2 9.3-9.3 9.3-5.2 0-9.4-4.1-9.4-9.3 0-5.1 4.2-9.3 9.4-9.3 5.1 0 9.3 4.2 9.3 9.3z"/>
			<path id="&lt;Path&gt;" class="s3" d="m278.7 242.5c0 5.2-4.2 9.4-9.3 9.4-5.2 0-9.4-4.2-9.4-9.4 0-5.1 4.2-9.3 9.4-9.3 5.1 0 9.3 4.2 9.3 9.3z"/>
			<path id="&lt;Path&gt;" class="s3" d="m306.6 242.5c0 5.2-4.2 9.4-9.3 9.4-5.2 0-9.4-4.2-9.4-9.4 0-5.1 4.2-9.3 9.4-9.3 5.1 0 9.3 4.2 9.3 9.3z"/>
			<path id="&lt;Path&gt;" class="s3" d="m331.4 242.5c0 5.2-4.2 9.4-9.4 9.4-5.1 0-9.3-4.2-9.3-9.4 0-5.1 4.2-9.3 9.3-9.3 5.2 0 9.4 4.2 9.4 9.3z"/>
			<path id="&lt;Path&gt;" class="s3" d="m356.2 242.5c0 5.2-4.2 9.4-9.4 9.4-5.1 0-9.3-4.2-9.3-9.4 0-5.1 4.2-9.3 9.3-9.3 5.2 0 9.4 4.2 9.4 9.3z"/>
			<path id="&lt;Path&gt;" class="s3" d="m253.9 242.5c0 5.2-4.2 9.4-9.3 9.4-5.2 0-9.4-4.2-9.4-9.4 0-5.1 4.2-9.3 9.4-9.3 5.1 0 9.3 4.2 9.3 9.3z"/>
			<path id="&lt;Path&gt;" class="s3" d="m278.7 217.7c0 5.2-4.2 9.4-9.3 9.4-5.2 0-9.4-4.2-9.4-9.4 0-5.1 4.2-9.3 9.4-9.3 5.1 0 9.3 4.2 9.3 9.3z"/>
			<path id="&lt;Path&gt;" class="s3" d="m306.6 217.7c0 5.2-4.2 9.4-9.3 9.4-5.2 0-9.4-4.2-9.4-9.4 0-5.1 4.2-9.3 9.4-9.3 5.1 0 9.3 4.2 9.3 9.3z"/>
			<path id="&lt;Path&gt;" class="s3" d="m331.4 217.7c0 5.2-4.2 9.4-9.4 9.4-5.1 0-9.3-4.2-9.3-9.4 0-5.1 4.2-9.3 9.3-9.3 5.2 0 9.4 4.2 9.4 9.3z"/>
			<path id="&lt;Path&gt;" class="s3" d="m356.2 217.7c0 5.2-4.2 9.4-9.4 9.4-5.1 0-9.3-4.2-9.3-9.4 0-5.1 4.2-9.3 9.3-9.3 5.2 0 9.4 4.2 9.4 9.3z"/>
			<path id="&lt;Path&gt;" class="s3" d="m253.9 217.7c0 5.2-4.2 9.4-9.3 9.4-5.2 0-9.4-4.2-9.4-9.4 0-5.1 4.2-9.3 9.4-9.3 5.1 0 9.3 4.2 9.3 9.3z"/>
			<path id="&lt;Path&gt;" class="s3" d="m278.7 192.9c0 5.2-4.2 9.4-9.3 9.4-5.2 0-9.4-4.2-9.4-9.4 0-5.1 4.2-9.3 9.4-9.3 5.1 0 9.3 4.2 9.3 9.3z"/>
			<path id="&lt;Path&gt;" class="s3" d="m306.6 192.9c0 5.2-4.2 9.4-9.3 9.4-5.2 0-9.4-4.2-9.4-9.4 0-5.1 4.2-9.3 9.4-9.3 5.1 0 9.3 4.2 9.3 9.3z"/>
			<path id="&lt;Path&gt;" class="s3" d="m331.4 192.9c0 5.2-4.2 9.4-9.4 9.4-5.1 0-9.3-4.2-9.3-9.4 0-5.1 4.2-9.3 9.3-9.3 5.2 0 9.4 4.2 9.4 9.3z"/>
			<path id="&lt;Path&gt;" class="s3" d="m356.2 192.9c0 5.2-4.2 9.4-9.4 9.4-5.1 0-9.3-4.2-9.3-9.4 0-5.1 4.2-9.3 9.3-9.3 5.2 0 9.4 4.2 9.4 9.3z"/>
			<path id="&lt;Path&gt;" class="s3" d="m253.9 192.9c0 5.2-4.2 9.4-9.3 9.4-5.2 0-9.4-4.2-9.4-9.4 0-5.1 4.2-9.3 9.4-9.3 5.1 0 9.3 4.2 9.3 9.3z"/>
			<path id="&lt;Path&gt;" class="s3" d="m408.9 192.9c0 5.2-4.2 9.4-9.4 9.4-5.1 0-9.3-4.2-9.3-9.4 0-5.1 4.2-9.3 9.3-9.3 5.2 0 9.4 4.2 9.4 9.3z"/>
			<path id="&lt;Path&gt;" class="s3" d="m436.8 192.9c0 5.2-4.2 9.4-9.4 9.4-5.1 0-9.3-4.2-9.3-9.4 0-5.1 4.2-9.3 9.3-9.3 5.2 0 9.4 4.2 9.4 9.3z"/>
			<path id="&lt;Path&gt;" class="s3" d="m461.5 192.9c0 5.2-4.1 9.4-9.3 9.4-5.1 0-9.3-4.2-9.3-9.4 0-5.1 4.2-9.3 9.3-9.3 5.2 0 9.3 4.2 9.3 9.3z"/>
			<path id="&lt;Path&gt;" class="s3" d="m486.3 192.9c0 5.2-4.1 9.4-9.3 9.4-5.1 0-9.3-4.2-9.3-9.4 0-5.1 4.2-9.3 9.3-9.3 5.2 0 9.3 4.2 9.3 9.3z"/>
			<path id="&lt;Path&gt;" class="s3" d="m511.1 192.9c0 5.2-4.1 9.4-9.3 9.4-5.1 0-9.3-4.2-9.3-9.4 0-5.1 4.2-9.3 9.3-9.3 5.2 0 9.3 4.2 9.3 9.3z"/>
			<path id="&lt;Path&gt;" class="s3" d="m535.9 192.9c0 5.2-4.1 9.4-9.3 9.4-5.2 0-9.3-4.2-9.3-9.4 0-5.1 4.1-9.3 9.3-9.3 5.2 0 9.3 4.2 9.3 9.3z"/>
			<path id="&lt;Path&gt;" class="s3" d="m560.7 192.9c0 5.2-4.2 9.4-9.3 9.4-5.2 0-9.3-4.2-9.3-9.4 0-5.1 4.1-9.3 9.3-9.3 5.1 0 9.3 4.2 9.3 9.3z"/>
			<path id="&lt;Path&gt;" class="s3" d="m408.9 217.7c0 5.2-4.2 9.4-9.4 9.4-5.1 0-9.3-4.2-9.3-9.4 0-5.1 4.2-9.3 9.3-9.3 5.2 0 9.4 4.2 9.4 9.3z"/>
			<path id="&lt;Path&gt;" class="s3" d="m436.8 217.7c0 5.2-4.2 9.4-9.4 9.4-5.1 0-9.3-4.2-9.3-9.4 0-5.1 4.2-9.3 9.3-9.3 5.2 0 9.4 4.2 9.4 9.3z"/>
			<path id="&lt;Path&gt;" class="s3" d="m461.5 217.7c0 5.2-4.1 9.4-9.3 9.4-5.1 0-9.3-4.2-9.3-9.4 0-5.1 4.2-9.3 9.3-9.3 5.2 0 9.3 4.2 9.3 9.3z"/>
			<path id="&lt;Path&gt;" class="s3" d="m486.3 217.7c0 5.2-4.1 9.4-9.3 9.4-5.1 0-9.3-4.2-9.3-9.4 0-5.1 4.2-9.3 9.3-9.3 5.2 0 9.3 4.2 9.3 9.3z"/>
			<path id="&lt;Path&gt;" class="s3" d="m511.1 217.7c0 5.2-4.1 9.4-9.3 9.4-5.1 0-9.3-4.2-9.3-9.4 0-5.1 4.2-9.3 9.3-9.3 5.2 0 9.3 4.2 9.3 9.3z"/>
			<path id="&lt;Path&gt;" class="s3" d="m535.9 217.7c0 5.2-4.1 9.4-9.3 9.4-5.2 0-9.3-4.2-9.3-9.4 0-5.1 4.1-9.3 9.3-9.3 5.2 0 9.3 4.2 9.3 9.3z"/>
			<path id="&lt;Path&gt;" class="s3" d="m560.7 217.7c0 5.2-4.2 9.4-9.3 9.4-5.2 0-9.3-4.2-9.3-9.4 0-5.1 4.1-9.3 9.3-9.3 5.1 0 9.3 4.2 9.3 9.3z"/>
			<path id="&lt;Path&gt;" class="s3" d="m461.5 239.4c0 5.2-4.1 9.4-9.3 9.4-5.1 0-9.3-4.2-9.3-9.4 0-5.1 4.2-9.3 9.3-9.3 5.2 0 9.3 4.2 9.3 9.3z"/>
			<path id="&lt;Path&gt;" class="s3" d="m486.3 239.4c0 5.2-4.1 9.4-9.3 9.4-5.1 0-9.3-4.2-9.3-9.4 0-5.1 4.2-9.3 9.3-9.3 5.2 0 9.3 4.2 9.3 9.3z"/>
			<path id="&lt;Path&gt;" class="s3" d="m511.1 239.4c0 5.2-4.1 9.4-9.3 9.4-5.1 0-9.3-4.2-9.3-9.4 0-5.1 4.2-9.3 9.3-9.3 5.2 0 9.3 4.2 9.3 9.3z"/>
			<path id="&lt;Path&gt;" class="s3" d="m535.9 239.4c0 5.2-4.1 9.4-9.3 9.4-5.2 0-9.3-4.2-9.3-9.4 0-5.1 4.1-9.3 9.3-9.3 5.2 0 9.3 4.2 9.3 9.3z"/>
			<path id="&lt;Path&gt;" class="s3" d="m560.7 239.4c0 5.2-4.2 9.4-9.3 9.4-5.2 0-9.3-4.2-9.3-9.4 0-5.1 4.1-9.3 9.3-9.3 5.1 0 9.3 4.2 9.3 9.3z"/>
			<path id="&lt;Path&gt;" class="s3" d="m461.5 267.3c0 5.2-4.1 9.3-9.3 9.3-5.1 0-9.3-4.1-9.3-9.3 0-5.1 4.2-9.3 9.3-9.3 5.2 0 9.3 4.2 9.3 9.3z"/>
			<path id="&lt;Path&gt;" class="s3" d="m486.3 267.3c0 5.2-4.1 9.3-9.3 9.3-5.1 0-9.3-4.1-9.3-9.3 0-5.1 4.2-9.3 9.3-9.3 5.2 0 9.3 4.2 9.3 9.3z"/>
			<path id="&lt;Path&gt;" class="s3" d="m511.1 267.3c0 5.2-4.1 9.3-9.3 9.3-5.1 0-9.3-4.1-9.3-9.3 0-5.1 4.2-9.3 9.3-9.3 5.2 0 9.3 4.2 9.3 9.3z"/>
			<path id="&lt;Path&gt;" class="s3" d="m535.9 267.3c0 5.2-4.1 9.3-9.3 9.3-5.2 0-9.3-4.1-9.3-9.3 0-5.1 4.1-9.3 9.3-9.3 5.2 0 9.3 4.2 9.3 9.3z"/>
			<path id="&lt;Path&gt;" class="s3" d="m560.7 267.3c0 5.2-4.2 9.3-9.3 9.3-5.2 0-9.3-4.1-9.3-9.3 0-5.1 4.1-9.3 9.3-9.3 5.1 0 9.3 4.2 9.3 9.3z"/>
			<path id="&lt;Path&gt;" class="s3" d="m461.5 292.1c0 5.2-4.1 9.3-9.3 9.3-5.1 0-9.3-4.1-9.3-9.3 0-5.1 4.2-9.3 9.3-9.3 5.2 0 9.3 4.2 9.3 9.3z"/>
			<path id="&lt;Path&gt;" class="s3" d="m486.3 292.1c0 5.2-4.1 9.3-9.3 9.3-5.1 0-9.3-4.1-9.3-9.3 0-5.1 4.2-9.3 9.3-9.3 5.2 0 9.3 4.2 9.3 9.3z"/>
			<path id="&lt;Path&gt;" class="s3" d="m511.1 292.1c0 5.2-4.1 9.3-9.3 9.3-5.1 0-9.3-4.1-9.3-9.3 0-5.1 4.2-9.3 9.3-9.3 5.2 0 9.3 4.2 9.3 9.3z"/>
			<path id="&lt;Path&gt;" class="s3" d="m535.9 292.1c0 5.2-4.1 9.3-9.3 9.3-5.2 0-9.3-4.1-9.3-9.3 0-5.1 4.1-9.3 9.3-9.3 5.2 0 9.3 4.2 9.3 9.3z"/>
			<path id="&lt;Path&gt;" class="s3" d="m560.7 292.1c0 5.2-4.2 9.3-9.3 9.3-5.2 0-9.3-4.1-9.3-9.3 0-5.1 4.1-9.3 9.3-9.3 5.1 0 9.3 4.2 9.3 9.3z"/>
			<path id="&lt;Path&gt;" class="s3" d="m461.5 316.9c0 5.2-4.1 9.3-9.3 9.3-5.1 0-9.3-4.1-9.3-9.3 0-5.2 4.2-9.3 9.3-9.3 5.2 0 9.3 4.1 9.3 9.3z"/>
			<path id="&lt;Path&gt;" class="s3" d="m486.3 316.9c0 5.2-4.1 9.3-9.3 9.3-5.1 0-9.3-4.1-9.3-9.3 0-5.2 4.2-9.3 9.3-9.3 5.2 0 9.3 4.1 9.3 9.3z"/>
			<path id="&lt;Path&gt;" class="s3" d="m511.1 316.9c0 5.2-4.1 9.3-9.3 9.3-5.1 0-9.3-4.1-9.3-9.3 0-5.2 4.2-9.3 9.3-9.3 5.2 0 9.3 4.1 9.3 9.3z"/>
			<path id="&lt;Path&gt;" class="s3" d="m461.5 341.7c0 5.1-4.1 9.3-9.3 9.3-5.1 0-9.3-4.2-9.3-9.3 0-5.2 4.2-9.3 9.3-9.3 5.2 0 9.3 4.1 9.3 9.3z"/>
			<path id="&lt;Path&gt;" class="s3" d="m486.3 341.7c0 5.1-4.1 9.3-9.3 9.3-5.1 0-9.3-4.2-9.3-9.3 0-5.2 4.2-9.3 9.3-9.3 5.2 0 9.3 4.1 9.3 9.3z"/>
			<path id="&lt;Path&gt;" class="s3" d="m486.3 369.6c0 5.1-4.1 9.3-9.3 9.3-5.1 0-9.3-4.2-9.3-9.3 0-5.2 4.2-9.3 9.3-9.3 5.2 0 9.3 4.1 9.3 9.3z"/>
			<path id="&lt;Path&gt;" class="s3" d="m511.1 341.7c0 5.1-4.1 9.3-9.3 9.3-5.1 0-9.3-4.2-9.3-9.3 0-5.2 4.2-9.3 9.3-9.3 5.2 0 9.3 4.1 9.3 9.3z"/>
			<path id="&lt;Path&gt;" class="s3" d="m560.7 341.7c0 5.1-4.2 9.3-9.3 9.3-5.2 0-9.3-4.2-9.3-9.3 0-5.2 4.1-9.3 9.3-9.3 5.1 0 9.3 4.1 9.3 9.3z"/>
			<path id="&lt;Path&gt;" class="s3" d="m585.5 341.7c0 5.1-4.2 9.3-9.3 9.3-5.2 0-9.3-4.2-9.3-9.3 0-5.2 4.1-9.3 9.3-9.3 5.1 0 9.3 4.1 9.3 9.3z"/>
			<path id="&lt;Path&gt;" class="s3" d="m535.9 316.9c0 5.2-4.1 9.3-9.3 9.3-5.2 0-9.3-4.1-9.3-9.3 0-5.2 4.1-9.3 9.3-9.3 5.2 0 9.3 4.1 9.3 9.3z"/>
			<path id="&lt;Path&gt;" class="s3" d="m436.8 165c0 5.2-4.2 9.4-9.4 9.4-5.1 0-9.3-4.2-9.3-9.4 0-5.1 4.2-9.3 9.3-9.3 5.2 0 9.4 4.2 9.4 9.3z"/>
			<path id="&lt;Path&gt;" class="s3" d="m461.5 165c0 5.2-4.1 9.4-9.3 9.4-5.1 0-9.3-4.2-9.3-9.4 0-5.1 4.2-9.3 9.3-9.3 5.2 0 9.3 4.2 9.3 9.3z"/>
			<path id="&lt;Path&gt;" class="s3" d="m486.3 165c0 5.2-4.1 9.4-9.3 9.4-5.1 0-9.3-4.2-9.3-9.4 0-5.1 4.2-9.3 9.3-9.3 5.2 0 9.3 4.2 9.3 9.3z"/>
			<path id="&lt;Path&gt;" class="s3" d="m511.1 165c0 5.2-4.1 9.4-9.3 9.4-5.1 0-9.3-4.2-9.3-9.4 0-5.1 4.2-9.3 9.3-9.3 5.2 0 9.3 4.2 9.3 9.3z"/>
			<path id="&lt;Path&gt;" class="s3" d="m535.9 165c0 5.2-4.1 9.4-9.3 9.4-5.2 0-9.3-4.2-9.3-9.4 0-5.1 4.1-9.3 9.3-9.3 5.2 0 9.3 4.2 9.3 9.3z"/>
			<path id="&lt;Path&gt;" class="s3" d="m486.3 140.2c0 5.2-4.1 9.4-9.3 9.4-5.1 0-9.3-4.2-9.3-9.4 0-5.1 4.2-9.3 9.3-9.3 5.2 0 9.3 4.2 9.3 9.3z"/>
			<path id="&lt;Path&gt;" class="s3" d="m511.1 140.2c0 5.2-4.1 9.4-9.3 9.4-5.1 0-9.3-4.2-9.3-9.4 0-5.1 4.2-9.3 9.3-9.3 5.2 0 9.3 4.2 9.3 9.3z"/>
			<path id="&lt;Path&gt;" class="s3" d="m535.9 140.2c0 5.2-4.1 9.4-9.3 9.4-5.2 0-9.3-4.2-9.3-9.4 0-5.1 4.1-9.3 9.3-9.3 5.2 0 9.3 4.2 9.3 9.3z"/>
			<path id="&lt;Path&gt;" class="s3" d="m560.7 165c0 5.2-4.2 9.4-9.3 9.4-5.2 0-9.3-4.2-9.3-9.4 0-5.1 4.1-9.3 9.3-9.3 5.1 0 9.3 4.2 9.3 9.3z"/>
			<path id="&lt;Path&gt;" class="s3" d="m687.8 192.9c0 5.2-4.2 9.4-9.3 9.4-5.2 0-9.4-4.2-9.4-9.4 0-5.1 4.2-9.3 9.4-9.3 5.1 0 9.3 4.2 9.3 9.3z"/>
			<path id="&lt;Path&gt;" class="s3" d="m687.8 165c0 5.2-4.2 9.4-9.3 9.4-5.2 0-9.4-4.2-9.4-9.4 0-5.1 4.2-9.3 9.4-9.3 5.1 0 9.3 4.2 9.3 9.3z"/>
			<path id="&lt;Path&gt;" class="s3" d="m384.1 192.9c0 5.2-4.2 9.4-9.4 9.4-5.1 0-9.3-4.2-9.3-9.4 0-5.1 4.2-9.3 9.3-9.3 5.2 0 9.4 4.2 9.4 9.3z"/>
			<path id="&lt;Path&gt;" class="s3" d="m331.4 165c0 5.2-4.2 9.4-9.4 9.4-5.1 0-9.3-4.2-9.3-9.4 0-5.1 4.2-9.3 9.3-9.3 5.2 0 9.4 4.2 9.4 9.3z"/>
			<path id="&lt;Path&gt;" class="s3" d="m356.2 165c0 5.2-4.2 9.4-9.4 9.4-5.1 0-9.3-4.2-9.3-9.4 0-5.1 4.2-9.3 9.3-9.3 5.2 0 9.4 4.2 9.4 9.3z"/>
			<path id="&lt;Path&gt;" class="s3" d="m384.1 165c0 5.2-4.2 9.4-9.4 9.4-5.1 0-9.3-4.2-9.3-9.4 0-5.1 4.2-9.3 9.3-9.3 5.2 0 9.4 4.2 9.4 9.3z"/>
			<path id="&lt;Path&gt;" class="s3" d="m356.2 140.2c0 5.2-4.2 9.4-9.4 9.4-5.1 0-9.3-4.2-9.3-9.4 0-5.1 4.2-9.3 9.3-9.3 5.2 0 9.4 4.2 9.4 9.3z"/>
			<path id="&lt;Path&gt;" class="s3" d="m384.1 140.2c0 5.2-4.2 9.4-9.4 9.4-5.1 0-9.3-4.2-9.3-9.4 0-5.1 4.2-9.3 9.3-9.3 5.2 0 9.4 4.2 9.4 9.3z"/>
			<path id="&lt;Path&gt;" class="s3" d="m229.1 242.5c0 5.2-4.2 9.4-9.3 9.4-5.2 0-9.4-4.2-9.4-9.4 0-5.1 4.2-9.3 9.4-9.3 5.1 0 9.3 4.2 9.3 9.3z"/>
			<path id="&lt;Path&gt;" class="s3" d="m306.6 395.9c0 5.2-4.2 9.4-9.3 9.4-5.2 0-9.4-4.2-9.4-9.4 0-5.1 4.2-9.3 9.4-9.3 5.1 0 9.3 4.2 9.3 9.3z"/>
			<path id="&lt;Path&gt;" class="s3" d="m281.8 395.9c0 5.2-4.2 9.4-9.3 9.4-5.2 0-9.4-4.2-9.4-9.4 0-5.1 4.2-9.3 9.4-9.3 5.1 0 9.3 4.2 9.3 9.3z"/>
			<path id="&lt;Path&gt;" class="s3" d="m257 395.9c0 5.2-4.2 9.4-9.3 9.4-5.2 0-9.4-4.2-9.4-9.4 0-5.1 4.2-9.3 9.4-9.3 5.1 0 9.3 4.2 9.3 9.3z"/>
			<path id="&lt;Path&gt;" class="s3" d="m232.2 395.9c0 5.2-4.2 9.4-9.3 9.4-5.2 0-9.4-4.2-9.4-9.4 0-5.1 4.2-9.3 9.4-9.3 5.1 0 9.3 4.2 9.3 9.3z"/>
			<path id="&lt;Path&gt;" class="s3" d="m204.3 395.9c0 5.2-4.2 9.4-9.3 9.4-5.2 0-9.4-4.2-9.4-9.4 0-5.1 4.2-9.3 9.4-9.3 5.1 0 9.3 4.2 9.3 9.3z"/>
			<path id="&lt;Path&gt;" class="s3" d="m381 395.9c0 5.2-4.2 9.4-9.4 9.4-5.1 0-9.3-4.2-9.3-9.4 0-5.1 4.2-9.3 9.3-9.3 5.2 0 9.4 4.2 9.4 9.3z"/>
			<path id="&lt;Path&gt;" class="s3" d="m381 368c0 5.2-4.2 9.4-9.4 9.4-5.1 0-9.3-4.2-9.3-9.4 0-5.1 4.2-9.3 9.3-9.3 5.2 0 9.4 4.2 9.4 9.3z"/>
			<path id="&lt;Path&gt;" class="s3" d="m381 343.2c0 5.2-4.2 9.4-9.4 9.4-5.1 0-9.3-4.2-9.3-9.4 0-5.1 4.2-9.3 9.3-9.3 5.2 0 9.4 4.2 9.4 9.3z"/>
			<path id="&lt;Path&gt;" class="s3" d="m381 318.5c0 5.1-4.2 9.3-9.4 9.3-5.1 0-9.3-4.2-9.3-9.3 0-5.2 4.2-9.4 9.3-9.4 5.2 0 9.4 4.2 9.4 9.4z"/>
			<path id="&lt;Path&gt;" class="s3" d="m408.9 368c0 5.2-4.2 9.4-9.4 9.4-5.1 0-9.3-4.2-9.3-9.4 0-5.1 4.2-9.3 9.3-9.3 5.2 0 9.4 4.2 9.4 9.3z"/>
			<path id="&lt;Path&gt;" class="s3" d="m408.9 343.2c0 5.2-4.2 9.4-9.4 9.4-5.1 0-9.3-4.2-9.3-9.4 0-5.1 4.2-9.3 9.3-9.3 5.2 0 9.4 4.2 9.4 9.3z"/>
			<path id="&lt;Path&gt;" class="s3" d="m408.9 318.5c0 5.1-4.2 9.3-9.4 9.3-5.1 0-9.3-4.2-9.3-9.3 0-5.2 4.2-9.4 9.3-9.4 5.2 0 9.4 4.2 9.4 9.4z"/>
			<path id="&lt;Path&gt;" class="s3" d="m408.9 395.9c0 5.2-4.2 9.4-9.4 9.4-5.1 0-9.3-4.2-9.3-9.4 0-5.1 4.2-9.3 9.3-9.3 5.2 0 9.4 4.2 9.4 9.3z"/>
			<path id="&lt;Path&gt;" class="s3" d="m433.7 395.9c0 5.2-4.2 9.4-9.4 9.4-5.1 0-9.3-4.2-9.3-9.4 0-5.1 4.2-9.3 9.3-9.3 5.2 0 9.4 4.2 9.4 9.3z"/>
			<path id="&lt;Path&gt;" class="s3" d="m331.4 395.9c0 5.2-4.2 9.4-9.4 9.4-5.1 0-9.3-4.2-9.3-9.4 0-5.1 4.2-9.3 9.3-9.3 5.2 0 9.4 4.2 9.4 9.3z"/>
			<path id="&lt;Path&gt;" class="s3" d="m356.2 523c0 5.2-4.2 9.3-9.4 9.3-5.1 0-9.3-4.1-9.3-9.3 0-5.2 4.2-9.3 9.3-9.3 5.2 0 9.4 4.1 9.4 9.3z"/>
			<path id="&lt;Path&gt;" class="s3" d="m432.6 598.4c0 5.2-4.2 9.3-9.3 9.3-5.2 0-9.3-4.1-9.3-9.3 0-5.1 4.1-9.3 9.3-9.3 5.1 0 9.3 4.2 9.3 9.3z"/>
			<path id="&lt;Path&gt;" class="s3" d="m457.4 623.2c0 5.2-4.2 9.3-9.3 9.3-5.2 0-9.3-4.1-9.3-9.3 0-5.1 4.1-9.3 9.3-9.3 5.1 0 9.3 4.2 9.3 9.3z"/>
			<path id="&lt;Path&gt;" class="s3" d="m457.4 651.1c0 5.2-4.2 9.3-9.3 9.3-5.2 0-9.3-4.1-9.3-9.3 0-5.1 4.1-9.3 9.3-9.3 5.1 0 9.3 4.2 9.3 9.3z"/>
			<path id="&lt;Path&gt;" class="s3" d="m485.3 651.1c0 5.2-4.2 9.3-9.3 9.3-5.2 0-9.4-4.1-9.4-9.3 0-5.1 4.2-9.3 9.4-9.3 5.1 0 9.3 4.2 9.3 9.3z"/>
			<path id="&lt;Path&gt;" class="s3" d="m510.1 651.1c0 5.2-4.2 9.3-9.3 9.3-5.2 0-9.4-4.1-9.4-9.3 0-5.1 4.2-9.3 9.4-9.3 5.1 0 9.3 4.2 9.3 9.3z"/>
		</g>
	</g>
</svg>