<svg width="787" height="89" viewBox="0 0 787 89" fill="none" xmlns="http://www.w3.org/2000/svg">
<path d="M530.579 85.1359C531.285 83.5103 532.074 81.9216 532.942 80.376C533.665 79.2054 534.726 78.2392 535.615 77.1624C536.316 76.3121 537.006 75.4452 537.669 74.5617C538.046 73.9046 538.48 73.2818 538.966 72.7007C540.066 71.73 540.939 70.5291 541.523 69.1832C541.965 68.1286 543.036 67.3445 543.792 66.4223C544.549 65.5002 545.322 64.429 546.112 63.4516C546.978 62.3804 547.89 61.3368 548.762 60.271C549.11 59.8459 549.408 59.3821 549.717 58.9293C550.181 58.2501 550.485 57.3334 551.12 56.9192C552.837 55.8149 553.224 53.7553 554.566 52.4079C554.825 52.1484 555.239 52.0104 555.449 51.7232C556.377 50.4477 557.199 49.1003 558.16 47.8579C559.055 46.6983 560.082 45.6492 561.043 44.5448C561.246 44.2895 561.43 44.0201 561.595 43.7386C562.091 42.8444 562.644 41.983 563.251 41.1598C564.444 39.7628 566.195 38.8518 566.647 36.8087C566.791 36.1737 567.492 35.6104 568.039 35.1521C569.043 34.3234 569.841 33.2722 570.369 32.082C570.921 30.8782 572.142 29.9947 573.069 28.9622C573.285 28.7247 573.583 28.4872 573.621 28.2056C574.074 26.3944 575.681 25.5 576.736 24.1748C576.935 23.9263 577.222 23.6832 577.288 23.4016C577.658 21.5904 579.348 20.7953 580.281 19.4259C580.452 19.1719 580.894 18.9842 580.905 18.7523C580.971 17.3387 582.175 16.7147 582.871 15.7429C583.053 15.4999 583.185 14.909 583.064 14.8096C582.191 14.0862 581.407 13.4291 580.038 13.4346C566.625 13.5119 553.218 13.4678 539.811 13.4346C538.707 13.4346 537.602 13.5782 537 12.3303C536.807 11.9217 536.448 11.5241 536.448 11.1155C536.393 8.01221 536.448 4.89795 536.388 1.79467C536.388 0.579863 536.896 0.0662822 538.044 0.0883696C538.745 0.0883696 539.447 0.0552061 540.153 0.0552061C563.555 0.0552061 586.957 0.0552061 610.358 0.0552061C611.01 0.0457952 611.661 0.0808161 612.307 0.160089C613.357 0.303657 613.909 1.30875 613.268 2.07629C612.059 3.53406 610.712 4.87578 609.403 6.26729C609.179 6.50171 608.976 6.75486 608.796 7.02385C608.299 7.91809 607.746 8.7794 607.139 9.60251C606.239 10.6572 604.776 11.4136 604.295 12.5953C603.644 14.2022 602.457 15.2679 601.452 16.5159C599.966 18.3712 598.691 20.3811 596.995 22.1095C595.891 23.2138 594.395 24.2465 593.958 26.157C593.71 27.2614 592.302 28.0952 591.468 29.067C591.149 29.4356 590.858 29.8269 590.596 30.2377C590.143 30.9335 589.834 31.7783 589.243 32.3195C588.139 33.2625 587.276 34.4549 586.725 35.7981C586.278 36.9025 584.974 37.6812 584.13 38.6696C583.384 39.5421 582.749 40.5084 582.07 41.4305C581.665 42.0527 581.219 42.6468 580.734 43.2086C579.773 44.2025 578.735 45.1246 577.735 46.0854C577.617 46.2351 577.52 46.4005 577.448 46.5768C576.896 47.5045 576.531 48.5812 575.791 49.3377C574.838 50.2158 574.052 51.2599 573.472 52.419C572.92 53.6227 571.672 54.5117 570.711 55.5443C570.494 55.7757 570.295 56.0231 570.115 56.2843C569.589 57.219 569.012 58.1241 568.387 58.9955C567.238 60.4035 565.493 61.3092 565.074 63.3357C564.936 63.9707 564.113 64.4401 563.594 64.9922C562.627 65.9917 561.468 66.8586 560.755 68.0072C560.314 68.714 560.386 69.8625 560.557 70.7681C560.606 71.0387 561.738 71.2485 562.373 71.2485C576.381 71.2485 590.391 71.2485 604.406 71.2485C606.615 71.2485 607.515 72.1319 607.526 74.3131C607.526 77.5213 607.526 80.7296 607.526 83.9433C607.526 84.9814 607.051 85.3348 606.04 85.8704C603.196 87.3779 600.281 86.6766 597.426 86.6876C576.034 86.7815 554.637 86.7373 533.246 86.8257C531.788 86.776 531.401 85.6826 530.579 85.1359Z" fill="white"/>
<path d="M27.4382 0.209511H52.2865C54.0922 0.209511 55.4561 1.26968 56.9084 2.11452C57.0717 2.22041 57.2434 2.31275 57.4219 2.39062C60.227 3.40664 61.7013 4.42817 64.0481 7.21118C65.2022 8.5806 66.2569 10.0329 67.3061 11.5017C67.538 11.833 67.4165 12.3963 67.5656 12.8104C67.803 13.4565 68.1177 14.0694 68.4379 14.6988C68.4766 14.7872 68.5871 14.8479 68.6036 14.9362C69.0398 16.8026 69.6583 18.6525 69.8516 20.5465C70.0039 22.7522 70.0206 24.9651 69.9013 27.1728C69.8682 28.4097 70.2657 29.7901 69.0122 30.7564C68.8631 30.8724 68.8631 31.2313 68.8631 31.4798C68.8963 33.8818 67.4882 35.7426 66.6544 37.8464C65.3126 41.3362 62.1873 43.0093 59.9509 45.577C59.1889 46.4439 57.698 46.6815 56.5274 47.1895C54.8708 47.9128 53.17 48.6418 51.4638 49.2989C50.928 49.4154 50.3828 49.4837 49.8348 49.5031C48.7581 49.7019 47.5212 49.2491 46.6708 50.4252C46.472 50.6958 45.7267 50.6075 45.2297 50.6075C36.345 50.6351 27.4548 50.6074 18.5702 50.6847C14.2797 50.7234 14.4454 50.1878 14.4343 54.9035C14.4343 64.1802 14.4343 73.4568 14.4343 82.728C14.4343 84.6 12.347 86.7314 10.4806 86.7424C7.86875 86.7424 5.25695 86.7424 2.65064 86.7424C1.83341 86.7424 1.59599 86.3559 1.15424 85.6823C-0.502317 83.1257 0.116179 80.3371 0.0996135 77.6424C0.0388731 64.39 0.0553901 51.1707 0.0498682 37.9348C0.0498682 35.9691 1.00516 34.9806 2.96542 34.9751C15.2681 34.9751 27.5707 34.9751 39.8679 34.9034C40.7348 34.9034 41.5908 34.4174 42.4522 34.1855C42.8337 34.0756 43.2263 34.0089 43.6228 33.9866C44.9238 33.8816 46.2312 33.8816 47.5323 33.9866C50.0889 34.3511 51.657 32.7388 52.9823 31.1429C54.6775 29.1054 55.7985 26.6868 55.423 23.8486C55.3071 22.9927 55.5942 22.0595 54.6058 21.4576C54.3684 21.314 54.3297 20.7232 54.3297 20.3532C54.3297 18.7905 53.4185 17.8242 52.3252 16.9021C51.716 16.3406 51.139 15.7451 50.5969 15.1185C50.4975 15.0136 50.4313 14.8204 50.3153 14.7873C48.8023 14.3455 47.2783 13.5779 45.7543 13.5613C32.5515 13.4564 19.3432 13.4841 6.14049 13.473C5.03612 13.473 3.93175 13.473 2.82738 13.4398C1.02725 13.3902 0.06645 12.4405 0.06645 10.6183C0.0388407 7.90703 0.06645 5.20134 0.06645 2.49563C0.06645 0.286893 0.215443 0.0880414 2.45179 0.0825195C10.7861 0.0825195 19.1204 0.0825195 27.4548 0.0825195L27.4382 0.209511Z" fill="white"/>
<path d="M192.282 13.2964C190.156 10.6901 190.509 7.86292 190.659 5.14065C190.822 3.56366 191.194 2.01529 191.763 0.535511C191.862 0.242853 192.779 0.0937307 193.326 0.0882089C199.499 0.0385122 205.678 0.00531639 211.851 0.021882C220.841 0.0439694 229.829 0.0936768 238.815 0.170983C239.731 0.170983 240.764 -0.0609135 241.355 1.02137C241.421 1.14837 241.708 1.15948 241.907 1.22574C243.447 1.72271 245.087 2.03184 246.484 2.78281C247.639 3.40126 248.528 4.5333 249.499 5.47201C250.129 6.07942 250.687 6.75859 251.294 7.38808C251.421 7.52061 251.719 7.54272 251.78 7.68628C252.288 8.88453 252.741 10.1159 253.254 11.3142C253.696 12.3412 253.972 13.6001 254.745 14.2738C255.518 14.9475 255.452 15.704 255.573 16.4826C255.75 17.5869 255.264 18.9066 256.496 19.7957C256.716 19.9503 256.656 20.5467 256.661 20.9443C256.661 22.7444 256.722 24.5501 256.661 26.3557C256.661 27.4049 256.827 28.4485 255.872 29.4093C255.413 29.8676 255.673 31.0327 255.573 31.872C255.474 32.7113 255.745 33.5948 254.673 34.0531C254.458 34.147 254.375 34.7765 254.392 35.1575C254.469 36.7699 253.613 37.8467 252.448 38.7854C252.258 38.917 252.123 39.1133 252.067 39.3376C251.968 41.3034 250.046 41.9659 249.174 43.385C248.837 43.9372 248.113 44.241 247.622 44.7159C246.309 45.9159 244.722 46.7766 243 47.2228C242.109 47.5297 241.244 47.9101 240.416 48.3602C240.295 48.4275 240.191 48.5219 240.113 48.6359C240.034 48.7499 239.983 48.8804 239.963 49.0174C240.074 50.4586 239.306 51.955 240.825 53.2968C241.675 54.0533 241.802 55.5939 242.36 56.7259C242.967 57.9517 243.701 59.1224 244.381 60.3151C244.475 60.4807 244.579 60.6408 244.668 60.8065C245.452 62.2863 246.28 63.7386 246.992 65.2516C247.545 66.4388 247.843 67.7585 248.45 68.918C249.284 70.5139 250.3 72.0159 251.255 73.5454C251.377 73.7387 251.692 73.8325 251.769 74.0313C252.266 75.2627 252.641 76.5548 253.221 77.7475C253.773 78.8187 254.502 79.774 255.126 80.8011C255.301 81.1377 255.436 81.4935 255.529 81.8614C255.569 82.2543 255.666 82.6392 255.816 83.0043C256.81 84.4289 256.777 84.8156 255.264 85.6052C254.475 86.0193 253.343 86.8034 252.818 86.5328C249.577 84.8763 246.148 85.9807 242.846 85.5831C242.141 85.5017 241.477 85.2116 240.939 84.7501C240.401 84.2886 240.013 83.6768 239.825 82.9932C239.411 81.7563 238.594 80.6521 237.942 79.498C237.876 79.3765 237.627 79.3047 237.627 79.2109C237.627 78.1065 236.821 77.4549 236.308 76.6046C235.325 74.948 234.651 73.1479 233.729 71.4803C232.691 69.6249 231.421 67.8965 230.416 66.0357C229.781 64.8816 229.461 63.5674 228.914 62.3637C228.608 61.8946 228.266 61.4497 227.892 61.033C227.13 59.8955 226.341 58.769 225.684 57.5763C225.092 56.6305 224.645 55.6011 224.358 54.5227C223.994 52.7557 222.42 52.0433 221.448 50.8229C221.239 50.5634 220.493 50.6959 219.996 50.6959C211.261 50.6518 202.525 50.6021 193.784 50.6021C192.541 50.6021 192.127 50.2156 191.492 48.9953C189.681 45.4447 190.99 41.8169 190.686 38.2222C190.609 37.2779 191.354 36.2232 191.862 35.3011C192.011 35.0415 192.674 34.9918 193.099 34.9863C196.009 34.9421 198.925 34.9312 201.835 34.9312C213.083 34.9312 224.331 34.9918 235.579 34.8427C237.384 34.8427 239.444 34.3403 240.063 31.8831C240.344 30.7787 241.349 29.9006 241.973 28.8901C242.164 28.5529 242.269 28.1734 242.277 27.7858C242.326 25.8807 242.404 23.9758 242.349 22.0707C242.271 19.3871 240.963 17.4048 238.964 15.5991C238.014 14.7488 237.048 14.815 236.098 14.4284C230.841 12.286 225.374 13.6112 220.029 13.4455C211.25 13.1694 202.453 13.3572 193.668 13.3407C193.061 13.3738 192.47 13.3075 192.282 13.2964Z" fill="white"/>
<path d="M398.424 86.163C397.926 86.499 397.34 86.6831 396.74 86.6929C396.139 86.7028 395.548 86.5378 395.039 86.2183C394.68 85.9974 394.062 86.2183 393.565 86.2183C392.974 86.2525 392.381 86.2396 391.792 86.1796C391.389 86.1189 391.041 85.76 390.633 85.6716C389.23 85.3569 388.523 84.4899 388.048 83.137C387.504 81.867 386.866 80.6396 386.138 79.4651C386.016 79.2602 385.914 79.0439 385.834 78.8191C385.343 77.2729 384.978 75.6771 384.349 74.1972C383.852 73.0266 382.974 72.0216 382.377 70.8841C381.941 70.0613 381.958 69.1448 381.185 68.322C380.412 67.4992 380.483 65.5611 379.622 64.7383C378.264 63.4076 378.987 61.4252 377.568 60.1165C376.701 59.3213 376.568 57.7532 376.038 56.5604C375.508 55.3677 374.934 54.3849 374.415 53.2971C374.172 52.8111 373.929 52.3251 373.675 51.8447C373.034 50.6244 372.388 49.4151 371.731 48.2058C371.665 48.0843 371.477 48.0182 371.433 47.8967C370.953 46.6267 370.572 45.3124 369.997 44.0865C369.445 42.9821 368.727 41.9497 368.092 40.8729C367.917 40.6427 367.804 40.3703 367.767 40.0832C367.822 38.3217 366.839 37.1291 365.657 36.0136C365.464 35.8314 365.464 35.4615 365.32 35.2185C365.061 34.7602 364.768 33.9595 364.464 33.9595C363.912 33.9595 363.36 34.4343 362.808 34.6938C361.516 35.2957 361.864 36.5878 361.499 37.6039C360.977 38.8202 360.354 39.9912 359.638 41.1048C359.572 41.2263 359.373 41.2981 359.346 41.4196C358.959 43.2142 357.954 44.6497 356.949 46.1572C356.215 47.2616 356.082 48.7414 355.536 50.0225C354.879 51.5521 354.067 53.0154 353.327 54.5118C352.935 55.307 352.548 56.1076 352.223 56.9248C351.715 58.1507 351.311 59.4262 350.748 60.6244C350.185 61.8227 349.473 62.9713 348.843 64.1475C348.648 64.425 348.521 64.7447 348.473 65.0806C348.481 65.8527 348.299 66.615 347.945 67.3011C347.591 67.9872 347.075 68.5765 346.441 69.0178C346.299 69.1544 346.194 69.3256 346.137 69.5147C345.646 71.0442 345.276 72.6235 344.652 74.1034C344.088 75.2432 343.44 76.3395 342.714 77.3833C342.714 77.4275 342.631 77.4496 342.615 77.4937C342.14 78.5981 341.4 79.7025 341.251 80.8842C340.963 83.1482 339.638 84.5341 337.937 85.7599C337.618 86.0429 337.327 86.3575 337.071 86.6987C334.862 85.3404 326.734 85.3237 324.923 86.6103C322.62 85.5943 322.714 83.623 323.227 81.7455C323.548 80.5362 324.42 79.4706 325.05 78.3386C325.169 78.1897 325.277 78.0329 325.375 77.8693C325.85 76.5882 326.215 75.2518 326.805 74.0315C327.358 72.9271 328.208 71.9664 328.788 70.873C329.368 69.7797 329.804 68.5263 330.323 67.3557C330.842 66.1851 331.322 65.1469 331.836 64.0426C332.112 63.4517 332.388 62.8774 332.697 62.292C333.006 61.7067 333.354 60.9724 333.68 60.3208C333.724 60.2325 333.818 60.1717 333.851 60.0833C334.321 58.8575 334.696 57.593 335.265 56.4169C335.834 55.2407 336.679 54.164 337.28 52.9823C337.882 51.8006 338.236 50.6355 338.782 49.4924C339.373 48.2555 340.047 47.0628 340.693 45.8535C340.759 45.732 340.952 45.6714 341.002 45.5499C341.488 44.2799 341.858 42.9601 342.449 41.7397C343.035 40.6616 343.686 39.6199 344.398 38.6199C344.448 38.5426 344.575 38.4984 344.608 38.4211C345.094 37.1621 345.497 35.859 346.082 34.6442C346.668 33.4294 347.38 32.4354 348.043 31.3586C348.043 31.32 348.131 31.3034 348.147 31.2648C348.65 30.0555 349.092 28.8186 349.66 27.648C350.229 26.4773 350.947 25.3234 351.604 24.1693C351.67 24.0423 351.825 23.9594 351.875 23.8324C352.293 22.5407 352.775 21.2709 353.321 20.0279C353.874 18.9235 354.746 17.9406 355.381 16.8473C355.85 16.0411 356.143 15.1355 356.541 14.2796C356.988 13.3132 357.485 12.3635 357.921 11.3861C358.511 9.89314 359.268 8.47226 360.18 7.15091C360.947 6.13489 361.107 4.69368 361.753 3.5617C362.206 2.6737 362.906 1.93542 363.769 1.43574C364.707 0.993988 366.06 2.35242 366.491 3.42366C367.122 4.81008 367.828 6.16128 368.606 7.47122C368.65 7.55405 368.749 7.60922 368.783 7.69757C369.252 8.91789 369.638 10.1823 370.207 11.3585C370.776 12.5346 371.51 13.5672 372.173 14.6716C372.281 14.8271 372.375 14.9916 372.455 15.1631C372.87 16.4128 373.349 17.6402 373.89 18.8406C374.443 19.945 375.293 20.9004 375.939 21.9661C376.391 22.7327 376.79 23.5296 377.132 24.3514C377.651 25.5552 378.065 26.8087 378.628 27.9904C379.191 29.172 379.904 30.3262 380.555 31.4857C380.627 31.6128 380.798 31.6844 380.842 31.8115C381.317 33.087 381.682 34.4123 382.272 35.6271C382.825 36.7315 383.62 37.7144 384.249 38.7856C384.797 39.705 385.29 40.6564 385.724 41.6348C386.276 42.8497 386.568 44.1583 387.165 45.3345C387.761 46.5106 388.656 47.4162 389.202 48.5593C389.6 49.3986 389.699 50.2656 390.412 51.0883C391.223 52.016 391.345 53.5178 391.908 54.7106C392.471 55.9033 393.14 56.8697 393.775 57.9354C393.874 58.0955 394.062 58.2115 394.133 58.3771C395.017 60.4478 395.691 62.64 396.817 64.5671C397.761 66.1961 398.413 67.9299 399.28 69.5368C400.193 71.0425 400.984 72.6195 401.643 74.2525C402.024 75.3568 402.952 76.2679 403.609 77.284C403.695 77.5117 403.761 77.7463 403.808 77.9852C404.31 79.2387 404.813 80.4977 405.343 81.7401C405.613 82.3696 406.166 82.9438 406.226 83.5788C406.42 85.7047 405.365 86.7153 403.178 86.7098C402.223 86.7098 401.268 86.7595 400.318 86.7098C399.672 86.5825 399.038 86.3995 398.424 86.163Z" fill="white"/>
<path d="M735.417 0.22082C741.137 0.22082 746.864 0.220853 752.584 0.253984C753.291 0.253984 753.992 0.750988 754.705 0.982906C755.124 1.12 755.554 1.21967 755.991 1.28097C756.897 1.39693 757.935 1.11543 758.476 2.22532C758.537 2.3468 758.829 2.36329 759.028 2.41851C760.591 2.88234 762.253 3.1364 763.689 3.85424C765.229 4.6273 766.554 5.83102 767.979 6.84152C768.172 6.97956 768.371 7.19488 768.581 7.21696C770.53 7.42679 771.314 9.2215 772.667 10.2265C773.774 11.1567 774.801 12.178 775.737 13.2799C776.693 14.2684 777.692 15.2293 778.548 16.3005C779.757 17.819 780.884 19.3982 781.971 21.005C782.413 21.7198 782.783 22.4763 783.076 23.2635C783.628 24.6164 784.142 25.9914 784.694 27.3442C784.953 27.9792 785.34 28.57 785.533 29.2216C785.684 29.8923 785.798 30.5706 785.875 31.2536C786.063 32.2365 785.666 33.3795 786.775 34.1249C787.002 34.274 786.985 34.8704 786.985 35.2569C786.985 39.8732 787.035 44.484 786.952 49.0947C786.952 49.8291 786.256 50.5304 786.047 51.3035C785.494 53.2085 785.202 55.1687 784.589 57.0406C784.197 58.2389 783.424 59.3102 782.827 60.4422C782.673 60.7348 782.386 61.0329 782.391 61.3256C782.391 63.0815 781.491 64.2908 780.216 65.3289C780.144 65.3897 780.028 65.4836 780.033 65.5499C780.144 66.7481 779.216 67.3941 778.653 68.25C777.167 70.5195 775.583 72.8718 773.385 74.3241C771.971 75.2462 770.878 76.5659 769.365 77.3279C768.934 77.5433 768.653 78.0403 768.261 78.3827C766.902 79.6361 765.168 80.2159 763.584 81.0773C761.743 82.1484 759.743 82.9184 757.659 83.3579C756.483 83.5787 755.45 84.5506 754.346 85.1304C753.917 85.3638 753.441 85.496 752.954 85.5169C741.458 85.5758 729.959 85.6144 718.459 85.6328C717.809 85.5976 717.195 85.3213 716.737 84.8578C716.28 84.3942 716.012 83.7766 715.985 83.1259C715.985 80.0667 715.985 77.0077 715.985 73.9486C715.971 73.5727 716.036 73.198 716.177 72.8491C716.318 72.5002 716.531 72.185 716.802 71.9243C717.073 71.6635 717.396 71.4631 717.75 71.3361C718.105 71.2092 718.482 71.1586 718.857 71.1877C724.334 71.1877 729.807 71.2485 735.279 71.2319C739.943 71.2319 744.611 71.1711 749.282 71.0496C749.834 71.0496 750.386 70.6079 750.939 70.3594C751.115 70.2766 751.292 70.0336 751.419 70.0667C753.291 70.5306 754.638 69.1281 756.195 68.6145C757.753 68.101 759.183 66.8199 760.646 65.8536C760.878 65.699 761.044 65.3014 761.265 65.3014C762.722 65.1744 763.379 64.0701 764.197 63.0927C765.014 62.1153 765.975 61.2318 766.82 60.2654C767.187 59.7971 767.514 59.2984 767.797 58.7746C768.476 57.6702 769.155 56.5161 769.812 55.3841C769.96 55.1378 770.066 54.8693 770.127 54.589C770.288 53.5036 770.63 52.453 771.138 51.4802C772.038 49.8237 772.352 47.7805 772.507 45.8699C772.717 43.1753 772.584 40.4585 772.507 37.7528C772.507 36.7092 772.816 35.5 771.574 34.8043C771.48 34.7546 771.474 34.5337 771.436 34.3901C771 32.7777 770.784 31.0769 770.066 29.5805C769.31 28.0123 768.073 26.676 767.051 25.2293C766.433 24.3513 765.947 23.3243 765.196 22.6009C763.987 21.4579 763.197 19.8786 761.425 19.2878C760.602 19.0117 759.961 18.1834 759.216 17.6312C759.022 17.4219 758.794 17.2465 758.542 17.1122C757.007 16.6042 755.196 16.4882 753.965 15.5827C752.187 14.2685 750.149 15.1132 748.504 14.3954C744.6 12.7057 740.58 13.5562 736.62 13.4071C732.556 13.2525 728.487 13.407 724.417 13.4456C722.208 13.4456 720 13.396 717.791 13.4071C716.504 13.4071 715.88 12.9156 715.903 11.5461C715.958 8.33795 715.974 5.12426 715.903 1.91607C715.869 0.541125 716.422 0.0772466 717.719 0.0772466C723.092 0.0772466 728.465 0.0276093 733.837 0H735.345L735.417 0.22082Z" fill="white"/>
<path d="M424.277 42.4795C424.277 29.1866 424.277 15.8992 424.277 2.61727C424.277 0.0993068 424.354 0.0274203 426.883 0.0274203C429.992 0.0274203 433.106 -0.00571086 436.221 0.0274203C438.601 0.0715951 438.667 0.165472 438.667 2.51778C438.667 21.8774 438.667 41.2334 438.667 60.5857C438.667 63.3466 438.667 66.1075 438.667 68.8685C438.667 71.0772 438.794 71.171 440.931 71.171H477.237C478.308 71.171 479.446 70.9612 480.108 72.176C480.362 72.6454 480.887 73.0871 480.892 73.5454C480.931 76.7536 480.948 79.9673 480.776 83.17C480.721 84.0866 479.987 84.9592 479.628 85.8813C479.076 87.2563 477.916 86.6433 477.049 86.6433C460.528 86.6985 444.006 86.6929 427.485 86.715C426.381 86.715 425.906 86.4555 425.232 85.2849C423.874 82.9326 424.371 80.5803 424.354 78.2446C424.266 66.3118 424.315 54.3791 424.315 42.4463L424.277 42.4795Z" fill="white"/>
<path d="M283.161 47.8192C283.161 36.1405 283.161 24.4562 283.128 12.772C283.128 12.0045 282.576 11.248 282.487 10.4584C282.352 9.7265 282.43 8.97108 282.714 8.2828C282.959 7.95656 283.088 7.55781 283.081 7.14971C283.074 6.74162 282.931 6.34747 282.675 6.02984C282.288 5.41139 282.559 4.33456 282.675 3.47868C282.719 3.02036 283.111 2.60075 283.155 2.14243C283.376 0.0662158 283.349 0.0385742 285.508 0.0385742C298.064 0.0385742 310.617 0.0385742 323.167 0.0385742C325.491 0.0385742 325.602 0.176734 325.591 2.50143C325.591 5.35623 325.591 8.21643 325.536 11.0712C325.491 13.28 325.387 13.3574 323.205 13.3629C315.972 13.3886 308.742 13.3997 301.516 13.396C300.963 13.396 300.411 13.396 299.859 13.396C297.59 13.4292 296.64 14.4121 296.64 16.7091V70.5583C296.64 74.7217 296.64 78.8833 296.64 83.0431C296.64 84.2966 296.507 85.0917 294.934 85.804C291.698 87.3004 288.467 86.3562 285.259 86.5108C284.525 86.555 283.387 85.55 283.338 84.3021C283.277 82.8995 283.227 81.4969 283.227 80.0944C283.227 69.3157 283.227 58.5353 283.227 47.753L283.161 47.8192Z" fill="white"/>
<path d="M513.389 36.1792C513.389 47.0573 513.433 57.9408 513.35 68.8188C513.333 69.9964 513.057 71.1558 512.541 72.2143C512.024 73.2728 511.281 74.2044 510.363 74.9426C508.922 76.1905 507.724 77.7035 506.36 79.0563C505.311 80.0834 504.151 81.0166 503.091 82.0106C502.553 82.5935 501.983 83.1465 501.384 83.6671C500.9 84.013 500.323 84.2054 499.728 84.2193C499.468 84.2193 499.176 83.5621 498.966 83.1756C498.712 82.8201 498.525 82.4217 498.414 81.9995C498.309 81.3093 498.071 80.4424 498.375 79.9399C498.789 79.2662 498.96 78.9183 498.375 78.2833C498.082 77.8991 497.934 77.4241 497.955 76.9414C497.922 54.1178 497.906 31.307 497.906 8.50914C497.906 6.85259 497.906 5.19603 497.906 3.53948C497.906 0.778551 498.64 0.0551398 501.396 0.0385742C504.355 0.0385742 507.315 0.0385742 510.28 0.0385742C512.489 0.0385742 513.428 0.999382 513.428 3.21917C513.428 14.204 513.428 25.1833 513.428 36.1571L513.389 36.1792Z" fill="white"/>
<path d="M661.833 71.2148C670.32 71.2148 678.807 71.2148 687.294 71.2148C688.498 71.2148 689.033 71.5792 689.707 72.7719C691.507 75.9359 690.259 79.1828 690.447 82.369C690.513 83.3353 689.817 84.5777 689.077 85.3011C688.564 85.7925 687.371 85.6544 686.482 85.6544C670.06 85.6544 653.638 85.6544 637.216 85.6544C636.514 85.6929 635.81 85.6502 635.118 85.5274C634.697 85.3708 634.34 85.0796 634.102 84.6992C633.664 84.1914 633.352 83.5881 633.191 82.9377C633.183 82.1008 633.268 81.2656 633.445 80.4474C633.505 79.8952 633.77 79.2491 633.555 78.8625C633.113 78.0083 632.898 77.0543 632.932 76.0928C632.966 75.1314 633.247 74.1949 633.748 73.3738C633.748 73.3352 633.826 73.291 633.826 73.2468C633.892 70.7454 635.731 71.1983 637.277 71.1927C645.464 71.1927 653.649 71.1927 661.833 71.1927V71.2148Z" fill="white"/>
<path d="M633.865 5.48336C632.805 4.37899 632.462 3.37398 633.694 2.13708C634.069 1.75607 633.986 0.922252 634.135 0.182324C634.892 0.132627 635.632 0.0498047 636.372 0.0498047C653.346 0.0498047 670.32 0.0498047 687.294 0.0498047C689.669 0.0498047 690.541 0.93892 690.547 3.32436C690.547 4.32382 690.547 5.32877 690.547 6.33374C690.547 7.25037 690.657 8.1173 689.845 8.95662C689.42 9.39285 689.63 10.4751 689.597 11.2702C689.508 13.3906 689.497 13.4458 687.388 13.4458C676.492 13.4458 665.595 13.4458 654.699 13.4458C648.569 13.4458 642.442 13.4366 636.316 13.4182C634.108 13.4182 634.041 13.3354 633.948 11.2094C633.903 10.1437 634.03 9.12228 633.18 8.13387C632.805 7.69765 633.329 6.4773 633.451 5.63246L633.865 5.48336Z" fill="white"/>
<path d="M658.89 49.5641H636.316C634.075 49.5641 634.108 49.564 633.859 47.416C633.804 46.9632 633.445 46.5547 633.335 46.0963C633.224 45.638 632.998 44.9532 633.213 44.6164C634.229 43.0261 634.257 41.5187 633.213 39.9726C633.13 39.8511 632.998 39.6799 633.036 39.575C633.395 38.4706 633.589 37.2558 634.229 36.3889C634.543 36.034 634.924 35.7452 635.351 35.5394C635.778 35.3337 636.241 35.2151 636.714 35.1907C651.667 35.1244 666.615 35.152 681.562 35.1299C682.667 35.1299 683.075 35.4888 683.633 36.5103C685.571 40.0664 684.13 43.7992 684.517 47.416C684.616 48.3271 682.982 49.5475 681.927 49.5475H658.906L658.89 49.5641Z" fill="white"/>
<path d="M82.3091 46.4721V43.4848C82.3396 43.3781 82.3618 43.2691 82.3754 43.159C82.4742 40.8532 82.7622 38.5595 83.2367 36.3009C84.0495 32.3095 85.4156 28.4511 87.2953 24.8375C89.7616 20.1604 93.0628 15.974 97.0358 12.485C100.783 9.1211 105.096 6.44599 109.775 4.58325C112.684 3.41597 115.72 2.59137 118.82 2.12605C120.531 1.87757 122.249 1.62353 123.977 1.54623C125.739 1.43405 127.508 1.48211 129.261 1.6898C131.559 1.91213 133.842 2.25688 136.103 2.72245C144.456 4.66726 152.025 9.09478 157.815 15.4227C161.238 19.0666 164.005 23.2757 165.993 27.8635C167.843 32.2184 168.984 36.8418 169.372 41.5577C169.411 42.0326 169.488 42.4963 169.554 42.9656V47.1734C169.472 47.7255 169.356 48.2335 169.306 48.7746C169.091 51.3655 168.664 53.9344 168.03 56.4556C165.899 64.5996 161.401 71.9286 155.104 77.5159C151.24 81.0381 146.766 83.8246 141.901 85.738C138.971 86.8901 135.92 87.7052 132.806 88.1676C131.15 88.4326 129.444 88.6149 127.748 88.7198C125.986 88.8147 124.218 88.763 122.464 88.5651C120.189 88.3503 117.928 88.0019 115.694 87.5216C112.135 86.6727 108.696 85.3835 105.457 83.6838C100.924 81.2652 96.8594 78.0584 93.4521 74.2139C90.6494 71.1117 88.3098 67.6208 86.5057 63.8493C84.0391 58.5814 82.6337 52.8794 82.3699 47.0685C82.3644 46.8476 82.3091 46.6598 82.3091 46.4721ZM127.997 81.7236C127.931 81.6021 127.886 81.5027 127.826 81.4144C126.335 79.051 124.833 76.6987 123.348 74.3298C119.825 68.7159 116.307 63.0965 112.795 57.4716C111.475 55.3622 110.139 53.2639 108.891 51.1104C107.59 48.907 106.833 46.4255 106.682 43.8713C106.537 40.9314 107.12 38.0011 108.378 35.3401C109.963 31.9369 112.566 29.1101 115.827 27.2505C118.343 25.7297 121.179 24.8148 124.109 24.578C125.69 24.45 127.28 24.4851 128.853 24.6829C131.015 24.9353 133.118 25.5573 135.07 26.5217C140.526 29.2384 145.363 35.8647 145.01 43.0872C144.937 45.6043 144.331 48.0773 143.232 50.3429C142.156 52.4542 140.725 54.365 139.002 55.9917C137.904 57.0984 136.547 57.9127 135.054 58.3606C133.397 58.83 131.962 58.5926 130.774 57.2839C130.123 56.6453 129.689 55.8188 129.532 54.9205C129.465 54.3493 129.54 53.7703 129.75 53.2349C129.96 52.6994 130.298 52.2238 130.736 51.8504C131.481 51.1436 132.276 50.481 133.082 49.8405C134.657 48.7228 135.778 47.0767 136.241 45.202C136.806 42.7697 136.456 40.2146 135.258 38.0236C134.198 35.9495 132.437 34.3181 130.288 33.4185C128.662 32.7744 126.908 32.5154 125.164 32.6619C123.904 32.6943 122.662 32.9659 121.503 33.4626C119.131 34.5227 117.24 36.4311 116.202 38.8132C115.667 39.9726 115.382 41.2321 115.367 42.509C115.352 43.786 115.606 45.0518 116.114 46.2236C116.903 48.0645 117.845 49.8358 118.93 51.519C122.059 56.5328 125.188 61.5467 128.317 66.5605C131.163 71.1252 134.001 75.6992 136.832 80.2824C136.849 80.3362 136.879 80.3854 136.918 80.4262C136.957 80.467 137.005 80.4985 137.058 80.5182C137.112 80.5378 137.168 80.5452 137.225 80.5397C137.281 80.5343 137.336 80.5162 137.384 80.4867C139.273 79.8628 141.167 79.2608 143.061 78.6479C143.8 78.4105 143.828 78.4822 143.348 77.792C142.818 77.1156 142.543 76.2751 142.569 75.4165C142.595 74.5579 142.921 73.7357 143.491 73.0929C143.994 72.539 144.574 72.061 145.214 71.6738C148.137 69.8948 150.822 67.7518 153.204 65.2961C155.67 62.7647 157.72 59.8592 159.278 56.6875C161.216 52.6074 162.249 48.1562 162.304 43.6394C162.352 41.3527 162.191 39.0663 161.824 36.8088C161.259 33.1574 160.052 29.6351 158.257 26.4056C156.328 23.0284 153.817 20.0187 150.841 17.5155C145.223 12.5929 138.231 9.50952 130.808 8.68055C127.553 8.3151 124.265 8.34472 121.017 8.76885C116.706 9.30907 112.53 10.6301 108.693 12.6673C101.514 16.4553 96.2296 22.1152 92.6349 29.3543C90.4536 33.7523 89.3968 38.6224 89.5592 43.5289C89.6152 45.349 89.8128 47.162 90.1501 48.9514C90.9512 53.1627 92.552 57.1814 94.8658 60.7902C98.2562 66.1206 101.665 71.4327 105.092 76.7263C105.248 76.9663 105.468 77.1577 105.727 77.2785C107.24 77.9301 108.77 78.5595 110.299 79.178C110.686 79.3381 111.095 79.4375 111.492 79.57C111.353 79.1638 111.167 78.7749 110.94 78.4105C108.363 74.2802 105.773 70.1497 103.171 66.0194C101.426 63.2585 99.6588 60.4534 97.9304 57.6538C94.8584 52.7052 93.4892 46.8876 94.032 41.0883C94.2646 38.066 94.9227 35.0917 95.9867 32.2533C97.4116 28.4333 99.6521 24.9699 102.552 22.1042C105.162 19.5339 108.165 17.3958 111.448 15.7705C116.268 13.3265 121.637 12.1683 127.036 12.4078C129.27 12.5134 131.488 12.8295 133.662 13.352C136.361 13.9487 138.969 14.8973 141.421 16.1736C144.864 18.0554 147.955 20.5219 150.554 23.4626C152.768 25.8482 154.572 28.5834 155.893 31.5575C158.24 36.9634 158.616 42.5682 157.511 48.3109C156.844 51.7399 155.506 55.0032 153.574 57.9133C152.053 60.2357 150.223 62.3404 148.135 64.1696C146.479 65.6108 144.822 66.9858 143.066 68.311C142.577 68.7017 142.01 68.984 141.404 69.1392C140.798 69.2943 140.165 69.3188 139.549 69.211C137.147 68.7914 135.219 66.0084 136.55 63.3745C137.085 62.407 137.912 61.6337 138.914 61.1658C140.716 60.2342 142.35 59.0059 143.745 57.5324C145.52 55.5743 146.922 53.308 147.881 50.8453C149.041 48.1479 149.664 45.25 149.714 42.3141C149.708 40.4002 149.423 38.4974 148.87 36.6653C147.923 33.3528 146.152 30.3343 143.723 27.8911C141.622 25.7729 139.176 24.027 136.49 22.7281C133.371 21.1837 129.93 20.4021 126.451 20.4477C125.07 20.4752 123.694 20.6025 122.331 20.8286C118.776 21.3745 115.377 22.6694 112.359 24.6276C108.775 26.9951 105.943 30.3385 104.198 34.2632C102.808 37.1633 102.152 40.3602 102.287 43.5731C102.45 47.0885 103.494 50.5064 105.324 53.5124C108.405 58.6257 111.564 63.6892 114.711 68.7803C117.233 72.9107 119.755 77.0448 122.276 81.1825C122.362 81.3591 122.497 81.5076 122.664 81.6112C122.831 81.7147 123.024 81.769 123.221 81.7677C124.772 81.7677 126.324 81.8009 127.875 81.8175L127.997 81.7236Z" fill="white"/>
</svg>
